<svg width="17" height="13" viewBox="0 0 17 13" fill="none" xmlns="http://www.w3.org/2000/svg">
<path d="M16.4998 10.4999C16.4998 10.8507 16.4011 11.1759 16.2431 11.462L11.1912 5.80966L16.1883 1.43765C16.3827 1.74614 16.4998 2.10851 16.4998 2.50009V10.4999ZM8.49978 6.83595L15.4531 0.751998C15.1677 0.595793 14.8464 0.5 14.4998 0.5H2.49974C2.15271 0.5 1.8313 0.595793 1.54712 0.751998L8.49978 6.83595ZM10.4383 6.46788L8.82881 7.87705C8.73466 7.95906 8.61743 8.00002 8.49978 8.00002C8.38206 8.00002 8.26483 7.95906 8.17068 7.87705L6.56083 6.46782L1.44506 12.1924C1.7517 12.3848 2.11106 12.5 2.49971 12.5H14.4998C14.8884 12.5 15.2479 12.3848 15.5545 12.1924L10.4383 6.46788ZM0.811307 1.43762C0.61695 1.74611 0.499756 2.10847 0.499756 2.50009V10.5C0.499756 10.8507 0.597957 11.1759 0.756601 11.462L5.80787 5.8087L0.811307 1.43762Z" fill="#929AA2"/>
</svg>
