<svg width="109" height="44" viewBox="0 0 109 44" fill="none" xmlns="http://www.w3.org/2000/svg">
<path d="M0 28.5C0 20.2157 6.71573 13.5 15 13.5C23.2843 13.5 30 20.2157 30 28.5C30 36.7843 23.2843 43.5 15 43.5C6.71573 43.5 0 36.7843 0 28.5Z" fill="#5245B0"/>
<circle cx="29" cy="14.5" r="2" fill="#FED84C"/>
<path d="M43.205 8.3H45.305V23H43.205V8.3ZM55.355 11.765C56.769 11.765 57.889 12.178 58.715 13.004C59.555 13.816 59.975 15.013 59.975 16.595V23H57.959V16.826C57.959 15.748 57.7 14.936 57.182 14.39C56.664 13.844 55.922 13.571 54.956 13.571C53.864 13.571 53.003 13.893 52.373 14.537C51.743 15.167 51.428 16.077 51.428 17.267V23H49.412V11.87H51.344V13.55C51.75 12.976 52.296 12.535 52.982 12.227C53.682 11.919 54.473 11.765 55.355 11.765ZM66.0999 10.127V15.251H73.4709V17.057H66.0999V23H63.9999V8.3H74.3739V10.127H66.0999ZM76.8309 11.87H78.8469V23H76.8309V11.87ZM77.8389 9.728C77.4469 9.728 77.1179 9.602 76.8519 9.35C76.5999 9.098 76.4739 8.79 76.4739 8.426C76.4739 8.062 76.5999 7.754 76.8519 7.502C77.1179 7.236 77.4469 7.103 77.8389 7.103C78.2309 7.103 78.5529 7.229 78.8049 7.481C79.0709 7.719 79.2039 8.02 79.2039 8.384C79.2039 8.762 79.0709 9.084 78.8049 9.35C78.5529 9.602 78.2309 9.728 77.8389 9.728ZM82.6962 7.418H84.7122V23H82.6962V7.418ZM102.484 11.765C103.884 11.765 104.99 12.171 105.802 12.983C106.628 13.795 107.041 14.999 107.041 16.595V23H105.025V16.826C105.025 15.748 104.773 14.936 104.269 14.39C103.779 13.844 103.072 13.571 102.148 13.571C101.126 13.571 100.314 13.893 99.7124 14.537C99.1104 15.167 98.8094 16.077 98.8094 17.267V23H96.7934V16.826C96.7934 15.748 96.5414 14.936 96.0374 14.39C95.5474 13.844 94.8404 13.571 93.9164 13.571C92.8944 13.571 92.0824 13.893 91.4804 14.537C90.8784 15.167 90.5774 16.077 90.5774 17.267V23H88.5614V11.87H90.4934V13.529C90.8994 12.955 91.4314 12.521 92.0894 12.227C92.7474 11.919 93.4964 11.765 94.3364 11.765C95.2044 11.765 95.9744 11.94 96.6464 12.29C97.3184 12.64 97.8364 13.151 98.2004 13.823C98.6204 13.179 99.2014 12.675 99.9434 12.311C100.699 11.947 101.546 11.765 102.484 11.765Z" fill="#2E363E"/>
<path d="M13.89 22.9H15.69V35.5H13.89V22.9Z" fill="white"/>
</svg>
