<svg width="315" height="276" viewBox="0 0 315 276" fill="none" xmlns="http://www.w3.org/2000/svg">
<g filter="url(#filter0_d)">
<path d="M290.501 25.5906V171.033H94.8708V20L290.501 25.5906Z" fill="#B1BDD6"/>
<path d="M241.327 144.054C239.324 140.692 239.043 135.832 237.907 132.081C236.77 128.33 235.463 124.566 234.034 120.888C231.407 113.754 228.097 106.889 224.15 100.388C224.136 100.35 224.114 100.315 224.084 100.286C224.055 100.258 224.02 100.236 223.981 100.222C223.942 100.208 223.901 100.203 223.86 100.207C223.819 100.211 223.78 100.224 223.744 100.245C223.709 100.265 223.678 100.294 223.655 100.328C223.632 100.361 223.616 100.4 223.61 100.44C223.603 100.481 223.605 100.522 223.616 100.562C223.627 100.601 223.647 100.638 223.674 100.669C227.852 109.414 232.116 117.976 235.231 127.185C236.624 131.265 237.833 135.394 238.896 139.572C239.385 141.496 239.202 143.396 241.01 144.298C241.051 144.322 241.099 144.332 241.147 144.326C241.194 144.321 241.239 144.3 241.274 144.267C241.308 144.234 241.331 144.19 241.338 144.143C241.346 144.096 241.338 144.047 241.315 144.005L241.327 144.054Z" fill="#5C5130"/>
<path d="M242.867 143.128C242.964 132.69 242.451 122.422 245.31 112.264C248.169 102.106 255.694 95.0778 259.873 85.5773C259.945 85.4514 259.965 85.3017 259.927 85.1612C259.89 85.0207 259.797 84.9009 259.671 84.8283C259.545 84.7556 259.394 84.7359 259.254 84.7736C259.113 84.8113 258.993 84.9033 258.92 85.0292C252.42 93.5553 246.116 102.349 243.441 112.824C240.993 122.786 240.491 133.124 241.963 143.274C242.036 143.786 242.842 143.652 242.842 143.165L242.867 143.128Z" fill="#5C5130"/>
<path d="M226.948 105.151C225.09 104.937 223.361 104.095 222.05 102.765C220.738 101.436 219.923 99.6985 219.74 97.8426C219.697 97.5896 219.736 97.3295 219.85 97.0996C220.119 96.6489 220.779 96.6611 221.279 96.7829C223.128 97.2821 224.738 98.4222 225.819 99.9982C226.901 101.574 227.383 103.483 227.18 105.382" fill="#5C5130"/>
<path d="M230.247 113.579C230.112 110.873 230.527 108.168 231.468 105.626C231.587 105.163 231.801 104.729 232.095 104.352C232.389 103.975 232.758 103.662 233.179 103.433C233.679 103.279 234.217 103.301 234.704 103.493C235.19 103.686 235.596 104.039 235.854 104.493C236.094 104.954 236.232 105.461 236.259 105.98C236.286 106.499 236.203 107.018 236.013 107.501C235.616 108.462 235.063 109.351 234.376 110.132C233.26 111.523 232.06 112.845 230.784 114.091" fill="#5C5130"/>
<path d="M231.407 112.885C229.348 110.93 226.827 109.526 224.077 108.805C223.405 108.599 222.698 108.537 222 108.622C221.65 108.669 221.318 108.805 221.038 109.019C220.757 109.233 220.537 109.516 220.4 109.84C220.285 110.265 220.306 110.715 220.459 111.127C220.612 111.54 220.89 111.894 221.255 112.142C221.992 112.612 222.828 112.904 223.698 112.995C226.052 113.412 228.444 113.575 230.833 113.482" fill="#5C5130"/>
<path d="M234.278 122.799C232.632 120.801 230.313 119.468 227.754 119.048C226.533 118.853 224.895 119.145 224.614 120.363C224.568 120.707 224.615 121.057 224.751 121.376C224.886 121.695 225.105 121.972 225.384 122.178C225.954 122.578 226.591 122.871 227.266 123.043C229.551 123.835 231.885 124.478 234.254 124.968L235.268 125.759L234.278 122.799Z" fill="#5C5130"/>
<path d="M235.353 124.639C235.082 122.75 235.182 120.826 235.646 118.975C235.893 118.055 236.365 117.211 237.019 116.518C237.674 115.825 238.491 115.305 239.397 115.004C239.519 114.956 239.654 114.956 239.776 115.004C239.844 115.046 239.902 115.103 239.944 115.17C239.987 115.238 240.013 115.315 240.02 115.394C240.397 117.052 240.213 118.787 239.497 120.329C238.781 121.871 237.573 123.134 236.062 123.92" fill="#5C5130"/>
<path d="M238.725 134.492C240.871 133.75 242.712 132.325 243.966 130.436C244.479 129.657 244.87 128.536 244.259 127.818C244.019 127.574 243.71 127.411 243.373 127.35C243.036 127.289 242.689 127.333 242.378 127.477C241.756 127.757 241.205 128.173 240.765 128.695C239.763 129.644 238.936 130.761 238.322 131.995C238.02 132.61 237.863 133.285 237.863 133.969C237.863 134.653 238.02 135.328 238.322 135.942C237.354 133.71 235.863 131.742 233.973 130.205C233.032 129.461 231.948 128.917 230.788 128.607C229.628 128.297 228.417 128.227 227.229 128.402C227.007 128.435 226.795 128.514 226.606 128.634C226.068 129.036 226.191 129.852 226.508 130.473C227.51 132.349 229.685 133.213 231.676 133.944L236.233 135.625H236.465C236.54 135.649 236.622 135.649 236.697 135.625C236.844 135.564 236.697 135.101 236.697 135.26C236.697 135.625 238.371 136.478 238.444 136.721" fill="#5C5130"/>
<path d="M243.71 115.467C241.768 112.399 240.909 108.773 241.266 105.163C241.266 104.615 241.486 103.945 241.999 103.799C242.732 103.567 243.294 104.444 243.514 105.175C244.175 107.316 244.48 109.55 244.418 111.789C245.203 110.535 246.305 109.51 247.613 108.815C248.921 108.121 250.389 107.781 251.871 107.83C252.131 107.814 252.391 107.855 252.634 107.95C252.876 108.045 253.095 108.191 253.276 108.378C253.429 108.691 253.485 109.042 253.437 109.387C253.389 109.732 253.239 110.055 253.007 110.315C251.979 111.723 250.548 112.789 248.902 113.372C247.27 113.947 245.583 114.355 243.868 114.59" fill="#5C5130"/>
<path d="M246.556 104.627C244.865 101.914 243.918 98.806 243.807 95.6137C243.762 95.1862 243.866 94.7562 244.101 94.3957C244.301 94.1788 244.574 94.0419 244.869 94.0106C245.163 93.9792 245.459 94.0555 245.701 94.2252C246.187 94.5657 246.544 95.0589 246.715 95.6259C247.546 97.8549 247.008 100.4 247.79 102.654C249.745 100.425 252.103 98.0741 255.12 97.9888C255.737 97.9386 256.351 98.1069 256.855 98.4639C257.108 98.6434 257.282 98.9119 257.343 99.215C257.405 99.518 257.348 99.833 257.185 100.096C257.029 100.292 256.833 100.454 256.611 100.571C253.888 102.256 250.909 103.49 247.79 104.225" fill="#5C5130"/>
<path d="M252.384 94.9682C251.589 92.0554 251.493 88.997 252.103 86.0402C252.225 85.4312 252.591 84.6883 253.202 84.8222C253.593 84.8222 253.837 85.2485 253.996 85.5896C255.12 88.0256 254.485 90.9244 253.825 93.5431C254.641 92.4909 255.711 91.6619 256.935 91.1337C258.159 90.6054 259.498 90.3951 260.825 90.5225C261.187 90.5433 261.538 90.6476 261.852 90.827C262.027 90.9899 262.166 91.187 262.262 91.406C262.357 91.6249 262.406 91.8611 262.406 92.0998C262.406 92.3385 262.357 92.5747 262.262 92.7936C262.166 93.0126 262.027 93.2097 261.852 93.3726C261.091 93.9921 260.165 94.3773 259.188 94.481L253.08 95.699" fill="#5C5130"/>
<path d="M257.002 88.0864C257.374 86.5516 257.949 85.073 258.712 83.6894C259.502 82.2811 260.82 81.2429 262.377 80.8027C262.612 80.7305 262.863 80.7305 263.098 80.8027C263.269 80.8881 263.412 81.0188 263.513 81.1803C263.856 81.766 264.028 82.4349 264.01 83.1125C263.993 83.7901 263.787 84.4495 263.416 85.017C262.648 86.1397 261.638 87.0762 260.459 87.7575C259.834 88.2227 259.125 88.5619 258.37 88.7563" fill="#5C5130"/>
<g filter="url(#filter1_d)">
<path d="M230.784 140.473H251.553V183.31H230.576L230.784 140.473Z" fill="#F2F6FA"/>
</g>
<path d="M59.6127 75.8943C56.2366 77.6398 53.1234 79.8498 50.3644 82.4593C47.4832 85.0138 44.7962 87.7782 42.3257 90.7296C41.837 91.302 42.6922 92.1303 43.1442 91.5456C45.5103 88.5836 48.135 85.8364 50.9875 83.3363C53.8218 80.8028 56.986 78.7322 59.9059 76.3206C60.1258 76.1379 59.8448 75.8456 59.6127 75.943V75.8943Z" fill="#706454"/>
<path d="M44.7693 83.0319C44.354 93.6651 44.9037 104.371 45.0748 115.004C45.3517 131.975 45.6652 148.942 46.0155 165.905L46.2354 177.5C46.2354 177.678 46.3062 177.848 46.4322 177.974C46.5582 178.1 46.7291 178.17 46.9073 178.17C47.0855 178.17 47.2564 178.1 47.3824 177.974C47.5084 177.848 47.5792 177.678 47.5792 177.5C47.3756 166.847 47.172 156.189 46.9684 145.528C46.6385 128.561 46.3942 111.594 45.9299 94.6273C45.8322 90.754 45.7833 86.8808 45.4901 83.0319C45.4746 82.9479 45.43 82.872 45.3642 82.8174C45.2983 82.7628 45.2154 82.7329 45.1297 82.7329C45.0441 82.7329 44.9612 82.7628 44.8953 82.8174C44.8295 82.872 44.7849 82.9479 44.7693 83.0319Z" fill="#706454"/>
<path d="M68.2746 181.641C67.3828 181.447 66.4665 181.422 65.5747 181.203C64.664 180.963 63.7668 180.674 62.887 180.338C61.0218 179.697 59.1323 179.116 57.2183 178.596C55.3736 178.097 53.5532 177.671 51.6474 177.305C50.7067 177.11 49.766 176.952 48.8253 176.794C48.0058 176.546 47.1391 176.496 46.2964 176.648C46.2069 176.674 46.127 176.726 46.0662 176.797C46.0054 176.868 45.9662 176.955 45.9534 177.047C45.9405 177.139 45.9545 177.233 45.9936 177.318C46.0328 177.403 46.0954 177.474 46.1742 177.525C47.0907 177.93 48.0792 178.15 49.0818 178.17C50.0225 178.316 50.9632 178.487 51.9039 178.669C53.8464 179.047 55.7767 179.486 57.6826 179.985C59.5884 180.484 61.4698 181.069 63.3634 181.654C64.8661 182.129 66.7964 182.786 68.3235 182.068C68.3655 182.05 68.4014 182.02 68.4266 181.982C68.4518 181.944 68.4652 181.9 68.4652 181.855C68.4652 181.809 68.4518 181.765 68.4266 181.727C68.4014 181.689 68.3655 181.659 68.3235 181.641H68.2746Z" fill="#706454"/>
<path d="M47.9579 175.527C47.582 175.615 47.2257 175.772 46.9073 175.99L46.0399 176.66C45.3557 177.208 44.6838 177.768 44.0119 178.34C42.6436 179.558 41.3242 180.716 40.0169 181.994C38.7097 183.273 37.5003 184.43 36.3519 185.648C35.2035 186.866 33.7985 188.206 32.6868 189.595L33.9085 190.106C33.9037 189.734 33.8027 189.369 33.6153 189.047C33.5855 188.999 33.5454 188.958 33.4976 188.927C33.4499 188.896 33.3959 188.877 33.3397 188.87C33.2834 188.863 33.2262 188.869 33.1724 188.886C33.1186 188.904 33.0696 188.934 33.0289 188.974C32.7711 189.233 32.5895 189.557 32.5035 189.911C32.4558 190.067 32.4627 190.235 32.5231 190.387C32.5836 190.538 32.6939 190.665 32.836 190.745C32.9781 190.826 33.1436 190.856 33.3052 190.831C33.4668 190.806 33.6149 190.726 33.7252 190.606C34.9469 189.388 36.0831 188.024 37.2926 186.769C38.502 185.514 39.736 184.248 40.9576 183.03C42.1793 181.812 43.401 180.667 44.6227 179.51L46.5408 177.719L47.5548 176.781C47.8306 176.505 48.0505 176.178 48.2023 175.819C48.2878 175.673 48.2023 175.478 47.9946 175.539L47.9579 175.527Z" fill="#706454"/>
<path d="M47.7379 176.44C45.7396 176.166 43.7132 176.166 41.7149 176.44C39.7358 176.562 37.7566 176.696 35.7897 176.891C33.8228 177.086 31.8559 177.305 29.8889 177.561L26.9691 177.963C26.0099 178.011 25.0723 178.264 24.2203 178.706C24.144 178.754 24.0832 178.823 24.0449 178.905C24.0066 178.987 23.9924 179.078 24.0039 179.167C24.0154 179.256 24.0522 179.341 24.11 179.41C24.1678 179.479 24.2442 179.531 24.3302 179.558C25.9673 179.985 27.9953 179.29 29.6324 179.059C31.7581 178.755 33.8839 178.499 36.0218 178.267C38.1598 178.036 39.9679 177.853 41.947 177.683C43.8954 177.683 45.8376 177.466 47.7379 177.037C47.8013 177.019 47.857 176.98 47.8967 176.928C47.9363 176.875 47.9578 176.811 47.9578 176.745C47.9578 176.679 47.9363 176.615 47.8967 176.562C47.857 176.509 47.8013 176.471 47.7379 176.453V176.44Z" fill="#706454"/>
<path d="M61.3474 80.8149C59.5133 93.1033 54.0723 104.576 45.7097 113.786C45.1477 114.383 46.064 115.309 46.626 114.688C55.1826 105.328 60.5234 93.4925 61.8727 80.9002C61.8727 80.6322 61.4451 80.5713 61.3963 80.9002L61.3474 80.8149Z" fill="#706454"/>
<path d="M88.1026 90.8025L112.414 69.865L104.681 39.0129L67.1017 26.8938L42.79 44.5183L49.4238 76.4788L88.1026 90.8025Z" fill="white"/>
<path d="M49.7904 76.9784C56.1432 79.6093 62.606 81.9966 68.9588 84.664C72.1107 85.9916 75.2505 87.3436 78.4025 88.6956L83.0205 90.6444C84.4699 91.3966 85.9774 92.032 87.5285 92.5445C87.6905 92.6091 87.8716 92.6069 88.032 92.5384C88.1924 92.4698 88.3189 92.3406 88.3837 92.1791C88.4485 92.0176 88.4463 91.837 88.3776 91.6771C88.3088 91.5172 88.1792 91.3911 88.0172 91.3265C86.6886 90.5779 85.2991 89.9423 83.8634 89.4264L78.9767 87.3801C75.788 86.0647 72.575 84.8102 69.3619 83.5556C62.9481 81.1196 56.5342 78.44 50.0103 76.2476C49.5705 76.1014 49.4117 76.7592 49.8271 76.9297L49.7904 76.9784Z" fill="#706454"/>
<path d="M87.9681 92.2155C89.0533 91.6688 90.0634 90.9852 90.9735 90.1814C92.073 89.3288 93.1481 88.4519 94.2354 87.5749C96.3286 85.8616 98.3933 84.1117 100.429 82.3253C104.502 78.7931 108.525 75.1756 112.5 71.4729C113.196 70.8152 112.145 69.7677 111.437 70.4254C107.479 74.12 103.455 77.7334 99.3665 81.2656C97.3752 82.983 95.3594 84.6761 93.3558 86.3691L90.1672 89.0609C89.1543 89.8232 88.2393 90.7068 87.4428 91.6918C87.1985 92.045 87.6627 92.3495 87.9681 92.2155Z" fill="#706454"/>
<path d="M104.632 39.488C104.768 40.5427 105.043 41.5747 105.451 42.5574C105.833 43.8566 106.2 45.1599 106.55 46.4672C107.283 49.1143 107.955 51.7777 108.566 54.4573C109.189 57.1369 109.788 59.8287 110.252 62.5327C110.496 63.8846 110.74 65.2366 110.96 66.5886C111.015 67.8124 111.301 69.0149 111.803 70.133C111.856 70.2107 111.929 70.2722 112.014 70.3105C112.1 70.3488 112.194 70.3624 112.287 70.3497C112.38 70.337 112.468 70.2986 112.54 70.2387C112.612 70.1789 112.666 70.1 112.695 70.0112C112.841 68.7352 112.729 67.4431 112.365 66.211C112.121 64.8631 111.864 63.5111 111.596 62.1551C111.042 59.3699 110.431 56.5929 109.763 53.8239C109.095 51.055 108.37 48.3064 107.589 45.578C107.075 43.7998 106.611 40.3772 104.901 39.354C104.877 39.3309 104.847 39.3157 104.814 39.3105C104.782 39.3054 104.748 39.3105 104.718 39.3253C104.689 39.3401 104.665 39.3637 104.649 39.3929C104.634 39.422 104.628 39.4553 104.632 39.488Z" fill="#706454"/>
<path d="M42.1182 44.6524C42.4484 47.3092 43.0043 49.9332 43.7797 52.4963C44.3783 55.0663 45.0014 57.6363 45.5511 60.2063C46.1009 62.7763 46.6995 65.3584 47.2737 67.9284C47.8479 70.4984 48.361 73.5434 49.1918 76.2352C49.2355 76.3967 49.3418 76.5343 49.4873 76.6177C49.6328 76.7011 49.8055 76.7234 49.9675 76.6798C50.1295 76.6362 50.2675 76.5302 50.3512 76.3852C50.4348 76.2401 50.4572 76.0679 50.4135 75.9064C49.9737 73.1293 49.1918 70.3523 48.4832 67.6117C47.7746 64.8712 47.2615 62.4839 46.6384 59.9261C46.0154 57.3683 45.4167 54.7862 44.8425 52.2162C44.4122 49.5783 43.7541 46.9824 42.8756 44.4575C42.729 44.1043 42.1548 44.287 42.167 44.6524H42.1182Z" fill="#706454"/>
<path d="M42.6068 45.225C44.8498 44.2085 46.9723 42.9462 48.9351 41.4614C51.0242 39.9998 53.0278 38.4286 55.0436 36.8452C59.117 33.4365 63.4418 30.3381 67.9813 27.5761C68.1036 27.4875 68.1886 27.3567 68.2198 27.2092C68.251 27.0617 68.2261 26.9079 68.1501 26.7775C68.0741 26.6472 67.9523 26.5496 67.8083 26.5036C67.6643 26.4576 67.5083 26.4666 67.3705 26.5287C63.0356 29.1466 58.9102 32.0948 55.0314 35.347C53.0034 36.9548 50.9631 38.5625 48.9229 40.0972C46.8827 41.6319 44.5004 42.9595 42.3258 44.4577C41.9715 44.7135 42.1792 45.4077 42.6556 45.225H42.6068Z" fill="#706454"/>
<path d="M67.8958 26.845C68.6533 27.9169 70.1559 28.2701 71.3288 28.7695C72.8314 29.4028 74.3586 29.9875 75.8735 30.6208C79.0743 31.8388 82.3118 33.0568 85.5615 34.2748C88.8112 35.4929 91.8899 36.4551 95.0785 37.466C96.7644 38.0019 98.4503 38.5257 100.148 39.0372C101.651 39.6746 103.257 40.0337 104.889 40.0969C104.987 40.0931 105.083 40.058 105.16 39.9966C105.237 39.9352 105.293 39.8508 105.319 39.7556C105.345 39.6605 105.34 39.5596 105.304 39.4676C105.268 39.3756 105.204 39.2974 105.121 39.2443C103.8 38.4669 102.353 37.9269 100.845 37.6487C99.2444 37.1615 97.644 36.6621 96.0558 36.1506C92.798 35.0869 89.5401 33.9866 86.2823 32.8498C83.1303 31.7414 79.9906 30.5843 76.863 29.415L72.1473 27.588C70.9256 27.1008 69.4474 26.2117 68.0668 26.4553C68.0268 26.4651 67.9895 26.484 67.958 26.5105C67.9264 26.537 67.9014 26.5704 67.8848 26.6081C67.8683 26.6457 67.8607 26.6867 67.8626 26.7278C67.8645 26.7689 67.8759 26.809 67.8958 26.845Z" fill="#706454"/>
<path d="M43.181 84.8953H43.2543L43.0099 84.6517C43.0454 84.7738 43.1127 84.8844 43.2049 84.9721C43.2972 85.0599 43.4112 85.1216 43.5353 85.1511C43.666 85.2028 43.8009 85.2435 43.9384 85.2729C44.2805 85.2729 44.6348 85.3581 44.9891 85.3947C45.6032 85.4373 46.2197 85.4373 46.8338 85.3947C47.0444 85.3947 47.2464 85.3113 47.3953 85.1628C47.5443 85.0143 47.6279 84.813 47.6279 84.603C47.6279 84.393 47.5443 84.1916 47.3953 84.0432C47.2464 83.8947 47.0444 83.8113 46.8338 83.8113C46.2352 83.8113 45.6121 83.8113 45.0257 83.8965H44.1095H43.9018H43.7063H43.4253C43.3446 83.923 43.2704 83.9658 43.2073 84.0225C43.1442 84.0791 43.0936 84.1482 43.0588 84.2254L43.3642 84.0549H43.2909C42.9122 84.0549 42.8022 84.6639 43.1932 84.7248L43.181 84.8953Z" fill="#706454"/>
<path d="M45.49 176.599V176.477L45.38 176.611C46.0275 176.282 45.9054 175.32 45.9298 174.711C45.9542 174.102 45.9298 173.262 45.9298 172.543V171.495C45.9298 171.361 45.9298 171.154 45.9298 171.045C45.9298 170.935 45.9298 171.045 45.9298 170.972C46.1986 170.643 46.8949 170.874 47.2859 170.972L46.6873 170.192C46.6873 171.325 46.7972 172.445 46.8583 173.578C46.8583 174.138 46.9194 174.711 46.956 175.271C46.8958 175.891 47.01 176.515 47.2859 177.074L47.1881 176.708C47.2111 176.885 47.2975 177.046 47.4313 177.163C47.565 177.281 47.737 177.345 47.9151 177.345C48.0931 177.345 48.2651 177.281 48.3988 177.163C48.5326 177.046 48.619 176.885 48.642 176.708L48.5442 177.074C48.7206 176.763 48.7934 176.405 48.7519 176.051V175.271C48.7519 174.711 48.6664 174.138 48.6175 173.578C48.532 172.445 48.4587 171.313 48.361 170.192C48.3557 170.016 48.2951 169.846 48.1877 169.706C48.0803 169.566 47.9315 169.464 47.7623 169.413C47.3649 169.274 46.9432 169.217 46.523 169.246C46.1028 169.276 45.6931 169.39 45.319 169.583C45.0027 169.778 44.7517 170.062 44.5982 170.399C44.4658 170.791 44.4241 171.207 44.476 171.617C44.476 172.47 44.476 173.322 44.476 174.175C44.476 174.601 44.476 175.052 44.476 175.478C44.476 175.905 44.5493 176.38 45.0013 176.599L44.8914 176.465V176.587C44.9058 176.627 44.9323 176.662 44.9673 176.686C45.0023 176.711 45.0441 176.724 45.0868 176.724C45.1296 176.724 45.1713 176.711 45.2063 176.686C45.2413 176.662 45.2678 176.627 45.2823 176.587L45.49 176.599Z" fill="#706454"/>
<path d="M47.0537 176.319C47.0537 175.673 47.0537 175.015 47.0537 174.37L46.9804 172.409C46.9788 172.26 46.9237 172.116 46.8251 172.005C46.7264 171.893 46.5908 171.82 46.4428 171.8C46.2947 171.776 46.1431 171.808 46.0169 171.889C45.8907 171.97 45.7988 172.094 45.7587 172.238C45.5474 173.341 45.4817 174.468 45.5632 175.588C45.5505 175.679 45.5576 175.772 45.584 175.861C45.6105 175.949 45.6556 176.031 45.7164 176.1C45.7771 176.17 45.8522 176.226 45.9364 176.264C46.0206 176.302 46.1121 176.322 46.2046 176.322C46.2971 176.322 46.3886 176.302 46.4728 176.264C46.557 176.226 46.632 176.17 46.6928 176.1C46.7536 176.031 46.7987 175.949 46.8251 175.861C46.8515 175.772 46.8587 175.679 46.846 175.588V174.37C46.846 173.919 46.9315 173.347 46.6016 173.006C46.4927 172.903 46.3484 172.845 46.1985 172.845C46.0485 172.845 45.9042 172.903 45.7953 173.006C45.4655 173.359 45.551 173.919 45.551 174.37V175.588H46.8338C46.7596 174.58 46.7964 173.567 46.9437 172.567L45.722 172.409C45.8197 173.749 45.8442 175.125 46.0641 176.453C46.1006 176.567 46.1765 176.665 46.2784 176.73C46.3803 176.794 46.5018 176.821 46.6214 176.805C46.741 176.789 46.8512 176.731 46.9325 176.642C47.0138 176.553 47.061 176.439 47.0659 176.319H47.0537Z" fill="#706454"/>
<path d="M186.388 68.1477C185.984 67.1941 185.967 66.1216 186.341 65.1561C186.715 64.1905 187.45 63.4072 188.391 62.9711C189.232 62.6818 190.116 62.5377 191.006 62.5448L195.208 62.3378C196.419 62.186 197.648 62.3153 198.8 62.7154C199.705 63.1431 200.422 63.8848 200.818 64.8017C201.214 65.7187 201.261 66.748 200.95 67.697C200.889 67.8797 200.767 68.0868 200.572 68.0868C200.376 68.0868 200.34 67.7092 200.572 67.7457" fill="#3F2222"/>
<path d="M180.487 155.905L181.306 182.092H185.789L191.079 156.1L180.487 155.905Z" fill="#FFC58B"/>
<path d="M209.197 155.905L208.39 182.092H203.907L198.617 156.1L209.197 155.905Z" fill="#FFC58B"/>
<path d="M203.699 185.027L202.685 180.155L209.099 180.46L209.001 183.407C209.001 183.407 212.153 183.614 212.459 184.223C212.764 184.832 212.556 185.137 212.556 185.137L203.699 185.027Z" fill="#351A1A"/>
<path d="M185.96 185.027L186.974 180.155L180.56 180.46L180.658 183.407C180.658 183.407 177.506 183.614 177.201 184.223C176.895 184.832 177.103 185.137 177.103 185.137L185.96 185.027Z" fill="#351A1A"/>
<path d="M221.621 168.889C219.773 169.511 217.893 170.036 215.989 170.46L213.925 170.898C211.161 171.443 208.372 171.85 205.568 172.116L203.992 172.275C200.633 172.557 197.259 172.639 193.889 172.518H192.667H192.227C191.071 172.462 189.959 172.376 188.892 172.263L187.426 172.092C184.932 171.804 182.462 171.336 180.035 170.691L178.728 170.326C177.506 169.948 176.407 169.559 175.466 169.108C175.026 168.937 174.623 168.755 174.244 168.584C172.809 167.969 171.471 167.149 170.274 166.148C170.274 166.148 174.757 137.525 176.174 123.311C177.592 109.097 184.067 105.236 184.067 105.236C184.067 105.236 195.318 93.677 205.654 107.221C215.989 120.765 221.621 168.889 221.621 168.889Z" fill="#6051D3"/>
<path d="M216.576 179.68C216.555 179.634 216.544 179.585 216.544 179.534C216.544 179.484 216.555 179.434 216.576 179.388C216.558 179.485 216.558 179.584 216.576 179.68Z" fill="#6B3020"/>
<path d="M179.473 88.9146C180.084 89.3166 183.749 105.151 183.749 105.151C187.146 105.97 190.642 106.31 194.133 106.162C198.813 105.76 203.296 105.151 203.296 105.151L206.961 88.3056L204.31 82.6175L183.138 82.0085L179.473 88.9146Z" fill="#FFC58B"/>
<path d="M195.355 75.0661C192.431 75.3137 189.486 75.1497 186.608 74.5789C185.199 74.3252 183.873 73.7314 182.747 72.8494C182.203 72.4257 181.787 71.86 181.545 71.2151C181.304 70.5701 181.246 69.871 181.379 69.1954C181.904 67.1126 184.482 66.1869 186.73 65.6753C189.679 64.9243 192.716 64.576 195.758 64.64C198.789 64.705 201.729 65.6862 204.188 67.4536C204.571 67.6854 204.894 68.0033 205.132 68.3819C205.369 68.7605 205.515 69.1892 205.556 69.6338C205.499 70.2139 205.234 70.7541 204.811 71.1563C203.216 72.569 201.249 73.4986 199.142 73.836C197.151 74.3353 195.16 74.7738 193.144 75.1636" fill="#351A1A"/>
<path d="M196.259 75.5652C197.638 74.6519 198.905 73.5809 200.034 72.374C200.034 72.2888 199.973 72.2157 199.949 72.1304C199.683 70.487 199.236 68.8776 198.617 67.3315C197.992 66.8259 197.274 66.4483 196.502 66.2205C195.731 65.9927 194.921 65.919 194.121 66.0039C191.983 66.0039 189.625 66.3327 188.379 68.0867C188.292 68.7287 188.243 69.3754 188.233 70.0233C188.085 70.9862 187.621 71.873 186.913 72.5446C189.711 74.6273 193.01 77.4409 196.259 75.5652Z" fill="#6B3020"/>
<path d="M185.398 80.3887C185.398 80.3887 191.446 77.6969 200.364 79.9502C209.319 83.4824 187.084 85.1633 187.084 85.1633L185.398 80.3887Z" fill="#FFC58B"/>
<path d="M195.599 83.5188H191.372L191.104 80.4738L191.03 78.2448L191.165 75.6992L195.257 76.1377V78.7929C195.343 79.4872 195.416 80.1693 195.502 80.8514L195.599 83.5188Z" fill="#FFC58B"/>
<path d="M193.718 70.4012C192.215 70.4012 190.7 70.4012 189.21 70.3037C189.109 72.1884 189.662 74.0503 190.774 75.5777C191.281 76.2387 192.009 76.6967 192.826 76.8688C196.784 77.3681 197.175 73.0199 197.09 70.5473C195.966 70.5595 194.781 70.4133 193.718 70.4012Z" fill="#FFC58B"/>
<path d="M190.578 70.9612L190.664 71.083C190.664 71.083 190.615 71.0343 190.578 70.9612Z" fill="#FFA879"/>
<path d="M195.233 76.418V78.0866C194.63 78.0712 194.039 77.9143 193.509 77.6286C192.978 77.3429 192.522 76.9365 192.179 76.4423C192.594 76.7468 193.425 77.0392 195.233 76.418Z" fill="#FFA879"/>
<path d="M193.058 74.0672C193.083 73.0703 193.21 72.0785 193.437 71.1074C193.727 72.0509 193.94 73.0163 194.072 73.9941C194.072 73.9941 193.376 74.5544 193.058 74.0672Z" fill="#FFA879"/>
<path d="M221.341 51.5462C221.112 51.2389 220.825 50.9784 220.498 50.7789C220.173 50.5804 219.887 50.3245 219.655 50.0237C219.538 49.8724 219.468 49.6907 219.453 49.5004C219.437 49.3102 219.478 49.1196 219.569 48.9519C219.848 49.2491 220.169 49.5036 220.522 49.707C220.669 49.7923 220.901 49.841 220.986 49.707C221.016 49.6286 221.016 49.5419 220.986 49.4634C220.863 48.8935 220.781 48.3155 220.742 47.7339C220.707 47.5349 220.737 47.3301 220.827 47.1492C220.85 47.106 220.881 47.068 220.92 47.0379C220.958 47.0079 221.003 46.9863 221.05 46.9748C221.098 46.9632 221.147 46.962 221.195 46.971C221.243 46.9801 221.288 46.9993 221.328 47.0274C221.404 47.1121 221.452 47.2188 221.463 47.3319C221.524 47.7095 221.585 48.0993 221.658 48.489C221.662 48.545 221.677 48.5996 221.702 48.6497C221.727 48.6999 221.762 48.7446 221.805 48.7813C221.867 48.8047 221.936 48.8053 221.998 48.783C222.061 48.7606 222.114 48.7169 222.147 48.6595C222.207 48.5385 222.236 48.4047 222.232 48.2698L222.306 46.0286C222.418 45.9437 222.556 45.8977 222.697 45.8977C222.838 45.8977 222.975 45.9437 223.088 46.0286C223.124 46.0575 223.151 46.095 223.168 46.1377C223.186 46.1804 223.191 46.2267 223.185 46.2722C223.052 47.1671 223.015 48.0736 223.075 48.9762C223.452 48.3617 223.74 47.6975 223.931 47.0031C224.004 46.7595 224.138 46.4549 224.395 46.4549C224.488 46.4674 224.574 46.51 224.64 46.576C224.706 46.642 224.749 46.7278 224.761 46.8204C224.77 47.0041 224.736 47.1873 224.664 47.3563L223.967 49.4634C224.265 49.2769 224.499 49.0052 224.639 48.6839C224.725 48.4647 224.859 48.1723 225.091 48.2211C225.157 48.24 225.214 48.2803 225.254 48.3355C225.294 48.3907 225.314 48.4576 225.311 48.5256C225.297 48.6569 225.26 48.7848 225.201 48.9031C224.479 50.4344 223.633 51.9049 222.672 53.3001" fill="#FFC58B"/>
<path d="M209.93 73.2148C218.922 65.249 220.925 51.1811 220.925 51.1811L224.102 50.5964C224.963 55.3118 225.189 60.1208 224.774 64.8958C224.041 72.2769 217.956 81.2049 217.956 81.2049C215.261 78.5496 212.573 75.8984 209.893 73.2513L209.93 73.2148Z" fill="#FFC58B"/>
<path d="M167.024 51.5462C167.253 51.2389 167.539 50.9784 167.867 50.7789C168.192 50.5804 168.477 50.3245 168.71 50.0237C168.827 49.8724 168.897 49.6907 168.912 49.5004C168.927 49.3102 168.887 49.1196 168.795 48.9519C168.517 49.2491 168.196 49.5036 167.843 49.707C167.696 49.7923 167.476 49.841 167.378 49.707C167.348 49.6286 167.348 49.5419 167.378 49.4634C167.502 48.8935 167.583 48.3155 167.623 47.7339C167.657 47.5349 167.627 47.3301 167.537 47.1492C167.515 47.106 167.483 47.068 167.445 47.0379C167.406 47.0079 167.362 46.9863 167.314 46.9748C167.267 46.9632 167.218 46.962 167.17 46.971C167.122 46.9801 167.076 46.9993 167.036 47.0274C166.959 47.11 166.915 47.2187 166.914 47.3319C166.841 47.7095 166.78 48.0993 166.706 48.489C166.702 48.545 166.687 48.5996 166.662 48.6497C166.637 48.6999 166.602 48.7446 166.56 48.7813C166.498 48.8047 166.429 48.8053 166.366 48.783C166.304 48.7606 166.251 48.7169 166.218 48.6595C166.158 48.5385 166.128 48.4047 166.132 48.2698L166.059 46.0286C165.946 45.9437 165.809 45.8977 165.668 45.8977C165.527 45.8977 165.389 45.9437 165.277 46.0286C165.241 46.0575 165.213 46.095 165.196 46.1377C165.179 46.1804 165.173 46.2267 165.179 46.2722C165.313 47.1671 165.349 48.0736 165.289 48.9762C164.913 48.3617 164.625 47.6975 164.434 47.0031C164.361 46.7595 164.226 46.4549 163.97 46.4549C163.878 46.4658 163.792 46.5082 163.727 46.5747C163.663 46.6413 163.623 46.7281 163.615 46.8204C163.595 47.0034 163.625 47.1886 163.701 47.3563L164.397 49.4634C164.1 49.2769 163.866 49.0052 163.725 48.6839C163.64 48.4647 163.506 48.1723 163.273 48.2211C163.209 48.2418 163.153 48.2826 163.113 48.3373C163.074 48.3921 163.053 48.4581 163.053 48.5256C163.067 48.6569 163.105 48.7848 163.163 48.9031C163.897 50.4143 164.751 51.8643 165.717 53.2392" fill="#FFC58B"/>
<path d="M178.435 73.2148C169.455 65.249 167.439 51.1811 167.439 51.1811L164.263 50.5964C163.401 55.3118 163.175 60.1208 163.591 64.8958C164.324 72.2769 170.408 81.2049 170.408 81.2049C173.104 78.5496 175.792 75.8984 178.471 73.2513L178.435 73.2148Z" fill="#FFC58B"/>
<path d="M198.935 80.5469C204.625 76.8846 209.53 72.1317 213.363 66.5642L222.452 73.8722C221.468 78.4852 219.173 82.7182 215.841 86.0659C212.51 89.4136 208.282 91.7345 203.663 92.7513" fill="#120877"/>
<path d="M187.255 80.5469C181.556 76.8871 176.643 72.1341 172.803 66.5642L163.713 73.8722C164.697 78.4852 166.992 82.7182 170.324 86.0659C173.656 89.4136 177.884 91.7345 182.503 92.7513" fill="#120877"/>
<path d="M184.897 79.804L189.931 78.9636C189.931 78.9636 188.562 78.8174 188.868 78.2815C189.173 77.7456 190.933 78.2815 192.301 78.2815C193.669 78.2815 196.271 77.2949 196.65 77.7456C197.029 78.1962 196.955 78.8174 196.736 78.8174C196.516 78.8174 202.539 79.7309 202.539 79.7309L207.34 91.8623L209.331 99.0241C206.542 99.0448 203.759 99.2974 201.011 99.7793C197.188 100.547 193.877 101.74 190.542 101.838C187.206 101.935 180.621 99.4748 180.621 99.4748C180.621 99.4748 178.557 98.7196 178.325 98.5613C178.093 98.4029 181.073 88.5127 181.073 88.5127L184.897 79.804Z" fill="#120877"/>
<path d="M183.749 105.151L183.04 102.41C186.589 102.829 190.157 103.065 193.73 103.117C197.285 103.019 203.907 102.203 203.907 102.203V105.455C203.907 105.455 190.981 108.805 183.749 105.455" fill="#0A0355"/>
<path d="M119.207 119.499L138.839 97.1972C138.326 93.0438 138.766 90.4251 139.89 88.9026C139.89 88.9026 144.985 93.0438 143.164 93.6893C141.344 94.3349 143.164 96.844 142.346 97.4286C141.527 98.0133 132.279 116.576 132.279 116.576L119.207 119.499Z" fill="#59281B"/>
<path d="M149.542 87.5019C149.542 87.5019 149.664 83.7626 155.65 84.7005C161.636 85.6384 160.537 94.6272 155.064 95.0901C153.531 95.2488 151.987 94.9299 150.643 94.1773C149.3 93.4248 148.224 92.2756 147.562 90.888L149.542 87.5019Z" fill="#2D1616"/>
<path d="M126.146 103.421C123.333 107.622 121.14 112.204 119.634 117.026C119.056 118.491 118.937 120.096 119.292 121.63C119.711 122.683 120.479 123.56 121.469 124.114C122.459 124.669 123.61 124.867 124.729 124.675C125.84 124.444 126.878 123.946 127.753 123.224C128.628 122.502 129.314 121.579 129.75 120.534L138.033 107.587L126.146 103.421Z" fill="#6B3020"/>
<path d="M154.538 102.824C154.538 102.824 170.066 103.689 172.021 106.868C173.976 110.047 170.946 115.223 156.334 113.08C141.723 110.936 154.538 102.824 154.538 102.824Z" fill="#6B3020"/>
<path d="M123.801 233.309C123.312 234.04 122.579 242.164 122.579 242.164L136.164 240.946L128.26 238.51L128.504 233.346L123.801 233.309Z" fill="#351A1A"/>
<path d="M127.16 138.146C125.784 154.005 124.407 169.859 123.031 185.71C121.809 200.326 118.731 233.455 118.731 233.455C118.169 234.016 134.026 236.829 144.569 233.273C144.911 233.207 145.231 233.056 145.498 232.834C145.757 232.457 145.858 231.993 145.779 231.543C144.63 201.377 144.199 171.187 144.484 140.972" fill="#FFC727"/>
<path d="M149.542 87.5019L153.414 86.8076C153.414 86.8076 156.102 88.9026 154.819 91.2412C153.536 93.5797 149.932 92.6419 149.932 92.6419" fill="#351A1A"/>
<path d="M140.44 236.914L138.718 247.255L154.514 244.295L145.877 243.309L146.866 237.414L140.44 236.914Z" fill="#351A1A"/>
<path d="M151.789 94.1764L144.948 94.7611C144.948 94.7611 142.505 95.0534 141.442 95.1508C139.963 95.3335 139.805 94.6515 138.864 88.4396C138.681 87.0267 139.426 86.5395 140.086 86.4177C140.745 86.2959 143.457 85.7722 143.457 85.7722L149.7 84.7491H149.908C150.169 84.6811 150.446 84.707 150.69 84.8222C151.288 85.1023 151.398 85.9671 151.435 86.6735C151.557 89.1461 151.667 91.6552 151.789 94.1764Z" fill="#351A1A"/>
<path d="M139.988 87.6723L147.819 86.3081L148.393 92.4712L141.381 93.8963L139.988 87.6723Z" fill="#E3BA86"/>
<path d="M131.509 101.643L130.911 94.4199L136.848 93.3115L139.059 100.339L131.509 101.643Z" fill="#6B3020"/>
<path d="M138.656 94.6027C138.556 94.712 138.436 94.8005 138.302 94.8632C138.168 94.926 138.022 94.9616 137.874 94.9681L128.822 96.4784L128.37 96.3079C128.198 95.7476 128.015 95.1873 127.869 94.6149C127.722 94.0424 127.649 93.8354 127.551 93.3969C126.922 90.829 126.545 88.2059 126.427 85.5651C126.368 85.2305 126.378 84.8876 126.456 84.5569C126.534 84.2262 126.678 83.9145 126.879 83.6407C127.295 83.2745 127.817 83.0486 128.37 82.9951L134.478 81.7771C134.791 81.6667 135.125 81.6313 135.454 81.6736C135.783 81.7159 136.097 81.8348 136.372 82.0207C136.689 82.313 136.604 82.849 136.86 83.2387C138.277 85.1753 139.23 88.0498 138.656 93.8841C138.681 94.0911 138.839 94.3835 138.656 94.6027Z" fill="#6B3020"/>
<path d="M156.017 123.092C156.175 123.628 156.322 124.176 156.481 124.712C151.506 125.728 146.434 126.198 141.356 126.113C139.096 126.113 136.848 126.356 134.588 126.417C133.182 126.449 131.777 126.363 130.385 126.161C130.605 124.724 130.508 123.433 129.371 123.433C127.673 120.571 126 117.721 124.314 114.907C123.12 113.1 122.248 111.102 121.736 109C121.472 107.956 121.475 106.863 121.743 105.82C122.012 104.778 122.539 103.819 123.275 103.031C124.69 101.96 126.389 101.325 128.162 101.204C128.699 101.119 129.286 101.034 129.909 100.973C134.173 100.461 140.183 100.23 142.627 100.157H143.641C143.641 100.157 144.667 100.486 146.231 101.022C149.664 102.155 155.674 104.237 159.242 105.894C159.743 107.112 160.231 108.33 160.671 109.633C158.985 112.763 156.126 115.309 155.418 118.829C155.269 120.277 155.475 121.74 156.017 123.092Z" fill="#FED84C"/>
<path d="M159.791 152.263C158.912 135.674 157.348 128.317 157.006 127.014C153.475 127.367 149.945 127.574 146.451 127.623C141.429 127.708 134.979 127.623 129.542 125.906C129.316 127.229 128.986 128.532 128.553 129.803C125.181 140.229 125.767 157.635 125.767 157.635L135.883 159.194C135.504 185.076 136.604 231.239 135.626 240.008H142.957H144.948H152.901C158.484 211.056 160.671 168.852 159.791 152.263Z" fill="#FED84C"/>
<path d="M162.98 116.49C160.427 117.367 157.873 118.171 155.308 118.792C151.282 119.85 147.106 120.217 142.957 119.876C135.15 119.073 133.305 114.87 133.977 110.559C134.747 105.687 138.778 100.644 141.002 100.279C141.356 100.279 141.71 100.181 142.077 100.157H142.15C143.615 100.076 145.084 100.142 146.536 100.352C149.016 100.828 151.537 101.052 154.062 101.022L156.407 100.863C157.421 102.52 158.374 104.176 159.242 105.869C160.829 108.909 162.019 112.139 162.785 115.479C162.846 115.808 162.907 116.222 162.98 116.49Z" fill="#FED84C"/>
<path d="M136.213 80.6323C136.193 80.7147 136.168 80.7961 136.14 80.8759C136.14 80.7894 136.166 80.7048 136.213 80.6323Z" fill="#2D1616"/>
<path d="M128.81 123.433C128.81 123.433 133.379 123.762 140.672 124.456C145.803 124.777 150.952 124.317 155.943 123.092L157.544 128.67C152.432 130.494 146.988 131.208 141.576 130.765C137.382 130.453 133.207 129.929 129.066 129.194L128.81 123.433Z" fill="#351A1A"/>
<path d="M123.067 103.506L116.397 113.665C116.397 113.665 120.502 121.947 127.527 122.069C134.551 122.191 133.733 119.73 133.733 119.73L123.067 103.506Z" fill="#FED84C"/>
<path d="M146.536 100.388C146.39 100.439 146.256 100.521 146.144 100.628C146.033 100.735 145.945 100.865 145.889 101.009C144.814 103.116 145.131 109.828 138.461 110.546C136.983 110.703 135.492 110.703 134.014 110.546C129.494 110.035 127.515 107.745 127.331 105.358C127.234 104.541 127.341 103.712 127.644 102.947C127.947 102.182 128.435 101.503 129.066 100.973C133.452 100.461 139.634 100.23 142.138 100.157H142.212C143.657 100.092 145.106 100.17 146.536 100.388Z" fill="#6B3020"/>
<path d="M141.478 86.4543L141.393 83.9939L145.522 83.3484L145.779 85.5773L141.478 86.4543Z" fill="#351A1A"/>
<path d="M142.004 84.6516L142.089 86.3203L144.973 85.8331L144.692 84.0913L142.004 84.6516Z" fill="#2D1616"/>
<path d="M151.789 94.1764L150.189 94.2739L149.542 85.1632L149.737 84.7004C150.023 84.6326 150.322 84.6583 150.592 84.7734C151.24 85.0536 151.362 85.9184 151.411 86.6248C151.533 89.1461 151.667 91.6552 151.789 94.1764Z" fill="#3F2222"/>
<path d="M138.534 87.5017C138.534 87.5017 139.646 90.2422 140.88 90.4858C142.114 90.7294 137.532 92.057 137.532 92.057L138.534 87.5017Z" fill="#6B3020"/>
<path d="M172.265 109.804C173.56 106.893 169.919 102.569 167.378 99.5358C164.837 96.503 155.784 89.7917 155.784 89.7917L154.856 91.1925L163.75 108.939L172.265 109.804Z" fill="#6B3020"/>
<path d="M154.819 91.241C154.697 91.241 151.411 86.6247 151.411 86.6247C151.508 86.4547 151.659 86.3224 151.841 86.2494C152.023 86.1764 152.225 86.167 152.413 86.2228C153.121 86.3933 152.767 86.8074 153.06 86.6856C153.353 86.5638 153.647 85.7478 154.001 86.0401C154.355 86.3324 154.343 86.5638 154.636 86.6247C154.929 86.6856 155.113 86.0401 155.284 86.2715C155.455 86.5029 157.165 91.3019 157.165 91.3019L154.819 91.241Z" fill="#6B3020"/>
<path d="M154.282 90.3033C154.282 90.3033 150.482 89.1949 150.775 88.7321C151.069 88.2692 154.172 88.7321 154.172 88.7321L154.282 90.3033Z" fill="#6B3020"/>
<path d="M135.944 95.1266C135.846 95.8208 131.179 96.6247 130.349 96.6247C130.063 96.6261 129.779 96.5851 129.506 96.5029C129.368 96.4641 129.237 96.4068 129.115 96.3324C128.942 97.2095 128.637 98.0555 128.211 98.8415C128.211 98.8415 128.211 98.8415 128.211 98.9389C127.791 99.631 127.253 100.245 126.622 100.754C126.318 101.013 125.987 101.237 125.633 101.424C124.834 101.886 123.917 102.106 122.994 102.057C120.856 101.935 118.926 99.7915 119.549 97.8183C119.261 98.2947 118.878 98.7068 118.424 99.029C117.969 99.3512 117.453 99.5764 116.907 99.6907C116.362 99.805 115.798 99.8059 115.252 99.6933C114.706 99.5807 114.189 99.3571 113.734 99.0363C113.317 98.6821 112.977 98.2468 112.736 97.7571C112.494 97.2673 112.355 96.7335 112.328 96.1884C112.3 95.6432 112.385 95.0982 112.576 94.5868C112.767 94.0754 113.062 93.6083 113.44 93.2143C111.07 93.4213 108.102 93.3239 107.027 91.2655C106.753 90.6409 106.665 89.9516 106.771 89.2784C106.877 88.6053 107.173 87.9763 107.625 87.4653C108.574 86.4336 109.813 85.7119 111.18 85.3947C110.228 85.3891 109.284 85.2117 108.395 84.871C107.957 84.7009 107.575 84.4125 107.292 84.0381C107.01 83.6638 106.837 83.2183 106.794 82.7516C106.881 81.967 107.277 81.2487 107.894 80.7541C109.147 79.6223 110.72 78.9057 112.399 78.7028C114.077 78.4999 115.777 78.8209 117.264 79.6214C115.908 78.7322 114.406 77.5386 114.601 76.0282C114.882 74.2378 117.313 73.6653 119.146 74.0307C120.59 74.3107 121.958 74.8972 123.155 75.7504C124.352 76.6037 125.352 77.7037 126.085 78.9758C125.505 77.8853 125.266 76.6463 125.401 75.4192C125.483 74.8036 125.781 74.2366 126.241 73.8179C126.702 73.3991 127.295 73.1554 127.917 73.1294C129.701 73.2025 130.495 75.3705 130.532 77.1001C130.567 78.7187 130.353 80.333 129.897 81.8868C131.118 81.6432 132.487 81.4362 133.427 81.29C133.721 81.2872 134.014 81.2421 134.295 81.156C134.441 81.156 134.563 81.156 134.612 81.083C134.791 81.0332 134.976 81.0086 135.162 81.0099C136.164 81.0099 136.75 82.1061 137.092 82.8856C137.05 82.944 137.027 83.0143 137.027 83.0866C137.027 83.1588 137.05 83.2292 137.092 83.2875C137.52 84.0793 135.639 84.5908 135.639 84.5908C135.878 85.9405 136.288 87.2543 136.86 88.5006C138.632 94.2983 135.944 95.1266 135.944 95.1266Z" fill="#2D1616"/>
<path d="M154.966 103.543C151.582 105.979 149.651 105.589 147.538 110.096C146.893 111.653 146.073 113.132 145.094 114.505C142.771 117.519 139.354 119.505 135.577 120.035C129.286 120.814 121.858 116.101 121.491 109.365C121.296 105.821 123.556 104.493 125.413 101.826C125.499 101.692 125.596 101.558 125.67 101.424C126.01 101.235 126.33 101.01 126.622 100.754C127.232 100.24 127.748 99.6261 128.15 98.9388C128.15 98.9388 128.15 98.9388 128.15 98.8414C128.019 99.711 127.759 100.557 127.38 101.35C125.975 103.896 122.811 105.309 122.579 108.585C122.029 115.723 131.411 119.937 137.153 118.329C142.578 116.807 144.642 112.422 146.927 107.83C147.538 106.31 148.536 104.975 149.822 103.957C150.696 103.526 151.594 103.144 152.51 102.812C155.112 100.949 155.198 99.7184 154.257 97.1727C152.95 93.6283 149.822 91.8744 150.714 87.8185C150.788 87.4409 151.423 87.5261 151.411 87.9281C151.252 93.2629 160.695 99.3651 154.966 103.543Z" fill="#FFC727"/>
<path d="M145.522 83.3484L146.585 83.6772L147.306 85.2607L145.73 85.4068L145.522 83.3484Z" fill="#3F2222"/>
</g>
<defs>
<filter id="filter0_d" x="-13.5" y="0" width="340" height="297" filterUnits="userSpaceOnUse" color-interpolation-filters="sRGB">
<feFlood flood-opacity="0" result="BackgroundImageFix"/>
<feColorMatrix in="SourceAlpha" type="matrix" values="0 0 0 0 0 0 0 0 0 0 0 0 0 0 0 0 0 0 127 0"/>
<feOffset dy="4"/>
<feGaussianBlur stdDeviation="12"/>
<feColorMatrix type="matrix" values="0 0 0 0 0.321569 0 0 0 0 0.270588 0 0 0 0 0.690196 0 0 0 0.2 0"/>
<feBlend mode="normal" in2="BackgroundImageFix" result="effect1_dropShadow"/>
<feBlend mode="normal" in="SourceGraphic" in2="effect1_dropShadow" result="shape"/>
</filter>
<filter id="filter1_d" x="216.576" y="130.473" width="48.9765" height="70.8372" filterUnits="userSpaceOnUse" color-interpolation-filters="sRGB">
<feFlood flood-opacity="0" result="BackgroundImageFix"/>
<feColorMatrix in="SourceAlpha" type="matrix" values="0 0 0 0 0 0 0 0 0 0 0 0 0 0 0 0 0 0 127 0"/>
<feOffset dy="4"/>
<feGaussianBlur stdDeviation="7"/>
<feColorMatrix type="matrix" values="0 0 0 0 0 0 0 0 0 0 0 0 0 0 0 0 0 0 0.1 0"/>
<feBlend mode="normal" in2="BackgroundImageFix" result="effect1_dropShadow"/>
<feBlend mode="normal" in="SourceGraphic" in2="effect1_dropShadow" result="shape"/>
</filter>
</defs>
</svg>
