<svg width="291" height="271" viewBox="0 0 291 271" fill="none" xmlns="http://www.w3.org/2000/svg">
<g clip-path="url(#clip0)" filter="url(#filter0_d)">
<path d="M265.719 41.651C265.719 41.5711 266.103 41.5027 266.578 41.5027C267.054 41.5027 267.438 41.5711 267.438 41.651C267.438 41.7309 267.054 41.7993 266.578 41.7993C266.103 41.7993 265.719 41.7309 265.719 41.651Z" fill="#E0E0E0"/>
<path d="M262.279 41.651C262.279 41.5711 262.663 41.5027 263.139 41.5027C263.615 41.5027 263.999 41.5711 263.999 41.651C263.999 41.7309 263.615 41.7993 263.139 41.7993C262.663 41.7993 262.279 41.7309 262.279 41.651Z" fill="#E0E0E0"/>
<path d="M258.84 41.651C258.84 41.5711 259.224 41.5027 259.699 41.5027C260.175 41.5027 260.559 41.5711 260.559 41.651C260.559 41.7309 260.175 41.7993 259.699 41.7993C259.224 41.7993 258.84 41.7309 258.84 41.651Z" fill="#E0E0E0"/>
<path d="M255.4 41.651C255.4 41.5711 255.784 41.5027 256.26 41.5027C256.736 41.5027 257.12 41.5711 257.12 41.651C257.12 41.7309 256.736 41.7993 256.26 41.7993C255.784 41.7993 255.4 41.7309 255.4 41.651Z" fill="#E0E0E0"/>
<path d="M251.961 41.651C251.961 41.5711 252.345 41.5027 252.821 41.5027C253.297 41.5027 253.681 41.5711 253.681 41.651C253.681 41.7309 253.297 41.7993 252.821 41.7993C252.345 41.7993 251.961 41.7309 251.961 41.651Z" fill="#E0E0E0"/>
<path d="M248.522 41.651C248.522 41.5711 248.906 41.5027 249.382 41.5027C249.857 41.5027 250.241 41.5711 250.241 41.651C250.241 41.7309 249.857 41.7993 249.382 41.7993C248.906 41.7993 248.522 41.7309 248.522 41.651Z" fill="#E0E0E0"/>
<path d="M245.082 41.651C245.082 41.5711 245.466 41.5027 245.942 41.5027C246.418 41.5027 246.802 41.5711 246.802 41.651C246.802 41.7309 246.418 41.7993 245.942 41.7993C245.466 41.7993 245.082 41.7309 245.082 41.651Z" fill="#E0E0E0"/>
<path d="M241.643 41.651C241.643 41.5711 242.027 41.5027 242.503 41.5027C242.978 41.5027 243.363 41.5711 243.363 41.651C243.363 41.7309 242.978 41.7993 242.503 41.7993C242.027 41.7993 241.643 41.7309 241.643 41.651Z" fill="#E0E0E0"/>
<path d="M238.203 41.651C238.203 41.5711 238.587 41.5027 239.063 41.5027C239.539 41.5027 239.923 41.5711 239.923 41.651C239.923 41.7309 239.539 41.7993 239.063 41.7993C238.587 41.7993 238.203 41.7309 238.203 41.651Z" fill="#E0E0E0"/>
<path d="M234.764 41.651C234.764 41.5711 235.148 41.5027 235.624 41.5027C236.1 41.5027 236.484 41.5711 236.484 41.651C236.484 41.7309 236.1 41.7993 235.624 41.7993C235.148 41.7993 234.764 41.7309 234.764 41.651Z" fill="#E0E0E0"/>
<path d="M231.325 41.651C231.325 41.5711 231.709 41.5027 232.185 41.5027C232.66 41.5027 233.044 41.5711 233.044 41.651C233.044 41.7309 232.66 41.7993 232.185 41.7993C231.709 41.7993 231.325 41.7309 231.325 41.651Z" fill="#E0E0E0"/>
<path d="M227.885 41.651C227.885 41.5711 228.269 41.5027 228.745 41.5027C229.221 41.5027 229.605 41.5711 229.605 41.651C229.605 41.7309 229.221 41.7993 228.745 41.7993C228.269 41.7993 227.885 41.7309 227.885 41.651Z" fill="#E0E0E0"/>
<path d="M225.438 40.6699C225.518 40.6699 225.587 41.0521 225.587 41.5256V41.6511L225.444 41.5028C225.857 41.5028 226.172 41.5769 226.172 41.6511C226.172 41.7253 225.857 41.788 225.444 41.7994H225.295V41.5256C225.289 41.0521 225.352 40.6699 225.438 40.6699Z" fill="#E0E0E0"/>
<path d="M225.437 37.2471C225.518 37.2471 225.586 37.6293 225.586 38.1027C225.586 38.5762 225.518 38.9584 225.437 38.9584C225.357 38.9584 225.288 38.5705 225.288 38.1027C225.288 37.635 225.351 37.2471 225.437 37.2471Z" fill="#E0E0E0"/>
<path d="M225.437 33.8245C225.518 33.8245 225.586 34.2067 225.586 34.6801C225.586 35.1536 225.518 35.5358 225.437 35.5358C225.357 35.5358 225.288 35.1479 225.288 34.6801C225.288 34.2124 225.351 33.8245 225.437 33.8245Z" fill="#E0E0E0"/>
<path d="M225.437 30.4019C225.518 30.4019 225.586 30.7841 225.586 31.2575C225.586 31.731 225.518 32.1132 225.437 32.1132C225.357 32.1132 225.288 31.7253 225.288 31.2575C225.288 30.7898 225.351 30.4019 225.437 30.4019Z" fill="#E0E0E0"/>
<path d="M225.437 26.979C225.518 26.979 225.586 27.3612 225.586 27.8347C225.586 28.3082 225.518 28.6904 225.437 28.6904C225.357 28.6904 225.288 28.3025 225.288 27.8347C225.288 27.3669 225.351 26.979 225.437 26.979Z" fill="#E0E0E0"/>
<path d="M225.437 23.5559C225.518 23.5559 225.586 23.9381 225.586 24.4116C225.586 24.8851 225.518 25.2673 225.437 25.2673C225.357 25.2673 225.288 24.8794 225.288 24.4116C225.288 23.9438 225.351 23.5559 225.437 23.5559Z" fill="#E0E0E0"/>
<path d="M225.437 20.1335C225.518 20.1335 225.586 20.5157 225.586 20.9892C225.586 21.4627 225.518 21.8449 225.437 21.8449C225.357 21.8449 225.288 21.457 225.288 20.9892C225.288 20.5215 225.351 20.1335 225.437 20.1335Z" fill="#E0E0E0"/>
<path d="M225.437 16.7109C225.518 16.7109 225.586 17.0931 225.586 17.5666C225.586 18.0401 225.518 18.4223 225.437 18.4223C225.357 18.4223 225.288 18.0344 225.288 17.5666C225.288 17.0988 225.351 16.7109 225.437 16.7109Z" fill="#E0E0E0"/>
<path d="M267.438 19.9169C267.358 19.9169 267.289 19.5347 267.289 19.0612C267.289 18.5878 267.358 18.2056 267.438 18.2056C267.519 18.2056 267.587 18.5878 267.587 19.0612C267.587 19.5347 267.524 19.9169 267.438 19.9169Z" fill="#E0E0E0"/>
<path d="M267.438 23.3395C267.358 23.3395 267.289 22.9573 267.289 22.4839C267.289 22.0104 267.358 21.6282 267.438 21.6282C267.519 21.6282 267.587 22.0104 267.587 22.4839C267.587 22.9573 267.524 23.3395 267.438 23.3395Z" fill="#E0E0E0"/>
<path d="M267.438 26.7621C267.358 26.7621 267.289 26.3799 267.289 25.9065C267.289 25.433 267.358 25.0508 267.438 25.0508C267.519 25.0508 267.587 25.433 267.587 25.9065C267.587 26.3799 267.524 26.7621 267.438 26.7621Z" fill="#E0E0E0"/>
<path d="M267.438 30.1847C267.358 30.1847 267.289 29.8025 267.289 29.3291C267.289 28.8556 267.358 28.4734 267.438 28.4734C267.519 28.4734 267.587 28.8556 267.587 29.3291C267.587 29.8025 267.524 30.1847 267.438 30.1847Z" fill="#E0E0E0"/>
<path d="M267.438 33.6078C267.358 33.6078 267.289 33.2256 267.289 32.7522C267.289 32.2787 267.358 31.8965 267.438 31.8965C267.519 31.8965 267.587 32.2787 267.587 32.7522C267.587 33.2256 267.524 33.6078 267.438 33.6078Z" fill="#E0E0E0"/>
<path d="M267.438 37.0304C267.358 37.0304 267.289 36.6482 267.289 36.1748C267.289 35.7013 267.358 35.3191 267.438 35.3191C267.519 35.3191 267.587 35.7013 267.587 36.1748C267.587 36.6482 267.524 37.0304 267.438 37.0304Z" fill="#E0E0E0"/>
<path d="M267.438 40.453C267.358 40.453 267.289 40.0708 267.289 39.5974C267.289 39.1239 267.358 38.7417 267.438 38.7417C267.519 38.7417 267.587 39.1239 267.587 39.5974C267.587 40.0708 267.524 40.453 267.438 40.453Z" fill="#E0E0E0"/>
<path d="M268.998 39.6772H265.885V42.7748H268.998V39.6772Z" fill="#E0E0E0"/>
<path d="M226.997 40.0994H223.884V43.1969H226.997V40.0994Z" fill="#E0E0E0"/>
<path d="M50.2119 26.1572C50.2119 26.1117 50.4183 26.0776 50.6648 26.0776C50.9113 26.0776 51.1176 26.1117 51.1176 26.1572C51.1176 26.2026 50.9113 26.2367 50.6648 26.2367C50.4183 26.2367 50.2119 26.197 50.2119 26.1572Z" fill="#E0E0E0"/>
<path d="M48.865 26.2367C49.1151 26.2367 49.3178 26.2011 49.3178 26.1572C49.3178 26.1133 49.1151 26.0776 48.865 26.0776C48.6149 26.0776 48.4121 26.1133 48.4121 26.1572C48.4121 26.2011 48.6149 26.2367 48.865 26.2367Z" fill="#E0E0E0"/>
<path d="M46.6121 26.1572C46.6121 26.1117 46.8127 26.0776 47.0649 26.0776C47.3171 26.0776 47.512 26.1117 47.512 26.1572C47.512 26.2026 47.3114 26.2367 47.0649 26.2367C46.8184 26.2367 46.6121 26.197 46.6121 26.1572Z" fill="#E0E0E0"/>
<path d="M44.812 26.1572C44.812 26.1117 45.0126 26.0776 45.2591 26.0776C45.5056 26.0776 45.712 26.1117 45.712 26.1572C45.712 26.2026 45.5114 26.2367 45.2591 26.2367C45.0069 26.2367 44.812 26.197 44.812 26.1572Z" fill="#E0E0E0"/>
<path d="M43.0122 26.1572C43.0122 26.1117 43.2128 26.0776 43.4593 26.0776C43.7058 26.0776 43.9122 26.1117 43.9122 26.1572C43.9122 26.2026 43.7116 26.2367 43.4593 26.2367C43.2071 26.2367 43.0122 26.197 43.0122 26.1572Z" fill="#E0E0E0"/>
<path d="M41.2063 26.1572C41.2063 26.1117 41.4127 26.0776 41.6592 26.0776C41.9056 26.0776 42.1063 26.1117 42.1063 26.1572C42.1063 26.2026 41.9056 26.2367 41.6592 26.2367C41.4127 26.2367 41.2063 26.197 41.2063 26.1572Z" fill="#E0E0E0"/>
<path d="M39.8596 26.2367C40.1097 26.2367 40.3124 26.2011 40.3124 26.1572C40.3124 26.1133 40.1097 26.0776 39.8596 26.0776C39.6095 26.0776 39.4067 26.1133 39.4067 26.1572C39.4067 26.2011 39.6095 26.2367 39.8596 26.2367Z" fill="#E0E0E0"/>
<path d="M37.6064 26.1572C37.6064 26.1117 37.8071 26.0776 38.0536 26.0776C38.3001 26.0776 38.5064 26.1117 38.5064 26.1572C38.5064 26.2026 38.3058 26.2367 38.0536 26.2367C37.8013 26.2367 37.6064 26.197 37.6064 26.1572Z" fill="#E0E0E0"/>
<path d="M35.8066 26.1572C35.8066 26.1117 36.0073 26.0776 36.2538 26.0776C36.5003 26.0776 36.7066 26.1117 36.7066 26.1572C36.7066 26.2026 36.506 26.2367 36.2538 26.2367C36.0015 26.2367 35.8066 26.197 35.8066 26.1572Z" fill="#E0E0E0"/>
<path d="M34.0066 26.1572C34.0066 26.1117 34.2072 26.0776 34.4537 26.0776C34.7002 26.0776 34.9066 26.1117 34.9066 26.1572C34.9066 26.2026 34.7002 26.2367 34.4537 26.2367C34.2072 26.2367 34.0066 26.197 34.0066 26.1572Z" fill="#E0E0E0"/>
<path d="M32.2009 26.1572C32.2009 26.1117 32.4016 26.0776 32.6538 26.0776C32.906 26.0776 33.1009 26.1117 33.1009 26.1572C33.1009 26.2026 32.9003 26.2367 32.6538 26.2367C32.4073 26.2367 32.2009 26.197 32.2009 26.1572Z" fill="#E0E0E0"/>
<path d="M30.854 26.2367C31.1041 26.2367 31.3068 26.2011 31.3068 26.1572C31.3068 26.1133 31.1041 26.0776 30.854 26.0776C30.6039 26.0776 30.4011 26.1133 30.4011 26.1572C30.4011 26.2011 30.6039 26.2367 30.854 26.2367Z" fill="#E0E0E0"/>
<path d="M29.1169 25.644C29.1628 25.644 29.1971 25.8437 29.1971 26.089V26.1575L29.1169 26.0776C29.3347 26.0776 29.501 26.1175 29.501 26.1575C29.501 26.1974 29.3347 26.2259 29.1169 26.2316H29.0596V26.0833C29.0596 25.8437 29.0596 25.644 29.1169 25.644Z" fill="#E0E0E0"/>
<path d="M29.1169 23.8472C29.1628 23.8472 29.1971 24.0525 29.1971 24.2978C29.1971 24.5431 29.1628 24.7428 29.1169 24.7428C29.071 24.7428 29.0596 24.5431 29.0596 24.3092C29.0596 24.0753 29.0596 23.8472 29.1169 23.8472Z" fill="#E0E0E0"/>
<path d="M29.117 22.0562C29.1629 22.0562 29.1973 22.2558 29.1973 22.5068C29.1973 22.7578 29.1629 22.9518 29.117 22.9518C29.0711 22.9518 29.0425 22.7521 29.0425 22.5068C29.0425 22.2615 29.0597 22.0562 29.117 22.0562Z" fill="#E0E0E0"/>
<path d="M29.117 20.2649C29.1629 20.2649 29.1973 20.4646 29.1973 20.7098C29.1973 20.9551 29.1629 21.1605 29.117 21.1605C29.0711 21.1605 29.0425 20.9608 29.0425 20.7098C29.0425 20.4588 29.0597 20.2649 29.117 20.2649Z" fill="#E0E0E0"/>
<path d="M29.1169 18.4739C29.1628 18.4739 29.1971 18.6735 29.1971 18.9188C29.1971 19.1641 29.1628 19.3695 29.1169 19.3695C29.071 19.3695 29.0596 19.1755 29.0596 18.9188C29.0596 18.6621 29.0596 18.4739 29.1169 18.4739Z" fill="#E0E0E0"/>
<path d="M51.1176 18.3592C51.0718 18.3592 51.0374 18.1596 51.0374 17.9086C51.0374 17.6576 51.0718 17.4636 51.1176 17.4636C51.1635 17.4636 51.1921 17.6633 51.1921 17.9086C51.1921 18.1539 51.1577 18.3592 51.1176 18.3592Z" fill="#E0E0E0"/>
<path d="M51.1176 20.1507C51.0718 20.1507 51.0374 19.9511 51.0374 19.7058C51.0374 19.4605 51.0718 19.2551 51.1176 19.2551C51.1635 19.2551 51.1921 19.4548 51.1921 19.7058C51.1921 19.9568 51.1577 20.1507 51.1176 20.1507Z" fill="#E0E0E0"/>
<path d="M51.1176 21.942C51.0718 21.942 51.0374 21.7423 51.0374 21.497C51.0374 21.2517 51.0718 21.0464 51.1176 21.0464C51.1635 21.0464 51.1921 21.246 51.1921 21.497C51.1921 21.748 51.1577 21.942 51.1176 21.942Z" fill="#E0E0E0"/>
<path d="M51.1176 23.7387C51.0718 23.7387 51.0374 23.5334 51.0374 23.2881C51.0374 23.0428 51.0718 22.8374 51.1176 22.8374C51.1635 22.8374 51.1921 23.0428 51.1921 23.2881C51.1921 23.5334 51.1577 23.7387 51.1176 23.7387Z" fill="#E0E0E0"/>
<path d="M51.1176 25.5299C51.0718 25.5299 51.0374 25.3302 51.0374 25.0792C51.0374 24.8282 51.0718 24.6343 51.1176 24.6343C51.1635 24.6343 51.1921 24.8339 51.1921 25.0792C51.1921 25.3245 51.1577 25.5299 51.1176 25.5299Z" fill="#E0E0E0"/>
<path d="M51.9317 25.1248H50.3037V26.7448H51.9317V25.1248Z" fill="#E0E0E0"/>
<path d="M29.9368 25.3416H28.3088V26.9616H29.9368V25.3416Z" fill="#E0E0E0"/>
<path d="M83.8147 242.741C84.2262 242.597 84.665 242.546 85.0987 242.593H85.5344L85.3911 242.73C85.3911 242.233 85.4656 241.88 85.5344 241.88C85.6032 241.88 85.649 242.233 85.672 242.73V242.867H85.0987C84.6667 242.92 84.228 242.877 83.8147 242.741Z" fill="#E0E0E0"/>
<path d="M80.3752 242.741C80.3752 242.661 80.7593 242.593 81.2351 242.593C81.7109 242.593 82.0949 242.661 82.0949 242.741C82.0949 242.821 81.7051 242.889 81.2351 242.889C80.765 242.889 80.3752 242.821 80.3752 242.741Z" fill="#E0E0E0"/>
<path d="M76.9363 242.741C76.9363 242.661 77.3203 242.593 77.7961 242.593C78.2719 242.593 78.656 242.661 78.656 242.741C78.656 242.821 78.2662 242.889 77.7961 242.889C77.3261 242.889 76.9363 242.821 76.9363 242.741Z" fill="#E0E0E0"/>
<path d="M73.4968 242.741C73.4968 242.661 73.8809 242.593 74.3567 242.593C74.8325 242.593 75.2165 242.661 75.2165 242.741C75.2165 242.821 74.8267 242.889 74.3567 242.889C73.8866 242.889 73.4968 242.821 73.4968 242.741Z" fill="#E0E0E0"/>
<path d="M70.0574 242.741C70.0574 242.661 70.4414 242.593 70.9172 242.593C71.393 242.593 71.7771 242.661 71.7771 242.741C71.7771 242.821 71.3873 242.889 70.9172 242.889C70.4472 242.889 70.0574 242.821 70.0574 242.741Z" fill="#E0E0E0"/>
<path d="M66.6179 242.741C66.6179 242.661 67.002 242.593 67.4778 242.593C67.9536 242.593 68.3376 242.661 68.3376 242.741C68.3376 242.821 67.9478 242.889 67.4778 242.889C67.0077 242.889 66.6179 242.821 66.6179 242.741Z" fill="#E0E0E0"/>
<path d="M63.1782 242.741C63.1782 242.661 63.5623 242.593 64.0381 242.593C64.5139 242.593 64.8979 242.661 64.8979 242.741C64.8979 242.821 64.5081 242.889 64.0381 242.889C63.568 242.889 63.1782 242.821 63.1782 242.741Z" fill="#E0E0E0"/>
<path d="M59.7388 242.741C59.7388 242.661 60.1228 242.593 60.5986 242.593C61.0744 242.593 61.4585 242.661 61.4585 242.741C61.4585 242.821 61.0687 242.889 60.5986 242.889C60.1286 242.889 59.7388 242.821 59.7388 242.741Z" fill="#E0E0E0"/>
<path d="M56.2996 242.741C56.2996 242.661 56.6836 242.593 57.1594 242.593C57.6352 242.593 58.0193 242.661 58.0193 242.741C58.0193 242.821 57.6295 242.889 57.1594 242.889C56.6894 242.889 56.2996 242.821 56.2996 242.741Z" fill="#E0E0E0"/>
<path d="M52.8604 242.741C52.8604 242.661 53.2444 242.593 53.7202 242.593C54.196 242.593 54.58 242.661 54.58 242.741C54.58 242.821 54.1903 242.889 53.7202 242.889C53.2501 242.889 52.8604 242.821 52.8604 242.741Z" fill="#E0E0E0"/>
<path d="M49.4211 242.741C49.4211 242.661 49.8052 242.593 50.281 242.593C50.7568 242.593 51.1408 242.661 51.1408 242.741C51.1408 242.821 50.751 242.889 50.281 242.889C49.8109 242.889 49.4211 242.821 49.4211 242.741Z" fill="#E0E0E0"/>
<path d="M45.9817 242.741C45.9817 242.661 46.3658 242.593 46.8415 242.593C47.3173 242.593 47.7014 242.661 47.7014 242.741C47.7014 242.821 47.3116 242.889 46.8415 242.889C46.3715 242.889 45.9817 242.821 45.9817 242.741Z" fill="#E0E0E0"/>
<path d="M42.542 242.741C42.542 242.661 42.9261 242.593 43.4018 242.593C43.8776 242.593 44.2617 242.661 44.2617 242.741C44.2617 242.821 43.8719 242.889 43.4018 242.889C42.9318 242.889 42.542 242.821 42.542 242.741Z" fill="#E0E0E0"/>
<path d="M39.1025 242.741C39.1025 242.661 39.4866 242.593 39.9624 242.593C40.4382 242.593 40.8222 242.661 40.8222 242.741C40.8222 242.821 40.4324 242.889 39.9624 242.889C39.4923 242.889 39.1025 242.821 39.1025 242.741Z" fill="#E0E0E0"/>
<path d="M35.6633 242.741C35.6633 242.661 36.0474 242.593 36.5232 242.593C36.999 242.593 37.383 242.661 37.383 242.741C37.383 242.821 36.9932 242.889 36.5232 242.889C36.0531 242.889 35.6633 242.821 35.6633 242.741Z" fill="#E0E0E0"/>
<path d="M32.2236 242.741C32.2236 242.661 32.6077 242.593 33.0835 242.593C33.5593 242.593 33.9433 242.661 33.9433 242.741C33.9433 242.821 33.5535 242.889 33.0835 242.889C32.6134 242.889 32.2236 242.821 32.2236 242.741Z" fill="#E0E0E0"/>
<path d="M28.7844 242.741C28.7844 242.661 29.1685 242.593 29.6443 242.593C30.1201 242.593 30.5041 242.661 30.5041 242.741C30.5041 242.821 30.1143 242.889 29.6443 242.889C29.1742 242.889 28.7844 242.821 28.7844 242.741Z" fill="#E0E0E0"/>
<path d="M25.3452 242.741C25.3452 242.661 25.7293 242.593 26.2051 242.593C26.6808 242.593 27.0649 242.661 27.0649 242.741C27.0649 242.821 26.6751 242.889 26.2051 242.889C25.735 242.889 25.3452 242.821 25.3452 242.741Z" fill="#E0E0E0"/>
<path d="M24.2674 240.385C24.3534 240.385 24.4165 240.767 24.4165 241.241C24.4165 241.714 24.3534 242.096 24.2674 242.096C24.1815 242.096 24.1184 241.714 24.1184 241.241C24.1184 240.767 24.1872 240.385 24.2674 240.385Z" fill="#E0E0E0"/>
<path d="M24.2674 236.962C24.3534 236.962 24.4165 237.345 24.4165 237.818C24.4165 238.292 24.3534 238.674 24.2674 238.674C24.1815 238.674 24.1184 238.292 24.1184 237.818C24.1184 237.345 24.1872 236.962 24.2674 236.962Z" fill="#E0E0E0"/>
<path d="M24.2674 233.54C24.3534 233.54 24.4165 233.922 24.4165 234.395C24.4165 234.869 24.3534 235.251 24.2674 235.251C24.1815 235.251 24.1184 234.869 24.1184 234.395C24.1184 233.922 24.1872 233.54 24.2674 233.54Z" fill="#E0E0E0"/>
<path d="M24.2674 230.117C24.3534 230.117 24.4165 230.499 24.4165 230.973C24.4165 231.446 24.3534 231.828 24.2674 231.828C24.1815 231.828 24.1184 231.446 24.1184 230.973C24.1184 230.499 24.1872 230.117 24.2674 230.117Z" fill="#E0E0E0"/>
<path d="M24.2674 226.694C24.3534 226.694 24.4165 227.076 24.4165 227.55C24.4165 228.023 24.3534 228.405 24.2674 228.405C24.1815 228.405 24.1184 228.023 24.1184 227.55C24.1184 227.076 24.1872 226.694 24.2674 226.694Z" fill="#E0E0E0"/>
<path d="M24.2674 223.271C24.3534 223.271 24.4165 223.654 24.4165 224.127C24.4165 224.601 24.3534 224.983 24.2674 224.983C24.1815 224.983 24.1184 224.601 24.1184 224.127C24.1184 223.654 24.1872 223.271 24.2674 223.271Z" fill="#E0E0E0"/>
<path d="M24.2674 219.849C24.3534 219.849 24.4165 220.231 24.4165 220.705C24.4165 221.178 24.3534 221.56 24.2674 221.56C24.1815 221.56 24.1184 221.178 24.1184 220.705C24.1184 220.231 24.1872 219.849 24.2674 219.849Z" fill="#E0E0E0"/>
<path d="M24.2674 216.426C24.3534 216.426 24.4165 216.808 24.4165 217.282C24.4165 217.755 24.3534 218.138 24.2674 218.138C24.1815 218.138 24.1184 217.755 24.1184 217.282C24.1184 216.808 24.1872 216.426 24.2674 216.426Z" fill="#E0E0E0"/>
<path d="M24.2674 213.003C24.3534 213.003 24.4165 213.386 24.4165 213.859C24.4165 214.333 24.3534 214.715 24.2674 214.715C24.1815 214.715 24.1184 214.333 24.1184 213.859C24.1184 213.386 24.1872 213.003 24.2674 213.003Z" fill="#E0E0E0"/>
<path d="M24.2674 209.581C24.3534 209.581 24.4165 209.963 24.4165 210.436C24.4165 210.91 24.3534 211.292 24.2674 211.292C24.1815 211.292 24.1184 210.91 24.1184 210.436C24.1184 209.963 24.1872 209.581 24.2674 209.581Z" fill="#E0E0E0"/>
<path d="M24.2674 206.158C24.3534 206.158 24.4165 206.54 24.4165 207.014C24.4165 207.487 24.3534 207.869 24.2674 207.869C24.1815 207.869 24.1184 207.487 24.1184 207.014C24.1184 206.54 24.1872 206.158 24.2674 206.158Z" fill="#E0E0E0"/>
<path d="M24.2674 202.735C24.3534 202.735 24.4165 203.117 24.4165 203.591C24.4165 204.064 24.3534 204.446 24.2674 204.446C24.1815 204.446 24.1184 204.064 24.1184 203.591C24.1184 203.117 24.1872 202.735 24.2674 202.735Z" fill="#E0E0E0"/>
<path d="M24.2674 199.312C24.3534 199.312 24.4165 199.695 24.4165 200.168C24.4165 200.642 24.3534 201.024 24.2674 201.024C24.1815 201.024 24.1184 200.642 24.1184 200.168C24.1184 199.695 24.1872 199.312 24.2674 199.312Z" fill="#E0E0E0"/>
<path d="M24.2674 195.89C24.3534 195.89 24.4165 196.272 24.4165 196.746C24.4165 197.219 24.3534 197.601 24.2674 197.601C24.1815 197.601 24.1184 197.219 24.1184 196.746C24.1184 196.272 24.1872 195.89 24.2674 195.89Z" fill="#E0E0E0"/>
<path d="M24.2674 192.467C24.3534 192.467 24.4165 192.849 24.4165 193.323C24.4165 193.796 24.3534 194.178 24.2674 194.178C24.1815 194.178 24.1184 193.796 24.1184 193.323C24.1184 192.849 24.1872 192.467 24.2674 192.467Z" fill="#E0E0E0"/>
<path d="M24.2674 189.044C24.3534 189.044 24.4165 189.426 24.4165 189.9C24.4165 190.373 24.3534 190.756 24.2674 190.756C24.1815 190.756 24.1184 190.373 24.1184 189.9C24.1184 189.426 24.1872 189.044 24.2674 189.044Z" fill="#E0E0E0"/>
<path d="M24.2674 185.622C24.3534 185.622 24.4165 186.004 24.4165 186.477C24.4165 186.951 24.3534 187.333 24.2674 187.333C24.1815 187.333 24.1184 186.951 24.1184 186.477C24.1184 186.004 24.1872 185.622 24.2674 185.622Z" fill="#E0E0E0"/>
<path d="M24.2674 182.199C24.3534 182.199 24.4165 182.581 24.4165 183.055C24.4165 183.528 24.3534 183.911 24.2674 183.911C24.1815 183.911 24.1184 183.528 24.1184 183.055C24.1184 182.581 24.1872 182.199 24.2674 182.199Z" fill="#E0E0E0"/>
<path d="M27.2824 181.754C27.2824 181.834 26.8984 181.903 26.4226 181.903C25.9468 181.903 25.5627 181.834 25.5627 181.754C25.5627 181.674 25.9468 181.606 26.4226 181.606C26.8984 181.606 27.2824 181.692 27.2824 181.754Z" fill="#E0E0E0"/>
<path d="M30.7219 181.754C30.7219 181.834 30.3378 181.903 29.862 181.903C29.3863 181.903 29.0022 181.834 29.0022 181.754C29.0022 181.674 29.3863 181.606 29.862 181.606C30.3378 181.606 30.7219 181.692 30.7219 181.754Z" fill="#E0E0E0"/>
<path d="M34.1616 181.754C34.1616 181.834 33.7775 181.903 33.3017 181.903C32.826 181.903 32.4419 181.834 32.4419 181.754C32.4419 181.674 32.826 181.606 33.3017 181.606C33.7775 181.606 34.1616 181.692 34.1616 181.754Z" fill="#E0E0E0"/>
<path d="M37.601 181.754C37.601 181.834 37.217 181.903 36.7412 181.903C36.2654 181.903 35.8813 181.834 35.8813 181.754C35.8813 181.674 36.2654 181.606 36.7412 181.606C37.217 181.606 37.601 181.692 37.601 181.754Z" fill="#E0E0E0"/>
<path d="M41.0403 181.754C41.0403 181.834 40.6562 181.903 40.1804 181.903C39.7046 181.903 39.3206 181.834 39.3206 181.754C39.3206 181.674 39.7046 181.606 40.1804 181.606C40.6562 181.606 41.0403 181.692 41.0403 181.754Z" fill="#E0E0E0"/>
<path d="M44.4797 181.754C44.4797 181.834 44.0956 181.903 43.6199 181.903C43.1441 181.903 42.76 181.834 42.76 181.754C42.76 181.674 43.1441 181.606 43.6199 181.606C44.0956 181.606 44.4797 181.692 44.4797 181.754Z" fill="#E0E0E0"/>
<path d="M47.9189 181.754C47.9189 181.834 47.5349 181.903 47.0591 181.903C46.5833 181.903 46.1992 181.834 46.1992 181.754C46.1992 181.674 46.5833 181.606 47.0591 181.606C47.5349 181.606 47.9189 181.692 47.9189 181.754Z" fill="#E0E0E0"/>
<path d="M51.3584 181.754C51.3584 181.834 50.9743 181.903 50.4985 181.903C50.0227 181.903 49.6387 181.834 49.6387 181.754C49.6387 181.674 50.0227 181.606 50.4985 181.606C50.9743 181.606 51.3584 181.692 51.3584 181.754Z" fill="#E0E0E0"/>
<path d="M54.7981 181.754C54.7981 181.834 54.414 181.903 53.9382 181.903C53.4624 181.903 53.0784 181.834 53.0784 181.754C53.0784 181.674 53.4624 181.606 53.9382 181.606C54.414 181.606 54.7981 181.692 54.7981 181.754Z" fill="#E0E0E0"/>
<path d="M58.2373 181.754C58.2373 181.834 57.8532 181.903 57.3774 181.903C56.9016 181.903 56.5176 181.834 56.5176 181.754C56.5176 181.674 56.9016 181.606 57.3774 181.606C57.8532 181.606 58.2373 181.692 58.2373 181.754Z" fill="#E0E0E0"/>
<path d="M61.6767 181.754C61.6767 181.834 61.2927 181.903 60.8169 181.903C60.3411 181.903 59.957 181.834 59.957 181.754C59.957 181.674 60.3411 181.606 60.8169 181.606C61.2927 181.606 61.6767 181.692 61.6767 181.754Z" fill="#E0E0E0"/>
<path d="M65.1162 181.754C65.1162 181.834 64.7321 181.903 64.2563 181.903C63.7805 181.903 63.3965 181.834 63.3965 181.754C63.3965 181.674 63.7805 181.606 64.2563 181.606C64.7321 181.606 65.1162 181.692 65.1162 181.754Z" fill="#E0E0E0"/>
<path d="M68.5551 181.754C68.5551 181.834 68.1711 181.903 67.6953 181.903C67.2195 181.903 66.8354 181.834 66.8354 181.754C66.8354 181.674 67.2195 181.606 67.6953 181.606C68.1711 181.606 68.5551 181.692 68.5551 181.754Z" fill="#E0E0E0"/>
<path d="M71.9946 181.754C71.9946 181.834 71.6105 181.903 71.1347 181.903C70.659 181.903 70.2749 181.834 70.2749 181.754C70.2749 181.674 70.659 181.606 71.1347 181.606C71.6105 181.606 71.9946 181.692 71.9946 181.754Z" fill="#E0E0E0"/>
<path d="M75.434 181.754C75.434 181.834 75.05 181.903 74.5742 181.903C74.0984 181.903 73.7144 181.834 73.7144 181.754C73.7144 181.674 74.0984 181.606 74.5742 181.606C75.05 181.606 75.434 181.692 75.434 181.754Z" fill="#E0E0E0"/>
<path d="M78.8737 181.754C78.8737 181.834 78.4897 181.903 78.0139 181.903C77.5381 181.903 77.1541 181.834 77.1541 181.754C77.1541 181.674 77.5381 181.606 78.0139 181.606C78.4897 181.606 78.8737 181.692 78.8737 181.754Z" fill="#E0E0E0"/>
<path d="M82.3132 181.754C82.3132 181.834 81.9291 181.903 81.4534 181.903C80.9776 181.903 80.5935 181.834 80.5935 181.754C80.5935 181.674 80.9776 181.606 81.4534 181.606C81.9291 181.606 82.3132 181.692 82.3132 181.754Z" fill="#E0E0E0"/>
<path d="M85.5346 181.994C85.4945 181.994 85.4601 181.914 85.4314 181.777L85.5346 181.874C85.3224 181.909 85.1076 181.927 84.8926 181.925C84.4168 181.925 84.0327 181.857 84.0327 181.777C84.0327 181.697 84.4168 181.629 84.8926 181.629C85.1077 181.625 85.3228 181.642 85.5346 181.68H85.6435V181.76C85.6034 181.914 85.569 181.994 85.5346 181.994Z" fill="#E0E0E0"/>
<path d="M85.5345 185.416C85.4486 185.416 85.3855 185.034 85.3855 184.561C85.3855 184.087 85.4486 183.705 85.5345 183.705C85.6205 183.705 85.6836 184.087 85.6836 184.561C85.6836 185.034 85.6148 185.416 85.5345 185.416Z" fill="#E0E0E0"/>
<path d="M85.5345 188.839C85.4486 188.839 85.3855 188.457 85.3855 187.983C85.3855 187.51 85.4486 187.127 85.5345 187.127C85.6205 187.127 85.6836 187.51 85.6836 187.983C85.6836 188.457 85.6148 188.839 85.5345 188.839Z" fill="#E0E0E0"/>
<path d="M85.5345 192.262C85.4486 192.262 85.3855 191.88 85.3855 191.406C85.3855 190.933 85.4486 190.551 85.5345 190.551C85.6205 190.551 85.6836 190.933 85.6836 191.406C85.6836 191.88 85.6148 192.262 85.5345 192.262Z" fill="#E0E0E0"/>
<path d="M85.5345 195.684C85.4486 195.684 85.3855 195.302 85.3855 194.829C85.3855 194.355 85.4486 193.973 85.5345 193.973C85.6205 193.973 85.6836 194.355 85.6836 194.829C85.6836 195.302 85.6148 195.684 85.5345 195.684Z" fill="#E0E0E0"/>
<path d="M85.5345 199.107C85.4486 199.107 85.3855 198.725 85.3855 198.251C85.3855 197.778 85.4486 197.396 85.5345 197.396C85.6205 197.396 85.6836 197.778 85.6836 198.251C85.6836 198.725 85.6148 199.107 85.5345 199.107Z" fill="#E0E0E0"/>
<path d="M85.5345 202.53C85.4486 202.53 85.3855 202.148 85.3855 201.674C85.3855 201.201 85.4486 200.818 85.5345 200.818C85.6205 200.818 85.6836 201.201 85.6836 201.674C85.6836 202.148 85.6148 202.53 85.5345 202.53Z" fill="#E0E0E0"/>
<path d="M85.5345 205.953C85.4486 205.953 85.3855 205.57 85.3855 205.097C85.3855 204.623 85.4486 204.241 85.5345 204.241C85.6205 204.241 85.6836 204.623 85.6836 205.097C85.6836 205.57 85.6148 205.953 85.5345 205.953Z" fill="#E0E0E0"/>
<path d="M85.5345 209.375C85.4486 209.375 85.3855 208.993 85.3855 208.52C85.3855 208.046 85.4486 207.664 85.5345 207.664C85.6205 207.664 85.6836 208.046 85.6836 208.52C85.6836 208.993 85.6148 209.375 85.5345 209.375Z" fill="#E0E0E0"/>
<path d="M85.5345 212.798C85.4486 212.798 85.3855 212.416 85.3855 211.942C85.3855 211.469 85.4486 211.086 85.5345 211.086C85.6205 211.086 85.6836 211.469 85.6836 211.942C85.6836 212.416 85.6148 212.798 85.5345 212.798Z" fill="#E0E0E0"/>
<path d="M85.5345 216.221C85.4486 216.221 85.3855 215.839 85.3855 215.365C85.3855 214.892 85.4486 214.51 85.5345 214.51C85.6205 214.51 85.6836 214.892 85.6836 215.365C85.6836 215.839 85.6148 216.221 85.5345 216.221Z" fill="#E0E0E0"/>
<path d="M85.5345 219.643C85.4486 219.643 85.3855 219.261 85.3855 218.788C85.3855 218.314 85.4486 217.932 85.5345 217.932C85.6205 217.932 85.6836 218.314 85.6836 218.788C85.6836 219.261 85.6148 219.643 85.5345 219.643Z" fill="#E0E0E0"/>
<path d="M85.5345 223.066C85.4486 223.066 85.3855 222.684 85.3855 222.211C85.3855 221.737 85.4486 221.355 85.5345 221.355C85.6205 221.355 85.6836 221.737 85.6836 222.211C85.6836 222.684 85.6148 223.066 85.5345 223.066Z" fill="#E0E0E0"/>
<path d="M85.5345 226.489C85.4486 226.489 85.3855 226.107 85.3855 225.633C85.3855 225.16 85.4486 224.777 85.5345 224.777C85.6205 224.777 85.6836 225.16 85.6836 225.633C85.6836 226.107 85.6148 226.489 85.5345 226.489Z" fill="#E0E0E0"/>
<path d="M85.5345 229.912C85.4486 229.912 85.3855 229.529 85.3855 229.056C85.3855 228.582 85.4486 228.2 85.5345 228.2C85.6205 228.2 85.6836 228.582 85.6836 229.056C85.6836 229.529 85.6148 229.912 85.5345 229.912Z" fill="#E0E0E0"/>
<path d="M85.5345 233.334C85.4486 233.334 85.3855 232.952 85.3855 232.479C85.3855 232.005 85.4486 231.623 85.5345 231.623C85.6205 231.623 85.6836 232.005 85.6836 232.479C85.6836 232.952 85.6148 233.334 85.5345 233.334Z" fill="#E0E0E0"/>
<path d="M85.5345 236.757C85.4486 236.757 85.3855 236.375 85.3855 235.901C85.3855 235.428 85.4486 235.046 85.5345 235.046C85.6205 235.046 85.6836 235.428 85.6836 235.901C85.6836 236.375 85.6148 236.757 85.5345 236.757Z" fill="#E0E0E0"/>
<path d="M85.5345 240.18C85.4486 240.18 85.3855 239.798 85.3855 239.324C85.3855 238.851 85.4486 238.469 85.5345 238.469C85.6205 238.469 85.6836 238.851 85.6836 239.324C85.6836 239.798 85.6148 240.18 85.5345 240.18Z" fill="#E0E0E0"/>
<path d="M87.8044 239.866H83.2644V244.384H87.8044V239.866Z" fill="#E0E0E0"/>
<path d="M26.5432 240.482H22.0032V245H26.5432V240.482Z" fill="#E0E0E0"/>
<path d="M87.8044 179.079H83.2644V183.597H87.8044V179.079Z" fill="#E0E0E0"/>
<path d="M26.5432 179.518H22.0032V184.036H26.5432V179.518Z" fill="#E0E0E0"/>
<path d="M226.819 227.048H213.778V240.025H226.819V227.048Z" fill="#EBEBEB"/>
<path d="M243.443 227.048H230.402V240.025H243.443V227.048Z" fill="#EBEBEB"/>
<path d="M260.067 227.048H247.026V240.025H260.067V227.048Z" fill="#EBEBEB"/>
<path opacity="0.4" d="M260.067 227.048H247.026V240.025H260.067V227.048Z" fill="#EBEBEB"/>
<path opacity="0.2" d="M226.819 227.048H213.778V240.025H226.819V227.048Z" fill="#EBEBEB"/>
<path d="M259.855 17.988H39.6304V222.706H259.855V17.988Z" fill="white"/>
<path d="M259.855 17.988H39.6304V32.0953H259.855V17.988Z" fill="#B1BDD6"/>
<path d="M49.8168 26.1575C49.7955 26.5575 49.6568 26.9425 49.4179 27.2648C49.1789 27.5872 48.8502 27.8327 48.4725 27.971C48.0948 28.1094 47.6846 28.1345 47.2927 28.0432C46.9008 27.9519 46.5444 27.7482 46.2676 27.4574C45.9908 27.1666 45.8058 26.8014 45.7355 26.407C45.6652 26.0126 45.7126 25.6063 45.8719 25.2385C46.0313 24.8707 46.2955 24.5574 46.6319 24.3375C46.9683 24.1176 47.3621 24.0007 47.7646 24.0012C48.0417 24.0086 48.3145 24.0703 48.5676 24.1826C48.8207 24.295 49.0491 24.4559 49.2397 24.6562C49.4303 24.8565 49.5793 25.0921 49.6784 25.3497C49.7774 25.6073 49.8244 25.8818 49.8168 26.1575Z" fill="#FED84C"/>
<path d="M57.2518 26.1575C57.2305 26.5575 57.0918 26.9425 56.8529 27.2648C56.614 27.5872 56.2853 27.8327 55.9076 27.971C55.5298 28.1094 55.1196 28.1345 54.7277 28.0432C54.3358 27.9519 53.9794 27.7482 53.7027 27.4574C53.4259 27.1666 53.2409 26.8014 53.1706 26.407C53.1002 26.0126 53.1477 25.6063 53.307 25.2385C53.4663 24.8707 53.7305 24.5574 54.0669 24.3375C54.4033 24.1176 54.7972 24.0007 55.1997 24.0012C55.4767 24.0086 55.7496 24.0703 56.0027 24.1826C56.2558 24.295 56.4842 24.4559 56.6748 24.6562C56.8653 24.8565 57.0144 25.0921 57.1134 25.3497C57.2124 25.6073 57.2595 25.8818 57.2518 26.1575Z" fill="#FED84C"/>
<path d="M64.0788 24.6347C64.4656 25.0485 64.6806 25.5926 64.6806 26.1578C64.6806 26.7229 64.4656 27.2671 64.0788 27.6809C63.8937 27.8796 63.6693 28.0381 63.4198 28.1466C63.1702 28.255 62.9008 28.3109 62.6285 28.3109C62.3562 28.3109 62.0869 28.255 61.8373 28.1466C61.5877 28.0381 61.3634 27.8796 61.1783 27.6809C60.7914 27.2671 60.5764 26.7229 60.5764 26.1578C60.5764 25.5926 60.7914 25.0485 61.1783 24.6347C61.3634 24.436 61.5877 24.2774 61.8373 24.169C62.0869 24.0606 62.3562 24.0046 62.6285 24.0046C62.9008 24.0046 63.1702 24.0606 63.4198 24.169C63.6693 24.2774 63.8937 24.436 64.0788 24.6347Z" fill="#FED84C"/>
<path d="M259.855 222.713C259.855 221.634 259.803 141.024 259.729 17.9887L259.855 18.1199H39.6476L39.7966 17.9716C39.7966 92.6494 39.7966 162.809 39.7966 222.695L39.6648 222.564L259.889 222.695L39.6304 222.827H39.4985V222.695C39.4985 162.798 39.4985 92.6323 39.4985 17.9716V17.8232H39.6648H259.872H260.004V17.9487C259.906 141.024 259.855 221.634 259.855 222.713Z" fill="#263238"/>
<path d="M70.3779 90.3732C70.3779 90.2933 70.762 90.2249 71.2378 90.2249C71.7136 90.2249 72.0976 90.2933 72.0976 90.3732C72.0976 90.453 71.7136 90.5215 71.2378 90.5215C70.762 90.5215 70.3779 90.4815 70.3779 90.3732Z" fill="#263238"/>
<path d="M66.9385 90.3732C66.9385 90.2933 67.3225 90.2249 67.7983 90.2249C68.2741 90.2249 68.6582 90.2933 68.6582 90.3732C68.6582 90.453 68.2741 90.5215 67.7983 90.5215C67.3225 90.5215 66.9385 90.4815 66.9385 90.3732Z" fill="#263238"/>
<path d="M63.499 90.3732C63.499 90.2933 63.8831 90.2249 64.3589 90.2249C64.8347 90.2249 65.2187 90.2933 65.2187 90.3732C65.2187 90.453 64.8347 90.5215 64.3589 90.5215C63.8831 90.5215 63.499 90.4815 63.499 90.3732Z" fill="#263238"/>
<path d="M60.0601 90.3732C60.0601 90.2933 60.4441 90.2249 60.9199 90.2249C61.3957 90.2249 61.7798 90.2933 61.7798 90.3732C61.7798 90.453 61.3957 90.5215 60.9199 90.5215C60.4441 90.5215 60.0601 90.4815 60.0601 90.3732Z" fill="#263238"/>
<path d="M56.6206 90.3732C56.6206 90.2933 57.0047 90.2249 57.4805 90.2249C57.9562 90.2249 58.3403 90.2933 58.3403 90.3732C58.3403 90.453 57.9562 90.5215 57.4805 90.5215C57.0047 90.5215 56.6206 90.4815 56.6206 90.3732Z" fill="#263238"/>
<path d="M53.1809 90.3732C53.1809 90.2933 53.565 90.2249 54.0408 90.2249C54.5165 90.2249 54.9006 90.2933 54.9006 90.3732C54.9006 90.453 54.5165 90.5215 54.0408 90.5215C53.565 90.5215 53.1809 90.4815 53.1809 90.3732Z" fill="#263238"/>
<path d="M49.7417 90.3732C49.7417 90.2933 50.1258 90.2249 50.6015 90.2249C51.0773 90.2249 51.4614 90.2933 51.4614 90.3732C51.4614 90.453 51.0773 90.5215 50.6015 90.5215C50.1258 90.5215 49.7417 90.4815 49.7417 90.3732Z" fill="#263238"/>
<path d="M46.3022 90.3732C46.3022 90.2933 46.6863 90.2249 47.1621 90.2249C47.6379 90.2249 48.0219 90.2933 48.0219 90.3732C48.0219 90.453 47.6379 90.5215 47.1621 90.5215C46.6863 90.5215 46.3022 90.4815 46.3022 90.3732Z" fill="#263238"/>
<path d="M42.863 90.3732C42.863 90.2933 43.2471 90.2249 43.7229 90.2249C44.1987 90.2249 44.5827 90.2933 44.5827 90.3732C44.5827 90.453 44.1987 90.5215 43.7229 90.5215C43.2471 90.5215 42.863 90.4815 42.863 90.3732Z" fill="#263238"/>
<path d="M39.4236 90.3732C39.4236 90.2933 39.8077 90.2249 40.2834 90.2249C40.7592 90.2249 41.1433 90.2933 41.1433 90.3732C41.1433 90.453 40.7592 90.5215 40.2834 90.5215C39.8077 90.5215 39.4236 90.4815 39.4236 90.3732Z" fill="#263238"/>
<path d="M35.9841 90.3732C35.9841 90.2933 36.3682 90.2249 36.844 90.2249C37.3198 90.2249 37.7038 90.2933 37.7038 90.3732C37.7038 90.453 37.3198 90.5215 36.844 90.5215C36.3682 90.5215 35.9841 90.4815 35.9841 90.3732Z" fill="#263238"/>
<path d="M32.5449 90.3732C32.5449 90.2933 32.929 90.2249 33.4048 90.2249C33.8806 90.2249 34.2646 90.2933 34.2646 90.3732C34.2646 90.453 33.8806 90.5215 33.4048 90.5215C32.929 90.5215 32.5449 90.4815 32.5449 90.3732Z" fill="#263238"/>
<path d="M30.0912 89.3921C30.1771 89.3921 30.2402 89.7743 30.2402 90.2478V90.3733L30.0912 90.225C30.5096 90.225 30.8249 90.2991 30.8249 90.3733C30.8249 90.4474 30.5096 90.5102 30.0912 90.5216H29.9478V90.2478C29.9421 89.7743 30.0109 89.3921 30.0912 89.3921Z" fill="#263238"/>
<path d="M30.0914 85.9692C30.1774 85.9692 30.2405 86.3514 30.2405 86.8249C30.2405 87.2984 30.1774 87.6806 30.0914 87.6806C30.0054 87.6806 29.9424 87.2927 29.9424 86.8249C29.9424 86.3571 30.0112 85.9692 30.0914 85.9692Z" fill="#263238"/>
<path d="M30.0914 82.5466C30.1774 82.5466 30.2405 82.9288 30.2405 83.4023C30.2405 83.8758 30.1774 84.258 30.0914 84.258C30.0054 84.258 29.9424 83.8701 29.9424 83.4023C29.9424 82.9345 30.0112 82.5466 30.0914 82.5466Z" fill="#263238"/>
<path d="M30.0914 79.124C30.1774 79.124 30.2405 79.5062 30.2405 79.9797C30.2405 80.4532 30.1774 80.8354 30.0914 80.8354C30.0054 80.8354 29.9424 80.4475 29.9424 79.9797C29.9424 79.5119 30.0112 79.124 30.0914 79.124Z" fill="#263238"/>
<path d="M30.0914 75.7012C30.1774 75.7012 30.2405 76.0834 30.2405 76.5569C30.2405 77.0303 30.1774 77.4125 30.0914 77.4125C30.0054 77.4125 29.9424 77.0246 29.9424 76.5569C29.9424 76.0891 30.0112 75.7012 30.0914 75.7012Z" fill="#263238"/>
<path d="M30.0914 72.2781C30.1774 72.2781 30.2405 72.6603 30.2405 73.1338C30.2405 73.6072 30.1774 73.9894 30.0914 73.9894C30.0054 73.9894 29.9424 73.6015 29.9424 73.1338C29.9424 72.666 30.0112 72.2781 30.0914 72.2781Z" fill="#263238"/>
<path d="M30.0914 68.8557C30.1774 68.8557 30.2405 69.2379 30.2405 69.7114C30.2405 70.1849 30.1774 70.5671 30.0914 70.5671C30.0054 70.5671 29.9424 70.1792 29.9424 69.7114C29.9424 69.2436 30.0112 68.8557 30.0914 68.8557Z" fill="#263238"/>
<path d="M30.0914 65.4331C30.1774 65.4331 30.2405 65.8153 30.2405 66.2888C30.2405 66.7622 30.1774 67.1444 30.0914 67.1444C30.0054 67.1444 29.9424 66.7565 29.9424 66.2888C29.9424 65.821 30.0112 65.4331 30.0914 65.4331Z" fill="#263238"/>
<path d="M30.0914 62.0105C30.1774 62.0105 30.2405 62.3927 30.2405 62.8662C30.2405 63.3396 30.1774 63.7219 30.0914 63.7219C30.0054 63.7219 29.9424 63.3339 29.9424 62.8662C29.9424 62.3984 30.0112 62.0105 30.0914 62.0105Z" fill="#263238"/>
<path d="M30.0914 58.5876C30.1774 58.5876 30.2405 58.9698 30.2405 59.4433C30.2405 59.9168 30.1774 60.299 30.0914 60.299C30.0054 60.299 29.9424 59.9111 29.9424 59.4433C29.9424 58.9756 30.0112 58.5876 30.0914 58.5876Z" fill="#263238"/>
<path d="M30.0914 55.1648C30.1774 55.1648 30.2405 55.547 30.2405 56.0205C30.2405 56.4939 30.1774 56.8762 30.0914 56.8762C30.0054 56.8762 29.9424 56.4882 29.9424 56.0205C29.9424 55.5527 30.0112 55.1648 30.0914 55.1648Z" fill="#263238"/>
<path d="M30.0914 51.7422C30.1774 51.7422 30.2405 52.1244 30.2405 52.5979C30.2405 53.0713 30.1774 53.4535 30.0914 53.4535C30.0054 53.4535 29.9424 53.0656 29.9424 52.5979C29.9424 52.1301 30.0112 51.7422 30.0914 51.7422Z" fill="#263238"/>
<path d="M30.3493 48.5705C30.3493 48.6161 30.2519 48.6503 30.0914 48.6789L30.2003 48.5705C30.2307 48.7706 30.2441 48.9728 30.2404 49.1752C30.2404 49.6429 30.1774 50.0308 30.0914 50.0308C30.0054 50.0308 29.9423 49.6429 29.9423 49.1752C29.9402 48.9727 29.9555 48.7704 29.9882 48.5705V48.4507H30.0742C30.2519 48.4963 30.3493 48.5305 30.3493 48.5705Z" fill="#263238"/>
<path d="M33.7888 48.5707C33.7888 48.6562 33.4047 48.7247 32.9289 48.7247C32.4532 48.7247 32.0691 48.6562 32.0691 48.5707C32.0691 48.4851 32.4532 48.4224 32.9289 48.4224C33.4047 48.4224 33.7888 48.4908 33.7888 48.5707Z" fill="#263238"/>
<path d="M37.228 48.5707C37.228 48.6562 36.8439 48.7247 36.3681 48.7247C35.8924 48.7247 35.5083 48.6562 35.5083 48.5707C35.5083 48.4851 35.8924 48.4224 36.3681 48.4224C36.8439 48.4224 37.228 48.4908 37.228 48.5707Z" fill="#263238"/>
<path d="M40.6675 48.5707C40.6675 48.6562 40.2834 48.7247 39.8076 48.7247C39.3318 48.7247 38.9478 48.6562 38.9478 48.5707C38.9478 48.4851 39.3318 48.4224 39.8076 48.4224C40.2834 48.4224 40.6675 48.4908 40.6675 48.5707Z" fill="#263238"/>
<path d="M44.1069 48.5707C44.1069 48.6562 43.7228 48.7247 43.2471 48.7247C42.7713 48.7247 42.3872 48.6562 42.3872 48.5707C42.3872 48.4851 42.7713 48.4224 43.2471 48.4224C43.7228 48.4224 44.1069 48.4908 44.1069 48.5707Z" fill="#263238"/>
<path d="M47.5464 48.5707C47.5464 48.6562 47.1623 48.7247 46.6865 48.7247C46.2107 48.7247 45.8267 48.6562 45.8267 48.5707C45.8267 48.4851 46.2107 48.4224 46.6865 48.4224C47.1623 48.4224 47.5464 48.4908 47.5464 48.5707Z" fill="#263238"/>
<path d="M50.9856 48.5707C50.9856 48.6562 50.6015 48.7247 50.1257 48.7247C49.6499 48.7247 49.2659 48.6562 49.2659 48.5707C49.2659 48.4851 49.6499 48.4224 50.1257 48.4224C50.6015 48.4224 50.9856 48.4908 50.9856 48.5707Z" fill="#263238"/>
<path d="M54.4248 48.5707C54.4248 48.6562 54.0407 48.7247 53.5649 48.7247C53.0891 48.7247 52.7051 48.6562 52.7051 48.5707C52.7051 48.4851 53.0891 48.4224 53.5649 48.4224C54.0407 48.4224 54.4248 48.4908 54.4248 48.5707Z" fill="#263238"/>
<path d="M57.8642 48.5707C57.8642 48.6562 57.4802 48.7247 57.0044 48.7247C56.5286 48.7247 56.1445 48.6562 56.1445 48.5707C56.1445 48.4851 56.5286 48.4224 57.0044 48.4224C57.4802 48.4224 57.8642 48.4908 57.8642 48.5707Z" fill="#263238"/>
<path d="M61.3039 48.5707C61.3039 48.6562 60.9199 48.7247 60.4441 48.7247C59.9683 48.7247 59.5842 48.6562 59.5842 48.5707C59.5842 48.4851 59.9683 48.4224 60.4441 48.4224C60.9199 48.4224 61.3039 48.4908 61.3039 48.5707Z" fill="#263238"/>
<path d="M64.7431 48.5707C64.7431 48.6562 64.3591 48.7247 63.8833 48.7247C63.4075 48.7247 63.0234 48.6562 63.0234 48.5707C63.0234 48.4851 63.4075 48.4224 63.8833 48.4224C64.3591 48.4224 64.7431 48.4908 64.7431 48.5707Z" fill="#263238"/>
<path d="M68.1828 48.5707C68.1828 48.6562 67.7988 48.7247 67.323 48.7247C66.8472 48.7247 66.4631 48.6562 66.4631 48.5707C66.4631 48.4851 66.8472 48.4224 67.323 48.4224C67.7988 48.4224 68.1828 48.4908 68.1828 48.5707Z" fill="#263238"/>
<path d="M71.6223 48.5707C71.6223 48.6562 71.2382 48.7247 70.7624 48.7247C70.2867 48.7247 69.9026 48.6562 69.9026 48.5707C69.9026 48.4851 70.2867 48.4224 70.7624 48.4224C71.2382 48.4224 71.6223 48.4908 71.6223 48.5707Z" fill="#263238"/>
<path d="M72.098 51.5253C72.0178 51.5253 71.949 51.1431 71.949 50.6696C71.949 50.1962 72.0178 49.814 72.098 49.814C72.1783 49.814 72.2471 50.1962 72.2471 50.6696C72.2471 51.1431 72.1783 51.5253 72.098 51.5253Z" fill="#263238"/>
<path d="M72.098 54.9479C72.0178 54.9479 71.949 54.5657 71.949 54.0923C71.949 53.6188 72.0178 53.2366 72.098 53.2366C72.1783 53.2366 72.2471 53.6188 72.2471 54.0923C72.2471 54.5657 72.1783 54.9479 72.098 54.9479Z" fill="#263238"/>
<path d="M72.098 58.3708C72.0178 58.3708 71.949 57.9886 71.949 57.5151C71.949 57.0416 72.0178 56.6594 72.098 56.6594C72.1783 56.6594 72.2471 57.0416 72.2471 57.5151C72.2471 57.9886 72.1783 58.3708 72.098 58.3708Z" fill="#263238"/>
<path d="M72.098 61.7936C72.0178 61.7936 71.949 61.4114 71.949 60.938C71.949 60.4645 72.0178 60.0823 72.098 60.0823C72.1783 60.0823 72.2471 60.4645 72.2471 60.938C72.2471 61.4114 72.1783 61.7936 72.098 61.7936Z" fill="#263238"/>
<path d="M72.098 65.2162C72.0178 65.2162 71.949 64.834 71.949 64.3606C71.949 63.8871 72.0178 63.5049 72.098 63.5049C72.1783 63.5049 72.2471 63.8871 72.2471 64.3606C72.2471 64.834 72.1783 65.2162 72.098 65.2162Z" fill="#263238"/>
<path d="M72.098 68.6388C72.0178 68.6388 71.949 68.2566 71.949 67.7832C71.949 67.3097 72.0178 66.9275 72.098 66.9275C72.1783 66.9275 72.2471 67.3097 72.2471 67.7832C72.2471 68.2566 72.1783 68.6388 72.098 68.6388Z" fill="#263238"/>
<path d="M72.098 72.0617C72.0178 72.0617 71.949 71.6795 71.949 71.206C71.949 70.7325 72.0178 70.3503 72.098 70.3503C72.1783 70.3503 72.2471 70.7325 72.2471 71.206C72.2471 71.6795 72.1783 72.0617 72.098 72.0617Z" fill="#263238"/>
<path d="M72.098 75.4843C72.0178 75.4843 71.949 75.1021 71.949 74.6286C71.949 74.1552 72.0178 73.7729 72.098 73.7729C72.1783 73.7729 72.2471 74.1552 72.2471 74.6286C72.2471 75.1021 72.1783 75.4843 72.098 75.4843Z" fill="#263238"/>
<path d="M72.098 78.9069C72.0178 78.9069 71.949 78.5247 71.949 78.0512C71.949 77.5778 72.0178 77.1956 72.098 77.1956C72.1783 77.1956 72.2471 77.5778 72.2471 78.0512C72.2471 78.5247 72.1783 78.9069 72.098 78.9069Z" fill="#263238"/>
<path d="M72.098 82.3298C72.0178 82.3298 71.949 81.9476 71.949 81.4741C71.949 81.0006 72.0178 80.6184 72.098 80.6184C72.1783 80.6184 72.2471 81.0006 72.2471 81.4741C72.2471 81.9476 72.1783 82.3298 72.098 82.3298Z" fill="#263238"/>
<path d="M72.098 85.7526C72.0178 85.7526 71.949 85.3704 71.949 84.8969C71.949 84.4235 72.0178 84.0413 72.098 84.0413C72.1783 84.0413 72.2471 84.4235 72.2471 84.8969C72.2471 85.3704 72.1783 85.7526 72.098 85.7526Z" fill="#263238"/>
<path d="M72.098 89.1752C72.0178 89.1752 71.949 88.793 71.949 88.3195C71.949 87.8461 72.0178 87.4639 72.098 87.4639C72.1783 87.4639 72.2471 87.8461 72.2471 88.3195C72.2471 88.793 72.1783 89.1752 72.098 89.1752Z" fill="#263238"/>
<path d="M73.6571 88.3994H70.5444V91.497H73.6571V88.3994Z" fill="#263238"/>
<path d="M31.6505 88.8215H28.5378V91.9191H31.6505V88.8215Z" fill="#263238"/>
<path d="M73.6571 46.7222H70.5444V49.8197H73.6571V46.7222Z" fill="#263238"/>
<path d="M31.6505 47.0244H28.5378V50.122H31.6505V47.0244Z" fill="#263238"/>
<path d="M71.989 230.63C71.989 230.55 72.3731 230.482 72.8489 230.482C73.3246 230.482 73.7087 230.55 73.7087 230.63C73.7087 230.71 73.3246 230.784 72.8489 230.784C72.3731 230.784 71.989 230.716 71.989 230.63Z" fill="#FED84C"/>
<path d="M68.5496 230.63C68.5496 230.55 68.9336 230.482 69.4094 230.482C69.8852 230.482 70.2693 230.55 70.2693 230.63C70.2693 230.71 69.8852 230.784 69.4094 230.784C68.9336 230.784 68.5496 230.716 68.5496 230.63Z" fill="#FED84C"/>
<path d="M65.1099 230.63C65.1099 230.55 65.4939 230.482 65.9697 230.482C66.4455 230.482 66.8296 230.55 66.8296 230.63C66.8296 230.71 66.4455 230.784 65.9697 230.784C65.4939 230.784 65.1099 230.716 65.1099 230.63Z" fill="#FED84C"/>
<path d="M61.6707 230.63C61.6707 230.55 62.0547 230.482 62.5305 230.482C63.0063 230.482 63.3904 230.55 63.3904 230.63C63.3904 230.71 63.0063 230.784 62.5305 230.784C62.0547 230.784 61.6707 230.716 61.6707 230.63Z" fill="#FED84C"/>
<path d="M58.2312 230.63C58.2312 230.55 58.6153 230.482 59.091 230.482C59.5668 230.482 59.9509 230.55 59.9509 230.63C59.9509 230.71 59.5668 230.784 59.091 230.784C58.6153 230.784 58.2312 230.716 58.2312 230.63Z" fill="#FED84C"/>
<path d="M54.792 230.63C54.792 230.55 55.1761 230.482 55.6518 230.482C56.1276 230.482 56.5117 230.55 56.5117 230.63C56.5117 230.71 56.1276 230.784 55.6518 230.784C55.1761 230.784 54.792 230.716 54.792 230.63Z" fill="#FED84C"/>
<path d="M51.3525 230.63C51.3525 230.55 51.7366 230.482 52.2124 230.482C52.6882 230.482 53.0722 230.55 53.0722 230.63C53.0722 230.71 52.6882 230.784 52.2124 230.784C51.7366 230.784 51.3525 230.716 51.3525 230.63Z" fill="#FED84C"/>
<path d="M47.9128 230.63C47.9128 230.55 48.2969 230.482 48.7727 230.482C49.2485 230.482 49.6325 230.55 49.6325 230.63C49.6325 230.71 49.2485 230.784 48.7727 230.784C48.2969 230.784 47.9128 230.716 47.9128 230.63Z" fill="#FED84C"/>
<path d="M44.4739 230.63C44.4739 230.55 44.8579 230.482 45.3337 230.482C45.8095 230.482 46.1936 230.55 46.1936 230.63C46.1936 230.71 45.8095 230.784 45.3337 230.784C44.8579 230.784 44.4739 230.716 44.4739 230.63Z" fill="#FED84C"/>
<path d="M41.0344 230.63C41.0344 230.55 41.4185 230.482 41.8943 230.482C42.3701 230.482 42.7541 230.55 42.7541 230.63C42.7541 230.71 42.3701 230.784 41.8943 230.784C41.4185 230.784 41.0344 230.716 41.0344 230.63Z" fill="#FED84C"/>
<path d="M37.595 230.63C37.595 230.55 37.979 230.482 38.4548 230.482C38.9306 230.482 39.3147 230.55 39.3147 230.63C39.3147 230.71 38.9306 230.784 38.4548 230.784C37.979 230.784 37.595 230.716 37.595 230.63Z" fill="#FED84C"/>
<path d="M34.1555 230.63C34.1555 230.55 34.5396 230.482 35.0154 230.482C35.4911 230.482 35.8752 230.55 35.8752 230.63C35.8752 230.71 35.4911 230.784 35.0154 230.784C34.5396 230.784 34.1555 230.716 34.1555 230.63Z" fill="#FED84C"/>
<path d="M31.7081 229.672C31.7884 229.672 31.8572 230.054 31.8572 230.528V230.653L31.7139 230.511C32.1266 230.511 32.4419 230.579 32.4419 230.653C32.4419 230.727 32.1266 230.79 31.7139 230.802H31.5648V230.522C31.5591 230.031 31.6221 229.672 31.7081 229.672Z" fill="#FED84C"/>
<path d="M31.7076 226.249C31.7879 226.249 31.8567 226.631 31.8567 227.105C31.8567 227.578 31.7879 227.961 31.7076 227.961C31.6274 227.961 31.5586 227.578 31.5586 227.105C31.5586 226.631 31.6216 226.249 31.7076 226.249Z" fill="#FED84C"/>
<path d="M31.7076 222.826C31.7879 222.826 31.8567 223.209 31.8567 223.682C31.8567 224.156 31.7879 224.538 31.7076 224.538C31.6274 224.538 31.5586 224.156 31.5586 223.682C31.5586 223.209 31.6216 222.826 31.7076 222.826Z" fill="#FED84C"/>
<path d="M31.7076 219.404C31.7879 219.404 31.8567 219.786 31.8567 220.259C31.8567 220.733 31.7879 221.115 31.7076 221.115C31.6274 221.115 31.5586 220.733 31.5586 220.259C31.5586 219.786 31.6216 219.404 31.7076 219.404Z" fill="#FED84C"/>
<path d="M31.7076 215.981C31.7879 215.981 31.8567 216.363 31.8567 216.837C31.8567 217.31 31.7879 217.692 31.7076 217.692C31.6274 217.692 31.5586 217.31 31.5586 216.837C31.5586 216.363 31.6216 215.981 31.7076 215.981Z" fill="#FED84C"/>
<path d="M31.7076 212.558C31.7879 212.558 31.8567 212.941 31.8567 213.414C31.8567 213.888 31.7879 214.27 31.7076 214.27C31.6274 214.27 31.5586 213.888 31.5586 213.414C31.5586 212.941 31.6216 212.558 31.7076 212.558Z" fill="#FED84C"/>
<path d="M31.7076 209.135C31.7879 209.135 31.8567 209.518 31.8567 209.991C31.8567 210.465 31.7879 210.847 31.7076 210.847C31.6274 210.847 31.5586 210.465 31.5586 209.991C31.5586 209.518 31.6216 209.135 31.7076 209.135Z" fill="#FED84C"/>
<path d="M31.7076 205.713C31.7879 205.713 31.8567 206.095 31.8567 206.569C31.8567 207.042 31.7879 207.424 31.7076 207.424C31.6274 207.424 31.5586 207.042 31.5586 206.569C31.5586 206.095 31.6216 205.713 31.7076 205.713Z" fill="#FED84C"/>
<path d="M31.7076 202.29C31.7879 202.29 31.8567 202.672 31.8567 203.146C31.8567 203.619 31.7879 204.002 31.7076 204.002C31.6274 204.002 31.5586 203.619 31.5586 203.146C31.5586 202.672 31.6216 202.29 31.7076 202.29Z" fill="#FED84C"/>
<path d="M31.7076 198.867C31.7879 198.867 31.8567 199.249 31.8567 199.723C31.8567 200.196 31.7879 200.579 31.7076 200.579C31.6274 200.579 31.5586 200.196 31.5586 199.723C31.5586 199.249 31.6216 198.867 31.7076 198.867Z" fill="#FED84C"/>
<path d="M31.7076 195.445C31.7879 195.445 31.8567 195.827 31.8567 196.301C31.8567 196.774 31.7879 197.156 31.7076 197.156C31.6274 197.156 31.5586 196.774 31.5586 196.301C31.5586 195.827 31.6216 195.445 31.7076 195.445Z" fill="#FED84C"/>
<path d="M31.7076 192.022C31.7879 192.022 31.8567 192.404 31.8567 192.878C31.8567 193.351 31.7879 193.733 31.7076 193.733C31.6274 193.733 31.5586 193.351 31.5586 192.878C31.5586 192.404 31.6216 192.022 31.7076 192.022Z" fill="#FED84C"/>
<path d="M31.9598 188.833C31.9598 188.873 31.8624 188.913 31.7076 188.942L31.8108 188.833C31.8419 189.022 31.8572 189.213 31.8567 189.404C31.8567 189.877 31.7879 190.259 31.7076 190.259C31.6274 190.259 31.5586 189.877 31.5586 189.404C31.5564 189.213 31.5698 189.022 31.5987 188.833V188.713H31.6847C31.8624 188.753 31.9598 188.793 31.9598 188.833Z" fill="#FED84C"/>
<path d="M35.3994 188.833C35.3994 188.913 35.0153 188.982 34.5395 188.982C34.0638 188.982 33.6797 188.913 33.6797 188.833C33.6797 188.754 34.0695 188.685 34.5395 188.685C35.0096 188.685 35.3994 188.754 35.3994 188.833Z" fill="#FED84C"/>
<path d="M38.8386 188.833C38.8386 188.913 38.4545 188.982 37.9787 188.982C37.503 188.982 37.1189 188.913 37.1189 188.833C37.1189 188.754 37.5087 188.685 37.9787 188.685C38.4488 188.685 38.8386 188.754 38.8386 188.833Z" fill="#FED84C"/>
<path d="M42.2783 188.833C42.2783 188.913 41.8942 188.982 41.4184 188.982C40.9427 188.982 40.5586 188.913 40.5586 188.833C40.5586 188.754 40.9484 188.685 41.4184 188.685C41.8885 188.685 42.2783 188.754 42.2783 188.833Z" fill="#FED84C"/>
<path d="M45.7177 188.833C45.7177 188.913 45.3337 188.982 44.8579 188.982C44.3821 188.982 43.998 188.913 43.998 188.833C43.998 188.754 44.3878 188.685 44.8579 188.685C45.3279 188.685 45.7177 188.754 45.7177 188.833Z" fill="#FED84C"/>
<path d="M49.157 188.833C49.157 188.913 48.7729 188.982 48.2971 188.982C47.8213 188.982 47.4373 188.913 47.4373 188.833C47.4373 188.754 47.8271 188.685 48.2971 188.685C48.7672 188.685 49.157 188.754 49.157 188.833Z" fill="#FED84C"/>
<path d="M52.5964 188.833C52.5964 188.913 52.2123 188.982 51.7366 188.982C51.2608 188.982 50.8767 188.913 50.8767 188.833C50.8767 188.754 51.2665 188.685 51.7366 188.685C52.2066 188.685 52.5964 188.754 52.5964 188.833Z" fill="#FED84C"/>
<path d="M56.0359 188.833C56.0359 188.913 55.6518 188.982 55.176 188.982C54.7002 188.982 54.3162 188.913 54.3162 188.833C54.3162 188.754 54.706 188.685 55.176 188.685C55.6461 188.685 56.0359 188.754 56.0359 188.833Z" fill="#FED84C"/>
<path d="M59.4753 188.833C59.4753 188.913 59.0912 188.982 58.6155 188.982C58.1397 188.982 57.7556 188.913 57.7556 188.833C57.7556 188.754 58.1454 188.685 58.6155 188.685C59.0855 188.685 59.4753 188.754 59.4753 188.833Z" fill="#FED84C"/>
<path d="M62.9145 188.833C62.9145 188.913 62.5305 188.982 62.0547 188.982C61.5789 188.982 61.1948 188.913 61.1948 188.833C61.1948 188.754 61.5846 188.685 62.0547 188.685C62.5247 188.685 62.9145 188.754 62.9145 188.833Z" fill="#FED84C"/>
<path d="M66.354 188.833C66.354 188.913 65.9699 188.982 65.4941 188.982C65.0183 188.982 64.6343 188.913 64.6343 188.833C64.6343 188.754 65.0241 188.685 65.4941 188.685C65.9642 188.685 66.354 188.754 66.354 188.833Z" fill="#FED84C"/>
<path d="M69.7934 188.833C69.7934 188.913 69.4094 188.982 68.9336 188.982C68.4578 188.982 68.0737 188.913 68.0737 188.833C68.0737 188.754 68.4635 188.685 68.9336 188.685C69.4036 188.685 69.7934 188.754 69.7934 188.833Z" fill="#FED84C"/>
<path d="M73.2329 188.833C73.2329 188.913 72.8488 188.982 72.373 188.982C71.8972 188.982 71.5132 188.913 71.5132 188.833C71.5132 188.754 71.903 188.685 72.373 188.685C72.8431 188.685 73.2329 188.754 73.2329 188.833Z" fill="#FED84C"/>
<path d="M73.7086 191.783C73.6284 191.783 73.5596 191.4 73.5596 190.927C73.5596 190.453 73.6284 190.071 73.7086 190.071C73.7889 190.071 73.8576 190.453 73.8576 190.927C73.8576 191.4 73.7717 191.783 73.7086 191.783Z" fill="#FED84C"/>
<path d="M73.7086 195.205C73.6284 195.205 73.5596 194.823 73.5596 194.35C73.5596 193.876 73.6284 193.494 73.7086 193.494C73.7889 193.494 73.8576 193.876 73.8576 194.35C73.8576 194.823 73.7717 195.205 73.7086 195.205Z" fill="#FED84C"/>
<path d="M73.7086 198.628C73.6284 198.628 73.5596 198.246 73.5596 197.772C73.5596 197.299 73.6284 196.917 73.7086 196.917C73.7889 196.917 73.8576 197.299 73.8576 197.772C73.8576 198.246 73.7717 198.628 73.7086 198.628Z" fill="#FED84C"/>
<path d="M73.7086 202.05C73.6284 202.05 73.5596 201.668 73.5596 201.195C73.5596 200.721 73.6284 200.339 73.7086 200.339C73.7889 200.339 73.8576 200.721 73.8576 201.195C73.8576 201.668 73.7717 202.05 73.7086 202.05Z" fill="#FED84C"/>
<path d="M73.7086 205.473C73.6284 205.473 73.5596 205.091 73.5596 204.618C73.5596 204.144 73.6284 203.762 73.7086 203.762C73.7889 203.762 73.8576 204.144 73.8576 204.618C73.8576 205.091 73.7717 205.473 73.7086 205.473Z" fill="#FED84C"/>
<path d="M73.7086 208.896C73.6284 208.896 73.5596 208.514 73.5596 208.04C73.5596 207.567 73.6284 207.185 73.7086 207.185C73.7889 207.185 73.8576 207.567 73.8576 208.04C73.8576 208.514 73.7717 208.896 73.7086 208.896Z" fill="#FED84C"/>
<path d="M73.7086 212.319C73.6284 212.319 73.5596 211.937 73.5596 211.463C73.5596 210.99 73.6284 210.607 73.7086 210.607C73.7889 210.607 73.8576 210.99 73.8576 211.463C73.8576 211.937 73.7717 212.319 73.7086 212.319Z" fill="#FED84C"/>
<path d="M73.7086 215.741C73.6284 215.741 73.5596 215.359 73.5596 214.886C73.5596 214.412 73.6284 214.03 73.7086 214.03C73.7889 214.03 73.8576 214.412 73.8576 214.886C73.8576 215.359 73.7717 215.741 73.7086 215.741Z" fill="#FED84C"/>
<path d="M73.7086 219.164C73.6284 219.164 73.5596 218.782 73.5596 218.309C73.5596 217.835 73.6284 217.453 73.7086 217.453C73.7889 217.453 73.8576 217.835 73.8576 218.309C73.8576 218.782 73.7717 219.164 73.7086 219.164Z" fill="#FED84C"/>
<path d="M73.7086 222.587C73.6284 222.587 73.5596 222.205 73.5596 221.731C73.5596 221.258 73.6284 220.875 73.7086 220.875C73.7889 220.875 73.8576 221.258 73.8576 221.731C73.8576 222.205 73.7717 222.587 73.7086 222.587Z" fill="#FED84C"/>
<path d="M73.7086 226.009C73.6284 226.009 73.5596 225.627 73.5596 225.154C73.5596 224.68 73.6284 224.298 73.7086 224.298C73.7889 224.298 73.8576 224.68 73.8576 225.154C73.8576 225.627 73.7717 226.009 73.7086 226.009Z" fill="#FED84C"/>
<path d="M73.7086 229.432C73.6284 229.432 73.5596 229.05 73.5596 228.576C73.5596 228.103 73.6284 227.721 73.7086 227.721C73.7889 227.721 73.8576 228.103 73.8576 228.576C73.8576 229.05 73.7717 229.432 73.7086 229.432Z" fill="#FED84C"/>
<path d="M75.2677 228.662H72.155V231.76H75.2677V228.662Z" fill="#FED84C"/>
<path d="M33.2669 229.084H30.1543V232.182H33.2669V229.084Z" fill="#FED84C"/>
<path d="M75.2677 186.979H72.155V190.077H75.2677V186.979Z" fill="#FED84C"/>
<path d="M33.2669 187.281H30.1543V190.379H33.2669V187.281Z" fill="#FED84C"/>
<path d="M189.702 84.897C189.744 85.0167 189.769 85.1414 189.777 85.2678C189.811 85.5644 189.857 85.9238 189.909 86.3687C190.012 87.3385 190.132 88.776 190.235 90.6414C190.453 94.3779 190.608 99.8428 190.356 106.705C190.213 110.128 189.972 113.91 189.553 117.989C189.152 122.382 188.439 126.742 187.421 131.035C186.173 135.894 183.819 140.403 180.542 144.213C176.901 148.426 172.013 151.383 166.578 152.661L166.985 152.199C166.911 157.299 166.836 162.615 166.756 168.097C166.718 170.839 166.678 173.619 166.636 176.437C166.607 177.846 166.584 179.29 166.555 180.687L166.423 182.872L166.062 185.04C164.411 192.69 158.931 198.982 152.356 202.153C145.969 205.296 138.616 205.886 131.806 203.802C125.637 201.933 120.446 197.741 117.338 192.119C115.972 189.576 115.105 186.798 114.781 183.933C114.54 181.149 114.661 178.582 114.609 176.078C114.609 166.175 114.552 158.137 114.534 152.49C114.534 149.763 114.534 147.618 114.563 146.078C114.563 145.393 114.563 144.84 114.597 144.412C114.589 144.221 114.605 144.029 114.643 143.842C114.684 144.029 114.703 144.221 114.701 144.412C114.701 144.846 114.741 145.393 114.769 146.084C114.804 147.618 114.861 149.769 114.93 152.496C115.022 158.137 115.159 166.186 115.331 176.078C115.4 178.554 115.331 181.212 115.561 183.853C115.894 186.612 116.75 189.284 118.083 191.726C121.108 197.135 126.134 201.156 132.093 202.935C138.669 204.921 145.759 204.333 151.915 201.292C158.249 198.217 163.5 192.165 165.071 184.857C165.718 182.119 165.529 179.278 165.644 176.449C165.758 173.619 165.73 170.853 165.776 168.109C165.867 162.621 165.953 157.299 166.039 152.193V151.822L166.441 151.731C171.642 150.481 176.321 147.643 179.82 143.614C183.034 139.918 185.356 135.539 186.607 130.813C187.641 126.567 188.379 122.256 188.814 117.909C189.267 113.853 189.548 110.094 189.731 106.677C190.064 99.8314 190.006 94.3893 189.892 90.6585C189.823 88.8445 189.767 87.4184 189.725 86.3801C189.686 85.8867 189.678 85.3913 189.702 84.897Z" fill="#263238"/>
<path d="M181.465 93.0086C181.47 93.7789 181.174 94.521 180.639 95.0778C180.104 95.6346 179.372 95.9625 178.599 95.9921C178.221 96.0208 177.841 95.9746 177.481 95.8562C177.121 95.7378 176.788 95.5496 176.502 95.3023C176.216 95.0551 175.982 94.7538 175.813 94.4159C175.645 94.078 175.545 93.7102 175.521 93.3338C175.518 92.5643 175.816 91.8239 176.35 91.2677C176.884 90.7115 177.614 90.3827 178.387 90.3503C178.765 90.3216 179.145 90.3678 179.504 90.4862C179.864 90.6046 180.197 90.7928 180.483 91.0401C180.77 91.2873 181.004 91.5886 181.172 91.9265C181.341 92.2644 181.44 92.6322 181.465 93.0086Z" fill="#263238"/>
<path d="M186.309 89.7057C185.936 90.0936 183.683 88.4222 180.479 88.4222C177.275 88.4222 174.919 90.0081 174.575 89.6144C174.403 89.4376 174.781 88.7417 175.807 88.0058C177.198 87.0543 178.849 86.5523 180.536 86.5682C182.204 86.5705 183.828 87.0998 185.174 88.0799C186.16 88.8329 186.487 89.5346 186.309 89.7057Z" fill="#263238"/>
<path d="M148.653 93.465C148.658 94.2347 148.362 94.9761 147.827 95.532C147.292 96.0879 146.56 96.4146 145.787 96.4427C145.409 96.469 145.029 96.4203 144.669 96.2994C144.31 96.1785 143.978 95.9879 143.694 95.7385C143.409 95.4891 143.177 95.1859 143.011 94.8466C142.845 94.5072 142.748 94.1385 142.726 93.7616C142.721 92.9913 143.017 92.2493 143.552 91.6924C144.087 91.1356 144.819 90.8078 145.592 90.7781C145.971 90.7519 146.351 90.8008 146.711 90.922C147.071 91.0433 147.403 91.2344 147.687 91.4844C147.972 91.7344 148.204 92.0382 148.37 92.3782C148.536 92.7182 148.632 93.0876 148.653 93.465Z" fill="#263238"/>
<path d="M152.878 90.7556C152.506 91.1378 150.253 89.4721 147.049 89.4664C143.844 89.4607 141.488 91.0523 141.144 90.6644C140.972 90.4875 141.345 89.7916 142.377 89.0557C143.763 88.1109 145.408 87.613 147.089 87.6295C148.756 87.6285 150.38 88.156 151.726 89.1355C152.706 89.9114 153.039 90.5845 152.878 90.7556Z" fill="#263238"/>
<path d="M164.411 114.44C164.411 114.258 166.389 113.927 169.622 113.522C170.442 113.442 171.216 113.282 171.342 112.729C171.468 112.176 171.198 111.263 170.803 110.31L168.407 104.104C165.076 95.2619 162.674 87.9943 163.024 87.8631C163.374 87.7319 166.372 94.7941 169.708 103.636L172.001 109.911C172.305 110.835 172.832 111.885 172.414 113.106C172.294 113.393 172.11 113.649 171.876 113.855C171.641 114.061 171.362 114.21 171.061 114.292C170.608 114.414 170.142 114.477 169.674 114.48C166.44 114.623 164.423 114.629 164.411 114.44Z" fill="#263238"/>
<path d="M154.97 116.625C155.492 116.597 155.486 120.048 158.456 122.524C161.425 125 165.134 124.623 165.157 125.108C165.208 125.325 164.331 125.776 162.766 125.815C160.728 125.837 158.747 125.142 157.172 123.853C155.661 122.615 154.693 120.842 154.472 118.907C154.346 117.458 154.735 116.603 154.97 116.625Z" fill="#263238"/>
<path d="M216.507 123.454C216.507 123.454 216.34 123.1 216.048 122.387C215.725 121.276 215.582 120.12 215.624 118.964C215.718 117.105 216.005 115.26 216.478 113.459C216.914 111.326 217.802 108.856 217.687 106.044C217.502 104.579 216.837 103.216 215.796 102.164C214.619 101.001 213.322 99.9644 211.926 99.0726C210.37 98.0768 208.951 96.882 207.707 95.5187C207.079 94.7391 206.596 93.8544 206.28 92.906C205.988 91.9189 205.841 90.8946 205.844 89.8655C205.844 87.789 206.228 85.6955 206.383 83.5506C206.538 81.4057 206.383 79.0953 204.876 77.3897C203.368 75.684 201.155 74.7713 199.057 73.4422C196.897 72.0559 195.007 70.2913 193.48 68.2339L193.405 68.137V68.0058C193.549 65.0793 193.841 62.0616 193.531 59.0268C193.264 55.9103 191.963 52.9705 189.834 50.6697C187.61 48.2224 185.109 46.0383 182.382 44.1609C179.481 42.2906 176.292 40.9069 172.941 40.065C169.434 39.2057 165.862 38.6333 162.262 38.3537C158.523 38.012 154.769 37.8691 151.015 37.9258C147.22 38 143.31 38.2453 139.55 39.2892C135.782 40.4435 132.478 42.7536 130.109 45.8893L129.885 46.1974L129.536 46.0376C126.266 44.5613 122.63 44.081 119.086 44.6572C115.459 45.248 112.118 46.9793 109.553 49.5973C106.906 52.2454 105.167 55.657 104.583 59.3463C103.929 63.0713 104.124 66.9961 103.299 70.9265C102.9 72.9332 102.062 74.8281 100.845 76.477C99.5326 78.0491 97.9558 79.3828 96.1851 80.4188C94.4654 81.4969 92.7457 82.4667 91.1865 83.6704C89.6129 84.7989 88.415 86.3705 87.7471 88.1826C86.6006 91.9077 87.9362 95.9522 88.3948 100.042C88.7209 102.159 88.5502 104.323 87.8961 106.363C87.0843 108.341 85.8993 110.146 84.4051 111.68C82.33 113.961 80.1976 116.095 79.0053 118.805C77.8141 121.503 77.1898 124.414 77.1709 127.361C77.0735 133.277 78.8906 138.976 80.7078 144.526L80.3638 144.195C84.2389 145.228 88.2573 145.952 92.1151 145.485C94.0066 145.312 95.8031 144.581 97.2742 143.385C98.6066 142.08 99.4208 140.34 99.5671 138.485L99.9225 135.633L100.542 138.485C100.96 140.39 102.301 142.193 103.763 143.562C105.225 144.931 107.34 145.382 109.341 145.599C111.346 145.849 113.383 145.547 115.228 144.726C117.011 143.875 118.454 142.45 119.321 140.681L119.934 139.432L120.221 140.818C120.37 141.539 120.676 142.219 121.116 142.81C121.557 143.401 122.122 143.889 122.772 144.241C124.121 144.901 125.643 145.128 127.128 144.891C127.84 144.784 128.515 144.507 129.096 144.084C129.677 143.66 130.146 143.104 130.464 142.461C131.109 141.133 131.391 139.66 131.284 138.188V138.154C131.525 123.283 131.754 109.267 131.966 96.2888C132.073 89.8008 132.176 83.5848 132.276 77.6407C132.362 74.6858 132.201 71.7422 132.849 68.9071C133.385 66.1149 134.788 63.5607 136.862 61.6053L137.16 61.3429L137.378 61.6737C140.944 67.1178 146.128 71.3193 152.207 73.6932H152.11L169.582 73.8757H173.239C174.385 73.8757 175.532 73.7502 176.604 73.6989L182.479 73.3338H182.577L182.629 73.4193L187.948 82.0731L189.238 84.2123C189.519 84.6858 189.639 84.9311 189.639 84.9311C189.639 84.9311 189.473 84.7143 189.169 84.2522L187.845 82.1245L182.393 73.5677L182.543 73.6418L176.661 74.0754C175.583 74.1381 174.466 74.2636 173.291 74.2807H169.622L152.144 74.218H152.092H152.041C145.822 71.831 140.508 67.5686 136.844 62.0274L137.36 62.0959C135.396 63.9601 134.072 66.3934 133.577 69.0497C132.946 71.7536 133.113 74.6686 133.038 77.6407C132.958 83.5848 132.876 89.8027 132.792 96.2945C132.614 109.272 132.419 123.283 132.218 138.154V138.12C132.338 139.759 132.021 141.399 131.301 142.878C130.915 143.647 130.349 144.314 129.651 144.822C128.953 145.33 128.143 145.665 127.289 145.798C125.597 146.076 123.86 145.817 122.324 145.057C121.543 144.64 120.864 144.056 120.337 143.347C119.81 142.637 119.447 141.821 119.275 140.955L120.181 141.098C119.219 143.062 117.62 144.646 115.641 145.593C113.64 146.489 111.432 146.824 109.255 146.563C107.134 146.323 104.829 145.895 103.104 144.281C101.505 142.752 100.106 140.972 99.5729 138.645H100.547C100.369 140.714 99.4521 142.651 97.9621 144.104C96.3468 145.444 94.3629 146.267 92.2699 146.466C88.1598 146.956 84.0669 146.203 80.1116 145.154L79.8479 145.085L79.7677 144.823C77.9792 139.278 76.0761 133.482 76.1735 127.338C76.1922 124.248 76.8478 121.194 78.0996 118.365C79.3664 115.479 81.6421 113.231 83.6599 110.989C85.0683 109.552 86.1871 107.86 86.956 106.004C87.5589 104.11 87.712 102.102 87.4031 100.139C87.1796 98.1427 86.7324 96.1462 86.4688 94.0982C86.1159 92.0073 86.2314 89.8646 86.807 87.8233C87.532 85.8218 88.844 84.083 90.5731 82.8318C92.2068 81.5654 93.9838 80.5899 95.6462 79.5289C97.3213 78.5577 98.8146 77.3051 100.06 75.8267C101.191 74.3016 101.973 72.5495 102.353 70.6926C103.15 66.9447 102.966 63.02 103.637 59.158C104.262 55.2707 106.101 51.678 108.894 48.8899C111.603 46.1445 115.121 44.3284 118.937 43.7045C122.673 43.1043 126.505 43.6184 129.948 45.182L129.375 45.336C131.866 42.0389 135.345 39.6139 139.309 38.4107C143.213 37.3326 147.151 37.1044 150.998 37.0302C154.781 36.9816 158.564 37.1359 162.33 37.4923C165.981 37.7852 169.601 38.3786 173.153 39.2664C176.589 40.1473 179.855 41.5892 182.818 43.5334C185.596 45.4547 188.143 47.6885 190.407 50.1905C192.631 52.6173 193.986 55.7082 194.259 58.9812C194.563 62.1301 194.259 65.1592 194.099 68.0799L194.03 67.8574C195.503 69.8531 197.324 71.569 199.407 72.9231C201.419 74.2237 203.764 75.1421 205.351 77.0303C206.939 78.9185 207.117 81.4798 206.962 83.6247C206.807 85.7696 206.389 87.8974 206.389 89.8997C206.374 90.8672 206.499 91.8317 206.762 92.7634C207.051 93.6506 207.498 94.4793 208.08 95.2106C209.284 96.5487 210.66 97.7226 212.173 98.7018C213.588 99.6236 214.9 100.693 216.088 101.891C217.178 103.019 217.864 104.472 218.043 106.026C218.129 108.97 217.2 111.4 216.736 113.534C216.242 115.312 215.929 117.135 215.801 118.976C215.705 120.502 215.946 122.03 216.507 123.454Z" fill="#263238"/>
<path d="M149.92 80.4017C149.593 81.2003 146.997 80.8751 143.964 81.1376C140.932 81.4 138.415 82.0446 137.968 81.303C137.773 80.9493 138.203 80.2534 139.229 79.5916C140.592 78.757 142.136 78.2589 143.731 78.1388C145.327 78.0187 146.928 78.2802 148.401 78.9014C149.525 79.3977 150.058 80.0195 149.92 80.4017Z" fill="#263238"/>
<path d="M183.884 81.2687C183.557 82.0617 180.961 81.7365 177.928 81.9989C174.896 82.2613 172.379 82.9059 171.932 82.1644C171.737 81.8107 172.173 81.1147 173.193 80.453C174.556 79.6188 176.1 79.1209 177.695 79.0009C179.291 78.8808 180.892 79.142 182.365 79.7628C183.489 80.259 184.022 80.8865 183.884 81.2687Z" fill="#263238"/>
<path d="M140.605 202.86H137.16V206.289H140.605V202.86Z" fill="#263238" stroke="#263238" stroke-width="0.15" stroke-miterlimit="10"/>
<path d="M116.747 179.94H113.302V183.368H116.747V179.94Z" fill="#263238"/>
<path d="M167.713 179.079H164.268V182.507H167.713V179.079Z" fill="#263238"/>
<path d="M168.223 150.488H164.778V153.916H168.223V150.488Z" fill="#263238"/>
<path d="M121.287 137.823H117.842V141.252H121.287V137.823Z" fill="#263238"/>
<path d="M101.545 135.616H98.0999V139.044H101.545V135.616Z" fill="#263238"/>
<path d="M134.477 72.3408H131.032V75.7692H134.477V72.3408Z" fill="#263238"/>
<path d="M138.862 60.2705H135.417V63.6989H138.862V60.2705Z" fill="#263238"/>
<path d="M153.892 72.2102H150.447V75.6386H153.892V72.2102Z" fill="#263238"/>
<path d="M184.279 71.7534H180.834V75.1818H184.279V71.7534Z" fill="#263238"/>
<path d="M187.988 45.8527L185.321 43.6826L183.14 46.3368L185.807 48.5069L187.988 45.8527Z" fill="#263238"/>
<path d="M88.2401 106.391H84.7949V109.82H88.2401V106.391Z" fill="#263238"/>
<path d="M103.253 72.769H99.8079V76.1974H103.253V72.769Z" fill="#263238"/>
<path d="M109.393 49.5173H105.948V52.9458H109.393V49.5173Z" fill="#263238"/>
<path d="M131.307 43.3054H127.862V46.7338H131.307V43.3054Z" fill="#263238"/>
<path d="M161.373 35.415H157.928V38.8435H161.373V35.415Z" fill="#263238"/>
<path d="M195.463 66.3459H192.018V69.7744H195.463V66.3459Z" fill="#263238"/>
<path d="M207.765 76.1917H204.32V79.6201H207.765V76.1917Z" fill="#263238"/>
<path d="M207.954 92.1016H204.509V95.53H207.954V92.1016Z" fill="#263238"/>
<path d="M219.539 104.019H216.094V107.447H219.539V104.019Z" fill="#263238"/>
<path d="M89.4266 85.2676H85.9814V88.696H89.4266V85.2676Z" fill="#263238"/>
<path d="M78.4036 124.104H74.9585V127.532H78.4036V124.104Z" fill="#263238"/>
<path d="M81.9691 142.969H78.5239V146.397H81.9691V142.969Z" fill="#263238"/>
<path d="M191.061 114.908H187.616V118.337H191.061V114.908Z" fill="#263238"/>
<path d="M191.428 83.1797H187.983V86.6081H191.428V83.1797Z" fill="#263238"/>
<path d="M153.795 205.085C153.795 205.251 147.117 205.388 138.891 205.388C130.665 205.388 123.987 205.251 123.987 205.085C123.987 204.92 130.665 204.783 138.891 204.783C147.117 204.783 153.795 204.92 153.795 205.085Z" fill="#263238"/>
<path d="M153.36 206.044C153.866 206.044 154.277 205.635 154.277 205.131C154.277 204.627 153.866 204.219 153.36 204.219C152.853 204.219 152.442 204.627 152.442 205.131C152.442 205.635 152.853 206.044 153.36 206.044Z" fill="#263238" stroke="#263238" stroke-width="0.15" stroke-miterlimit="10"/>
<path d="M123.603 206.044C124.11 206.044 124.52 205.635 124.52 205.131C124.52 204.627 124.11 204.219 123.603 204.219C123.096 204.219 122.686 204.627 122.686 205.131C122.686 205.635 123.096 206.044 123.603 206.044Z" fill="#263238" stroke="#263238" stroke-width="0.15" stroke-miterlimit="10"/>
<path d="M175.016 35.8608C175.131 35.741 180.175 40.1221 186.229 45.6498C192.282 51.1774 197.149 55.7582 197.04 55.8837C196.931 56.0092 191.881 51.6224 185.822 46.0947C179.763 40.567 174.902 35.9863 175.016 35.8608Z" fill="#263238"/>
<path d="M174.695 35.5071C174.818 35.3739 174.977 35.2798 175.153 35.2368C175.329 35.1937 175.515 35.2036 175.685 35.2653C175.856 35.3269 176.004 35.4375 176.111 35.583C176.219 35.7285 176.28 35.9025 176.288 36.0828C176.296 36.2632 176.25 36.4419 176.156 36.5963C176.062 36.7507 175.924 36.8738 175.76 36.9502C175.596 37.0266 175.412 37.0527 175.233 37.0253C175.054 36.9979 174.886 36.9182 174.753 36.7963C174.573 36.6329 174.466 36.4053 174.456 36.1635C174.445 35.9218 174.531 35.6856 174.695 35.5071Z" fill="#263238" stroke="#263238" stroke-width="0.15" stroke-miterlimit="10"/>
<path d="M196.661 55.4729C196.784 55.3397 196.943 55.2456 197.119 55.2026C197.296 55.1595 197.481 55.1695 197.651 55.2311C197.822 55.2927 197.97 55.4033 198.077 55.5488C198.185 55.6943 198.246 55.8683 198.254 56.0486C198.262 56.229 198.216 56.4077 198.122 56.5621C198.028 56.7165 197.89 56.8396 197.726 56.916C197.562 56.9924 197.378 57.0185 197.199 56.9912C197.02 56.9638 196.852 56.8841 196.719 56.7621C196.539 56.5987 196.433 56.3711 196.422 56.1293C196.411 55.8876 196.497 55.6515 196.661 55.4729Z" fill="#263238" stroke="#263238" stroke-width="0.15" stroke-miterlimit="10"/>
<path d="M189.284 117.76C189.456 117.76 189.588 121.081 189.588 125.176C189.588 129.272 189.456 132.592 189.284 132.592C189.112 132.592 188.98 129.267 188.98 125.176C188.98 121.086 189.118 117.76 189.284 117.76Z" fill="#263238"/>
<path d="M189.336 132.05C189.517 132.05 189.694 132.104 189.845 132.204C189.996 132.304 190.114 132.447 190.183 132.614C190.252 132.781 190.271 132.964 190.235 133.141C190.2 133.318 190.112 133.481 189.984 133.608C189.856 133.736 189.692 133.823 189.515 133.858C189.337 133.893 189.152 133.875 188.985 133.806C188.817 133.737 188.674 133.62 188.573 133.47C188.472 133.32 188.418 133.144 188.418 132.963C188.418 132.843 188.442 132.724 188.488 132.614C188.534 132.503 188.602 132.402 188.687 132.318C188.772 132.233 188.873 132.166 188.985 132.12C189.096 132.074 189.215 132.05 189.336 132.05Z" fill="#263238" stroke="#263238" stroke-width="0.15" stroke-miterlimit="10"/>
<path d="M86.5146 87.4921C86.3713 87.4123 87.919 84.463 89.954 80.9148C91.9889 77.3666 93.8004 74.5543 93.9666 74.6398C94.1328 74.7254 92.5622 77.6689 90.5272 81.2172C88.4922 84.7654 86.6636 87.5777 86.5146 87.4921Z" fill="#263238"/>
<path d="M93.6518 75.0794C93.4942 74.9898 93.3668 74.8556 93.2859 74.6939C93.2049 74.5322 93.1741 74.3502 93.1971 74.171C93.2202 73.9918 93.2962 73.8234 93.4155 73.6872C93.5348 73.5511 93.692 73.4532 93.8673 73.406C94.0425 73.3588 94.2279 73.3644 94.3999 73.4221C94.5719 73.4798 94.7229 73.5871 94.8336 73.7302C94.9444 73.8734 95.0099 74.046 95.022 74.2263C95.0341 74.4066 94.9921 74.5864 94.9014 74.7429C94.842 74.847 94.7624 74.9384 94.6672 75.0118C94.5721 75.0851 94.4633 75.139 94.3471 75.1703C94.2309 75.2016 94.1096 75.2097 93.9903 75.1941C93.871 75.1785 93.7559 75.1395 93.6518 75.0794Z" fill="#263238" stroke="#263238" stroke-width="0.15" stroke-miterlimit="10"/>
<path d="M206.945 192.542H190.637V208.771H206.945V192.542Z" fill="#F2F6FA"/>
<path d="M227.736 192.542H211.428V208.771H227.736V192.542Z" fill="#5245B0"/>
<path d="M248.522 192.542H232.213V208.771H248.522V192.542Z" fill="#FED84C"/>
<path d="M242.451 126.865L217.16 122.267L216.214 123.505L230.683 134.407C231.024 134.095 231.463 133.911 231.926 133.887C232.388 133.863 232.845 134 233.216 134.275C233.442 134.429 233.634 134.628 233.781 134.858C233.927 135.088 234.026 135.345 234.069 135.614C234.113 135.883 234.101 136.158 234.035 136.422C233.969 136.687 233.85 136.935 233.684 137.152C233.519 137.369 233.311 137.551 233.073 137.686C232.835 137.821 232.572 137.906 232.3 137.937C232.028 137.967 231.753 137.943 231.49 137.865C231.228 137.786 230.985 137.656 230.775 137.481C230.405 137.202 230.145 136.802 230.041 136.352C229.936 135.902 229.993 135.43 230.201 135.017L215.75 124.138L214.862 125.279L226.252 148.896C231.984 142.21 239.717 146.044 239.717 146.044L244.435 139.854C237.665 134.755 242.451 126.865 242.451 126.865Z" fill="#5245B0"/>
<path d="M245.569 138.405L238.418 147.785L244.254 152.192L251.405 142.812L245.569 138.405Z" fill="#455A64"/>
</g>
<defs>
<filter id="filter0_d" x="-1" y="0" width="293" height="293" filterUnits="userSpaceOnUse" color-interpolation-filters="sRGB">
<feFlood flood-opacity="0" result="BackgroundImageFix"/>
<feColorMatrix in="SourceAlpha" type="matrix" values="0 0 0 0 0 0 0 0 0 0 0 0 0 0 0 0 0 0 127 0"/>
<feOffset dy="4"/>
<feGaussianBlur stdDeviation="11"/>
<feColorMatrix type="matrix" values="0 0 0 0 0.321569 0 0 0 0 0.270588 0 0 0 0 0.690196 0 0 0 0.2 0"/>
<feBlend mode="normal" in2="BackgroundImageFix" result="effect1_dropShadow"/>
<feBlend mode="normal" in="SourceGraphic" in2="effect1_dropShadow" result="shape"/>
</filter>
<clipPath id="clip0">
<rect width="249" height="249" fill="white" transform="translate(21 18)"/>
</clipPath>
</defs>
</svg>
