<svg width="253" height="271" viewBox="0 0 253 271" fill="none" xmlns="http://www.w3.org/2000/svg">
<g filter="url(#filter0_d)">
<path d="M156.741 29.5489L176.784 69.2645L202.487 58.9314L183.465 19.6169L156.741 29.5489Z" fill="#FED84C" fill-opacity="0.34"/>
<path d="M208.075 32.5881C207.468 40.4412 207.65 48.3917 207.577 56.2813C207.504 64.1709 207.443 72.0849 207.407 79.9867C207.326 95.5714 207.326 111.164 207.407 126.765C207.456 135.68 207.52 144.595 207.601 153.51C207.601 153.703 207.678 153.889 207.815 154.025C207.951 154.162 208.137 154.239 208.33 154.239C208.523 154.239 208.709 154.162 208.845 154.025C208.982 153.889 209.059 153.703 209.059 153.51C208.767 122.121 208.767 90.729 209.059 59.3326C209.059 50.4461 209.557 41.4746 209.059 32.5881C209.041 32.4739 208.982 32.3699 208.894 32.2948C208.807 32.2197 208.695 32.1785 208.579 32.1785C208.464 32.1785 208.352 32.2197 208.264 32.2948C208.176 32.3699 208.118 32.4739 208.099 32.5881H208.075Z" fill="#767C89"/>
<path d="M230.729 164.815C231.106 163.6 229.515 161.995 228.822 160.986C227.826 159.454 226.794 157.935 225.87 156.354C223.988 153.096 222.421 149.668 220.805 146.277C217.659 139.712 214.379 133.16 209.703 127.531C209.18 126.899 208.281 127.799 208.804 128.419C213.578 134.157 216.845 140.903 220.052 147.59C221.643 150.908 223.307 154.178 224.911 157.473C225.7 159.041 226.478 160.585 227.413 162.068C228.057 163.065 228.956 165.083 230.292 165.107C230.379 165.104 230.463 165.075 230.532 165.022C230.602 164.97 230.653 164.898 230.681 164.815H230.729Z" fill="#767C89"/>
<path d="M208.585 126.717C204.431 132.126 201.224 138.411 198.017 144.429C194.81 150.446 191.774 156.67 188.943 162.943C188.591 163.709 189.733 164.366 190.073 163.6C192.867 157.311 195.896 151.139 199.159 145.085C202.402 139.007 206.229 133.269 209.314 127.142C209.355 127.047 209.359 126.94 209.327 126.841C209.294 126.743 209.227 126.66 209.138 126.607C209.048 126.555 208.942 126.537 208.841 126.557C208.739 126.578 208.648 126.634 208.585 126.717V126.717Z" fill="#767C89"/>
<path d="M218.85 144.429C217.485 143.143 216.028 141.961 214.489 140.891C213.736 140.368 212.946 139.882 212.169 139.396C211.756 139.14 211.343 138.885 210.954 138.642C210.562 138.354 210.115 138.147 209.642 138.034C209.521 138.008 209.395 138.02 209.282 138.07C209.169 138.119 209.075 138.204 209.013 138.31C208.95 138.417 208.924 138.541 208.936 138.664C208.949 138.787 209.001 138.903 209.083 138.995C209.409 139.312 209.787 139.571 210.201 139.76L211.415 140.429C212.229 140.903 213.043 141.402 213.845 141.9L218.607 144.805C218.837 144.939 219.105 144.611 218.898 144.429H218.85Z" fill="#767C89"/>
<path d="M209.29 138.484C208.301 138.808 207.343 139.215 206.423 139.7C205.5 140.15 204.576 140.624 203.678 141.122L200.969 142.63L199.596 143.432C199.156 143.642 198.773 143.954 198.479 144.344C198.441 144.413 198.422 144.49 198.423 144.569C198.424 144.647 198.445 144.724 198.484 144.792C198.523 144.86 198.579 144.917 198.646 144.958C198.713 144.998 198.789 145.021 198.867 145.024C199.351 144.954 199.809 144.766 200.203 144.477L201.576 143.675C202.439 143.164 203.313 142.678 204.188 142.192L206.799 140.745C207.745 140.258 208.658 139.71 209.532 139.104C209.812 138.897 209.666 138.411 209.29 138.521V138.484Z" fill="#767C89"/>
<path d="M197.143 30.4605H205.974L205.743 37.7545L202.099 37.5235L203.459 59.7336L183.113 18L197.143 30.4605Z" fill="#767C89"/>
<path d="M202.28 58.6273C196.924 60.779 191.603 62.9672 186.198 64.973C182.942 66.1887 179.638 67.2585 176.48 68.5349L177.172 68.8145C174.743 64.4138 172.605 59.8794 170.467 55.3328C167.09 48.1361 163.543 41.0124 160.033 33.8764C159.219 32.2232 158.429 30.5577 157.603 28.9409L157.372 29.7797C160.506 28.2115 163.835 27.0323 167.09 25.7315C172.277 23.6041 177.707 21.3916 183.367 20.4313C184.218 20.2975 183.865 18.9725 183.003 19.1305C173.759 20.8567 165.256 25.0386 156.668 28.6856C156.528 28.7714 156.427 28.9081 156.387 29.0668C156.346 29.2256 156.368 29.394 156.449 29.5365C161.794 41.3406 168.038 52.7556 173.747 64.3895C174.536 66.0063 175.411 67.9635 176.055 69.4223C176.125 69.5404 176.232 69.6319 176.359 69.6825C176.487 69.7331 176.627 69.74 176.759 69.7019C180.124 68.6808 183.416 67.3557 186.708 66.1279C192.165 64.2834 197.5 62.0949 202.681 59.5755C203.216 59.308 202.839 58.3598 202.28 58.603V58.6273Z" fill="#767C89"/>
<path d="M202.997 33.2564L203.422 33.4509C203.648 33.5546 203.891 33.6124 204.139 33.6211H204.431L205.572 33.694C206.326 33.694 207.066 33.7791 207.807 33.8763H207.455H207.637C207.986 33.9666 208.356 33.9187 208.67 33.7426C208.972 33.565 209.194 33.2776 209.289 32.9403C209.341 32.7662 209.355 32.5835 209.332 32.4036C209.309 32.2236 209.249 32.0504 209.156 31.8948C209.075 31.7398 208.961 31.6042 208.823 31.4972C208.684 31.3902 208.524 31.3143 208.354 31.2748C207.482 31.1356 206.601 31.0504 205.718 31.0195C205.312 31.0079 204.906 31.0282 204.503 31.0803C204.238 31.0872 203.973 31.1198 203.714 31.1776C203.455 31.2688 203.209 31.3956 202.985 31.5544C202.838 31.6452 202.715 31.7721 202.63 31.9231C202.545 32.0741 202.5 32.2442 202.499 32.4176C202.496 32.59 202.54 32.76 202.625 32.9097C202.711 33.0595 202.835 33.1834 202.985 33.2685L202.997 33.2564Z" fill="#767C89"/>
<path d="M183.015 19.726C184.194 23.0024 185.644 26.1742 187.352 29.2082C188.955 32.4418 190.668 35.6147 192.211 38.8484C195.442 45.3886 198.685 51.9653 201.358 58.7609C201.807 59.9158 203.69 59.4052 203.216 58.2503C200.483 51.4669 197.847 44.6592 194.713 38.0582C193.158 34.8002 191.615 31.5301 189.854 28.3937C188.195 25.1108 186.157 22.0344 183.781 19.2276C183.701 19.1487 183.597 19.0984 183.486 19.0845C183.374 19.0706 183.261 19.0938 183.164 19.1506C183.068 19.2074 182.992 19.2945 182.95 19.3986C182.907 19.5026 182.901 19.6177 182.93 19.726H183.015Z" fill="#767C89"/>
<path d="M107.679 55.3083C105.605 56.0409 103.756 57.2972 102.31 58.9553C101.733 59.5153 101.357 60.2504 101.241 61.0463C101.247 61.8028 101.461 62.5431 101.86 63.1858C103.318 66.152 104.784 69.1182 106.257 72.0845C106.428 72.437 106.634 72.8138 106.998 72.9111C107.206 72.9366 107.416 72.9149 107.614 72.8475C107.812 72.7802 107.992 72.6689 108.14 72.5221L116.485 66.3465C116.69 66.2337 116.869 66.0808 117.013 65.897C117.157 65.7132 117.263 65.5023 117.324 65.2768C117.326 64.8699 117.179 64.4764 116.911 64.1705C114.705 60.9534 112.022 58.0921 108.954 55.6852" fill="#FFC58B"/>
<path d="M113.327 74.6619C113.344 74.8014 113.39 74.9358 113.461 75.0571C113.532 75.1783 113.627 75.2837 113.74 75.367C113.866 75.4233 114.003 75.4524 114.141 75.4524C114.279 75.4524 114.416 75.4233 114.542 75.367L118.781 73.9204C116.968 70.7235 114.805 67.7389 112.331 65.0217L108.808 67.0519C108.808 67.0519 114.117 76.1693 114.044 76.4003" fill="#FFC58B"/>
<path d="M124.891 143.894C123.457 146.544 122.277 149.324 121.368 152.197C120.309 155.124 119.44 158.117 118.769 161.156C117.481 167.137 116.801 173.252 116.023 179.318C115.21 185.713 114.384 192.107 113.594 198.489C112.804 204.871 111.711 211.29 111.225 217.66C111.236 217.976 111.358 218.278 111.569 218.513C111.781 218.747 112.069 218.899 112.382 218.942C112.695 218.984 113.013 218.914 113.28 218.744C113.546 218.574 113.743 218.315 113.837 218.013C114.056 216.797 114.153 215.642 114.286 214.439C114.371 213.685 113.205 213.417 112.877 214.05C112.367 215.034 111.833 215.983 111.408 216.992L113.837 218.013C114.93 211.776 115.453 205.382 116.266 199.097C117.08 192.812 117.797 186.709 118.55 180.522C119.303 174.334 119.874 168.365 120.98 162.372C121.579 159.325 122.333 156.31 123.239 153.34C124.287 150.387 125.175 147.38 125.899 144.332C125.936 144.198 125.923 144.055 125.862 143.93C125.801 143.805 125.697 143.707 125.569 143.653C125.441 143.599 125.298 143.594 125.166 143.639C125.035 143.683 124.924 143.774 124.854 143.894H124.891Z" fill="#555860"/>
<path d="M137.208 146.714C137.759 166.975 138.706 187.204 140.051 207.4C140.456 213.195 140.861 218.993 141.265 224.796C141.411 226.607 144.29 226.571 144.084 224.796C143.999 224.042 143.841 223.301 143.683 222.559C143.391 221.186 141.435 221.599 141.35 222.875C141.35 223.52 141.253 224.152 141.265 224.796H144.084C142.464 204.6 141.124 184.387 140.063 164.159C139.759 158.336 139.431 152.537 139.152 146.714C139.152 145.499 137.123 145.426 137.16 146.714H137.208Z" fill="#555860"/>
<path d="M146.999 144.599C152.87 166.635 159.227 188.537 166.07 210.305C166.422 211.424 168.184 210.95 167.831 209.819C160.98 188.059 154.619 166.177 148.748 144.173C148.669 143.959 148.512 143.783 148.308 143.679C148.105 143.576 147.87 143.552 147.651 143.613C147.431 143.674 147.242 143.816 147.121 144.009C147.001 144.203 146.957 144.435 146.999 144.66V144.599Z" fill="#555860"/>
<path d="M163.774 198.586C158.053 200.896 151.238 200.543 145.165 200.774C138.617 201.017 132.058 201.273 125.511 201.224C123.178 201.224 117.7 201.358 116.838 198.452C116.242 196.483 119.012 196.021 120.324 195.681C121.842 195.243 123.385 194.866 124.94 194.55C131.071 193.298 137.351 192.934 143.586 193.468C147.12 193.76 150.623 194.354 154.056 195.243C156.96 195.997 160.13 196.994 161.94 199.571C162.73 200.701 164.6 199.571 163.799 198.489C162.069 196.239 159.642 194.627 156.899 193.906C153.553 192.888 150.121 192.176 146.647 191.778C139.336 190.865 131.924 191.16 124.709 192.654C122.875 193.031 121.065 193.493 119.279 194.015C117.847 194.247 116.523 194.918 115.489 195.936C113.716 198.197 115.647 200.969 117.834 202.014C120.87 203.376 124.49 203.23 127.746 203.23C131.738 203.23 135.743 203.145 139.759 202.975C144.148 202.829 148.534 202.598 152.915 202.282C156.813 202.19 160.648 201.284 164.175 199.619C164.685 199.352 164.321 198.404 163.774 198.671V198.586Z" fill="#555860"/>
<path d="M106.998 79.6826C103.364 90.0618 101.217 100.904 100.621 111.885C103.036 112.009 105.4 112.626 107.569 113.697C108.921 104.198 110.274 94.6839 111.626 85.1531" fill="#FFC58B"/>
<path d="M128.122 148.902C128.013 148.805 127.843 149.012 127.916 149.146C127.961 149.205 128.02 149.253 128.088 149.285C128.155 149.316 128.23 149.331 128.305 149.328C136.574 150.37 144.972 149.143 152.599 145.778C153.814 145.219 155.308 144.271 155.186 142.885C155.121 142.361 154.891 141.872 154.53 141.487C153.369 140.281 151.884 139.437 150.254 139.056C146.94 138.072 143.507 137.548 140.051 137.5" fill="#AD7942"/>
<path d="M116.206 184.667L121.648 192.958C122.024 193.529 112.525 193.505 112.999 195.985C112.999 196.69 121.964 195.401 126.458 195.11C126.472 194.761 126.411 194.413 126.279 194.09C126.147 193.767 125.947 193.476 125.693 193.237C123.737 190.879 119.826 182.503 119.826 182.503" fill="#2D1616"/>
<path d="M128.802 114.901C116.071 122.468 104.184 131.377 93.3449 141.475C92.4178 142.144 91.7761 143.138 91.5471 144.259C91.5768 145.174 91.8723 146.061 92.3974 146.812L112.78 182.625C113.199 183.549 113.879 184.331 114.736 184.874C116.91 185.968 119.595 183.658 121.879 184.4C116.987 173.151 112.072 161.926 107.132 150.726L141.654 131.859L142.055 113.223L128.802 114.901Z" fill="#120877"/>
<path d="M131.232 193.322L136.674 201.564C137.05 202.148 127.564 202.111 128.025 204.604C128.025 205.309 137.002 204.008 141.484 203.716C141.506 203.368 141.448 203.02 141.316 202.698C141.183 202.376 140.979 202.088 140.719 201.856C138.763 199.498 134.864 191.122 134.864 191.122" fill="#2D1616"/>
<path d="M148.165 130.449C147.436 126.802 146.234 123.155 147.047 119.508L146.513 119.605V116.87L133.552 112.007L131.22 122.17C119.81 128.998 109.402 137.376 100.293 147.067C99.4776 147.743 98.9481 148.703 98.811 149.753C98.9182 150.759 99.3788 151.694 100.111 152.391C110.562 165.101 120.369 178.328 129.495 192.022C129.881 192.715 130.421 193.309 131.074 193.76C132.75 194.721 135.022 193.59 136.759 194.441L117.7 152.707L140.707 144.319C142.902 143.713 144.913 142.573 146.562 141.001C149.027 138.253 148.894 134.071 148.165 130.449Z" fill="#120877"/>
<path d="M98.8718 144.429C97.9607 150.653 98.0822 157.169 97.8878 163.454C97.6935 169.937 97.5275 176.421 97.3898 182.904C97.1064 195.871 96.9525 208.838 96.9282 221.805C96.9282 229.099 97.0375 236.393 96.9282 243.687C96.9282 244.035 97.0664 244.369 97.3125 244.616C97.5585 244.862 97.8922 245 98.2401 245C98.5881 245 98.9217 244.862 99.1678 244.616C99.4138 244.369 99.552 244.035 99.552 243.687C99.0783 230.862 99.3334 217.976 99.4427 205.151C99.552 192.326 99.795 179.464 100.135 166.614C100.232 162.967 100.342 159.32 100.427 155.673C100.512 152.027 100.803 148.38 100.548 144.733C100.548 143.857 99.054 143.517 98.9082 144.514L98.8718 144.429Z" fill="#767C89"/>
<path d="M157.92 131.056C157.8 134.07 157.893 137.088 158.199 140.089C158.393 143.103 158.575 146.167 158.77 149.121C159.159 155.045 159.563 160.966 159.985 166.882C160.843 178.811 161.803 190.737 162.863 202.659C163.455 209.466 164.078 216.274 164.734 223.082C164.904 224.857 167.698 224.869 167.516 223.082C165.216 199.044 163.151 174.994 161.321 150.932C161.053 147.516 160.798 144.112 160.543 140.696C160.437 137.391 160.104 134.097 159.547 130.837C159.341 129.865 157.98 130.169 157.907 131.056H157.92Z" fill="#767C89"/>
<path d="M24.4702 117.927C23.5713 123.762 23.6806 129.841 23.4984 135.676C23.2959 141.827 23.1259 147.986 22.9882 154.154C22.7129 166.31 22.559 178.507 22.5266 190.745C22.5266 197.601 22.6359 204.47 22.5266 211.314C22.5266 211.662 22.6648 211.996 22.9109 212.242C23.1569 212.489 23.4906 212.627 23.8385 212.627C24.1864 212.627 24.5201 212.489 24.7662 212.242C25.0122 211.996 25.1504 211.662 25.1504 211.314C24.6767 199.243 24.9318 187.098 25.0411 175.027C25.1504 162.955 25.3933 150.823 25.7335 138.739C25.8306 135.311 25.94 131.883 26.025 128.455C26.11 125.027 26.3894 121.574 26.1465 118.182C26.0857 117.319 24.6645 116.967 24.5066 117.964L24.4702 117.927Z" fill="#767C89"/>
<path d="M81.3437 111.897C80.2748 133.779 80.129 155.758 79.9954 177.677L79.8496 196.386C79.8496 196.766 80.0006 197.131 80.2694 197.4C80.5382 197.669 80.9028 197.82 81.283 197.82C81.6631 197.82 82.0277 197.669 82.2965 197.4C82.5653 197.131 82.7163 196.766 82.7163 196.386C82.7163 174.504 82.7609 152.577 82.8499 130.606C82.8499 124.374 82.7933 118.138 82.6799 111.897C82.6799 111.72 82.6095 111.55 82.4842 111.425C82.3589 111.299 82.189 111.229 82.0118 111.229C81.8346 111.229 81.6647 111.299 81.5394 111.425C81.4141 111.55 81.3437 111.72 81.3437 111.897V111.897Z" fill="#767C89"/>
<path d="M25.4422 117.416C43.0921 114.329 60.8512 111.982 78.5497 109.259C80.5807 108.797 82.6894 108.797 84.7204 109.259C110.157 117.064 135.811 124.139 161.466 131.141L101.277 148.306C100.187 148.755 98.9732 148.803 97.8515 148.44C85.8015 142.763 73.7272 137.061 61.2157 132.478C56.8305 130.874 52.3968 129.403 47.9631 127.932L23.1221 119.69C23.1221 119.69 19.9882 118.365 25.4422 117.416Z" fill="#B1BDD6"/>
<path d="M148.323 121.331L127.26 114.645C126.928 114.581 126.628 114.405 126.41 114.146C126.143 113.721 126.41 113.162 126.592 112.7C128.176 109.422 129.285 105.934 129.884 102.342C130.262 100.928 130.146 99.4272 129.556 98.0876C128.906 97.0964 127.993 96.3052 126.92 95.8022C123.081 93.6383 118.903 92.1552 115.064 90.0157C111.226 87.8761 107.606 84.8613 105.942 80.7766C105.942 80.7766 104.849 79.3179 106.756 78.3453C108.663 77.3728 110.4 76.5705 112.355 75.756C115.368 74.435 118.429 73.2193 121.539 72.109L122.96 71.6227C124.536 70.9684 126.236 70.6696 127.94 70.7475C129.417 71.0172 130.828 71.5704 132.095 72.3764C136.298 74.7105 140.488 77.3485 143.404 81.1778C147.315 86.3079 148.505 92.9819 148.979 99.4127C149.536 106.721 149.316 114.069 148.323 121.331V121.331Z" fill="#FED84C"/>
<path d="M101.605 111.229C92.948 111.545 84.3235 112.282 75.7314 113.441L76.4967 115.994C76.5481 116.325 76.7215 116.624 76.9826 116.833C77.1758 116.943 77.3923 117.005 77.6143 117.015L99.7342 119.447C102.164 119.714 104.775 119.945 106.865 118.705C107.569 118.28 108.201 117.295 107.618 116.724L107.739 112.286L101.605 111.229Z" fill="#FFC58B"/>
<path d="M91.2921 122.535V124.261L71.1521 131.859L45.8496 122.644L45.7402 119.909L90.6848 122.644" fill="#3A2020"/>
<path d="M70.3748 130.898L91.2922 122.534L65.2851 114.839L46.6514 121.124" fill="#2D1616"/>
<path d="M76.1325 113.295C73.5262 114.492 71.0781 116.006 68.8442 117.806L72.3062 119.398C72.7344 119.659 73.2261 119.797 73.7274 119.797C74.2287 119.797 74.7204 119.659 75.1486 119.398L80.5905 117.173" fill="#FFC58B"/>
<path d="M68.8441 117.806L66.2932 121.55C67.6656 120.709 68.852 119.596 69.7795 118.28C71.4558 116.006 70.6905 117.976 70.6905 117.976L67.6537 123.3C69.1187 121.943 70.4414 120.44 71.6015 118.815C72.3668 117.368 70.4718 123.908 69.7795 124.358C69.0871 124.808 72.7434 122.231 73.8123 119.653C74.1034 118.957 74.1071 118.173 73.8226 117.474C73.5381 116.775 72.9885 116.216 72.2939 115.921L68.8441 117.806Z" fill="#FFC58B"/>
<path d="M76.8855 117.137C76.9584 117.368 79.7644 122.085 80.3717 122C80.9791 121.914 79.7644 116.529 79.7644 116.529L76.8855 117.137Z" fill="#FFC58B"/>
<path d="M135.678 81.0319C138.666 94.5257 140.622 108.421 138.107 122.012L129.495 119.787C129.082 113.806 128.653 107.837 128.207 101.88C127.624 93.9665 126.993 85.9189 128.693 78.1386C128.985 76.7771 129.726 75.1724 131.123 75.1724C132.945 75.136 134.767 76.9108 135.678 81.0319Z" fill="#FFC58B"/>
<path d="M138.107 121.927C136.589 124.467 112.902 134.083 112.902 134.083L108.954 131.652L130.515 117.368C130.515 117.368 137.804 114.937 138.107 121.927Z" fill="#FFC58B"/>
<path d="M103.111 65.1675L104.253 71.8536L107.739 69.1184L103.111 65.1675Z" fill="#FFC58B"/>
<path d="M101.496 63.0886C100.774 63.706 99.8794 64.0861 98.9341 64.1775C97.9888 64.2688 97.0384 64.0669 96.2117 63.5992C95.8901 63.4437 95.6418 63.169 95.5193 62.8333C95.3857 62.2376 95.9687 61.7149 96.564 61.5447C97.1657 61.4688 97.7621 61.3551 98.3496 61.2043C97.7301 60.5236 97.0741 59.624 97.4385 58.773C97.568 58.4907 97.7743 58.2505 98.0338 58.0801C98.502 57.7533 99.0508 57.5612 99.6205 57.5248C100.19 57.4883 100.759 57.6089 101.265 57.8734C101.131 57.3155 101.117 56.7355 101.223 56.1717C101.33 55.6079 101.555 55.0733 101.884 54.6033C102.062 54.3848 102.286 54.2086 102.54 54.0876C102.795 53.9666 103.073 53.9039 103.354 53.9039C103.636 53.9039 103.914 53.9666 104.168 54.0876C104.422 54.2086 104.646 54.3848 104.824 54.6033C104.927 54.1462 105.125 53.7159 105.405 53.3409C105.686 52.9658 106.042 52.6545 106.452 52.4273C106.862 52.2336 107.325 52.1846 107.766 52.2884C108.207 52.3921 108.6 52.6425 108.881 52.9986C110.351 51.941 112.525 51.4304 113.874 52.6947C114.384 53.2811 114.746 53.9815 114.93 54.737C115.906 57.7998 116.602 60.9451 117.008 64.1341C117.133 64.6513 117.05 65.197 116.777 65.6537L112.695 64.1949C112.863 64.0189 112.984 63.8034 113.047 63.5682C113.11 63.333 113.112 63.0858 113.054 62.8494C112.996 62.613 112.879 62.3952 112.715 62.216C112.55 62.0368 112.343 61.9021 112.112 61.8243C111.642 61.7089 111.146 61.7686 110.717 61.9923C110.288 62.216 109.955 62.5884 109.78 63.04C109.63 63.5026 109.587 63.9929 109.652 64.4748C109.717 64.9566 109.89 65.4177 110.157 65.8238L109.246 65.9819C108.49 63.7969 107.504 61.6982 106.306 59.7212C106.266 59.6398 106.208 59.569 106.136 59.5146C105.796 59.2836 105.456 59.7942 105.31 60.1832C105.028 60.9149 104.541 61.5496 103.908 62.0111C103.274 62.4726 102.521 62.7412 101.739 62.7847" fill="#351C1C"/>
<path d="M121.539 72.1819C121.539 74.6132 121.053 80.1688 116.85 80.7888C112.404 81.4331 112.258 77.2633 112.355 75.8045C115.368 74.4835 118.429 73.276 121.539 72.1819Z" fill="#FFC58B"/>
<path d="M87.0891 125.732C87.3928 125.732 90.7333 126.364 90.7333 126.364L91.4621 136.977L86.4939 134.424L87.0891 125.732Z" fill="#351C1C"/>
<path d="M98.6291 123.604L90.7334 126.364L91.4622 136.977L101.787 131.299L99.8438 123.094L98.6291 123.604Z" fill="#231212"/>
<path d="M87.0891 125.732L95.7015 122.389L99.8436 123.094L91.0369 126.838L87.0891 125.732Z" fill="#2D1616"/>
<path d="M94.0007 133.293C96.0401 134.078 98.1517 134.661 100.305 135.032C100.414 134.922 103.342 127.251 103.342 127.251C102.954 126.948 102.548 126.668 102.127 126.413L98.2522 126.109C98.2522 126.109 92.7496 125.878 94.0007 133.293Z" fill="#351C1C"/>
<path d="M99.2728 134.326C98.6289 134.097 98.0798 133.659 97.7124 133.082C97.345 132.505 97.1803 131.822 97.2442 131.141C97.3339 130.465 97.5613 129.813 97.9123 129.228C98.2633 128.643 98.7304 128.135 99.2849 127.738C99.9503 127.141 100.822 126.827 101.714 126.862C102.4 126.962 103.026 127.307 103.476 127.835C104.089 128.515 104.451 129.384 104.503 130.299C104.554 131.213 104.291 132.118 103.757 132.862C103.224 133.606 102.452 134.145 101.57 134.389C100.687 134.634 99.7483 134.569 98.9084 134.205" fill="#706454"/>
<path d="M98.5074 133.232C98.0813 133.086 97.7172 132.8 97.4745 132.42C97.2318 132.041 97.1249 131.59 97.1712 131.142C97.2258 130.694 97.3728 130.264 97.6028 129.876C97.8328 129.489 98.1409 129.154 98.5074 128.893C98.9576 128.492 99.5457 128.283 100.147 128.309C100.595 128.384 101.002 128.612 101.301 128.953C101.714 129.399 101.961 129.973 102 130.579C102.039 131.185 101.867 131.786 101.515 132.281C101.162 132.775 100.65 133.132 100.064 133.293C99.4786 133.453 98.8558 133.406 98.3009 133.16" fill="#51483D"/>
<path d="M99.455 134.023C98.8716 133.777 98.3821 133.351 98.0581 132.807C97.733 132.214 97.6174 131.529 97.7301 130.862C97.8991 130.122 98.2388 129.433 98.7218 128.848C99.2048 128.263 99.8178 127.8 100.512 127.495C100.851 127.337 101.226 127.271 101.599 127.303C101.972 127.335 102.33 127.464 102.638 127.677C103.22 128.073 103.648 128.656 103.852 129.33C104.032 129.807 104.103 130.317 104.06 130.824C104.018 131.332 103.863 131.823 103.607 132.263C103.351 132.703 103.001 133.081 102.581 133.368C102.161 133.656 101.682 133.846 101.18 133.925C100.462 134.033 99.7291 133.987 99.0298 133.792C98.926 133.758 98.8135 133.765 98.7145 133.811C98.6154 133.856 98.5369 133.937 98.4943 134.038C98.4517 134.138 98.4482 134.251 98.4843 134.354C98.5205 134.457 98.5937 134.542 98.6897 134.594C99.4532 134.975 100.313 135.12 101.159 135.01C102.005 134.899 102.799 134.539 103.439 133.974C104.099 133.41 104.581 132.666 104.827 131.833C105.073 131 105.072 130.114 104.824 129.282C104.627 128.413 104.119 127.647 103.396 127.127C102.674 126.608 101.786 126.371 100.901 126.461C99.9705 126.698 99.1276 127.195 98.4711 127.896C97.7872 128.535 97.2772 129.338 96.9891 130.23C96.4789 131.956 97.2807 134.436 99.2971 134.691C99.3738 134.687 99.4472 134.659 99.5071 134.611C99.5669 134.563 99.6099 134.497 99.6301 134.423C99.6503 134.349 99.6466 134.27 99.6195 134.198C99.5925 134.126 99.5434 134.065 99.4793 134.023H99.455Z" fill="#2D1616"/>
<path d="M87.9272 128.892L88.0852 127.373L89.7493 127.908V129.5L87.9272 128.892Z" fill="#2D1616"/>
<path d="M74.1038 130.388C75.3914 130.29 76.9098 129.926 78.0759 130.692C78.2334 130.781 78.3662 130.908 78.4625 131.062C78.5588 131.215 78.6155 131.39 78.6275 131.571C78.6396 131.751 78.6066 131.932 78.5315 132.097C78.4564 132.262 78.3416 132.406 78.1974 132.515C77.701 132.901 77.1531 133.217 76.5696 133.451C75.8044 133.84 74.9298 134.375 74.8447 135.323C74.7354 136.539 75.7558 137.268 76.7033 137.755C79.1327 138.849 81.8294 139.773 84.4532 139.068C86.2995 138.557 88.9112 136.636 87.3685 134.497C86.5911 133.439 84.8662 132.965 84.4896 131.616C83.9794 129.792 87.3077 128.783 88.5346 128.503C88.6103 128.483 88.6746 128.432 88.7133 128.364C88.7521 128.296 88.762 128.215 88.7411 128.139C88.7202 128.063 88.67 127.999 88.6017 127.96C88.5333 127.921 88.4524 127.911 88.3767 127.932C86.7004 128.382 82.8619 129.695 84.028 132.138C84.5382 133.232 85.6922 133.706 86.4574 134.497C87.8665 135.858 86.6518 137.39 85.2427 138.083C82.5703 139.408 78.9262 138.569 76.4239 137.22C75.695 136.819 74.8933 136.004 75.2092 135.129C75.4642 134.399 76.2903 134.095 76.9584 133.913C77.4107 133.803 77.8348 133.599 78.2032 133.314C78.5715 133.029 78.8758 132.67 79.0963 132.26C79.2252 131.802 79.1704 131.312 78.9435 130.894C78.7166 130.476 78.3355 130.164 77.8815 130.023C77.2419 129.772 76.5578 129.653 75.8709 129.674C75.1839 129.694 74.5084 129.855 73.8851 130.145C73.8526 130.168 73.8279 130.2 73.8145 130.238C73.8011 130.276 73.7996 130.316 73.8102 130.355C73.8208 130.393 73.8431 130.428 73.8738 130.453C73.9046 130.479 73.9425 130.494 73.9823 130.497L74.1038 130.388Z" fill="#706454"/>
<g opacity="0.35">
<path opacity="0.35" d="M100.791 130.497C101.034 130.417 101.246 130.262 101.396 130.055C101.546 129.848 101.627 129.598 101.627 129.342C101.627 129.086 101.546 128.837 101.396 128.629C101.246 128.422 101.034 128.267 100.791 128.187C100.548 128.267 100.337 128.422 100.187 128.629C100.037 128.837 99.9558 129.086 99.9558 129.342C99.9558 129.598 100.037 129.848 100.187 130.055C100.337 130.262 100.548 130.417 100.791 130.497Z" fill="white"/>
</g>
<path d="M89.1177 125.318V124.467C89.1177 124.467 89.725 123.799 90.3324 123.957C90.9398 124.115 91.292 124.358 91.292 124.662V125.318C90.9596 125.504 90.5854 125.601 90.2049 125.601C89.8243 125.601 89.4501 125.504 89.1177 125.318V125.318Z" fill="#351C1C"/>
<path d="M95.4464 123.653L94.1831 123.446L95.8473 122.838L97.1713 123.142L95.4464 123.653Z" fill="#351C1C"/>
<path d="M110.448 131.299C108.022 131.764 105.676 132.584 103.488 133.731C103.692 134.002 103.966 134.212 104.281 134.339C104.595 134.465 104.939 134.503 105.273 134.448C105.927 134.331 106.589 134.266 107.253 134.253L102.115 139.116C101.909 139.323 101.678 139.651 101.86 139.882C102.042 140.113 102.431 139.967 102.686 139.785L107.472 136.442L104.107 141.219C103.747 141.633 103.518 142.145 103.451 142.69C104.739 142.933 105.808 141.778 106.597 140.745C107.521 139.529 108.444 138.314 109.379 137.098L107.897 142.775C108.368 142.861 108.853 142.799 109.288 142.599C109.723 142.399 110.085 142.07 110.327 141.657C110.798 140.825 111.1 139.908 111.213 138.958C111.338 138.011 111.693 137.11 112.246 136.332C112.246 136.891 112.246 137.451 112.246 138.01C112.221 138.134 112.221 138.262 112.246 138.387C112.246 140.478 114.092 140.003 113.874 136.989C113.936 135.122 114.176 133.266 114.59 131.445" fill="#FFC58B"/>
<path d="M72.1117 130.546L63.0985 101.26L62.2847 101.82L70.3747 130.898L72.1117 130.546Z" fill="#3A2020"/>
<path d="M45.7523 121.745C42.837 114.499 39.9055 107.258 36.9578 100.021C43.0799 99.7168 62.3089 101.881 62.3089 101.881L70.3989 130.959C70.3989 130.959 48.0603 122.389 45.4243 121.331" fill="#351C1C"/>
<path d="M36.9578 100.021L38.707 99.2427L63.0985 101.261L62.2968 102.282L36.9578 100.021Z" fill="#3A2020"/>
</g>
<defs>
<filter id="filter0_d" x="-10" y="0" width="273" height="293" filterUnits="userSpaceOnUse" color-interpolation-filters="sRGB">
<feFlood flood-opacity="0" result="BackgroundImageFix"/>
<feColorMatrix in="SourceAlpha" type="matrix" values="0 0 0 0 0 0 0 0 0 0 0 0 0 0 0 0 0 0 127 0"/>
<feOffset dy="4"/>
<feGaussianBlur stdDeviation="11"/>
<feColorMatrix type="matrix" values="0 0 0 0 0.321569 0 0 0 0 0.270588 0 0 0 0 0.690196 0 0 0 0.2 0"/>
<feBlend mode="normal" in2="BackgroundImageFix" result="effect1_dropShadow"/>
<feBlend mode="normal" in="SourceGraphic" in2="effect1_dropShadow" result="shape"/>
</filter>
</defs>
</svg>
