<svg width="150" height="174" viewBox="0 0 150 174" fill="none" xmlns="http://www.w3.org/2000/svg">
<path d="M95.742 115.199C87.3011 110.71 89.6005 89.0194 89.6005 89.0194L76.9591 89.8145V89.0194L75.6054 89.3976L74.2517 89V89.7951L61.6103 89C61.6103 89 63.9096 110.681 55.4688 115.18C47.0279 119.679 -2.86073 121.909 2.51435 172H148.706C154.081 121.929 104.193 119.689 95.742 115.199Z" fill="#FFAC9D"/>
<path d="M59.7454 109.84C69.8987 108.327 80.0387 106.767 90.1654 105.16C89.3262 99.6875 89.1617 94.1326 89.6754 88.62L76.9754 89.44V88.62L75.5854 89L74.2254 88.59V89.41L61.5254 88.59C61.5254 88.59 62.8654 101.61 59.7454 109.84Z" fill="#CC887F"/>
<path d="M100.662 116C94.722 122.1 85.442 126 75.002 126C64.562 126 55.282 122.07 49.352 116C33.852 120.32 -4.25798 127.92 0.522018 173.65H149.522C154.262 127.92 116.162 120.32 100.662 116Z" fill="#7B769E"/>
<mask id="mask0" mask-type="alpha" maskUnits="userSpaceOnUse" x="0" y="116" width="150" height="58">
<path d="M100.662 116C94.722 122.1 85.442 126 75.002 126C64.562 126 55.282 122.07 49.352 116C33.852 120.32 -4.25798 127.92 0.522018 173.65H149.522C154.262 127.92 116.162 120.32 100.662 116Z" fill="#E2EAF2"/>
</mask>
<g mask="url(#mask0)">
<path d="M120.405 120.57L123.855 125.75L124.345 126.49L124.675 126L118.115 127.38L117.185 127.57L117.685 127.95L120.795 121.38L121.235 120.46C121.455 120 120.565 119.97 120.395 120.34L117.285 126.9L116.845 127.83C116.695 128.16 117.125 128.25 117.345 128.2L123.905 126.82L124.845 126.63C125.055 126.63 125.305 126.34 125.155 126.11L121.675 120.92L121.185 120.18C120.975 119.84 120.145 120.18 120.405 120.57Z" fill="#352C38"/>
<path d="M105.765 120.55L109.215 125.73L109.705 126.46L110.055 126.07L103.495 127.46L102.565 127.65L103.055 127.81L106.165 121.25L106.605 120.32C106.695 120.14 106.315 120.13 106.235 120.14C106.134 120.143 106.036 120.171 105.949 120.222C105.861 120.273 105.788 120.344 105.735 120.43L102.675 127L102.235 127.92C102.125 128.16 102.675 128.1 102.735 128.09L109.285 126.7L110.225 126.51C110.365 126.51 110.705 126.32 110.565 126.12L107.115 120.94L106.625 120.21C106.415 120 105.565 120.25 105.765 120.55Z" fill="#352C38"/>
<path d="M91.1353 120.54L94.5853 125.72L95.0753 126.46L95.4253 126.1L88.8753 127.48L87.9353 127.67L88.4253 127.81L91.5353 121.24L91.9753 120.32C92.0553 120.14 91.6753 120.15 91.6053 120.16C91.5056 120.163 91.408 120.19 91.321 120.239C91.234 120.288 91.16 120.357 91.1053 120.44L87.9953 127L87.5553 127.93C87.4553 128.15 87.9953 128.07 88.0453 128.06L94.5953 126.68L95.5353 126.49C95.6653 126.49 96.0153 126.31 95.8853 126.13L92.4353 121L91.9453 120.26C91.8053 120 90.9553 120.27 91.1353 120.54Z" fill="#352C38"/>
<path d="M76.5053 120.55L79.9553 125.73L80.4453 126.47L80.7853 126.05L74.2253 127.43L73.2953 127.63L73.7653 127.89L76.8753 121.33L77.3153 120.4C77.5053 120 76.6353 120.07 76.4953 120.4L73.3853 126.96L72.9453 127.89C72.8053 128.19 73.2453 128.19 73.4253 128.15L79.9753 126.77L80.9153 126.57C81.0753 126.57 81.3953 126.36 81.2553 126.15L77.8053 120.97L77.3153 120.24C77.1353 119.93 76.2853 120.23 76.5053 120.55Z" fill="#352C38"/>
<path d="M61.8653 120.54L65.3153 125.72L65.8053 126.46L66.1653 126.1L59.6053 127.48L58.6753 127.68L59.1653 127.81L62.2653 121.24L62.7053 120.32C62.7953 120.14 62.4153 120.15 62.3453 120.16C62.2444 120.164 62.1457 120.191 62.0572 120.24C61.9687 120.288 61.8927 120.357 61.8353 120.44L58.7253 127L58.2953 127.93C58.1853 128.15 58.7353 128.07 58.7753 128.06L65.3353 126.68L66.2653 126.48C66.3953 126.48 66.7453 126.31 66.6253 126.13L63.1753 121L62.6853 120.26C62.5353 120 61.6753 120.27 61.8653 120.54Z" fill="#352C38"/>
<path d="M47.2453 120.57L50.6753 125.75L51.1653 126.48L51.4853 126L44.9353 127.39L43.9953 127.58L44.4853 127.91L47.5953 121.35L48.0353 120.42C48.2453 119.98 47.3653 120 47.2053 120.33L44.0953 126.9L43.6553 127.83C43.5053 128.14 43.9453 128.2 44.1553 128.16L50.7053 126.77L51.6453 126.58C51.8353 126.58 52.1153 126.32 51.9653 126.1L48.5153 120.92L48.0253 120.19C47.8353 119.87 46.9953 120.2 47.2453 120.57Z" fill="#352C38"/>
<path d="M32.5753 120.49L36.0253 125.67L36.5153 126.41L37.0353 126.15L30.4853 127.53L29.5453 127.73L29.8953 127.79L32.9953 121.22L33.4353 120.3C33.5053 120.16 33.1353 120.23 33.0953 120.23C33.0553 120.23 32.6453 120.32 32.5753 120.46L29.4753 127L29.0353 127.93C28.9653 128.06 29.3553 128 29.3753 127.99L35.9353 126.61L36.8653 126.41C36.8653 126.41 37.4653 126.26 37.3853 126.15L33.9353 121L33.4453 120.27C33.3153 120.06 32.5153 120.42 32.5753 120.49Z" fill="#352C38"/>
<path d="M17.9753 120.57L21.4353 125.75L21.9253 126.49L22.2353 125.97L15.6753 127.36L14.7453 127.55L15.2453 127.93L18.3553 121.36L18.7953 120.44C19.0153 119.98 18.1353 119.95 17.9553 120.32L14.8453 126.88L14.4053 127.81C14.2553 128.13 14.6953 128.23 14.9153 128.19L21.4753 126.81L22.4053 126.61C22.6153 126.61 22.8653 126.32 22.7153 126.09L19.2653 120.91L18.7753 120.18C18.5453 119.83 17.6753 120.18 17.9753 120.57Z" fill="#352C38"/>
<path d="M3.34532 120.56L6.79532 125.74L7.28532 126.47L7.67532 126L1.06532 127.42L0.12532 127.62L0.60532 127.89L3.67532 121.33L4.11532 120.4C4.30532 119.99 3.43532 120.06 3.29532 120.35L0.18532 126.92L-0.25468 127.84C-0.39468 128.15 0.0453196 128.16 0.22532 128.12L6.78532 126.74L7.71532 126.54C7.88532 126.54 8.18532 126.32 8.05532 126.11L4.67532 120.93L4.18532 120.2C3.96532 119.92 3.12532 120.23 3.34532 120.56Z" fill="#352C38"/>
<path d="M134.995 120.49L138.455 125.67L138.945 126.41L139.455 126.12L132.895 127.5L131.965 127.69L132.315 127.8L135.425 121.23L135.865 120.3C135.945 120.15 135.115 120.22 135.005 120.45L131.895 127L131.455 127.93C131.385 128.08 131.775 128.04 131.805 128.04L138.365 126.65L139.305 126.46C139.305 126.46 139.905 126.3 139.815 126.16L136.365 121L135.875 120.27C135.725 120 134.915 120.37 134.995 120.49Z" fill="#352C38"/>
<path d="M128.955 133.18L132.415 138.36L132.905 139.09L133.235 138.65L126.675 140L125.745 140.2L126.225 140.49L129.335 133.93L129.775 133C129.975 132.58 129.095 132.63 128.955 132.94L125.845 139.5L125.405 140.43C125.255 140.74 125.695 140.76 125.885 140.72L132.445 139.34L133.375 139.14C133.555 139.14 133.845 138.91 133.705 138.7L130.255 133.52L129.765 132.79C129.575 132.53 128.735 132.84 128.955 133.18Z" fill="#352C38"/>
<path d="M114.335 133.2L117.785 138.38L118.275 139.11L118.585 138.59L112.025 140L111.095 140.2L111.605 140.58L114.675 134L115.115 133.07C115.335 132.6 114.445 132.57 114.265 132.95L111.165 139.51L110.725 140.44C110.565 140.76 111.005 140.87 111.225 140.82L117.785 139.44L118.715 139.25C118.935 139.2 119.185 138.95 119.035 138.72L115.575 133.54L115.085 132.81C114.895 132.44 114.065 132.8 114.335 133.2Z" fill="#352C38"/>
<path d="M99.6753 133.17L103.125 138.35L103.615 139.08L103.965 138.7L97.4053 140.08L96.4753 140.28L96.9653 140.43L100.075 133.87L100.515 132.94C100.595 132.76 100.225 132.76 100.145 132.77C100.044 132.771 99.9449 132.799 99.8574 132.85C99.7698 132.9 99.6968 132.973 99.6453 133.06L96.5353 139.62L96.0953 140.55C95.9853 140.78 96.5353 140.71 96.5853 140.7L103.145 139.32L104.075 139.12C104.215 139.12 104.555 138.94 104.425 138.74L100.975 133.56L100.485 132.83C100.355 132.6 99.5053 132.88 99.6753 133.17Z" fill="#352C38"/>
<path d="M85.0252 133.11L88.4852 138.29L88.9752 139.03L89.4852 138.74L82.9352 140.12L81.9952 140.32L82.3452 140.41L85.4552 133.85L85.8952 132.92C85.9652 132.78 85.1452 132.84 85.0352 133.07L81.9252 139.64L81.4852 140.56C81.4152 140.71 81.8052 140.67 81.8352 140.66L88.3952 139.28L89.3252 139.08C89.3252 139.08 89.9352 138.93 89.8452 138.79L86.3952 133.62L85.9052 132.88C85.7552 132.66 84.9452 133 85.0252 133.11Z" fill="#352C38"/>
<path d="M70.4353 133.19L73.8853 138.37L74.3753 139.1L74.6953 138.62L68.1453 140L67.2053 140.2L67.7053 140.53L70.8153 134L71.2453 133.07C71.4553 132.63 70.5753 132.65 70.4153 132.98L67.3053 139.55L66.8653 140.47C66.7153 140.79 67.1553 140.85 67.3653 140.81L73.9153 139.43L74.8553 139.23C75.0453 139.23 75.3253 138.97 75.1753 138.75L71.7253 133.57L71.2353 132.84C71.0253 132.49 70.1853 132.82 70.4353 133.19Z" fill="#352C38"/>
<path d="M55.8054 133.2L59.2554 138.37L59.7454 139.11L60.0554 138.59L53.5054 140L52.5654 140.2L53.0754 140.58L56.1854 134L56.6254 133.08C56.8454 132.62 55.9554 132.58 55.7854 132.96L52.6754 139.5L52.2354 140.43C52.0754 140.75 52.5154 140.85 52.7354 140.81L59.2954 139.43L60.2254 139.23C60.4454 139.23 60.6954 138.94 60.5454 138.71L57.0854 133.53L56.5954 132.8C56.3654 132.45 55.5354 132.8 55.8054 133.2Z" fill="#352C38"/>
<path d="M41.1353 133.11L44.5853 138.29L45.0753 139.03L45.5953 138.77L39.0453 140.15L38.1053 140.35L38.4453 140.41L41.5553 133.84L41.9953 132.92C42.0553 132.79 41.6953 132.85 41.6553 132.86C41.6153 132.87 41.2053 132.94 41.1353 133.08L38.0353 139.64L37.5953 140.57C37.5253 140.7 37.9053 140.64 37.9353 140.63L44.4953 139.25L45.4253 139.05C45.4253 139.05 46.0153 138.9 45.9453 138.79L42.4953 133.62L42.0053 132.88C41.8753 132.68 41.0853 133 41.1353 133.11Z" fill="#352C38"/>
<path d="M26.5354 133.17L29.9854 138.35L30.4754 139.08L30.8254 138.7L24.2654 140.08L23.3354 140.28L23.8254 140.43L26.9354 133.87L27.3754 132.94C27.4554 132.76 27.0754 132.75 26.9954 132.76C26.895 132.765 26.7972 132.794 26.7102 132.844C26.6232 132.895 26.5496 132.965 26.4954 133.05L23.3954 139.62L22.9554 140.55C22.8454 140.78 23.3854 140.71 23.4454 140.7L30.0054 139.32L30.9354 139.12C31.0754 139.12 31.4154 138.94 31.2854 138.74L27.8354 133.56L27.3454 132.83C27.1854 132.59 26.3354 132.88 26.5354 133.17Z" fill="#352C38"/>
<path d="M11.9052 133.19L15.3552 138.37L15.8452 139.1L16.1652 138.61L9.60525 140L8.67525 140.2L9.17525 140.55L12.2852 134L12.7252 133.07C12.9352 132.62 12.0552 132.62 11.8852 132.97L8.77525 139.51L8.33525 140.44C8.18525 140.76 8.62525 140.83 8.83525 140.79L15.3952 139.41L16.3252 139.21C16.5252 139.21 16.7952 138.94 16.6452 138.72L13.1952 133.54L12.6752 132.8C12.4852 132.48 11.6752 132.81 11.9052 133.19Z" fill="#352C38"/>
<path d="M143.595 133.2L147.045 138.37L147.535 139.11L147.855 138.59L141.295 140L140.365 140.2L140.865 140.58L143.975 134L144.415 133.08C144.635 132.62 143.755 132.58 143.575 132.96L140.465 139.52L140.025 140.45C139.875 140.77 140.305 140.87 140.535 140.83L147.085 139.45L148.025 139.25C148.235 139.25 148.485 138.96 148.335 138.73L144.885 133.55L144.395 132.82C144.165 132.45 143.335 132.8 143.595 133.2Z" fill="#352C38"/>
<path d="M120.405 145.81L123.855 150.99L124.345 151.72L124.665 151.24L118.115 152.62L117.175 152.82L117.675 153.15L120.785 146.59L121.215 145.66C121.425 145.22 120.545 145.23 120.385 145.57L117.275 152.14L116.835 153.06C116.685 153.38 117.125 153.44 117.335 153.4L123.885 152.02L124.825 151.82C125.015 151.82 125.295 151.56 125.145 151.34L121.675 146.16L121.185 145.43C120.995 145.11 120.155 145.44 120.405 145.81Z" fill="#352C38"/>
<path d="M105.735 145.73L109.185 150.91L109.675 151.65L110.185 151.35L103.675 152.73L102.735 152.92L103.095 153.04L106.205 146.47L106.645 145.55C106.725 145.37 105.895 145.45 105.775 145.69L102.675 152.25L102.235 153.18C102.165 153.34 102.555 153.3 102.595 153.29L109.155 151.91L110.085 151.72C110.085 151.72 110.695 151.56 110.605 151.42L107.145 146.24L106.655 145.5C106.455 145.27 105.675 145.6 105.735 145.73Z" fill="#352C38"/>
<path d="M91.1354 145.79L94.5854 151L95.0754 151.73L95.4254 151.34L88.8654 152.72L87.9254 152.91L88.3954 153.15L91.5054 146.59L91.9454 145.66C92.1254 145.28 91.2554 145.37 91.1354 145.66L88.0254 152.22L87.5854 153.15C87.4454 153.44 87.8854 153.42 88.0554 153.38L94.6054 152L95.5454 151.81C95.6954 151.81 96.0154 151.61 95.8854 151.41L92.4354 146.23L91.9454 145.5C91.7754 145.2 90.9354 145.49 91.1354 145.79Z" fill="#352C38"/>
<path d="M76.5054 145.8L79.9554 151L80.4454 151.74L80.7754 151.28L74.2254 152.67L73.2854 152.86L73.7754 153.16L76.8854 146.6L77.3154 145.67C77.5254 145.25 76.6454 145.29 76.4954 145.6L73.3854 152.17L72.9454 153.1C72.7954 153.41 73.2354 153.44 73.4254 153.4L79.9854 152L80.9254 151.8C81.1054 151.8 81.3954 151.56 81.2554 151.35L77.7954 146.17L77.3054 145.43C77.1154 145.14 76.2754 145.45 76.5054 145.8Z" fill="#352C38"/>
<path d="M61.8752 145.82L65.3252 151L65.8152 151.73L66.1352 151.21L59.5752 152.59L58.6452 152.79L59.1452 153.17L62.2552 146.6L62.6952 145.68C62.9152 145.22 62.0352 145.19 61.8552 145.56L58.7452 152.12L58.3052 153.05C58.1552 153.37 58.5852 153.47 58.8152 153.43L65.3652 152.05L66.3052 151.85C66.5152 151.85 66.7652 151.56 66.6152 151.33L63.1652 146.15L62.6752 145.42C62.4352 145.07 61.6152 145.42 61.8752 145.82Z" fill="#352C38"/>
<path d="M47.2354 145.79L50.6754 151L51.1654 151.73L51.5154 151.35L44.9554 152.73L44.0254 152.92L44.5154 153.08L47.6754 146.49L48.1154 145.56C48.2054 145.38 47.8254 145.37 47.7454 145.38C47.6446 145.383 47.5461 145.411 47.4589 145.462C47.3716 145.513 47.2983 145.584 47.2454 145.67L44.1354 152.24L43.6954 153.16C43.5854 153.4 44.1354 153.34 44.1954 153.32L50.6754 151.94L51.6154 151.75C51.7554 151.75 52.0954 151.56 51.9654 151.36L48.5054 146.18L48.0154 145.45C47.8854 145.21 47.0454 145.49 47.2354 145.79Z" fill="#352C38"/>
<path d="M32.5752 145.73L36.0252 150.91L36.5152 151.65L37.0352 151.36L30.4752 152.74L29.5352 152.94L29.8952 153.04L33.0052 146.47L33.4452 145.54C33.5152 145.39 32.6852 145.46 32.5752 145.69L29.4652 152.26L29.0252 153.18C28.9552 153.33 29.3452 153.29 29.3852 153.28L35.9352 151.9L36.8752 151.7C36.8752 151.7 37.4852 151.55 37.3852 151.42L33.9352 146.24L33.4452 145.5C33.2952 145.28 32.4952 145.61 32.5752 145.73Z" fill="#352C38"/>
<path d="M17.9754 145.81L21.4254 151L21.9154 151.73L22.2454 151.25L15.6754 152.62L14.7454 152.82L15.2354 153.16L18.3454 146.59L18.7854 145.66C18.9954 145.22 18.1154 145.23 17.9554 145.57L14.8454 152.14L14.4054 153.06C14.2554 153.38 14.6854 153.45 14.8954 153.4L21.4654 152L22.3954 151.8C22.5954 151.8 22.8654 151.54 22.7254 151.32L19.2654 146.14L18.7754 145.41C18.5654 145.11 17.7254 145.44 17.9754 145.81Z" fill="#352C38"/>
<path d="M3.30528 145.73L6.76528 150.91L7.25528 151.65L7.76528 151.36L1.20528 152.74L0.275278 152.93L0.675278 153L3.78528 146.43L4.22528 145.51C4.30528 145.35 3.47528 145.42 3.36528 145.65L0.255278 152.21L-0.184722 153.14C-0.254722 153.3 0.135278 153.25 0.165278 153.25L6.67528 151.91L7.61528 151.71C7.61528 151.71 8.21528 151.56 8.12528 151.42L4.67528 146.24L4.18528 145.5C4.03528 145.27 3.22528 145.61 3.30528 145.73Z" fill="#352C38"/>
<path d="M134.995 145.73L138.455 150.91L138.945 151.65L139.455 151.36L132.895 152.74L131.965 152.93L132.315 153.04L135.425 146.47L135.865 145.55C135.945 145.39 135.115 145.46 135.005 145.69L131.895 152.25L131.455 153.18C131.385 153.34 131.775 153.29 131.805 153.29L138.365 151.91L139.305 151.71C139.305 151.71 139.905 151.55 139.815 151.42L136.365 146.24L135.875 145.5C135.725 145.27 134.915 145.61 134.995 145.73Z" fill="#352C38"/>
<path d="M120.395 171L123.855 176.18L124.345 176.91L124.685 176.52L118.125 177.9L117.195 178.1L117.665 178.33L120.775 171.77L121.215 170.84C121.395 170.46 120.525 170.56 120.395 170.84L117.285 177.4L116.845 178.33C116.705 178.62 117.145 178.6 117.315 178.56L123.875 177.18L124.805 176.98C124.955 176.98 125.285 176.79 125.155 176.59L121.675 171.42L121.185 170.69C121.045 170.44 120.195 170.73 120.395 171Z" fill="#352C38"/>
<path d="M105.735 171L109.185 176.18L109.675 176.91L110.195 176.64L103.675 178L102.735 178.2L103.085 178.27L106.195 171.71L106.635 170.78C106.635 170.67 105.875 170.72 105.775 170.94L102.675 177.5L102.235 178.43C102.165 178.57 102.555 178.5 102.575 178.5L109.135 177.12L110.065 176.92C110.065 176.92 110.665 176.77 110.595 176.66L107.135 171.48L106.645 170.74C106.475 170.54 105.675 170.89 105.735 171Z" fill="#352C38"/>
<path d="M91.1353 171L94.5853 176.18L95.0753 176.91L95.4253 176.53L88.8653 177.91L87.9353 178.11L88.4253 178.26L91.5353 171.7L91.9753 170.77C92.0653 170.59 91.6853 170.58 91.6053 170.59C91.5029 170.591 91.4027 170.62 91.3148 170.673C91.227 170.725 91.1547 170.8 91.1053 170.89L87.9953 177.45L87.5553 178.38C87.4453 178.61 87.9953 178.54 88.0453 178.53L94.6053 177.15L95.5353 176.95C95.6853 176.95 96.0153 176.77 95.8853 176.57L92.4353 171.39L91.9453 170.66C91.7853 170.45 90.9353 170.74 91.1353 171Z" fill="#352C38"/>
<path d="M76.5053 171L79.9553 176.18L80.4453 176.91L80.7853 176.52L74.2353 177.9L73.2953 178.1L73.7653 178.33L76.8753 171.77L77.3153 170.84C77.4953 170.46 76.6253 170.56 76.4953 170.84L73.3853 177.4L72.9553 178.33C72.8153 178.62 73.2453 178.6 73.4153 178.56L79.9753 177.18L80.9053 176.98C81.0553 176.98 81.3853 176.79 81.2553 176.59L77.8053 171.41L77.3153 170.68C77.1453 170.44 76.3053 170.73 76.5053 171Z" fill="#352C38"/>
<path d="M61.8352 171L65.2952 176.18L65.7752 176.91L66.2952 176.61L59.7352 178L58.8052 178.19L59.1552 178.3L62.2652 171.73L62.7052 170.81C62.7852 170.65 61.9552 170.72 61.8452 170.95L58.7352 177.51L58.2952 178.44C58.2252 178.6 58.6052 178.56 58.6452 178.55L65.2052 177.17L66.1452 176.97C66.1452 176.97 66.7452 176.82 66.6552 176.68L63.2052 171.5L62.7152 170.76C62.5552 170.51 61.7552 170.85 61.8352 171Z" fill="#352C38"/>
<path d="M47.2354 171L50.6754 176.2L51.1654 176.94L51.5254 176.59L44.9754 178L44.0454 178.19L44.5254 178.32L47.6754 171.72L48.1154 170.8C48.1954 170.62 47.8254 170.64 47.7454 170.65C47.6471 170.654 47.551 170.681 47.4644 170.727C47.3777 170.774 47.3029 170.84 47.2454 170.92L44.1354 177.49L43.6954 178.41C43.5954 178.63 44.1354 178.55 44.1854 178.54L50.6754 177.16L51.6754 177C51.7954 177 52.1554 176.83 52.0354 176.65L48.5754 171.47L48.0854 170.74C47.9054 170.49 47.0654 170.76 47.2354 171Z" fill="#352C38"/>
<path d="M32.6054 171L36.0554 176.18L36.5454 176.91L36.8854 176.48L30.3254 177.86L29.3954 178.06L29.8754 178.34L32.9854 171.77L33.4254 170.84C33.6154 170.44 32.7354 170.5 32.5954 170.84L29.4854 177.41L29.0454 178.33C28.9054 178.64 29.3454 178.65 29.5254 178.61L36.0854 177.23L37.0154 177.03C37.1854 177.03 37.4954 176.81 37.3554 176.6L33.9054 171.42L33.4154 170.69C33.2254 170.4 32.3854 170.71 32.6054 171Z" fill="#352C38"/>
<path d="M17.9753 171.05L21.4253 176.23L21.9153 176.96L22.2453 176.48L15.6753 177.86L14.7453 178.06L15.2353 178.4L18.3453 171.83L18.7853 170.9C18.9953 170.46 18.1153 170.47 17.9553 170.81L14.8453 177.38L14.4053 178.3C14.2553 178.62 14.6953 178.68 14.8953 178.64L21.4553 177.26L22.3853 177.06C22.5853 177.06 22.8553 176.8 22.7153 176.58L19.2553 171.4L18.7653 170.67C18.5653 170.35 17.7253 170.68 17.9753 171.05Z" fill="#352C38"/>
<path d="M3.34538 171L6.79538 176.18L7.28538 176.92L7.62538 176.51L1.06538 177.92L0.135383 178.11L0.605383 178.37L3.67538 171.8L4.11538 170.88C4.30538 170.48 3.42538 170.56 3.29538 170.88L0.225383 177.4L-0.214617 178.33C-0.354617 178.63 0.0853826 178.62 0.255383 178.59L6.81538 177.2L7.75538 177.01C7.90538 177.01 8.22538 176.8 8.09538 176.6L4.67538 171.42L4.18538 170.68C3.97538 170.42 3.12538 170.72 3.34538 171Z" fill="#352C38"/>
<path d="M134.995 171L138.455 176.18L138.945 176.91L139.465 176.63L132.905 178L131.965 178.19L132.315 178.27L135.425 171.71L135.865 170.78C135.925 170.66 135.115 170.71 135.005 170.94L131.895 177.5L131.455 178.43C131.385 178.57 131.775 178.51 131.805 178.51L138.365 177.13L139.295 176.93C139.295 176.93 139.895 176.78 139.815 176.66L136.365 171.48L135.875 170.74C135.735 170.53 134.935 170.88 134.995 171Z" fill="#352C38"/>
<path d="M128.925 158.36L132.375 163.53L132.865 164.27L133.385 163.99L126.835 165.37L125.895 165.57L126.245 165.65L129.355 159.09L129.795 158.16C129.855 158.04 129.035 158.09 128.935 158.32L125.825 164.88L125.385 165.81C125.315 165.95 125.705 165.89 125.735 165.89L132.285 164.51L133.225 164.31C133.225 164.31 133.825 164.16 133.745 164.04L130.285 158.86L129.795 158.12C129.675 157.91 128.855 158.25 128.925 158.36Z" fill="#352C38"/>
<path d="M114.295 158.36L117.745 163.53L118.235 164.27L118.745 163.96L112.185 165.34L111.255 165.53L111.615 165.66L114.725 159.1L115.165 158.17C115.255 157.98 114.415 158.06 114.295 158.31L111.185 164.87L110.745 165.8C110.675 165.96 111.065 165.93 111.105 165.92L117.665 164.54L118.605 164.35C118.605 164.35 119.215 164.19 119.115 164.04L115.675 158.86L115.185 158.12C115.005 157.88 114.195 158.2 114.295 158.36Z" fill="#352C38"/>
<path d="M99.6753 158.36L103.125 163.53L103.615 164.27L104.125 163.95L97.5653 165.33L96.6353 165.53L96.9953 165.66L100.105 159.1L100.545 158.17C100.635 157.98 99.7953 158.06 99.6753 158.3L96.5653 164.87L96.1253 165.8C96.0453 165.96 96.4353 165.94 96.4853 165.93L103.045 164.55L103.975 164.35C103.975 164.35 104.595 164.19 104.485 164.04L101.035 158.86L100.545 158.12C100.375 157.88 99.5553 158.2 99.6753 158.36Z" fill="#352C38"/>
<path d="M85.0554 158.41L88.5154 163.59L89.0054 164.32L89.3554 163.94L82.7954 165.32L81.8654 165.52L82.3554 165.67L85.4654 159.11L85.9054 158.18C85.9854 158 85.6054 157.99 85.5254 158C85.425 158.005 85.3272 158.034 85.2402 158.084C85.1532 158.135 85.0796 158.205 85.0254 158.29L81.9154 164.86L81.4854 165.79C81.3754 166.02 81.9154 165.95 81.9754 165.94L88.5354 164.56L89.4654 164.37C89.6054 164.37 89.9454 164.18 89.8154 163.98L86.3654 158.8L85.8754 158.07C85.6754 157.83 84.8654 158.12 85.0554 158.41Z" fill="#352C38"/>
<path d="M70.4253 158.4L73.8753 163.58L74.3653 164.32L74.7253 163.96L68.1653 165.34L67.2353 165.54L67.7153 165.67L70.8253 159.1L71.2653 158.18C71.3553 158 70.9753 158.01 70.8953 158.02C70.7961 158.025 70.6995 158.053 70.6128 158.102C70.5261 158.15 70.4517 158.218 70.3953 158.3L67.2853 164.86L66.8453 165.79C66.7453 166.01 67.2853 165.93 67.3353 165.92L73.8953 164.54L74.8253 164.34C74.9553 164.34 75.3053 164.17 75.1853 163.99L71.7353 158.81L71.2453 158.07C71.0953 157.86 70.2453 158.14 70.4253 158.4Z" fill="#352C38"/>
<path d="M55.8054 158.43L59.2554 163.61L59.7454 164.35L60.0654 163.85L53.5054 165.23L52.5754 165.43L53.0754 165.78L56.1754 159.22L56.6154 158.29C56.8354 157.84 55.9554 157.83 55.7854 158.19L52.6754 164.75L52.2354 165.68C52.0854 166 52.5254 166.08 52.7354 166.03L59.2954 164.65L60.2254 164.45C60.4254 164.45 60.6954 164.18 60.5454 163.96L57.0954 158.78L56.6054 158.05C56.3854 157.72 55.5454 158.05 55.8054 158.43Z" fill="#352C38"/>
<path d="M41.1353 158.36L44.5853 163.53L45.0753 164.27L45.5853 163.96L39.0253 165.34L38.0953 165.53L38.4553 165.66L41.5653 159.1L42.0053 158.17C42.0953 157.98 41.2553 158.06 41.1353 158.31L38.0253 164.87L37.5853 165.8C37.5053 165.96 37.9053 165.94 37.9453 165.93L44.5053 164.55L45.4353 164.35C45.4853 164.35 46.0553 164.19 45.9453 164.04L42.4953 158.86L42.0053 158.12C41.8453 157.88 41.0253 158.2 41.1353 158.36Z" fill="#352C38"/>
<path d="M26.5353 158.42L29.9853 163.6L30.4753 164.33L30.8153 163.9L24.2553 165.28L23.3153 165.48L23.7953 165.76L26.9053 159.19L27.3453 158.27C27.5453 157.85 26.6653 157.91 26.5253 158.21L23.4153 164.78L22.9753 165.7C22.8353 166.01 23.2753 166.02 23.4553 165.98L30.0153 164.6L30.9453 164.41C31.1153 164.41 31.4253 164.18 31.2853 163.97L27.8253 158.79L27.3353 158.06C27.1553 157.78 26.3053 158.08 26.5353 158.42Z" fill="#352C38"/>
<path d="M11.8652 158.36L15.3252 163.53L15.8152 164.27L16.3252 163.97L9.76523 165.35L8.83523 165.54L9.18523 165.66L12.2952 159.1L12.7352 158.17C12.8152 157.99 11.9852 158.07 11.8752 158.31L8.76523 164.87L8.32523 165.8C8.24523 165.96 8.63523 165.92 8.68523 165.92L15.2352 164.54L16.1752 164.34C16.1752 164.34 16.7852 164.18 16.6852 164.04L13.2352 158.86L12.7452 158.12C12.5852 157.89 11.7752 158.22 11.8652 158.36Z" fill="#352C38"/>
<path d="M143.555 158.36L147.015 163.53L147.505 164.27L148.025 164L141.465 165.38L140.525 165.57L140.875 165.65L143.985 159.09L144.425 158.16C144.485 158.04 143.665 158.1 143.565 158.32L140.455 164.88L140.015 165.81C139.945 165.95 140.335 165.89 140.365 165.89L146.925 164.5L147.855 164.31C147.855 164.31 148.455 164.16 148.375 164.04L144.925 158.86L144.435 158.12C144.295 157.91 143.495 158.26 143.555 158.36Z" fill="#352C38"/>
</g>
<path d="M63.3652 85.58C63.3652 85.58 50.5652 82.41 39.3652 87.11C28.1652 91.81 29.7552 60.07 30.6752 59C31.5952 57.93 52.1552 45.29 52.1552 45.29L63.3652 85.58Z" fill="#1F1B4F"/>
<path d="M85.5154 85.14C85.5154 85.14 98.5154 82.74 109.375 88.14C120.235 93.54 120.585 61.71 119.785 60.55C118.985 59.39 99.1054 45.59 99.1054 45.59L85.5154 85.14Z" fill="#1F1B4F"/>
<path d="M50.7554 55.88C48.2554 48.13 42.3354 49.88 41.7554 50.11C41.1754 50.34 35.0654 51.11 36.1154 59.11C37.1654 67.11 41.8954 71.64 46.3154 70.35C50.8854 69.68 53.2654 63.68 50.7554 55.88Z" fill="#CC887F"/>
<path d="M100.675 55.88C103.175 48.13 109.085 49.88 109.675 50.11C110.265 50.34 116.375 51.11 115.315 59.11C114.255 67.11 109.535 71.64 105.115 70.35C100.515 69.68 98.1353 63.68 100.675 55.88Z" fill="#CC887F"/>
<path d="M44.6753 44.14C47.7753 10.14 73.6153 12.05 76.0553 12.31C78.4853 12.05 104.325 10.15 107.425 44.14C110.545 78.33 95.3153 100.66 76.0553 99.43C56.8053 100.66 41.5753 78.33 44.6753 44.14Z" fill="#FFAC9D"/>
<path d="M41.0554 52.19L49.7554 58.88L70.7554 59.88C70.7554 59.88 76.9154 53.05 83.5854 59.55L102.915 59.88L111.185 53.17" stroke="#778092" stroke-width="1.43" stroke-miterlimit="10"/>
<path d="M62.5031 69.2838C68.1953 68.1474 71.8885 62.6118 70.7521 56.9196C69.6158 51.2274 64.0801 47.5342 58.3879 48.6706C52.6957 49.807 49.0025 55.3426 50.1389 61.0348C51.2753 66.727 56.8109 70.4202 62.5031 69.2838Z" fill="#B1BDD6" stroke="#778092" stroke-width="1.34" stroke-miterlimit="10"/>
<path d="M102.783 62.6645C104.814 57.2269 102.052 51.1725 96.6147 49.1416C91.1771 47.1107 85.1227 49.8724 83.0918 55.3101C81.0609 60.7477 83.8226 66.8021 89.2603 68.833C94.6979 70.8639 100.752 68.1022 102.783 62.6645Z" fill="#B1BDD6" stroke="#778092" stroke-width="1.34" stroke-miterlimit="10"/>
<path d="M80.5153 61C80.9119 61.7756 81.2463 62.5814 81.5153 63.41C81.8153 64.22 82.0653 65.04 82.2853 65.87C82.4053 66.28 82.4853 66.7 82.5853 67.12C82.6853 67.54 82.7753 67.95 82.8453 68.37C83.0153 69.21 83.1353 70.06 83.2253 70.92L83.2753 71.32L83.0553 71.52C82.3653 72.15 81.6453 72.77 80.9253 73.37C80.2053 73.97 79.5053 74.52 78.6753 75.07C79.1953 74.26 79.7653 73.5 80.3353 72.75C80.9053 72 81.4953 71.27 82.1053 70.55L81.9353 71.15C81.6853 70.33 81.4453 69.5 81.2653 68.67C81.1653 68.25 81.0653 67.84 80.9953 67.41C80.9253 66.98 80.8253 66.57 80.7653 66.15C80.6453 65.3 80.5353 64.45 80.4853 63.59C80.4322 62.7271 80.4422 61.8615 80.5153 61Z" fill="#CC887F"/>
<path d="M89.2354 81.17C83.0854 87.17 72.6654 86.82 64.7754 81.49L89.2354 81.17Z" fill="white"/>
<path d="M100.435 49.44L99.6754 49L98.8454 48.55L97.8454 47.99C97.4554 47.82 97.0554 47.59 96.6054 47.42L95.9454 47.12L95.2454 46.87C94.7854 46.67 94.2454 46.59 93.8154 46.42C93.3276 46.3132 92.8331 46.2397 92.3354 46.2L91.5954 46.14C91.3554 46.14 91.1154 46.14 90.8654 46.14C90.3866 46.1726 89.9115 46.2462 89.4454 46.36C88.9754 46.44 88.5454 46.67 88.1054 46.78L87.7754 46.89L87.4754 47.04L86.8854 47.31C86.5227 47.4603 86.1717 47.6375 85.8354 47.84L85.0254 48.3C84.5554 48.55 84.2554 48.68 84.2554 48.68C84.2554 48.68 84.3754 48.4 84.6354 47.92C84.7654 47.69 84.9254 47.39 85.1354 47.07C85.3657 46.7036 85.6412 46.3676 85.9554 46.07C86.2979 45.6748 86.6836 45.3193 87.1054 45.01C87.5879 44.6573 88.1037 44.3525 88.6454 44.1C88.9454 43.98 89.2454 43.88 89.5554 43.77C89.876 43.6458 90.2127 43.5684 90.5554 43.54L91.5554 43.41H92.5554C93.2341 43.4736 93.9044 43.6077 94.5554 43.81C94.8654 43.92 95.1654 44.06 95.4554 44.18C95.7467 44.293 96.025 44.4371 96.2854 44.61C96.5454 44.77 96.8054 44.92 97.0454 45.09L97.7054 45.61C98.0983 45.9386 98.466 46.2963 98.8054 46.68C99.3136 47.2391 99.7533 47.8568 100.115 48.52C100.25 48.816 100.358 49.124 100.435 49.44Z" fill="#352C38"/>
<path d="M68.2452 49.44L67.5052 49L66.6752 48.58L65.6752 48C65.2852 47.83 64.8852 47.6 64.4452 47.43L63.7752 47.13L63.0852 46.88C62.6252 46.68 62.0852 46.6 61.6452 46.43C61.1574 46.3232 60.663 46.2497 60.1652 46.21L59.4252 46.15C59.1852 46.15 58.9452 46.15 58.6952 46.15C58.2165 46.1834 57.7415 46.257 57.2752 46.37C56.8052 46.45 56.3752 46.68 55.9352 46.79L55.6052 46.9L55.3052 47.05L54.7152 47.32C54.3535 47.4724 54.0026 47.6495 53.6652 47.85L52.8552 48.31C52.3852 48.56 52.0852 48.69 52.0852 48.69C52.0852 48.69 52.2052 48.41 52.4652 47.93C52.6052 47.7 52.7652 47.4 52.9752 47.08C53.1985 46.7114 53.471 46.375 53.7852 46.08C54.1277 45.6848 54.5135 45.3293 54.9352 45.02C55.4177 44.6673 55.9335 44.3626 56.4752 44.11C56.7752 43.99 57.0752 43.89 57.3852 43.78C57.7058 43.6559 58.0426 43.5784 58.3852 43.55L59.3852 43.42H60.3852C61.0637 43.4853 61.7338 43.6193 62.3852 43.82C62.6852 43.93 62.9852 44.07 63.2752 44.19C63.5666 44.303 63.8449 44.4471 64.1052 44.62C64.3652 44.78 64.6252 44.93 64.8652 45.1L65.5352 45.62C65.9234 45.9538 66.2908 46.3112 66.6352 46.69C67.1376 47.2516 67.5737 47.8689 67.9352 48.53C68.0663 48.8232 68.1701 49.1278 68.2452 49.44Z" fill="#352C38"/>
<path d="M67.2254 61.75C67.2254 61.75 67.1554 61.48 66.9954 61.02C66.7845 60.3902 66.5237 59.7783 66.2154 59.19C65.7996 58.4145 65.2275 57.7335 64.5354 57.19C64.1574 56.9 63.7307 56.6799 63.2754 56.54C63.0477 56.4507 62.8088 56.3935 62.5654 56.37C62.3222 56.3194 62.0736 56.2993 61.8254 56.31C61.5854 56.31 61.2854 56.31 61.0954 56.31C60.8319 56.3399 60.5711 56.39 60.3154 56.46C59.8763 56.5711 59.4623 56.7645 59.0954 57.03C58.7339 57.3084 58.4228 57.6466 58.1754 58.03C57.9412 58.3807 57.7466 58.7563 57.5954 59.15C57.3546 59.7637 57.177 60.4003 57.0654 61.05C56.9854 61.53 56.9554 61.81 56.9554 61.81C56.8966 61.5562 56.8532 61.2991 56.8254 61.04C56.7602 60.3417 56.7973 59.6376 56.9354 58.95C57.0257 58.4732 57.184 58.0118 57.4054 57.58C57.646 57.0769 57.9862 56.6278 58.4054 56.26C58.8714 55.8396 59.4298 55.5347 60.0354 55.37C60.312 55.295 60.5924 55.2349 60.8754 55.19C61.2082 55.1635 61.5426 55.1635 61.8754 55.19C62.4926 55.2013 63.1039 55.3127 63.6854 55.52C63.976 55.6146 64.252 55.7492 64.5054 55.92C64.7653 56.0679 65.007 56.2458 65.2254 56.45C65.9834 57.15 66.5453 58.0359 66.8554 59.02C67.0709 59.6671 67.2019 60.3393 67.2454 61.02C67.2558 61.2635 67.2491 61.5074 67.2254 61.75Z" fill="#352C38"/>
<path d="M96.1453 61.29C96.1453 61.29 96.0753 61.01 95.9153 60.55C95.7085 59.9219 95.4475 59.313 95.1353 58.73C94.7281 57.9516 94.1586 57.2695 93.4653 56.73C93.0926 56.4129 92.6658 56.1656 92.2053 56C91.977 55.9129 91.7383 55.8558 91.4953 55.83C91.2513 55.7853 91.0034 55.7652 90.7553 55.77C90.5122 55.7542 90.2684 55.7542 90.0253 55.77C89.7588 55.7969 89.4948 55.8437 89.2353 55.91C88.7965 56.0268 88.3829 56.2235 88.0153 56.49C87.6538 56.7684 87.3427 57.1067 87.0953 57.49C86.8707 57.8463 86.6767 58.221 86.5153 58.61C86.2794 59.2245 86.1052 59.861 85.9953 60.51C85.9452 60.7646 85.9085 61.0216 85.8853 61.28C85.8216 61.0272 85.7781 60.7697 85.7553 60.51C85.6804 59.8124 85.7142 59.1073 85.8553 58.42C85.9531 57.942 86.111 57.4783 86.3253 57.04C86.5946 56.508 86.9707 56.0371 87.4301 55.6569C87.8895 55.2767 88.4223 54.9952 88.9953 54.83C89.2704 54.7513 89.5513 54.6945 89.8353 54.66C90.1469 54.6195 90.4611 54.6028 90.7753 54.61C91.0848 54.6081 91.3935 54.6416 91.6953 54.71C92.0014 54.7498 92.3007 54.8306 92.5853 54.95C92.8799 55.0423 93.1595 55.1771 93.4153 55.35C93.6733 55.4969 93.9147 55.6712 94.1353 55.87C94.8959 56.5719 95.4581 57.4617 95.7653 58.45C95.9823 59.0967 96.1134 59.7691 96.1553 60.45C96.1719 60.7299 96.1685 61.0106 96.1453 61.29Z" fill="#352C38"/>
<path d="M45.9453 8.26001C45.9453 8.26001 55.6153 -4.06999 74.9453 3.93001C85.9453 -3.06999 94.2853 0.260008 102.285 6.26001L76.6153 19.26L45.9453 8.26001Z" fill="#1A0F91"/>
<path d="M10.7752 80.05L10.4552 79.05C10.2352 78.43 9.95521 77.51 9.64521 76.32C9.49521 75.72 9.36521 75.05 9.21521 74.32C9.06521 73.59 8.96521 72.85 8.85521 72C8.63664 70.0682 8.65679 68.1169 8.91521 66.19C9.21218 63.8741 9.90921 61.6273 10.9752 59.55C11.2551 58.9861 11.5725 58.4415 11.9252 57.92C12.2457 57.3595 12.6137 56.8275 13.0252 56.33C13.4352 55.82 13.8352 55.33 14.2752 54.79L15.6752 53.37C16.1675 52.8751 16.6956 52.4172 17.2552 52C17.7952 51.59 18.3152 51.12 18.8852 50.74C20.0316 49.9411 21.2236 49.2099 22.4552 48.55L26.1452 46.62C27.2727 45.954 28.3283 45.1731 29.2952 44.29C31.2358 42.4849 32.7787 40.295 33.8252 37.86C34.8545 35.4326 35.6806 32.924 36.2952 30.36C36.9152 27.84 37.4852 25.36 38.1252 23.03C38.7009 20.8127 39.4636 18.6483 40.4052 16.56C41.2107 14.7853 42.2463 13.1244 43.4852 11.62C44.4547 10.4938 45.5483 9.48075 46.7452 8.59999C47.5138 8.03358 48.3302 7.53504 49.1852 7.10999L50.0752 6.64999L49.2352 7.19999C48.4508 7.71518 47.7024 8.28316 46.9952 8.89999C45.904 9.85652 44.9244 10.9334 44.0752 12.11C43.0206 13.6345 42.1448 15.2753 41.4652 17C40.6757 19.0761 40.0439 21.2088 39.5752 23.38C39.0752 25.73 38.5752 28.2 38.0052 30.76C37.4496 33.4529 36.6427 36.0877 35.5952 38.63C34.4438 41.3263 32.7406 43.7517 30.5952 45.75C29.496 46.7483 28.2885 47.6204 26.9952 48.35L23.3152 50.24L22.4252 50.7C22.1352 50.86 21.8552 51.05 21.5752 51.22L19.8952 52.22C19.3352 52.57 18.8452 52.99 18.3252 53.37C17.8038 53.7377 17.3092 54.142 16.8452 54.58L15.5252 56L14.3152 57.39C13.9152 57.8351 13.5539 58.3135 13.2352 58.82C12.8666 59.2886 12.5324 59.7832 12.2352 60.3L11.4452 61.81L10.8352 63.36C10.6375 63.8608 10.4771 64.3755 10.3552 64.9C10.199 65.3947 10.0754 65.8991 9.98522 66.41C9.90522 66.92 9.82522 67.41 9.73522 67.89C9.64522 68.37 9.67521 68.81 9.67521 69.27C9.55521 70.21 9.67521 71.1 9.60521 71.94C9.53521 72.78 9.69521 73.57 9.76521 74.3C9.83521 75.03 9.95521 75.69 10.0352 76.3C10.2552 77.49 10.4052 78.44 10.5752 79.08L10.7752 80.05Z" fill="#1A0F91"/>
<path d="M77.1552 23.58C77.1552 23.58 76.8352 23.43 76.2252 23.22C75.3388 22.923 74.4334 22.6858 73.5152 22.51C72.1241 22.2437 70.6992 22.2032 69.2952 22.39C67.5621 22.6227 65.9676 23.4625 64.7952 24.76C64.6452 24.94 64.4852 25.12 64.3252 25.29L63.9452 25.92L63.5552 26.56C63.4391 26.7895 63.3388 27.0267 63.2552 27.27L62.9552 28L62.8152 28.33L62.6952 28.75C62.5352 29.3 62.3552 29.87 62.2152 30.44C61.6935 32.8264 61.3062 35.2402 61.0552 37.67C60.7906 40.4435 60.1861 43.174 59.2552 45.8C58.18 48.5455 56.5955 51.063 54.5852 53.22C54.0852 53.76 53.5852 54.22 53.0152 54.75C52.4994 55.2578 51.9516 55.7321 51.3752 56.17C50.8152 56.61 50.2652 57.08 49.6952 57.49L47.9452 58.69C46.8965 59.321 45.9435 60.0989 45.1152 61C44.4031 61.8636 43.9276 62.8973 43.7352 64C43.4405 66.3148 43.6174 68.6654 44.2552 70.91C44.8052 73.17 45.4852 75.33 46.0552 77.34C46.6162 79.1801 47.0604 81.0539 47.3852 82.95C47.6528 84.4318 47.6966 85.9453 47.5152 87.44C47.377 88.4001 47.0688 89.3279 46.6052 90.18C46.2552 90.73 46.0452 91.01 46.0452 91.01C46.0452 91.01 46.1952 90.7 46.4652 90.11C46.7641 89.2372 46.9228 88.3225 46.9352 87.4C46.9187 85.9705 46.7033 84.5502 46.2952 83.18C45.8652 81.58 45.2152 79.81 44.4752 77.87C43.7352 75.93 42.8752 73.87 42.1652 71.48C41.2456 68.9476 40.904 66.2416 41.1652 63.56C41.3912 62.0282 42.0038 60.5793 42.9452 59.35C43.1844 59.0266 43.4521 58.7254 43.7452 58.45C44.0366 58.1469 44.3472 57.863 44.6752 57.6L45.5552 56.95L46.3752 56.38L48.0052 55.23C48.5452 54.83 49.0052 54.39 49.5652 53.97C50.0874 53.5596 50.5849 53.1189 51.0552 52.65C51.5152 52.18 52.0552 51.74 52.4552 51.25C54.2634 49.3836 55.6961 47.1871 56.6752 44.78C57.5785 42.3638 58.2123 39.8553 58.5652 37.3C58.9191 34.7568 59.4606 32.2433 60.1852 29.78C60.3752 29.2 60.5852 28.66 60.7752 28.11L60.9252 27.7C61.0152 27.49 61.0652 27.4 61.1352 27.25L61.5452 26.43C61.6727 26.1583 61.8163 25.8945 61.9752 25.64C62.1452 25.39 62.3252 25.15 62.4952 24.91L63.0152 24.21L63.6452 23.6C65.1515 22.1664 67.1365 21.3431 69.2152 21.29C70.7324 21.2579 72.243 21.4984 73.6752 22C74.5843 22.2922 75.4646 22.6671 76.3052 23.12C76.5967 23.2578 76.8805 23.4113 77.1552 23.58Z" fill="#1A0F91"/>
<path d="M48.3452 6.26001C31.6752 16.6 43.6752 39.93 26.3452 49.6C9.01523 59.27 10.6852 72.6 14.3452 82.26C15.6552 85.7 19.2652 87.57 23.3452 88.56C22.0652 83.56 21.0552 76.43 22.8952 69.56C22.8952 69.56 21.5752 81.2 25.5452 88.97C27.6232 89.3028 29.7214 89.4932 31.8252 89.54C31.2054 87.1527 31.0058 84.6758 31.2352 82.22C31.7743 84.723 32.5168 87.1778 33.4552 89.56C35.6298 89.5662 37.8031 89.4527 39.9652 89.22C46.6752 81.26 30.3452 62.93 42.6752 56.6C60.8752 47.25 56.6752 37.93 61.6752 27.6C66.6752 17.27 75.9352 24.26 75.9352 24.26C77.6152 4.60001 65.0152 -4.06999 48.3452 6.26001Z" fill="#1A0F91"/>
<path d="M139.855 80.05L140.065 79.05C140.225 78.41 140.385 77.46 140.605 76.27C140.685 75.67 140.775 75 140.875 74.27C140.975 73.54 140.995 72.75 141.035 71.91C141.075 71.07 141.035 70.18 140.965 69.24C140.965 68.78 140.885 68.3 140.845 67.81C140.805 67.32 140.675 66.81 140.585 66.33C140.503 65.8184 140.383 65.3136 140.225 64.82C140.103 64.2955 139.943 63.7808 139.745 63.28L139.135 61.73L138.335 60.22C138.061 59.7028 137.747 59.2079 137.395 58.74C137.077 58.2335 136.715 57.7551 136.315 57.31L135.105 56L133.735 54.71C133.271 54.272 132.777 53.8677 132.255 53.5C131.735 53.12 131.255 52.7 130.685 52.35L129.005 51.35C128.715 51.18 128.445 50.99 128.155 50.83L127.255 50.37L123.575 48.48C122.287 47.7478 121.083 46.8759 119.985 45.88C117.836 43.8849 116.132 41.4587 114.985 38.76C113.966 36.1853 113.193 33.5201 112.675 30.8C112.135 28.24 111.605 25.8 111.105 23.42C110.617 21.2352 109.969 19.0893 109.165 17C108.488 15.2614 107.613 13.6071 106.555 12.07C105.716 10.9095 104.75 9.84624 103.675 8.89999C102.966 8.28554 102.218 7.71768 101.435 7.19999L100.595 6.64999L101.485 7.10999C102.323 7.53755 103.123 8.03604 103.875 8.59999C105.077 9.48966 106.174 10.5129 107.145 11.65C108.384 13.1544 109.42 14.8153 110.225 16.59C111.167 18.6783 111.93 20.8427 112.505 23.06C113.145 25.4 113.715 27.87 114.335 30.39C114.945 32.9553 115.772 35.4642 116.805 37.89C118.356 41.5605 121.049 44.6327 124.485 46.65L128.175 48.58C129.407 49.2399 130.599 49.9711 131.745 50.77C132.315 51.15 132.835 51.62 133.375 52.03C133.923 52.4387 134.442 52.8866 134.925 53.37L136.355 54.78C136.795 55.28 137.195 55.78 137.605 56.32C138.013 56.82 138.381 57.3517 138.705 57.91C139.058 58.4294 139.373 58.9742 139.645 59.54C140.7 61.6194 141.387 63.866 141.675 66.18C141.948 68.1085 141.981 70.0633 141.775 72C141.665 72.86 141.545 73.65 141.415 74.39C141.285 75.13 141.125 75.78 140.985 76.39C140.675 77.58 140.395 78.5 140.175 79.12L139.855 80.05Z" fill="#1A0F91"/>
<path d="M73.4753 23.58C73.7557 23.397 74.0461 23.2301 74.3453 23.08C75.1873 22.6408 76.0677 22.2793 76.9753 22C78.4099 21.5115 79.9206 21.2846 81.4353 21.33C83.5174 21.3816 85.506 22.2049 87.0153 23.64L87.6453 24.25L88.1653 24.95C88.3353 25.19 88.5153 25.43 88.6853 25.68C88.8443 25.9345 88.9879 26.1983 89.1153 26.47C89.2453 26.74 89.3853 27.01 89.5153 27.29C89.5965 27.436 89.6699 27.5863 89.7353 27.74L89.8753 28.15C90.0753 28.7 90.2853 29.24 90.4753 29.82C91.1953 32.2845 91.7367 34.7977 92.0953 37.34C92.4482 39.8953 93.0821 42.4038 93.9853 44.82C94.9555 47.2247 96.3779 49.421 98.1753 51.29C98.6153 51.78 99.1153 52.22 99.5753 52.69C100.044 53.1578 100.541 53.5954 101.065 54C101.585 54.42 102.065 54.86 102.615 55.26L104.255 56.41L105.065 56.98L105.955 57.63C106.264 57.8753 106.558 58.1391 106.835 58.42C107.128 58.6929 107.393 58.9944 107.625 59.32C108.575 60.5447 109.188 61.9958 109.405 63.53C109.685 66.2071 109.364 68.9129 108.465 71.45C107.755 73.8 106.895 75.89 106.155 77.84C105.415 79.79 104.765 81.55 104.335 83.15C103.927 84.5202 103.712 85.9405 103.695 87.37C103.703 88.293 103.862 89.2084 104.165 90.08L104.575 90.98C104.575 90.98 104.375 90.7 104.025 90.15C103.558 89.2994 103.25 88.371 103.115 87.41C102.929 85.9155 102.973 84.4012 103.245 82.92C103.57 81.0239 104.014 79.1501 104.575 77.31C105.145 75.31 105.825 73.14 106.375 70.88C107.008 68.6345 107.185 66.2849 106.895 63.97C106.703 62.8673 106.227 61.8336 105.515 60.97C104.682 60.0787 103.726 59.311 102.675 58.69C102.095 58.3 101.505 57.9 100.925 57.49C100.345 57.08 99.8053 56.61 99.2353 56.17C98.6644 55.7294 98.1201 55.2552 97.6053 54.75C97.0853 54.24 96.5353 53.75 96.0353 53.22C94.0287 51.0621 92.4476 48.5447 91.3753 45.8C90.4445 43.174 89.84 40.4435 89.5753 37.67C89.3244 35.2402 88.9371 32.8264 88.4153 30.44C88.2753 29.87 88.0853 29.3 87.9353 28.75L87.8053 28.33L87.6753 28C87.5853 27.75 87.4853 27.51 87.3853 27.27C87.2975 27.0284 87.1973 26.7914 87.0853 26.56L86.6753 25.92C86.5453 25.71 86.4153 25.5 86.2953 25.29L85.8253 24.76C84.653 23.4625 83.0585 22.6227 81.3253 22.39C79.9214 22.2028 78.4964 22.2433 77.1053 22.51C76.1871 22.6858 75.2818 22.923 74.3953 23.22C73.7953 23.43 73.4753 23.58 73.4753 23.58Z" fill="#1A0F91"/>
<path d="M124.285 49.6C106.945 39.93 118.945 16.6 102.285 6.26C85.6252 -4.08 74.2852 4.6 75.9452 24.26C75.9452 24.26 83.9452 17.26 88.9452 27.6C93.9452 37.94 89.7452 47.25 107.945 56.6C120.285 62.93 103.945 81.26 110.615 89.26C114.31 89.6463 118.031 89.6999 121.735 89.42C123.217 85.5084 124.185 81.4209 124.615 77.26C125.144 81.2492 124.879 85.3036 123.835 89.19C125.342 89.0001 126.833 88.6992 128.295 88.29C128.884 86.6662 129.326 84.9928 129.615 83.29C129.684 84.8449 129.634 86.4028 129.465 87.95C132.615 86.85 135.215 85.09 136.285 82.29C139.945 72.6 141.615 59.26 124.285 49.6Z" fill="#1A0F91"/>
</svg>
