<svg width="725" height="456" viewBox="0 0 725 456" fill="none" xmlns="http://www.w3.org/2000/svg">
<path d="M703.778 244.084C691.222 231.329 676.371 218.873 672.499 201.573C665.798 171.608 694.45 146.055 703.831 116.787C710.316 96.5514 706.969 73.5097 694.98 55.8518C682.992 38.194 662.604 26.2784 641.065 24.3378C603.998 21.0039 567.727 45.4953 531.213 38.403C501.982 32.7238 478.877 7.66846 449.2 4.98478C414.276 1.81347 385.32 30.0833 351.955 40.735C312.068 53.4667 268.82 40.1611 229.607 25.5618C190.393 10.9625 149.13 -5.32862 107.793 1.67746C61.7795 9.45647 23.203 48.7827 17.0461 94.163C10.9456 139.142 62.098 175.25 18.5555 229.262C4.95466 246.141 -4.1015 269.64 1.91272 290.33C7.75775 310.436 32.6307 323.151 32.8098 344.07C32.9524 360.573 17.0859 373.703 15.8088 390.16C14.7108 404.281 25.0706 417.342 37.799 424.036C50.5273 430.73 65.3025 432.366 79.6629 433.882L75.4301 438.347C147.77 444.712 220.561 443.296 293.179 441.873L636.732 435.142C648.502 434.91 660.557 434.628 671.524 430.432C682.491 426.235 692.327 417.249 693.995 405.824C696.838 386.375 676.112 369.5 678.026 349.941C680.471 324.972 716.331 315.339 723.141 291.159C727.974 274.032 716.33 256.822 703.778 244.084Z" fill="#F2F6FA"/>
<path d="M290.665 233.777C280.999 197.473 260.388 167.909 235.177 149.87C212.64 133.751 196.989 109.611 192.053 82.3733C191.535 79.5116 190.893 76.6367 190.125 73.7484C178.515 30.0865 142.32 1.81338 109.32 10.6008C76.3196 19.3883 58.9902 61.9124 70.6172 105.574C72.8914 114.183 76.2429 122.469 80.5922 130.238C93.9774 154.023 98.343 181.988 91.7648 208.473C85.8866 232.155 85.9165 259.151 93.1614 286.369C103.972 326.962 128.464 359.14 157.772 376.178C168.874 382.616 178.702 391.035 186.768 401.017C200.12 417.604 219.639 426.049 238.166 421.117C258.153 415.809 271.395 396.386 273.372 373.079C274.493 359.89 278.195 347.092 283.818 335.096C297.084 306.777 300.441 270.483 290.665 233.777Z" fill="#91B3FA"/>
<path d="M133.688 53.5231C145.683 81.2289 156.776 109.3 167.581 137.49C170.284 144.536 172.888 151.621 175.486 158.701L179.403 169.316L183.232 179.968C185.756 187.08 188.38 194.159 190.825 201.298L198.159 222.721C202.87 237.071 207.696 251.382 212.138 265.802C214.367 273.014 216.739 280.179 218.823 287.437L225.172 309.175C233.346 338.245 240.796 367.529 246.734 397.136L245.46 397.405L240.153 375.425L238.826 369.928L237.376 364.464L234.457 353.544L231.601 342.607C230.642 338.958 229.547 335.355 228.526 331.729C226.439 324.488 224.406 317.233 222.273 310.005C213.541 281.144 204.429 252.42 194.739 223.875C189.763 209.641 184.94 195.346 179.881 181.162L176.113 170.503L172.258 159.872C169.694 152.786 167.126 145.697 164.489 138.641C159.334 124.474 154.073 110.344 148.705 96.2495C143.398 82.1334 137.996 68.0549 132.5 54.014L133.688 53.5231Z" fill="#7D97F4"/>
<path d="M179.831 317.064C168.884 296.291 152.202 281.138 134.348 273.657C118.385 266.97 105.488 254.437 98.6775 238.527C97.961 236.856 97.1682 235.197 96.299 233.552C83.1162 208.546 57.1619 196.348 38.333 206.287C19.5042 216.225 14.9098 244.535 28.0926 269.521C30.6798 274.448 33.8774 279.03 37.6099 283.158C49.0777 295.79 55.6459 312.211 55.3539 329.268C55.0952 344.528 58.8902 360.955 67.107 376.529C79.361 399.75 98.7605 415.958 118.966 422.265C126.621 424.646 133.775 428.41 140.074 433.371C150.513 441.617 163.563 444.052 174.139 438.473C185.55 432.452 190.884 418.791 188.824 404.305C187.716 396.111 188.066 387.786 189.859 379.714C193.953 360.633 190.928 338.056 179.831 317.064Z" fill="#BDD0FB"/>
<path opacity="0.57" d="M58.9432 229.385C70.1158 244.598 80.7908 260.159 91.3032 275.827C93.9338 279.745 96.5014 283.702 99.0789 287.653L102.95 293.578L106.768 299.549C109.299 303.529 111.884 307.477 114.372 311.491L121.829 323.523C126.699 331.607 131.638 339.648 136.358 347.822C138.724 351.905 141.168 355.942 143.451 360.076L150.354 372.436C159.394 389.022 168.022 405.814 175.784 423.024L175.048 423.356L168.745 410.7L167.179 407.532L165.521 404.408L162.203 398.158L158.913 391.905C157.818 389.818 156.647 387.775 155.519 385.708C153.237 381.585 150.984 377.448 148.675 373.341C139.33 356.976 129.727 340.761 119.868 324.697C114.859 316.716 109.916 308.691 104.854 300.743L101.073 294.772L97.2411 288.831C94.6868 284.87 92.1358 280.909 89.5417 276.971C84.4265 269.056 79.2504 261.179 74.0136 253.339C68.8143 245.473 63.5586 237.646 58.2466 229.859L58.9432 229.385Z" fill="white"/>
<path d="M611.329 169.445C607.657 159.125 605.378 148.49 605.776 137.215C606.771 108.805 625.928 84.5761 640.544 61.5808C653.979 40.4398 665.729 8.06325 628.071 7.06143C598.066 6.26529 559.944 32.2097 552.676 62.7054C544.074 98.7973 556.988 146.835 532.351 177.835C497.875 221.195 477.689 208.277 469.369 286.751C465.817 320.282 482.429 340.746 502.622 353.189C518.183 362.78 536.308 367.378 554.56 366.365C572.812 365.351 590.317 358.775 604.721 347.52C630.778 327.152 648.316 295.77 647.062 262.246C645.799 228.396 622.329 200.339 611.329 169.445Z" fill="#91B3FA"/>
<path d="M576.454 431.258C576.212 431.26 575.978 431.174 575.795 431.016C575.612 430.858 575.492 430.638 575.459 430.399C564.784 354.569 560.926 285.898 563.998 226.297C566.459 178.581 573.336 136.531 584.446 101.315C603.424 41.1863 627.812 22.0921 628.828 21.3059C629.038 21.1458 629.303 21.0757 629.565 21.1112C629.827 21.1466 630.064 21.2847 630.224 21.495C630.384 21.7052 630.454 21.9705 630.419 22.2324C630.383 22.4943 630.245 22.7314 630.035 22.8915C629.789 23.0806 605.029 42.5364 586.267 102.194C568.937 157.301 553.34 258.925 577.44 430.123C577.477 430.384 577.408 430.65 577.25 430.861C577.091 431.072 576.855 431.211 576.594 431.248L576.454 431.258Z" fill="#7D97F4"/>
<path d="M649.746 89.8537C648.257 89.286 646.672 89.009 645.079 89.0377C635.658 89.1206 630.795 98.5317 627.245 105.916C624.206 112.239 620.611 119.925 621.231 127.19C621.894 135.045 629.418 142.194 636.178 135.005C643.865 126.835 655.419 114.269 656.746 102.496C657.386 96.6541 654.586 91.7346 649.746 89.8537Z" fill="#91B3FA"/>
<path d="M702.915 312.002C709.381 287.324 703.317 257.562 701.588 230.559C700.67 216.295 701.031 202.246 704.783 188.357C708.512 174.547 716.725 160.054 712.117 145.415C702.829 115.921 672.337 125.661 653.402 145.116C631.415 167.694 621.851 207.378 611.206 237.592C604.787 255.804 596.073 274.261 591.714 293.05C584.495 324.179 589.305 346.833 602.823 363.22C609.133 370.869 617.748 376.27 627.381 378.615C637.015 380.961 647.149 380.126 656.268 376.234C673.179 369.022 692.499 351.809 702.915 312.002Z" fill="#BDD0FB"/>
<path d="M623.994 431.258C623.74 431.258 623.495 431.161 623.31 430.986C623.125 430.812 623.013 430.573 622.999 430.319C622.972 429.904 620.677 388.521 626.12 333.259C631.13 282.232 643.934 208.642 676.447 147.677C676.571 147.444 676.783 147.27 677.035 147.193C677.288 147.115 677.56 147.142 677.794 147.266C678.027 147.39 678.201 147.602 678.278 147.854C678.355 148.107 678.329 148.38 678.205 148.613C645.852 209.279 633.09 282.594 628.114 333.418C622.697 388.521 624.973 429.791 624.996 430.203C625.004 430.333 624.985 430.464 624.942 430.588C624.899 430.712 624.832 430.826 624.745 430.923C624.658 431.021 624.552 431.101 624.434 431.157C624.316 431.214 624.188 431.247 624.057 431.254L623.994 431.258Z" fill="#91B3FA"/>
<path d="M308.893 119.096V364.169H308.979C311.228 377.717 360.729 388.548 421.481 388.548C482.234 388.548 531.734 377.717 533.983 364.169H534.073V119.096H308.893Z" fill="#5245B0"/>
<path d="M421.481 144.758C483.664 144.758 534.073 133.413 534.073 119.417C534.073 105.422 483.664 94.0767 421.481 94.0767C359.299 94.0767 308.89 105.422 308.89 119.417C308.89 133.413 359.299 144.758 421.481 144.758Z" fill="url(#paint0_linear)"/>
<path d="M489.485 441.79C544.935 441.79 589.886 396.839 589.886 341.389C589.886 285.94 544.935 240.989 489.485 240.989C434.036 240.989 389.085 285.94 389.085 341.389C389.085 396.839 434.036 441.79 489.485 441.79Z" fill="#6051D3"/>
<path d="M435.898 289.457C434.78 289.457 433.636 289.156 432.833 288.174C431.48 286.515 431.994 284.027 434.243 281.35C443.48 270.405 455.52 262.177 469.074 257.549C474.611 255.645 480.127 254.069 486.706 255.701C488.563 256.159 497.842 258.657 498.207 262.667C498.366 264.439 496.88 266.014 493.609 267.484C475.833 275.51 457.663 282.633 439.169 288.827C438.119 289.21 437.015 289.423 435.898 289.457ZM481.209 256.358C477.537 256.358 473.911 257.306 469.502 258.819C456.177 263.368 444.34 271.455 435.258 282.216C434.595 283.009 432.531 285.716 433.861 287.344C434.664 288.34 436.26 288.399 438.745 287.567C457.196 281.387 475.324 274.279 493.058 266.27C495.659 265.095 496.979 263.891 496.88 262.787C496.684 260.647 491.453 258.259 486.384 257.001C484.692 256.576 482.954 256.359 481.209 256.358Z" fill="#91B3FA"/>
<path d="M416.787 308.19C415.826 308.217 414.887 307.904 414.133 307.308C412.116 305.649 412.538 302.564 413.851 300.235C415.209 297.832 417.158 295.815 419.514 294.377C419.554 294.354 419.596 294.335 419.64 294.321C419.715 294.22 419.818 294.144 419.935 294.102C422.181 293.262 424.988 294.54 426.066 296.885C426.994 298.912 426.659 301.556 425.21 303.616C424.032 305.274 422.224 306.601 419.786 307.557C418.833 307.947 417.817 308.162 416.787 308.19ZM420.377 295.349C420.327 295.415 420.265 295.47 420.194 295.512C418.032 296.831 416.244 298.682 414.999 300.889C414.004 302.674 413.553 305.122 414.966 306.283C416.203 307.298 418.21 306.741 419.295 306.319C421.468 305.477 423.09 304.309 424.115 302.853C425.296 301.171 425.585 299.044 424.848 297.439C424.065 295.727 421.982 294.752 420.386 295.346L420.377 295.349Z" fill="#91B3FA"/>
<path d="M568.997 267.331C568.997 267.331 571.452 268.429 570.48 273.89C569.773 277.87 563.577 280.803 560.276 282.1C559.652 282.344 558.984 282.456 558.314 282.428C557.645 282.399 556.989 282.231 556.388 281.934L548.861 278.222L564.97 271.717L568.997 267.331Z" fill="url(#paint1_linear)"/>
<path d="M649.182 443.837C649.182 443.837 650.658 446.56 650.562 453.895C650.561 454.057 650.527 454.217 650.462 454.365C650.397 454.514 650.302 454.647 650.183 454.757C650.064 454.868 649.924 454.952 649.772 455.007C649.619 455.061 649.457 455.083 649.295 455.072L636.358 454.17C636.236 454.163 636.118 454.127 636.013 454.064C635.908 454.002 635.82 453.916 635.755 453.813C635.69 453.71 635.651 453.593 635.64 453.471C635.63 453.35 635.648 453.228 635.694 453.115C636.61 450.922 639.287 445.608 644.621 442.832L649.182 443.837Z" fill="url(#paint2_linear)"/>
<path d="M650.091 438.924L648.93 445.014C648.882 445.27 648.75 445.502 648.554 445.673C648.359 445.845 648.112 445.946 647.852 445.96C646.934 446.009 646.014 445.935 645.115 445.741C644.68 445.632 644.297 445.372 644.035 445.008C643.772 444.643 643.648 444.198 643.682 443.75L644.097 437.822L650.091 438.924Z" fill="url(#paint3_linear)"/>
<path d="M617.253 441.322C618.91 444.078 619.805 447.223 619.847 450.438C619.845 451.04 619.606 451.617 619.182 452.044C618.758 452.472 618.184 452.716 617.582 452.724L597.426 453.072C597.221 453.075 597.021 453.013 596.853 452.895C596.686 452.776 596.561 452.607 596.496 452.413C596.431 452.219 596.429 452.009 596.492 451.814C596.554 451.618 596.677 451.448 596.842 451.327C600.607 448.584 608.015 443.445 613.402 441.375L617.253 441.322Z" fill="url(#paint4_linear)"/>
<path d="M618.733 435.451L617.171 443.054C617.131 443.257 617.051 443.45 616.936 443.622C616.821 443.794 616.673 443.942 616.5 444.057C616.328 444.172 616.135 444.251 615.931 444.291C615.728 444.33 615.519 444.329 615.316 444.288C614.688 444.142 614.089 443.892 613.545 443.548C613.244 443.356 613.006 443.079 612.863 442.751C612.719 442.424 612.676 442.062 612.739 441.71L614.357 432.501L618.733 435.451Z" fill="url(#paint5_linear)"/>
<path d="M654.738 330.933C654.738 330.933 659.834 336.098 660.454 341.93C661.074 347.762 650.628 441.117 650.628 441.117C650.628 441.117 645.135 441.644 642.455 439.75C642.455 439.75 643.37 378.755 641.828 364.537C641.828 364.537 624.203 426.57 619.741 437.677C619.741 437.677 614.467 437.949 612.848 436.834C612.848 436.834 626.233 355.229 631.6 341.041L654.738 330.933Z" fill="url(#paint6_linear)"/>
<path d="M642.163 362.484C642.109 362.483 642.055 362.474 642.004 362.457C641.879 362.414 641.777 362.324 641.719 362.206C641.66 362.088 641.651 361.952 641.692 361.827L644.614 353.139C644.655 353.02 644.739 352.92 644.85 352.86L650.055 350.011C650.112 349.977 650.176 349.955 650.242 349.946C650.308 349.937 650.375 349.942 650.44 349.96C650.504 349.977 650.564 350.008 650.616 350.049C650.669 350.09 650.712 350.142 650.744 350.2C650.776 350.259 650.796 350.323 650.803 350.39C650.81 350.456 650.803 350.523 650.783 350.587C650.763 350.65 650.731 350.71 650.688 350.761C650.645 350.811 650.592 350.853 650.532 350.883L645.497 353.64L642.637 362.142C642.604 362.241 642.54 362.328 642.455 362.389C642.37 362.45 642.268 362.483 642.163 362.484Z" fill="url(#paint7_linear)"/>
<path d="M616.305 264.269L625.742 278.451C625.742 278.451 618.059 283.725 612.473 284.03L607.696 271.325L616.305 264.269Z" fill="url(#paint8_linear)"/>
<path d="M603.878 252.317C603.878 252.317 600.956 260.415 600.989 264.561C601.022 268.708 600.306 271.451 605.142 271.975C609.979 272.5 613.85 269.862 615.757 265.603C615.757 265.603 618.766 259.038 617.834 256.49C616.902 253.943 603.878 252.317 603.878 252.317Z" fill="url(#paint9_linear)"/>
<path d="M613.943 262.747L613.664 262.644C613.58 262.613 613.504 262.565 613.439 262.504C613.374 262.442 613.322 262.368 613.286 262.286C613.25 262.204 613.232 262.115 613.231 262.026C613.231 261.936 613.248 261.847 613.283 261.765C613.873 260.418 614.998 257.35 613.256 256.762C611.011 256.006 602.23 254.795 600.163 251.84C598.173 249 599.523 245.082 601.845 243.845C601.919 243.804 602.006 243.793 602.088 243.814C602.17 243.835 602.241 243.886 602.286 243.958L602.508 244.323C602.544 244.376 602.594 244.418 602.653 244.443C602.712 244.468 602.777 244.476 602.84 244.465C602.903 244.454 602.962 244.425 603.009 244.382C603.056 244.338 603.09 244.282 603.105 244.22C603.121 244.16 603.154 244.107 603.198 244.065C603.243 244.022 603.299 243.994 603.359 243.981C603.419 243.969 603.482 243.973 603.539 243.994C603.597 244.015 603.648 244.052 603.686 244.1C604.32 244.983 605.965 246.376 610.165 246.874C616.136 247.584 620.183 249.72 620.544 253.79C620.551 253.847 620.572 253.901 620.606 253.947C620.639 253.994 620.684 254.031 620.736 254.054C620.789 254.078 620.846 254.088 620.903 254.083C620.96 254.078 621.015 254.058 621.062 254.026C621.48 253.73 622.17 253.561 623.152 254.284C624.86 255.545 624.422 259.118 621.059 262.246C621.022 262.281 620.994 262.323 620.976 262.37C620.958 262.418 620.951 262.468 620.956 262.518C620.961 262.569 620.977 262.617 621.004 262.66C621.03 262.703 621.066 262.74 621.108 262.767C621.772 263.142 622.803 264.077 620.402 265.566C617.917 267.106 615.99 267.119 615.243 267.043C615.2 267.037 615.157 267.023 615.119 267.002C615.081 266.98 615.047 266.951 615.02 266.916C614.994 266.881 614.974 266.841 614.963 266.798C614.951 266.756 614.949 266.711 614.955 266.668L615.515 263.019C615.521 262.972 615.517 262.925 615.503 262.88C615.488 262.835 615.465 262.793 615.434 262.758C615.402 262.723 615.364 262.695 615.32 262.676C615.277 262.657 615.231 262.647 615.184 262.647L613.943 262.747Z" fill="url(#paint10_linear)"/>
<path d="M613.843 263.513C613.843 263.513 614.838 258.398 617.161 259.665C619.483 260.932 616.351 265.377 614.55 265.683L613.843 263.513Z" fill="url(#paint11_linear)"/>
<path d="M588.4 251.342L579.742 252.725C579.255 252.802 578.813 253.052 578.497 253.43C578.18 253.807 578.011 254.286 578.02 254.779L578.309 271.747C578.321 272.254 578.521 272.74 578.871 273.108C579.222 273.476 579.696 273.7 580.203 273.737L588.576 275.986C588.851 276.006 589.128 275.989 589.398 275.936L595.21 273.282C595.935 273.14 596.586 272.743 597.043 272.162C597.5 271.581 597.734 270.856 597.701 270.118L597.075 255.402C597.045 254.725 596.794 254.075 596.36 253.554C595.925 253.033 595.331 252.67 594.67 252.52L589.568 251.382C589.184 251.294 588.788 251.28 588.4 251.342Z" fill="url(#paint12_linear)"/>
<path d="M575.953 267.096L581.138 266.873C581.646 266.854 582.135 266.678 582.537 266.368C582.94 266.058 583.236 265.631 583.384 265.145C584.167 262.564 584.237 260.07 583.165 257.721C582.96 257.286 582.629 256.922 582.215 256.676C581.801 256.43 581.324 256.314 580.843 256.341L575.499 256.567L575.953 267.096Z" fill="url(#paint13_linear)"/>
<path d="M565.537 270.177L575.768 269.74C576.312 269.719 576.835 269.517 577.251 269.165C577.668 268.814 577.955 268.333 578.066 267.799C578.936 263.543 579.015 259.566 577.735 256.076C577.554 255.586 577.223 255.166 576.788 254.877C576.353 254.587 575.838 254.444 575.316 254.467L564.887 254.911L565.537 270.177Z" fill="url(#paint14_linear)"/>
<path d="M548.861 249.796L564.714 252.559C565.085 252.622 565.436 252.77 565.741 252.991C566.045 253.212 566.294 253.5 566.469 253.833C569.123 258.952 568.715 265.036 567.05 271.521C566.953 271.901 566.768 272.253 566.509 272.548C566.25 272.842 565.925 273.071 565.56 273.216L550.122 279.273L546.964 279.406L545.703 249.932L548.861 249.796Z" fill="url(#paint15_linear)"/>
<path d="M542.111 264.85C542.442 272.987 544.741 279.502 547.213 279.396C549.684 279.29 551.406 272.606 551.057 264.469C550.709 256.331 548.427 249.816 545.955 249.922C543.484 250.028 541.762 256.709 542.111 264.85Z" fill="url(#paint16_linear)"/>
<path d="M582.986 233.591L575.496 234.795C575.075 234.863 574.692 235.079 574.419 235.406C574.145 235.733 573.998 236.147 574.006 236.573L574.255 251.256C574.263 251.7 574.438 252.126 574.746 252.447C575.053 252.768 575.47 252.962 575.914 252.991L583.543 253.551C583.782 253.567 584.021 253.552 584.256 253.508L588.901 252.596C589.528 252.472 590.091 252.128 590.486 251.625C590.882 251.122 591.084 250.495 591.057 249.856L590.493 237.118C590.469 236.53 590.251 235.968 589.875 235.517C589.498 235.066 588.983 234.752 588.41 234.623L583.998 233.628C583.666 233.551 583.322 233.538 582.986 233.591Z" fill="url(#paint17_linear)"/>
<path d="M581.745 236.822L582.346 250.871C582.352 251.023 582.326 251.174 582.269 251.315C582.212 251.456 582.125 251.583 582.015 251.687C581.904 251.791 581.773 251.871 581.629 251.92C581.485 251.969 581.333 251.987 581.181 251.972L576.093 251.468C575.841 251.443 575.606 251.329 575.43 251.147C575.254 250.965 575.149 250.726 575.134 250.473L574.583 237.509C574.571 237.241 574.662 236.978 574.836 236.774C575.01 236.569 575.255 236.438 575.522 236.408L580.564 235.83C580.708 235.814 580.853 235.827 580.991 235.868C581.129 235.91 581.258 235.979 581.368 236.072C581.479 236.165 581.569 236.279 581.634 236.408C581.699 236.537 581.737 236.678 581.745 236.822Z" fill="url(#paint18_linear)"/>
<path d="M544.217 265.022C544.469 270.994 545.736 275.767 547.047 275.711C548.357 275.654 549.206 270.778 548.954 264.82C548.702 258.862 547.432 254.075 546.125 254.132C544.818 254.188 543.972 259.061 544.217 265.022Z" fill="url(#paint19_linear)"/>
<path d="M615.266 279.801C615.266 279.801 609.362 282.455 606.489 285.593C603.616 288.731 578.395 304.243 568.181 276.394L564.078 278.978C564.078 278.978 568.234 305.881 588.161 307.437C606.144 308.844 613.84 302.73 613.84 302.73L615.266 279.801Z" fill="#CCA000"/>
<path d="M594.776 265.029L595.791 253.037L589.906 249.587L584.93 253.362C584.93 253.362 588.217 252.669 588.911 254.447C589.604 256.225 589.949 264.631 590.652 267.009C591.355 269.388 594.776 265.029 594.776 265.029Z" fill="url(#paint20_linear)"/>
<path d="M654.543 330.92C654.543 330.92 656.009 289.53 624.783 277.011C624.783 277.011 615.495 277.986 611.004 282.09C611.004 282.09 607.355 298.086 610.31 304.687C612.964 310.592 628.953 321.293 631.6 341.041C631.6 341.041 644.73 338.938 654.543 330.92Z" fill="#FED84C"/>
<path d="M618.01 280.77C618.01 280.77 615.648 276.205 609.591 283.778C597.566 298.809 594.079 290.937 593.144 283.151C592.208 275.366 593.953 266.266 593.953 266.266C593.953 266.266 592.547 264.11 590.41 265.911C590.41 265.911 581.304 285.815 588.377 299.509C591.82 306.177 600.223 308.538 606.718 304.783C611.703 301.929 616.481 298.727 621.015 295.2C622.07 294.367 618.01 280.77 618.01 280.77Z" fill="url(#paint21_linear)"/>
<path d="M260.026 239.562C260.172 240.684 260.288 241.941 260.374 243.132C260.461 244.323 260.514 245.54 260.52 246.734C260.557 249.078 260.42 251.421 260.112 253.744C259.963 254.861 259.75 255.969 259.472 257.061C259.224 258.104 258.904 259.13 258.517 260.13C257.816 261.97 256.799 263.673 255.511 265.162C255.209 265.494 254.874 265.825 254.546 266.137C254.37 266.283 254.214 266.439 254.025 266.575L253.763 266.787L253.455 267.02C253.05 267.328 252.648 267.643 252.234 267.902C251.819 268.161 251.411 268.416 251 268.652C249.551 269.486 247.936 269.989 246.269 270.124C245.521 270.18 244.769 270.132 244.034 269.982C243.252 269.832 242.49 269.595 241.761 269.275C240.964 268.928 240.2 268.512 239.476 268.031C239.097 267.789 238.729 267.524 238.378 267.248L237.87 266.844L237.641 266.651L237.545 266.572L237.512 266.548C237.512 266.548 237.489 266.529 237.528 266.575C236.551 265.485 235.183 264.826 233.722 264.74C232.26 264.653 230.824 265.148 229.726 266.115C228.627 267.082 227.954 268.444 227.855 269.904C227.755 271.364 228.235 272.805 229.192 273.913L229.497 274.245L229.729 274.503L230.181 274.968C230.476 275.263 230.771 275.548 231.073 275.817C231.683 276.354 232.31 276.862 232.96 277.34C234.298 278.298 235.732 279.113 237.24 279.771C238.818 280.455 240.477 280.936 242.176 281.204C243.923 281.47 245.699 281.496 247.454 281.284C250.805 280.82 253.993 279.547 256.742 277.575C257.379 277.114 258.012 276.65 258.583 276.149C259.154 275.648 259.724 275.153 260.262 274.626L260.666 274.238L261.081 273.8C261.363 273.508 261.618 273.196 261.884 272.894C262.391 272.267 262.879 271.634 263.32 270.967C265.029 268.398 266.227 265.524 266.846 262.501C267.152 261.08 267.354 259.639 267.453 258.189C267.541 256.79 267.548 255.386 267.477 253.986C267.331 251.278 266.927 248.59 266.269 245.958C265.937 244.661 265.589 243.384 265.155 242.13C264.726 240.859 264.233 239.61 263.678 238.388C263.483 237.977 263.148 237.649 262.733 237.462C262.318 237.275 261.851 237.241 261.413 237.366C260.976 237.491 260.597 237.766 260.343 238.144C260.09 238.522 259.979 238.978 260.029 239.43L260.026 239.562Z" fill="url(#paint22_linear)"/>
<path d="M211.65 227.766C211.65 227.766 212.556 229.577 206.658 232.41C203.371 233.989 196.975 236.321 196.129 243.135C195.944 244.837 195.204 246.431 194.025 247.672C192.845 248.914 191.291 249.733 189.601 250.005C180.876 251.332 167.428 255.873 165.275 271.023C163.616 282.587 169.528 286.973 175.714 288.492C180.259 289.607 183.278 294.025 182.349 298.613C181.47 303.015 182.784 308.1 190.407 312.124C207.491 321.137 224.551 290.768 224.551 290.768L228.048 237.741L211.65 227.766Z" fill="#6051D3"/>
<path d="M171.488 434.114L170.788 439.873C170.725 440.403 170.484 440.897 170.106 441.275C169.727 441.652 169.233 441.891 168.702 441.953C166.144 442.263 163.561 442.303 160.996 442.072C160.695 442.039 160.406 441.939 160.149 441.779C159.892 441.62 159.673 441.406 159.509 441.152C159.346 440.898 159.24 440.61 159.201 440.31C159.162 440.011 159.191 439.706 159.284 439.418C159.991 437.196 161.274 433.858 163.149 431.895H169.534C169.814 431.894 170.091 431.953 170.346 432.069C170.601 432.184 170.829 432.352 171.014 432.562C171.199 432.772 171.337 433.019 171.419 433.287C171.5 433.554 171.524 433.836 171.488 434.114Z" fill="url(#paint23_linear)"/>
<path d="M221.522 366.657L222.601 373C222.601 373 218.988 409.573 218.348 424.212C218.247 426.503 218.837 428.772 220.043 430.723L226.323 440.921L210.367 431.51L210.035 429.562L212.645 425.97L209.239 384.985C209.034 382.574 209.531 380.155 210.668 378.019L213.986 371.819L221.522 366.657Z" fill="url(#paint24_linear)"/>
<path d="M227.371 442.387H222.279C221.81 442.388 221.346 442.281 220.925 442.074C220.503 441.868 220.135 441.567 219.848 441.196C218.259 439.133 214.971 435.109 213.399 435.003C211.282 434.86 211.551 442.387 211.551 442.387H210.367L208.861 433.036C208.676 431.888 208.858 430.712 209.379 429.674C209.901 428.635 210.736 427.787 211.767 427.25C211.767 427.25 212.251 430.826 214.875 432.412C217.499 433.998 225.553 439.664 225.553 439.664C226.242 439.582 226.939 439.6 227.623 439.717C229.229 440.009 229.003 442.387 227.371 442.387Z" fill="url(#paint25_linear)"/>
<path d="M199.665 369.669C199.665 369.669 178.514 409.808 175.15 418.954C171.787 428.1 170.612 435.756 170.566 436.479C170.496 437.61 169.09 438.695 165.212 438.695C163.221 438.695 162.226 437.892 161.752 437.116C161.553 436.788 161.441 436.415 161.426 436.032C161.411 435.649 161.493 435.269 161.666 434.926C162.89 432.452 166.774 424.537 168.211 420.948C169.929 416.665 173.621 397.242 175.648 390.492C177.675 383.741 179.96 376.416 188.781 369.669C188.781 369.669 194.838 363.738 199.665 369.669Z" fill="url(#paint26_linear)"/>
<path d="M213.027 303.924C216.895 287.547 211.087 276.208 207.368 270.987C207.02 270.498 206.772 269.944 206.639 269.359C206.506 268.773 206.491 268.167 206.594 267.575C206.696 266.984 206.915 266.418 207.238 265.912C207.56 265.405 207.98 264.968 208.473 264.624C215.323 259.818 224.011 257.018 227.603 255.999C228.123 255.851 228.671 255.83 229.2 255.938C229.73 256.046 230.225 256.28 230.645 256.62C234.337 259.605 244.103 268.253 242.64 275.316C241.586 280.401 231.982 305.775 231.982 305.775C231.982 305.775 223.105 309.971 213.027 303.924Z" fill="url(#paint27_linear)"/>
<path d="M200.933 315.369C203.152 308.681 213.027 303.924 213.027 303.924C223.102 309.971 231.982 305.768 231.982 305.768C231.982 305.768 233.973 313.398 232.599 320.457C231.226 327.517 222.601 373 222.601 373C209 375.753 188.101 370.23 188.101 370.23C196.766 354.861 198.71 322.06 200.933 315.369Z" fill="url(#paint28_linear)"/>
<path d="M219.363 240.266L214.925 260.193C214.5 261.947 216.102 261.659 217.877 261.327C220.783 260.776 224.512 259.648 225.779 257.389C225.901 257.155 225.979 256.899 226.008 256.636L227.912 242.82C227.986 242.287 227.884 241.743 227.622 241.273C227.36 240.803 226.952 240.43 226.459 240.213L222.773 238.58C222.441 238.434 222.082 238.363 221.719 238.371C221.356 238.379 221 238.467 220.675 238.627C220.35 238.788 220.064 239.018 219.837 239.301C219.611 239.584 219.449 239.913 219.363 240.266Z" fill="url(#paint29_linear)"/>
<path d="M227.859 222.1C227.859 222.1 232.583 225.298 234.613 233.439C236.643 241.579 233.342 244.502 229.969 244.323C226.595 244.144 221.675 243.099 217.439 237.257C213.203 231.415 221.672 218.209 227.859 222.1Z" fill="url(#paint30_linear)"/>
<path d="M221.715 233.973C221.715 233.973 219.987 222.309 229.677 224.091L231.637 226.131C231.637 226.131 236.378 220.793 231.13 216.756C225.882 212.719 218.604 213.771 214.576 221.102C210.549 228.433 209.086 233.611 212.463 238.176C215.84 242.74 218.378 238.839 218.378 238.839C218.378 238.839 216.829 234.888 218.113 233.2C219.396 231.511 221.055 234.195 221.055 234.195L221.715 233.973Z" fill="#6051D3"/>
<path d="M220.392 234.971C220.392 234.971 219.539 228.97 216.474 230.685C213.409 232.4 217.579 236.292 219.251 237.615L220.392 234.971Z" fill="url(#paint31_linear)"/>
<path d="M177.825 281.712C177.533 281.695 177.252 281.599 177.012 281.433C173.031 278.829 170.885 273.472 171.83 268.37C172.397 265.321 173.907 262.69 176.086 260.965C177.632 259.741 179.467 258.995 181.215 258.335C184.157 257.22 187.186 256.242 190.231 255.419L190.977 255.22C192.756 254.746 194.593 254.258 196.255 253.425C198.382 252.36 199.934 250.811 200.624 249.063C201 247.947 201.224 246.786 201.288 245.61C201.437 244.18 201.586 242.701 202.303 241.433C202.314 241.414 202.332 241.4 202.353 241.394C202.375 241.388 202.398 241.391 202.417 241.402C202.436 241.413 202.451 241.431 202.457 241.453C202.462 241.474 202.46 241.497 202.449 241.516C201.749 242.75 201.599 244.213 201.453 245.626C201.393 246.818 201.17 247.995 200.79 249.126C200.087 250.911 198.508 252.49 196.342 253.575C194.683 254.414 192.819 254.901 191.034 255.379L190.287 255.578C187.256 256.398 184.224 257.379 181.284 258.487C179.553 259.151 177.732 259.887 176.202 261.095C174.056 262.797 172.553 265.407 172.006 268.393C171.074 273.415 173.174 278.719 177.115 281.287C177.407 281.476 177.961 281.705 178.196 281.377C178.209 281.359 178.229 281.347 178.25 281.344C178.272 281.34 178.294 281.345 178.312 281.357C178.321 281.363 178.329 281.371 178.335 281.38C178.34 281.39 178.344 281.4 178.346 281.411C178.348 281.421 178.348 281.432 178.345 281.443C178.343 281.454 178.338 281.464 178.332 281.473C178.275 281.553 178.198 281.617 178.109 281.658C178.021 281.7 177.922 281.719 177.825 281.712Z" fill="#91B3FA"/>
<path d="M176.799 276.925C176.785 276.925 176.772 276.921 176.76 276.915C176.748 276.909 176.737 276.9 176.729 276.888C175.19 274.583 174.387 272.165 174.407 269.896C174.434 267.242 175.671 264.757 177.632 263.434C177.641 263.427 177.651 263.423 177.662 263.421C177.673 263.419 177.684 263.419 177.695 263.421C177.705 263.423 177.716 263.427 177.725 263.433C177.734 263.44 177.742 263.448 177.748 263.457C177.754 263.466 177.758 263.476 177.76 263.486C177.763 263.497 177.763 263.508 177.76 263.518C177.758 263.529 177.754 263.539 177.748 263.548C177.742 263.556 177.734 263.564 177.725 263.57C175.807 264.863 174.6 267.288 174.573 269.896C174.55 272.135 175.343 274.52 176.865 276.796C176.876 276.814 176.88 276.837 176.876 276.858C176.871 276.879 176.86 276.898 176.842 276.912C176.83 276.92 176.814 276.925 176.799 276.925Z" fill="#91B3FA"/>
<path d="M262.047 243.984C262.047 243.984 260.056 244.88 260.839 249.325C261.413 252.569 266.479 254.964 269.152 256.016C269.66 256.215 270.204 256.306 270.749 256.283C271.294 256.259 271.828 256.122 272.317 255.88L278.451 252.858L265.327 247.55L262.047 243.984Z" fill="url(#paint32_linear)"/>
<path d="M245.994 231.956L253.518 233.16C253.94 233.228 254.323 233.445 254.598 233.772C254.872 234.099 255.02 234.514 255.014 234.941L254.762 249.683C254.754 250.129 254.579 250.555 254.272 250.877C253.964 251.2 253.547 251.395 253.103 251.425L245.838 253.372C245.599 253.389 245.358 253.375 245.122 253.329L240.073 251.007C239.443 250.883 238.879 250.537 238.482 250.033C238.085 249.528 237.882 248.898 237.91 248.257L238.454 235.476C238.48 234.887 238.699 234.323 239.076 233.87C239.454 233.418 239.969 233.102 240.544 232.971L244.976 231.976C245.311 231.904 245.657 231.897 245.994 231.956Z" fill="url(#paint33_linear)"/>
<path d="M256.802 245.643L252.297 245.451C251.856 245.432 251.432 245.278 251.082 245.009C250.732 244.74 250.474 244.369 250.343 243.948C249.68 241.705 249.604 239.539 250.536 237.499C250.714 237.121 251.001 236.805 251.359 236.591C251.718 236.377 252.132 236.275 252.549 236.298L257.193 236.497L256.802 245.643Z" fill="url(#paint34_linear)"/>
<path d="M265.852 248.32L256.965 247.939C256.492 247.92 256.04 247.744 255.68 247.438C255.319 247.133 255.071 246.716 254.974 246.253C254.221 242.558 254.152 239.101 255.263 236.069C255.419 235.644 255.707 235.279 256.085 235.028C256.462 234.777 256.91 234.653 257.363 234.673L266.422 235.058L265.852 248.32Z" fill="url(#paint35_linear)"/>
<path d="M280.348 230.616L266.578 233.017C266.256 233.071 265.951 233.199 265.687 233.391C265.423 233.583 265.206 233.833 265.055 234.122C262.763 238.567 263.101 243.852 264.551 249.488C264.634 249.818 264.795 250.124 265.02 250.38C265.245 250.637 265.528 250.835 265.845 250.961L279.256 256.222L282 256.338L283.091 230.732L280.348 230.616Z" fill="url(#paint36_linear)"/>
<path d="M286.203 243.689C285.901 250.761 283.917 256.421 281.771 256.328C279.625 256.235 278.122 250.43 278.431 243.357C278.739 236.285 280.716 230.629 282.862 230.722C285.009 230.815 286.505 236.62 286.203 243.689Z" fill="url(#paint37_linear)"/>
<path d="M250.695 216.55L257.203 217.592C257.568 217.651 257.9 217.839 258.137 218.122C258.375 218.406 258.503 218.765 258.497 219.135L258.268 231.876C258.263 232.26 258.113 232.627 257.85 232.906C257.586 233.185 257.228 233.355 256.845 233.382L250.211 233.87C250.003 233.884 249.795 233.872 249.59 233.833L245.566 233.041C245.021 232.934 244.532 232.635 244.188 232.199C243.844 231.762 243.668 231.217 243.692 230.662L244.166 219.599C244.188 219.089 244.377 218.601 244.704 218.21C245.03 217.818 245.477 217.545 245.974 217.433L249.809 216.567C250.101 216.505 250.401 216.499 250.695 216.55Z" fill="url(#paint38_linear)"/>
<path d="M251.77 219.344L251.249 231.548C251.243 231.68 251.266 231.812 251.316 231.935C251.366 232.057 251.442 232.168 251.538 232.258C251.634 232.349 251.749 232.418 251.874 232.461C251.999 232.504 252.132 232.52 252.264 232.507L256.682 232.065C256.904 232.044 257.11 231.943 257.263 231.782C257.416 231.62 257.506 231.409 257.515 231.186L257.996 219.908C258.005 219.674 257.926 219.446 257.774 219.269C257.622 219.092 257.409 218.979 257.177 218.952L252.798 218.451C252.671 218.437 252.542 218.448 252.419 218.486C252.297 218.524 252.184 218.587 252.087 218.671C251.99 218.755 251.912 218.858 251.857 218.974C251.803 219.09 251.773 219.216 251.77 219.344Z" fill="url(#paint39_linear)"/>
<path d="M284.365 243.842C284.143 249.017 283.038 253.176 281.907 253.13C280.776 253.084 280.029 248.844 280.248 243.669C280.467 238.494 281.575 234.334 282.706 234.381C283.838 234.427 284.587 238.663 284.365 243.842Z" fill="url(#paint40_linear)"/>
<path d="M240.451 243.845L239.572 233.432L244.684 230.446L248.996 233.727C248.996 233.727 246.14 233.123 245.553 234.666C244.966 236.209 244.651 243.516 244.04 245.58C243.43 247.643 240.451 243.845 240.451 243.845Z" fill="url(#paint41_linear)"/>
<path d="M240.484 244.037C240.484 245.169 240.414 246.432 240.338 247.623C240.262 248.814 240.146 250.025 239.986 251.213C239.699 253.537 239.242 255.838 238.62 258.096C238.317 259.177 237.954 260.24 237.532 261.281C237.142 262.279 236.684 263.25 236.162 264.187C235.216 265.913 233.976 267.46 232.496 268.758C232.146 269.054 231.782 269.331 231.405 269.59C231.209 269.71 231.026 269.842 230.831 269.955L230.539 270.128L230.207 270.314C229.777 270.571 229.334 270.807 228.88 271.02C228.448 271.235 228.005 271.426 227.553 271.594C225.792 272.257 224.16 272.539 222.664 272.403C221.908 272.356 221.164 272.203 220.451 271.949C219.697 271.702 218.975 271.368 218.298 270.954C217.555 270.502 216.853 269.984 216.202 269.408C215.87 269.116 215.538 268.804 215.206 268.486L214.759 268.015L214.559 267.792L214.477 267.7L214.447 267.67C214.447 267.67 214.427 267.646 214.447 267.7C213.63 266.482 212.365 265.637 210.927 265.349C209.49 265.061 207.997 265.352 206.773 266.161C205.55 266.969 204.697 268.228 204.398 269.664C204.1 271.099 204.382 272.595 205.182 273.823L205.434 274.208L205.629 274.497L206.011 275.017C206.263 275.349 206.515 275.681 206.78 275.983C207.308 276.6 207.859 277.187 208.439 277.748C209.631 278.878 210.94 279.879 212.344 280.733C213.812 281.628 215.388 282.333 217.034 282.83C218.729 283.333 220.484 283.605 222.252 283.636C225.647 283.641 228.991 282.818 231.995 281.237C232.692 280.869 233.382 280.498 234.015 280.076C234.649 279.655 235.283 279.24 235.886 278.802L236.341 278.471L236.812 278.089C237.143 277.84 237.425 277.565 237.731 277.303C238.323 276.763 238.887 276.191 239.419 275.591C241.46 273.281 243.037 270.599 244.063 267.693C244.56 266.332 244.958 264.938 245.254 263.52C245.532 262.146 245.733 260.757 245.855 259.36C246.083 256.656 246.052 253.937 245.762 251.239C245.619 249.912 245.43 248.585 245.185 247.295C244.936 245.977 244.62 244.672 244.236 243.387C244.107 242.944 243.823 242.562 243.435 242.311C243.047 242.06 242.582 241.957 242.125 242.021C241.668 242.085 241.249 242.312 240.945 242.66C240.641 243.007 240.473 243.453 240.471 243.915L240.484 244.037Z" fill="url(#paint42_linear)"/>
<g opacity="0.6">
<path opacity="0.6" d="M250.566 272.559L252.987 221.583L300.965 238.099L253.458 218.302L283.765 179.52L248.535 214.786L222.737 177.771L245.019 217.363L202.216 235.276L247.129 221.347L250.566 272.559Z" fill="white"/>
<path opacity="0.6" d="M239.671 246.83L251.64 221.205L272.761 239.765L252.569 219.619L276.267 206.111L250.787 216.783L245.347 192.377L248.442 217.363L222.73 217.542L248.684 219.851L239.671 246.83Z" fill="#91B3FA"/>
</g>
<path d="M118.591 435.351C117.264 437.557 116.547 440.075 116.514 442.649C116.517 443.131 116.708 443.592 117.048 443.934C117.387 444.276 117.847 444.471 118.329 444.477L134.471 444.762C134.634 444.765 134.795 444.715 134.929 444.62C135.062 444.525 135.163 444.39 135.215 444.235C135.267 444.079 135.268 443.911 135.218 443.755C135.169 443.599 135.071 443.463 134.938 443.366C131.923 441.166 125.982 437.063 121.669 435.404L118.591 435.351Z" fill="url(#paint43_linear)"/>
<path d="M125.909 430.647L123.361 437.033C123.076 437.746 122.034 438.29 121.039 438.214C120.338 438.158 119.649 438.006 118.989 437.763C118.289 437.501 117.994 436.927 118.196 436.326L120.953 428.617L125.909 430.647Z" fill="url(#paint44_linear)"/>
<path d="M22.4101 438.542C21.7942 435.46 20.3687 432.598 18.2801 430.249C17.8816 429.816 17.3289 429.557 16.7413 429.528C16.1536 429.499 15.578 429.702 15.1386 430.093L0.340267 443.12C0.182986 443.251 0.0724535 443.429 0.0253499 443.628C-0.0217536 443.827 -0.00287288 444.036 0.0791463 444.223C0.161165 444.41 0.301868 444.566 0.480022 444.666C0.658176 444.766 0.864115 444.806 1.06675 444.779C5.59483 444.281 14.3358 443.12 19.5705 441.05L22.4101 438.542Z" fill="url(#paint45_linear)"/>
<path d="M28.003 436.486L19.5307 436.307C18.5819 436.287 17.4341 437.219 17.0129 438.4C16.7152 439.226 16.53 440.088 16.4622 440.964C16.3958 441.896 16.8835 442.526 17.6664 442.573L27.731 443.153L28.003 436.486Z" fill="url(#paint46_linear)"/>
<path d="M101.693 380.135C101.693 380.135 130.347 385.559 137.307 393.099C143.514 399.82 129.1 426.935 125.906 432.714C125.718 433.053 125.454 433.343 125.134 433.562C124.815 433.781 124.448 433.922 124.065 433.974L121.596 434.306C121.201 434.36 120.798 434.318 120.421 434.183C120.045 434.049 119.707 433.826 119.435 433.533C119.163 433.24 118.966 432.887 118.859 432.502C118.753 432.116 118.74 431.711 118.823 431.321L123.61 409.168C123.754 408.501 123.76 407.813 123.629 407.143C123.498 406.474 123.233 405.839 122.848 405.276C122.463 404.713 121.968 404.234 121.393 403.869C120.817 403.503 120.173 403.259 119.5 403.15L91.0776 398.566C90.5455 398.478 89.9991 398.564 89.5205 398.813C89.042 399.062 88.6571 399.459 88.4238 399.946L70.0527 438.114C69.4071 439.459 68.4071 440.602 67.1603 441.42C65.9136 442.238 64.4672 442.701 62.977 442.759L27.6613 444.115C27.2593 444.131 26.8596 444.048 26.4962 443.876C26.1328 443.703 25.8166 443.445 25.5745 443.124C25.3323 442.802 25.1715 442.427 25.1057 442.03C25.0399 441.634 25.0711 441.227 25.1966 440.844L26.4472 437.043C26.5847 436.628 26.8286 436.257 27.1546 435.966C27.4806 435.674 27.8772 435.474 28.3049 435.384L55.8648 429.629C56.5969 429.476 57.2716 429.122 57.8123 428.605C58.353 428.089 58.7379 427.431 58.9233 426.706L66.0421 397.942C68.1613 389.374 73.1845 381.804 80.2567 376.523C80.5386 376.313 80.8615 376.165 81.2045 376.088C81.5474 376.012 81.9027 376.008 82.247 376.078L101.693 380.135Z" fill="url(#paint47_linear)"/>
<path d="M165.328 308.82C165.328 308.82 162.87 309.918 163.842 315.385C164.552 319.366 170.755 322.308 174.059 323.605C174.684 323.85 175.353 323.962 176.024 323.933C176.694 323.905 177.352 323.737 177.954 323.44L185.487 319.718L169.365 313.209L165.328 308.82Z" fill="url(#paint48_linear)"/>
<path d="M117.948 305.752L108.5 319.953C108.5 319.953 116.189 325.234 121.769 325.539L126.573 312.818L117.948 305.752Z" fill="url(#paint49_linear)"/>
<path d="M145.902 292.808L154.57 294.195C155.057 294.272 155.5 294.523 155.817 294.901C156.134 295.278 156.304 295.758 156.295 296.251L156.003 313.239C155.991 313.747 155.79 314.233 155.44 314.601C155.089 314.969 154.613 315.193 154.106 315.229L145.723 317.482C145.448 317.502 145.171 317.485 144.9 317.432L139.082 314.778C138.356 314.635 137.705 314.237 137.247 313.655C136.789 313.073 136.555 312.346 136.587 311.607L137.214 296.875C137.244 296.196 137.496 295.545 137.932 295.024C138.367 294.502 138.963 294.138 139.626 293.989L144.731 292.831C145.117 292.749 145.514 292.741 145.902 292.808Z" fill="url(#paint50_linear)"/>
<path d="M158.362 308.582L153.17 308.359C152.663 308.339 152.174 308.162 151.771 307.853C151.368 307.543 151.071 307.116 150.921 306.631C150.142 304.044 150.069 301.549 151.14 299.194C151.347 298.76 151.679 298.397 152.092 298.152C152.505 297.906 152.982 297.788 153.462 297.814L158.813 298.043L158.362 308.582Z" fill="url(#paint51_linear)"/>
<path d="M168.791 311.667L158.548 311.229C158.002 311.208 157.48 311.006 157.063 310.654C156.646 310.303 156.358 309.822 156.245 309.288C155.376 305.025 155.297 301.045 156.577 297.548C156.758 297.058 157.09 296.638 157.525 296.349C157.961 296.06 158.477 295.916 158.999 295.939L169.441 296.384L168.791 311.667Z" fill="url(#paint52_linear)"/>
<path d="M185.5 291.262L169.627 294.029C169.256 294.092 168.905 294.239 168.601 294.46C168.296 294.681 168.047 294.969 167.872 295.302C165.218 300.431 165.623 306.518 167.292 313.013C167.387 313.394 167.572 313.747 167.831 314.043C168.09 314.338 168.416 314.567 168.781 314.712L184.24 320.772L187.401 320.908L188.662 291.385L185.5 291.262Z" fill="url(#paint53_linear)"/>
<path d="M192.254 306.332C191.906 314.483 189.621 321.005 187.146 320.898C184.671 320.792 182.949 314.101 183.294 305.951C183.639 297.8 185.932 291.279 188.406 291.385C190.881 291.491 192.586 298.182 192.254 306.332Z" fill="url(#paint54_linear)"/>
<path d="M151.323 275.037L158.823 276.238C159.244 276.305 159.626 276.522 159.9 276.849C160.174 277.176 160.32 277.59 160.313 278.016L160.077 292.715C160.069 293.16 159.894 293.586 159.587 293.907C159.279 294.229 158.862 294.424 158.418 294.453L150.789 295.014C150.55 295.031 150.31 295.017 150.075 294.971L145.431 294.059C144.803 293.935 144.24 293.59 143.845 293.086C143.449 292.583 143.247 291.955 143.275 291.315L143.822 278.583C143.847 277.996 144.065 277.433 144.441 276.982C144.818 276.53 145.332 276.215 145.906 276.086L150.324 275.09C150.651 275.01 150.99 274.992 151.323 275.037Z" fill="url(#paint55_linear)"/>
<path d="M152.563 278.272L151.963 292.34C151.956 292.492 151.983 292.644 152.04 292.785C152.097 292.926 152.184 293.053 152.295 293.158C152.406 293.262 152.538 293.342 152.682 293.391C152.826 293.44 152.979 293.457 153.131 293.442L158.226 292.934C158.477 292.908 158.712 292.794 158.887 292.612C159.062 292.43 159.166 292.191 159.181 291.939L159.745 278.942C159.756 278.673 159.665 278.41 159.49 278.206C159.316 278.002 159.07 277.871 158.803 277.84L153.744 277.257C153.599 277.24 153.452 277.254 153.312 277.297C153.172 277.34 153.043 277.411 152.932 277.506C152.821 277.602 152.731 277.719 152.668 277.85C152.604 277.982 152.569 278.126 152.563 278.272Z" fill="url(#paint56_linear)"/>
<path d="M190.128 306.505C189.876 312.476 188.605 317.266 187.295 317.21C185.985 317.153 185.132 312.27 185.388 306.303C185.643 300.335 186.91 295.545 188.217 295.601C189.524 295.657 190.384 300.54 190.128 306.505Z" fill="url(#paint57_linear)"/>
<path d="M118.999 321.303C118.999 321.303 124.91 323.957 127.79 327.102C130.669 330.247 155.917 345.778 166.144 317.893L170.254 320.477C170.254 320.477 166.091 347.417 146.138 348.976C128.135 350.383 120.429 344.262 120.429 344.262L118.999 321.303Z" fill="#CCA000"/>
<path d="M139.51 306.512L138.514 294.506L144.406 291.053L149.382 294.835C149.382 294.835 146.088 294.138 145.401 295.916C144.714 297.694 144.363 306.117 143.659 308.495C142.956 310.874 139.51 306.512 139.51 306.512Z" fill="url(#paint58_linear)"/>
<path d="M126.218 292.921C126.4 293.113 133.293 309.02 133.293 309.02L124.128 312.752L115.354 298.646C115.354 298.646 123.215 289.72 126.218 292.921Z" fill="url(#paint59_linear)"/>
<path d="M119.251 300.441L123.288 308.227C123.34 308.326 123.405 308.417 123.481 308.499C123.952 309.003 125.697 310.615 127.236 308.727C128.632 307.016 129.933 305.473 131.27 305.042C131.558 304.946 131.871 304.96 132.149 305.083C132.427 305.206 132.649 305.428 132.772 305.705C133.878 308.218 134.786 310.812 135.489 313.465C135.561 313.762 135.518 314.075 135.369 314.342C135.22 314.61 134.977 314.811 134.687 314.908C132.879 315.518 129.047 316.706 125.713 316.931C125.494 316.953 125.274 316.915 125.074 316.822C124.875 316.728 124.705 316.583 124.582 316.4C123.401 314.549 119.789 308.933 118.538 307.523C117.367 306.196 114.999 306.575 114.013 306.803C113.854 306.84 113.689 306.844 113.528 306.815C113.367 306.785 113.214 306.724 113.078 306.634C112.103 305.994 110.172 304.276 112.176 301.615C112.275 301.484 112.348 301.334 112.388 301.174C112.429 301.014 112.437 300.848 112.411 300.685C112.386 300.522 112.328 300.366 112.241 300.226C112.153 300.086 112.039 299.965 111.903 299.87C110.772 299.068 109.465 297.548 110.845 295.243C112.225 292.937 114.531 292.921 115.974 293.233C116.255 293.291 116.548 293.248 116.802 293.112C117.055 292.977 117.253 292.756 117.36 292.489C117.434 292.306 117.563 292.15 117.728 292.042C117.894 291.934 118.088 291.879 118.286 291.886C118.454 291.874 118.617 291.827 118.765 291.748C118.913 291.669 119.044 291.56 119.147 291.428C119.251 291.296 119.326 291.143 119.367 290.981C119.409 290.818 119.415 290.648 119.387 290.482C119.175 289.139 119.42 287.368 121.656 286.309C125.637 284.438 128.778 288.087 129.455 291.043C130.132 293.999 125.707 295.787 122.987 295.963C120.917 296.095 119.669 298.338 119.205 299.403C119.136 299.568 119.104 299.747 119.112 299.927C119.12 300.106 119.168 300.282 119.251 300.441Z" fill="url(#paint60_linear)"/>
<path d="M120.047 310.33C120.047 310.33 118.648 305.228 116.452 305.274C114.256 305.321 112.401 307.391 114.955 310.008C118.137 313.262 120.047 310.33 120.047 310.33Z" fill="url(#paint61_linear)"/>
<path d="M76.0437 380.576C76.0437 380.576 78.1966 331.059 109.472 318.51C109.472 318.51 118.76 319.485 123.268 323.595C123.268 323.595 126.937 339.611 123.962 346.219C121.308 352.134 109.435 361.87 106.782 381.641C106.782 381.641 85.8761 388.604 76.0437 380.576Z" fill="#FED84C"/>
<path d="M116.256 322.275C116.256 322.275 118.618 317.704 124.685 325.284C136.723 340.334 140.216 332.453 141.152 324.66C142.087 316.868 140.339 307.742 140.339 307.742C140.339 307.742 141.749 305.583 143.889 307.387C143.889 307.387 153.004 327.308 145.922 341.028C142.479 347.702 134.063 350.067 127.561 346.309C122.569 343.45 117.785 340.243 113.244 336.712C112.189 335.889 116.256 322.275 116.256 322.275Z" fill="#FED84C"/>
<path d="M348.73 206.174C346.133 200.326 337.916 200.11 335.013 205.809L226.3 419.352C225.102 421.701 224.458 424.293 224.417 426.929C224.375 429.566 224.937 432.177 226.06 434.562C227.183 436.948 228.836 439.045 230.894 440.694C232.952 442.342 235.36 443.498 237.933 444.072C274.251 452.146 351.815 464.218 432.219 444.162C434.67 443.552 436.957 442.413 438.921 440.825C440.884 439.237 442.477 437.238 443.586 434.97C444.695 432.701 445.294 430.217 445.342 427.692C445.389 425.167 444.883 422.662 443.86 420.354L348.73 206.174Z" fill="#FED84C"/>
<path opacity="0.52" d="M260.866 387.672C260.772 387.673 260.679 387.653 260.594 387.616C260.514 387.58 260.442 387.529 260.383 387.465C260.323 387.401 260.276 387.327 260.245 387.245C260.215 387.163 260.2 387.076 260.203 386.989C260.206 386.902 260.226 386.816 260.262 386.736L335.564 220.123C335.896 219.4 336.891 217.204 338.805 217.31C340.404 217.403 341.22 219.002 341.691 220.196L348.617 237.655C348.681 237.818 348.677 238 348.607 238.161C348.536 238.321 348.406 238.447 348.243 238.512C348.08 238.576 347.898 238.573 347.737 238.504C347.576 238.435 347.449 238.305 347.383 238.143L340.457 220.687C339.92 219.324 339.369 218.674 338.729 218.637C338.088 218.601 337.402 219.3 336.771 220.671L261.469 387.284C261.417 387.4 261.332 387.498 261.225 387.567C261.118 387.635 260.993 387.672 260.866 387.672Z" fill="white"/>
<defs>
<linearGradient id="paint0_linear" x1="344641" y1="10344.9" x2="342621" y2="38925.4" gradientUnits="userSpaceOnUse">
<stop stop-color="#09005D"/>
<stop offset="1" stop-color="#1A0F91"/>
</linearGradient>
<linearGradient id="paint1_linear" x1="570.461" y1="276.406" x2="548.341" y2="277.29" gradientUnits="userSpaceOnUse">
<stop stop-color="#FF928E"/>
<stop offset="1" stop-color="#FEB3B1"/>
</linearGradient>
<linearGradient id="paint2_linear" x1="7302.48" y1="16625.2" x2="6630.35" y2="16578.1" gradientUnits="userSpaceOnUse">
<stop stop-color="#09005D"/>
<stop offset="1" stop-color="#1A0F91"/>
</linearGradient>
<linearGradient id="paint3_linear" x1="27314" y1="11521.4" x2="27196.8" y2="11513.2" gradientUnits="userSpaceOnUse">
<stop stop-color="#FF928E"/>
<stop offset="1" stop-color="#FEB3B1"/>
</linearGradient>
<linearGradient id="paint4_linear" x1="16599" y1="12565.4" x2="14946.2" y2="12598.4" gradientUnits="userSpaceOnUse">
<stop stop-color="#09005D"/>
<stop offset="1" stop-color="#1A0F91"/>
</linearGradient>
<linearGradient id="paint5_linear" x1="25412.9" y1="13073.5" x2="25303.5" y2="13073.5" gradientUnits="userSpaceOnUse">
<stop stop-color="#FF928E"/>
<stop offset="1" stop-color="#FEB3B1"/>
</linearGradient>
<linearGradient id="paint6_linear" x1="19301" y1="121487" x2="13404.1" y2="121074" gradientUnits="userSpaceOnUse">
<stop stop-color="#09005D"/>
<stop offset="1" stop-color="#1A0F91"/>
</linearGradient>
<linearGradient id="paint7_linear" x1="19926.7" y1="15803.3" x2="19773" y2="16985.5" gradientUnits="userSpaceOnUse">
<stop stop-color="#09005D"/>
<stop offset="1" stop-color="#1A0F91"/>
</linearGradient>
<linearGradient id="paint8_linear" x1="36992.3" y1="18360.8" x2="37251.4" y2="20529.4" gradientUnits="userSpaceOnUse">
<stop stop-color="#FF928E"/>
<stop offset="1" stop-color="#FEB3B1"/>
</linearGradient>
<linearGradient id="paint9_linear" x1="-76810.7" y1="24869.6" x2="-76747.6" y2="25921.5" gradientUnits="userSpaceOnUse">
<stop stop-color="#FF928E"/>
<stop offset="1" stop-color="#FEB3B1"/>
</linearGradient>
<linearGradient id="paint10_linear" x1="-201988" y1="36918.9" x2="-203142" y2="38730.7" gradientUnits="userSpaceOnUse">
<stop stop-color="#09005D"/>
<stop offset="1" stop-color="#1A0F91"/>
</linearGradient>
<linearGradient id="paint11_linear" x1="-17384.9" y1="7568.87" x2="-17365" y2="7900.55" gradientUnits="userSpaceOnUse">
<stop stop-color="#FF928E"/>
<stop offset="1" stop-color="#FEB3B1"/>
</linearGradient>
<linearGradient id="paint12_linear" x1="-35156.7" y1="25009.9" x2="-36310.6" y2="25056.1" gradientUnits="userSpaceOnUse">
<stop stop-color="#09005D"/>
<stop offset="1" stop-color="#1A0F91"/>
</linearGradient>
<linearGradient id="paint13_linear" x1="-15136.4" y1="10971.9" x2="-15347.3" y2="10980.4" gradientUnits="userSpaceOnUse">
<stop stop-color="#09005D"/>
<stop offset="1" stop-color="#1A0F91"/>
</linearGradient>
<linearGradient id="paint14_linear" x1="-25341.4" y1="16037" x2="-25905.1" y2="16059.5" gradientUnits="userSpaceOnUse">
<stop stop-color="#09005D"/>
<stop offset="1" stop-color="#1A0F91"/>
</linearGradient>
<linearGradient id="paint15_linear" x1="-42495.3" y1="29879.6" x2="-44009" y2="29940.2" gradientUnits="userSpaceOnUse">
<stop stop-color="#09005D"/>
<stop offset="1" stop-color="#1A0F91"/>
</linearGradient>
<linearGradient id="paint16_linear" x1="-16369.5" y1="28709" x2="-16613.4" y2="28718.7" gradientUnits="userSpaceOnUse">
<stop stop-color="#09005D"/>
<stop offset="1" stop-color="#1A0F91"/>
</linearGradient>
<linearGradient id="paint17_linear" x1="-30776" y1="19157" x2="-31641" y2="19191.6" gradientUnits="userSpaceOnUse">
<stop stop-color="#09005D"/>
<stop offset="1" stop-color="#1A0F91"/>
</linearGradient>
<linearGradient id="paint18_linear" x1="13876" y1="15238.6" x2="13707.7" y2="15245.3" gradientUnits="userSpaceOnUse">
<stop stop-color="#4042E2"/>
<stop offset="1" stop-color="#4F52FF"/>
</linearGradient>
<linearGradient id="paint19_linear" x1="8409.86" y1="21975.2" x2="8340.88" y2="21978" gradientUnits="userSpaceOnUse">
<stop stop-color="#4042E2"/>
<stop offset="1" stop-color="#4F52FF"/>
</linearGradient>
<linearGradient id="paint20_linear" x1="21883.3" y1="14802.5" x2="21651.1" y2="15689.2" gradientUnits="userSpaceOnUse">
<stop stop-color="#FF928E"/>
<stop offset="1" stop-color="#FEB3B1"/>
</linearGradient>
<linearGradient id="paint21_linear" x1="-60914.6" y1="48834.8" x2="-52849.3" y2="54330.8" gradientUnits="userSpaceOnUse">
<stop stop-color="#FE7062"/>
<stop offset="1" stop-color="#FF928E"/>
</linearGradient>
<linearGradient id="paint22_linear" x1="-19878.7" y1="41820.2" x2="-22231.4" y2="49350" gradientUnits="userSpaceOnUse">
<stop stop-color="#FF928E"/>
<stop offset="1" stop-color="#FEB3B1"/>
</linearGradient>
<linearGradient id="paint23_linear" x1="-9952.86" y1="15263.5" x2="-9778.43" y2="14334.3" gradientUnits="userSpaceOnUse">
<stop stop-color="#4042E2"/>
<stop offset="1" stop-color="#4F52FF"/>
</linearGradient>
<linearGradient id="paint24_linear" x1="56440.8" y1="119868" x2="41210.3" y2="78807.9" gradientUnits="userSpaceOnUse">
<stop stop-color="#FF928E"/>
<stop offset="1" stop-color="#FEB3B1"/>
</linearGradient>
<linearGradient id="paint25_linear" x1="-13101.1" y1="22265.6" x2="-13441.1" y2="23652.8" gradientUnits="userSpaceOnUse">
<stop stop-color="#4042E2"/>
<stop offset="1" stop-color="#4F52FF"/>
</linearGradient>
<linearGradient id="paint26_linear" x1="123369" y1="116348" x2="116321" y2="72392.1" gradientUnits="userSpaceOnUse">
<stop stop-color="#FF928E"/>
<stop offset="1" stop-color="#FEB3B1"/>
</linearGradient>
<linearGradient id="paint27_linear" x1="31345.8" y1="48764.7" x2="32965.4" y2="46643.9" gradientUnits="userSpaceOnUse">
<stop stop-color="#09005D"/>
<stop offset="1" stop-color="#1A0F91"/>
</linearGradient>
<linearGradient id="paint28_linear" x1="-31402.6" y1="76054.8" x2="-30178.7" y2="88375.1" gradientUnits="userSpaceOnUse">
<stop stop-color="#09005D"/>
<stop offset="1" stop-color="#1A0F91"/>
</linearGradient>
<linearGradient id="paint29_linear" x1="11135.9" y1="20325.3" x2="10734.1" y2="22424" gradientUnits="userSpaceOnUse">
<stop stop-color="#FF928E"/>
<stop offset="1" stop-color="#FEB3B1"/>
</linearGradient>
<linearGradient id="paint30_linear" x1="61957.6" y1="20916.7" x2="61245.3" y2="22490.1" gradientUnits="userSpaceOnUse">
<stop stop-color="#FF928E"/>
<stop offset="1" stop-color="#FEB3B1"/>
</linearGradient>
<linearGradient id="paint31_linear" x1="15327.8" y1="5973.34" x2="15084.6" y2="6454.46" gradientUnits="userSpaceOnUse">
<stop stop-color="#FF928E"/>
<stop offset="1" stop-color="#FEB3B1"/>
</linearGradient>
<linearGradient id="paint32_linear" x1="3148.68" y1="11403.6" x2="4115.24" y2="11442.3" gradientUnits="userSpaceOnUse">
<stop stop-color="#FF928E"/>
<stop offset="1" stop-color="#FEB3B1"/>
</linearGradient>
<linearGradient id="paint33_linear" x1="1527.08" y1="19122.5" x2="2398.15" y2="19157.4" gradientUnits="userSpaceOnUse">
<stop stop-color="#09005D"/>
<stop offset="1" stop-color="#1A0F91"/>
</linearGradient>
<linearGradient id="paint34_linear" x1="7056.48" y1="8447.09" x2="6685.72" y2="9034.55" gradientUnits="userSpaceOnUse">
<stop stop-color="#09005D"/>
<stop offset="1" stop-color="#1A0F91"/>
</linearGradient>
<linearGradient id="paint35_linear" x1="1873.84" y1="12205.2" x2="2299.18" y2="12222.2" gradientUnits="userSpaceOnUse">
<stop stop-color="#09005D"/>
<stop offset="1" stop-color="#1A0F91"/>
</linearGradient>
<linearGradient id="paint36_linear" x1="3168.31" y1="22871.8" x2="4310.05" y2="22917.5" gradientUnits="userSpaceOnUse">
<stop stop-color="#09005D"/>
<stop offset="1" stop-color="#1A0F91"/>
</linearGradient>
<linearGradient id="paint37_linear" x1="8139.51" y1="23560.1" x2="7572.82" y2="23976" gradientUnits="userSpaceOnUse">
<stop stop-color="#09005D"/>
<stop offset="1" stop-color="#1A0F91"/>
</linearGradient>
<linearGradient id="paint38_linear" x1="1699.26" y1="14588.2" x2="2351.82" y2="14614.3" gradientUnits="userSpaceOnUse">
<stop stop-color="#09005D"/>
<stop offset="1" stop-color="#1A0F91"/>
</linearGradient>
<linearGradient id="paint39_linear" x1="1007.21" y1="11854.8" x2="1134.22" y2="11859.9" gradientUnits="userSpaceOnUse">
<stop stop-color="#4042E2"/>
<stop offset="1" stop-color="#4F52FF"/>
</linearGradient>
<linearGradient id="paint40_linear" x1="852.218" y1="16690.6" x2="904.306" y2="16692.7" gradientUnits="userSpaceOnUse">
<stop stop-color="#4042E2"/>
<stop offset="1" stop-color="#4F52FF"/>
</linearGradient>
<linearGradient id="paint41_linear" x1="3037.55" y1="9069.95" x2="3957.86" y2="8236.22" gradientUnits="userSpaceOnUse">
<stop stop-color="#FF928E"/>
<stop offset="1" stop-color="#FEB3B1"/>
</linearGradient>
<linearGradient id="paint42_linear" x1="19994" y1="107257" x2="17914.4" y2="103839" gradientUnits="userSpaceOnUse">
<stop stop-color="#FF928E"/>
<stop offset="1" stop-color="#FEB3B1"/>
</linearGradient>
<linearGradient id="paint43_linear" x1="-37881.3" y1="9686.55" x2="-36821.4" y2="9707.75" gradientUnits="userSpaceOnUse">
<stop stop-color="#09005D"/>
<stop offset="1" stop-color="#1A0F91"/>
</linearGradient>
<linearGradient id="paint44_linear" x1="20398.7" y1="8907.45" x2="20233.5" y2="8889.81" gradientUnits="userSpaceOnUse">
<stop stop-color="#FF928E"/>
<stop offset="1" stop-color="#FEB3B1"/>
</linearGradient>
<linearGradient id="paint45_linear" x1="-56062.1" y1="-39660.3" x2="-57222.1" y2="-38639.4" gradientUnits="userSpaceOnUse">
<stop stop-color="#09005D"/>
<stop offset="1" stop-color="#1A0F91"/>
</linearGradient>
<linearGradient id="paint46_linear" x1="15562.3" y1="-9426.34" x2="15472.4" y2="-9129.68" gradientUnits="userSpaceOnUse">
<stop stop-color="#FF928E"/>
<stop offset="1" stop-color="#FEB3B1"/>
</linearGradient>
<linearGradient id="paint47_linear" x1="27218.3" y1="94430.8" x2="66237.9" y2="94430.8" gradientUnits="userSpaceOnUse">
<stop stop-color="#09005D"/>
<stop offset="1" stop-color="#1A0F91"/>
</linearGradient>
<linearGradient id="paint48_linear" x1="15210.7" y1="17160.4" x2="16670.9" y2="17218.8" gradientUnits="userSpaceOnUse">
<stop stop-color="#FF928E"/>
<stop offset="1" stop-color="#FEB3B1"/>
</linearGradient>
<linearGradient id="paint49_linear" x1="-30272.6" y1="10284.1" x2="-33618.5" y2="14478.2" gradientUnits="userSpaceOnUse">
<stop stop-color="#FF928E"/>
<stop offset="1" stop-color="#FEB3B1"/>
</linearGradient>
<linearGradient id="paint50_linear" x1="12720.4" y1="26452.7" x2="11482" y2="26643.7" gradientUnits="userSpaceOnUse">
<stop stop-color="#09005D"/>
<stop offset="1" stop-color="#1A0F91"/>
</linearGradient>
<linearGradient id="paint51_linear" x1="5679.98" y1="11629.4" x2="5307.25" y2="11736.5" gradientUnits="userSpaceOnUse">
<stop stop-color="#09005D"/>
<stop offset="1" stop-color="#1A0F91"/>
</linearGradient>
<linearGradient id="paint52_linear" x1="9602.74" y1="16910.2" x2="8905.48" y2="17024.7" gradientUnits="userSpaceOnUse">
<stop stop-color="#09005D"/>
<stop offset="1" stop-color="#1A0F91"/>
</linearGradient>
<linearGradient id="paint53_linear" x1="15228.9" y1="31880.2" x2="16410.1" y2="31914.9" gradientUnits="userSpaceOnUse">
<stop stop-color="#09005D"/>
<stop offset="1" stop-color="#1A0F91"/>
</linearGradient>
<linearGradient id="paint54_linear" x1="5963.8" y1="31266.3" x2="6208.29" y2="31276.1" gradientUnits="userSpaceOnUse">
<stop stop-color="#09005D"/>
<stop offset="1" stop-color="#1A0F91"/>
</linearGradient>
<linearGradient id="paint55_linear" x1="10491.7" y1="20350.1" x2="11357.2" y2="20384.7" gradientUnits="userSpaceOnUse">
<stop stop-color="#09005D"/>
<stop offset="1" stop-color="#1A0F91"/>
</linearGradient>
<linearGradient id="paint56_linear" x1="4796.97" y1="16392.5" x2="4965.81" y2="16399.2" gradientUnits="userSpaceOnUse">
<stop stop-color="#4042E2"/>
<stop offset="1" stop-color="#4F52FF"/>
</linearGradient>
<linearGradient id="paint57_linear" x1="3050.4" y1="22938" x2="3119.52" y2="22940.8" gradientUnits="userSpaceOnUse">
<stop stop-color="#4042E2"/>
<stop offset="1" stop-color="#4F52FF"/>
</linearGradient>
<linearGradient id="paint58_linear" x1="6334.42" y1="19221.1" x2="6690.33" y2="19235.3" gradientUnits="userSpaceOnUse">
<stop stop-color="#FF928E"/>
<stop offset="1" stop-color="#FEB3B1"/>
</linearGradient>
<linearGradient id="paint59_linear" x1="10957.3" y1="20683.2" x2="9019.65" y2="22412.5" gradientUnits="userSpaceOnUse">
<stop stop-color="#FF928E"/>
<stop offset="1" stop-color="#FEB3B1"/>
</linearGradient>
<linearGradient id="paint60_linear" x1="49516.7" y1="-70443.8" x2="50836.4" y2="-71682.2" gradientUnits="userSpaceOnUse">
<stop stop-color="#09005D"/>
<stop offset="1" stop-color="#1A0F91"/>
</linearGradient>
<linearGradient id="paint61_linear" x1="3636.67" y1="-2880.18" x2="3642.79" y2="-3313.99" gradientUnits="userSpaceOnUse">
<stop stop-color="#FF928E"/>
<stop offset="1" stop-color="#FEB3B1"/>
</linearGradient>
</defs>
</svg>
