<svg width="642" height="468" viewBox="0 0 642 468" fill="none" xmlns="http://www.w3.org/2000/svg">
<g clip-path="url(#clip0)">
<path d="M61.51 255.5L48.39 255.78L41.73 255.89C39.5 255.89 37.26 255.89 35.03 255.94H34.59V255.49L34.51 244.31V243.81H35.01L48.25 243.87C52.67 243.87 57.08 243.98 61.49 244.03H61.77V244.3C61.77 246.2 61.68 248.08 61.64 249.95L61.51 255.5ZM61.51 255.5L61.37 249.84C61.37 247.98 61.26 246.14 61.24 244.31L61.51 244.58C57.1 244.58 52.69 244.74 48.27 244.74L35.03 244.81L35.53 244.31V255.5L35.08 255.05C37.26 255.05 39.44 255.05 41.63 255.11L48.21 255.22L61.51 255.5Z" fill="#EBEBEB"/>
<path d="M46.71 269.61L33.59 269.89L26.93 270C24.7 270 22.46 270 20.23 270.05H19.79V269.6L19.73 258.41V257.91H20.23L33.51 258C37.92 258 42.34 258.11 46.75 258.16H47.03V258.43C47.03 260.33 46.95 262.21 46.9 264.08L46.71 269.61ZM46.71 269.61L46.57 263.95C46.57 262.09 46.46 260.25 46.44 258.42L46.71 258.69C42.3 258.74 37.88 258.85 33.47 258.85L20.23 258.92L20.73 258.42V269.61L20.28 269.16C22.46 269.16 24.64 269.16 26.83 269.22L33.41 269.33L46.71 269.61Z" fill="#EBEBEB"/>
<path d="M302.01 369.79L288.89 370.07L282.22 370.18C280 370.23 277.76 370.18 275.53 370.24H275.09V369.79L275.04 358.6V358.1H275.54L288.78 358.17C293.19 358.17 297.61 358.28 302.02 358.33H302.3V358.6C302.3 360.5 302.22 362.39 302.17 364.26L302.01 369.79ZM302.01 369.79L301.87 364.14C301.82 362.28 301.76 360.43 301.74 358.6L302.01 358.88C297.6 358.93 293.18 359.03 288.77 359.04L275.51 359.1L276.01 358.6V369.79L275.56 369.35C277.74 369.35 279.92 369.35 282.11 369.35L288.69 369.46L302.01 369.79Z" fill="#EBEBEB"/>
<path d="M287.24 383.9L274.11 384.18L267.45 384.29C265.23 384.29 262.99 384.29 260.76 384.35H260.31V383.9L260.26 372.71V372.21H260.76L274 372.28C278.41 372.28 282.83 372.39 287.24 372.44H287.51V372.71C287.51 374.61 287.43 376.5 287.38 378.37L287.24 383.9ZM287.24 383.9L287.1 378.25C287.1 376.39 286.98 374.54 286.97 372.71L287.24 372.99C282.83 373.04 278.41 373.14 274 373.15L260.76 373.21L261.26 372.71L261.2 383.9L260.76 383.46C262.94 383.46 265.12 383.46 267.3 383.51L273.88 383.62L287.24 383.9Z" fill="#EBEBEB"/>
<path d="M620.79 267.61L607.66 267.89L601 268C598.78 268.05 596.54 268 594.31 268.06H593.86V267.61L593.81 256.42V255.92H594.31L607.51 256C611.92 256 616.34 256.12 620.75 256.17H621.02V256.44C621.02 258.34 620.94 260.23 620.89 262.09L620.79 267.61ZM620.79 267.61L620.65 261.96C620.65 260.09 620.53 258.25 620.52 256.42L620.79 256.69C616.38 256.74 611.96 256.85 607.55 256.86L594.31 256.92L594.81 256.42L594.75 267.61L594.31 267.16C596.49 267.16 598.67 267.16 600.85 267.22L607.43 267.33L620.79 267.61Z" fill="#EBEBEB"/>
<path d="M502.15 62.75L489.03 63L482.36 63.11C480.14 63.11 477.9 63.11 475.67 63.11H475.23V62.66L475.18 51.47V50.97H475.68L488.92 51.03C493.33 51.03 497.75 51.14 502.16 51.19H502.44V51.46C502.44 53.36 502.36 55.24 502.31 57.11L502.15 62.75ZM502.15 62.75L502.01 57.09C502.01 55.23 501.9 53.39 501.88 51.56L502.15 51.83C497.74 51.88 493.32 51.99 488.91 51.99L475.67 52.06L476.17 51.56V62.75L475.72 62.3C477.9 62.3 480.08 62.3 482.27 62.36L488.85 62.47L502.15 62.75Z" fill="#EBEBEB"/>
<path d="M516.92 76.8601L503.8 77.1401L497.14 77.2501C494.91 77.2501 492.67 77.2501 490.44 77.2501H490V76.8001L489.94 65.6101V65.1001H490.44L503.68 65.1601C508.1 65.1601 512.51 65.2701 516.92 65.3201H517.2V65.5901C517.2 67.4901 517.11 69.3701 517.06 71.2401L516.92 76.8601ZM516.92 76.8601L516.78 71.2001C516.78 69.3401 516.67 67.5001 516.65 65.6701L516.92 65.9401C512.51 65.9401 508.1 66.1001 503.68 66.1001L490.44 66.1701L490.94 65.6701V76.8601L490.49 76.4101C492.67 76.4101 494.85 76.4101 497.04 76.4701L503.62 76.5801L516.92 76.8601Z" fill="#EBEBEB"/>
<path d="M61.51 71.14L48.39 71.42L41.73 71.53C39.5 71.53 37.26 71.53 35.03 71.59H34.59V71.14L34.51 60V59.5H35.01L48.25 59.56C52.67 59.56 57.08 59.68 61.49 59.73H61.77V60C61.77 61.9 61.68 63.79 61.64 65.66L61.51 71.14ZM61.51 71.14L61.37 65.49C61.37 63.62 61.26 61.78 61.24 59.95L61.51 60.22C57.1 60.28 52.69 60.38 48.27 60.39L35.03 60.45L35.51 60V71.19L35.06 70.75C37.24 70.75 39.42 70.75 41.61 70.75L48.19 70.86L61.51 71.14Z" fill="#EBEBEB"/>
<path d="M251.22 172.55L238.1 172.83L231.44 172.94C229.21 172.99 226.97 172.94 224.74 173H224.3V172.55L224.24 161.36V160.86H224.74L237.98 160.92C242.4 160.92 246.81 161.04 251.22 161.09H251.51V161.36C251.51 163.26 251.43 165.15 251.38 167.01L251.22 172.55ZM251.22 172.55L251.08 166.9C251.03 165.03 250.97 163.19 250.95 161.36L251.22 161.63C246.81 161.68 242.4 161.79 237.98 161.8L224.74 161.86L225.24 161.36L225.19 172.55L224.74 172.1C226.92 172.1 229.1 172.1 231.29 172.16L237.87 172.27L251.22 172.55Z" fill="#EBEBEB"/>
<path d="M151.23 25.65V0" stroke="#C7C7C7" stroke-miterlimit="10"/>
<path d="M179.44 52.84L177.17 57.82H125.29L123.02 52.84L145.11 37.55H157.35L179.44 52.84Z" fill="#EBEBEB"/>
<path d="M158.88 22.8201L157.35 37.5501H145.11L143.58 22.8201H158.88Z" fill="#DBDBDB"/>
<path d="M179.43 52.8401L177.16 57.8201H125.28L123.02 52.8401H179.43Z" fill="#DBDBDB"/>
<path d="M264.08 25.65V0" stroke="#C7C7C7" stroke-miterlimit="10"/>
<path d="M292.29 52.84L290.02 57.82H238.14L235.88 52.84L257.97 37.55H270.2L292.29 52.84Z" fill="#EBEBEB"/>
<path d="M271.74 22.8201L270.2 37.5501H257.97L256.43 22.8201H271.74Z" fill="#DBDBDB"/>
<path d="M292.29 52.8401L290.02 57.8201H238.14L235.88 52.8401H292.29Z" fill="#DBDBDB"/>
<path d="M376.94 25.65V0" stroke="#C7C7C7" stroke-miterlimit="10"/>
<path d="M405.14 52.84L402.88 57.82H351L348.73 52.84L370.82 37.55H383.06L405.14 52.84Z" fill="#EBEBEB"/>
<path d="M384.59 22.8201L383.06 37.5501H370.82L369.29 22.8201H384.59Z" fill="#DBDBDB"/>
<path d="M405.14 52.8401L402.87 57.8201H350.99L348.73 52.8401H405.14Z" fill="#DBDBDB"/>
<path d="M489.79 25.65V0" stroke="#C7C7C7" stroke-miterlimit="10"/>
<path d="M518 52.84L515.73 57.82H463.85L461.59 52.84L483.68 37.55H495.91L518 52.84Z" fill="#EBEBEB"/>
<path d="M497.44 22.8201L495.91 37.5501H483.68L482.14 22.8201H497.44Z" fill="#DBDBDB"/>
<path d="M518 52.8401L515.73 57.8201H463.85L461.58 52.8401H518Z" fill="#DBDBDB"/>
<path d="M52.4101 260.57H48.0801V355.13H52.4101V260.57Z" fill="#EBEBEB"/>
<path d="M73.4136 202.012L69.325 200.587L35.6613 297.147L39.75 298.572L73.4136 202.012Z" fill="#DBDBDB"/>
<path d="M48.5901 360.91V427.25C48.5901 427.552 48.7102 427.842 48.924 428.056C49.1378 428.27 49.4277 428.39 49.7301 428.39C49.8793 428.391 50.0273 428.363 50.1656 428.307C50.3038 428.251 50.4296 428.168 50.5356 428.062C50.6416 427.957 50.7257 427.832 50.7831 427.695C50.8405 427.557 50.8701 427.409 50.8701 427.26L51.8701 360.91H48.5901Z" fill="#EBEBEB"/>
<path d="M45.3001 360.91L1.60009 426.69C1.54814 426.838 1.52608 426.995 1.53521 427.152C1.54434 427.309 1.58446 427.463 1.65326 427.604C1.72207 427.745 1.81819 427.872 1.93607 427.976C2.05396 428.08 2.19128 428.159 2.3401 428.21C2.48781 428.262 2.64438 428.285 2.80082 428.276C2.95725 428.268 3.11048 428.228 3.2517 428.161C3.39293 428.093 3.51937 427.998 3.62377 427.881C3.72817 427.764 3.80848 427.628 3.86009 427.48L48.5901 362L45.3001 360.91Z" fill="#EBEBEB"/>
<path d="M55.1901 360.91L98.9001 426.69C99.0018 426.991 98.98 427.32 98.8394 427.605C98.6988 427.89 98.4509 428.107 98.1501 428.21C98.0024 428.262 97.8459 428.285 97.6894 428.276C97.533 428.268 97.3798 428.228 97.2385 428.161C97.0973 428.093 96.9709 427.998 96.8665 427.881C96.7621 427.764 96.6818 427.628 96.6301 427.48L51.9001 362L55.1901 360.91Z" fill="#EBEBEB"/>
<path d="M44.8801 355.13V358.55C44.9398 359.933 45.5312 361.239 46.5308 362.196C47.5304 363.154 48.861 363.688 50.2451 363.688C51.6292 363.688 52.9599 363.154 53.9595 362.196C54.9591 361.239 55.5504 359.933 55.6101 358.55V355.13H44.8801Z" fill="#DBDBDB"/>
<path d="M58.0802 352.73H42.4102V358.43H58.0802V352.73Z" fill="#DBDBDB"/>
<path d="M43.51 261.86C43.51 260.521 43.9071 259.212 44.651 258.099C45.3949 256.986 46.4522 256.118 47.6892 255.605C48.9263 255.093 50.2875 254.959 51.6008 255.22C52.914 255.481 54.1203 256.126 55.0671 257.073C56.0139 258.02 56.6587 259.226 56.9199 260.539C57.1812 261.853 57.0471 263.214 56.5347 264.451C56.0223 265.688 55.1545 266.745 54.0412 267.489C52.9279 268.233 51.619 268.63 50.28 268.63C48.4845 268.63 46.7625 267.917 45.4929 266.647C44.2233 265.378 43.51 263.656 43.51 261.86Z" fill="#DBDBDB"/>
<path d="M45.9602 261.86C45.9602 261.012 46.2118 260.182 46.6832 259.477C47.1546 258.771 47.8246 258.221 48.6085 257.897C49.3924 257.572 50.255 257.487 51.0871 257.653C51.9193 257.818 52.6837 258.227 53.2837 258.827C53.8837 259.427 54.2922 260.191 54.4578 261.023C54.6233 261.855 54.5384 262.718 54.2137 263.502C53.889 264.286 53.3391 264.956 52.6336 265.427C51.9281 265.898 51.0987 266.15 50.2502 266.15C49.1124 266.15 48.0213 265.698 47.2167 264.894C46.4122 264.089 45.9602 262.998 45.9602 261.86Z" fill="#EBEBEB"/>
<path d="M72.5101 187.52L85.3701 214.52L68.2501 222.66C64.7314 223.951 60.8568 223.878 57.3893 222.456C53.9217 221.033 51.1123 218.364 49.5144 214.973C47.9164 211.583 47.6456 207.717 48.7553 204.137C49.8649 200.557 52.2747 197.522 55.5101 195.63L72.5101 187.52Z" fill="#EBEBEB"/>
<path d="M70.0502 182.28L87.8702 219.76L71.5402 221.16L58.6902 194.11L70.0502 182.28Z" fill="#DBDBDB"/>
<path d="M108.95 236.12L87.87 219.76L70.05 182.28L70.68 155.6L108.95 236.12Z" fill="#EBEBEB"/>
<path d="M134.2 237.27L108.95 236.12L70.6802 155.6L85.7202 135.29L134.2 237.27Z" fill="#DBDBDB"/>
<path d="M320.51 467.4C497.523 467.4 641.02 461.262 641.02 453.69C641.02 446.118 497.523 439.98 320.51 439.98C143.497 439.98 0 446.118 0 453.69C0 461.262 143.497 467.4 320.51 467.4Z" fill="#EBEBEB"/>
<path d="M0.0100098 427.73L80.14 427.48L160.26 427.39L320.51 427.23L480.76 427.39L560.88 427.48L641.01 427.73L560.88 427.97L480.76 428.06L320.51 428.22L160.26 428.06L80.14 427.97L0.0100098 427.73Z" fill="#263238"/>
<path d="M282.3 275.41C282.3 275.41 260.88 272.41 265.89 246.56C265.89 246.56 289.81 251.93 282.3 275.41Z" fill="#FFC727"/>
<path opacity="0.1" d="M282.3 275.41C282.3 275.41 260.88 272.41 265.89 246.56C265.89 246.56 289.81 251.93 282.3 275.41Z" fill="black"/>
<path d="M281.21 270C280.8 268.7 280.3 267.41 279.76 266.15C279.76 265.99 279.71 265.82 279.7 265.66L279.61 264.6C279.55 263.82 279.5 263.05 279.46 262.28C279.37 260.74 279.27 259.19 279.24 257.64C279.24 257.56 279.11 257.56 279.11 257.64C279.11 259.19 279.11 260.73 279.11 262.28C279.11 263.047 279.15 263.817 279.23 264.59C279.23 264.77 279.23 264.94 279.23 265.11C278.028 262.537 276.592 260.08 274.94 257.77C274.208 256.731 273.424 255.729 272.59 254.77C271.74 253.77 270.84 252.86 269.98 251.89C269.92 251.83 269.83 251.89 269.89 251.99C271.423 253.691 272.802 255.525 274.01 257.47C274.66 258.47 275.28 259.47 275.86 260.47L275.66 260.39L274.9 260.08L273.15 259.42L269.71 258.14C269.64 258.14 269.59 258.23 269.71 258.26C270.85 258.71 271.97 259.19 273.1 259.68L274.76 260.39L275.59 260.74C275.773 260.824 275.964 260.891 276.16 260.94C276.59 261.71 277.02 262.49 277.42 263.28C278.413 265.282 279.285 267.343 280.03 269.45L280.19 269.9C279.626 269.572 279.037 269.288 278.43 269.05L276.22 268.05C274.71 267.36 273.22 266.66 271.78 265.85C271.71 265.85 271.65 265.92 271.72 265.96C273.19 266.77 274.63 267.62 276.11 268.42C276.84 268.82 277.58 269.21 278.34 269.58C278.962 269.947 279.636 270.217 280.34 270.38C281.054 272.338 281.524 274.377 281.74 276.45C281.98 279.38 281.96 282.32 282.02 285.25H282.1C282.32 282.59 282.43 279.91 282.45 277.25C282.422 274.783 282.004 272.336 281.21 270Z" fill="#263238"/>
<path d="M277.92 254.81C277.712 256.32 277.638 257.846 277.7 259.37H277.77C277.85 257.86 277.87 256.37 278.04 254.85C278.05 254.76 277.93 254.73 277.92 254.81Z" fill="#263238"/>
<path d="M271.79 256.11C270.832 255.746 269.911 255.29 269.04 254.75C268.97 254.75 268.91 254.82 268.98 254.87C269.837 255.446 270.774 255.894 271.76 256.2C271.81 256.21 271.85 256.13 271.79 256.11Z" fill="#263238"/>
<path d="M282.98 316.45C282.98 314.08 282.92 311.71 282.89 309.35C282.89 301.49 282.78 293.63 282.64 285.77C282.527 279.543 282.38 273.306 282.2 267.06C282.199 267.043 282.194 267.028 282.185 267.014C282.176 267 282.164 266.988 282.15 266.98V261.87C282.15 261.87 282.1 261.81 282.05 261.81C282 261.81 281.95 261.81 281.95 261.88V267C281.936 267.006 281.924 267.015 281.915 267.028C281.906 267.04 281.901 267.055 281.9 267.07C281.58 278.17 281.3 289.28 281.24 300.38C281.24 302.64 281.24 304.89 281.24 307.15C281.17 314.39 281.13 321.63 281.16 328.87C281.16 330.02 281.16 331.18 281.16 332.33C281.16 338.95 281.22 345.58 281.23 352.2C281.23 352.56 281.62 352.74 282.04 352.75C282.46 352.76 283.04 352.58 283.04 352.17C283.04 344.87 283.1 337.56 283.04 330.26C283.027 325.66 283.007 321.056 282.98 316.45Z" fill="#263238"/>
<path d="M274.04 309.26C274.04 309.26 263.74 301.63 253.96 306.78C244.18 311.93 242.66 331.78 242.66 331.78C242.66 331.78 257.01 333.84 266.05 325.23C274.76 317 274.04 309.26 274.04 309.26Z" fill="#FFC727"/>
<path d="M276.85 309.73C274.946 308.977 272.884 308.709 270.85 308.95C270.433 308.881 270.012 308.84 269.59 308.83L268.14 308.72L265.14 308.51C263.14 308.35 261.07 308.23 259.05 308.03C258.97 308.03 258.96 308.15 259.05 308.15C261.05 308.41 263.05 308.7 265.05 308.9C266.05 309 267.12 309.11 268.16 309.19C268.4 309.19 268.65 309.19 268.91 309.26C268.6 309.33 268.3 309.4 268 309.49C266.381 309.954 264.816 310.587 263.33 311.38C262.52 311.53 261.71 311.75 260.92 311.94C259.64 312.24 258.37 312.57 257.11 312.94C254.61 313.6 252.11 314.34 249.65 315.06C249.57 315.06 249.65 315.2 249.65 315.18C252.13 314.57 254.65 314.02 257.1 313.43L260.73 312.56L261.67 312.34C258.905 314.054 256.434 316.202 254.35 318.7C252.343 321.156 250.634 323.841 249.26 326.7C249.26 326.77 249.33 326.84 249.38 326.77C251.064 323.817 253.132 321.1 255.53 318.69C255.53 318.82 255.44 318.96 255.4 319.1C255.21 319.7 255.02 320.31 254.82 320.92C254.44 322.13 254.06 323.34 253.7 324.56C253.7 324.64 253.79 324.67 253.82 324.56C254.26 323.39 254.67 322.2 255.08 321.02C255.29 320.44 255.49 319.86 255.69 319.28C255.8 318.98 255.9 318.68 256 318.38L256.1 318.1C257.267 316.987 258.507 315.951 259.81 315C261.507 313.75 263.343 312.7 265.28 311.87C265.28 312.04 265.21 312.22 265.18 312.39C265.08 312.86 264.97 313.33 264.87 313.8C264.67 314.8 264.48 315.75 264.29 316.73C263.91 318.73 263.67 320.73 263.29 322.73C263.29 322.81 263.4 322.84 263.42 322.73C263.88 320.73 264.48 318.73 264.92 316.73C265.15 315.73 265.37 314.73 265.58 313.73C265.68 313.26 265.77 312.78 265.87 312.31C265.92 312.05 265.98 311.79 266.01 311.52L266.57 311.29C269.269 310.134 272.23 309.73 275.14 310.12C276.506 310.377 277.787 310.968 278.869 311.841C279.95 312.713 280.799 313.84 281.34 315.12C281.43 315.34 281.79 315.2 281.73 314.97C281.38 313.778 280.756 312.683 279.909 311.774C279.062 310.864 278.015 310.164 276.85 309.73Z" fill="#263238"/>
<path d="M251.12 321.53C249.81 322.2 248.53 322.95 247.17 323.53C247.159 323.523 247.147 323.52 247.135 323.52C247.122 323.52 247.11 323.523 247.099 323.529C247.089 323.535 247.08 323.544 247.073 323.555C247.067 323.565 247.064 323.577 247.064 323.59C247.064 323.602 247.067 323.614 247.073 323.625C247.08 323.636 247.089 323.645 247.099 323.651C247.11 323.657 247.122 323.66 247.135 323.66C247.147 323.66 247.159 323.656 247.17 323.65C248.514 323.053 249.826 322.385 251.1 321.65C251.1 321.65 251.15 321.52 251.12 321.53Z" fill="#263238"/>
<path d="M276.35 295.24C276.35 295.24 263.77 296.05 257.91 287.75C252.05 279.45 253.37 267.59 253.37 267.59C253.37 267.59 266.59 269.2 271.84 275.16C277.09 281.12 276.35 295.24 276.35 295.24Z" fill="#FFC727"/>
<path d="M282.26 307.67C281.83 306.32 281.26 304.99 280.78 303.67C280.3 302.35 279.78 301.15 279.21 299.9C278.084 297.366 276.825 294.892 275.44 292.49C274.55 290.96 273.6 289.49 272.62 288.01C272.62 287.79 272.55 287.56 272.52 287.34L272.34 286.17C272.22 285.37 272.08 284.58 271.95 283.78C271.66 282.05 271.3 280.32 271.02 278.58C271.02 278.5 270.88 278.5 270.89 278.58C271.14 280.3 271.32 282.03 271.56 283.75C271.68 284.59 271.79 285.44 271.91 286.28L272.06 287.19C270.138 284.384 268.058 281.69 265.83 279.12C265.53 278.77 265.22 278.43 264.91 278.12C264.91 278.02 264.83 277.93 264.8 277.83C264.77 277.73 264.61 277.35 264.52 277.11L263.98 275.61C263.62 274.61 263.31 273.61 263.04 272.61C263.035 272.597 263.026 272.586 263.014 272.578C263.003 272.57 262.989 272.566 262.975 272.566C262.961 272.566 262.947 272.57 262.936 272.578C262.924 272.586 262.915 272.597 262.91 272.61C263.17 273.61 263.44 274.68 263.74 275.7C263.88 276.19 264.05 276.7 264.22 277.16L264.31 277.4C262.7 275.65 261.02 273.96 259.31 272.29C259.298 272.278 259.282 272.271 259.265 272.271C259.248 272.271 259.232 272.278 259.22 272.29C259.208 272.302 259.201 272.318 259.201 272.335C259.201 272.352 259.208 272.368 259.22 272.38C262.472 275.787 265.454 279.441 268.14 283.31C267.832 283.211 267.518 283.131 267.2 283.07C266.2 282.89 265.26 282.75 264.28 282.62C262.23 282.36 260.18 282.1 258.14 281.78C258.06 281.78 258.03 281.89 258.14 281.91C260.09 282.29 262.02 282.73 263.96 283.18C264.87 283.39 265.79 283.57 266.71 283.75C267.461 283.908 268.199 284.119 268.92 284.38L269.54 285.25C270.46 286.583 271.35 287.95 272.21 289.35L270.93 289.1C269.93 288.91 268.93 288.73 268 288.57C266.08 288.25 264.16 287.92 262.27 287.49C262.18 287.49 262.15 287.6 262.27 287.62C264.2 288.07 266.11 288.62 268.02 289.1C268.94 289.35 269.87 289.57 270.8 289.78C271.26 289.88 271.73 289.99 272.2 290.08C272.383 290.13 272.571 290.163 272.76 290.18C274.6 293.16 276.323 296.21 277.93 299.33C278.63 300.7 279.3 302.08 279.93 303.47C280.56 304.86 281.18 306.36 281.8 307.81C281.9 308.1 282.36 308 282.26 307.67Z" fill="#263238"/>
<path d="M269.38 278.74C269.14 277.54 268.88 276.34 268.62 275.14C268.62 275.06 268.48 275.14 268.49 275.14C268.73 276.32 268.96 277.5 269.17 278.69C269.35 279.875 269.591 281.05 269.89 282.21C269.799 281.043 269.628 279.884 269.38 278.74Z" fill="#263238"/>
<path d="M262.03 278.39C261.45 278.09 260.83 277.86 260.23 277.62L259.23 277.25L258.74 277.06C258.555 277 258.377 276.92 258.21 276.82C258.12 276.75 258.06 276.92 258.15 276.93C258.338 276.982 258.519 277.056 258.69 277.15L259.17 277.37L260.09 277.78C260.694 278.054 261.311 278.298 261.94 278.51C261.956 278.522 261.976 278.527 261.996 278.524C262.015 278.521 262.033 278.511 262.045 278.495C262.057 278.479 262.062 278.459 262.059 278.439C262.056 278.42 262.046 278.402 262.03 278.39Z" fill="#263238"/>
<path d="M289.24 285.35C289.24 285.35 296.86 271.12 308.45 268.91C320.04 266.7 327.13 278.63 327.13 278.63C327.13 278.63 318.68 289.43 308.04 291.31C297.4 293.19 289.24 285.35 289.24 285.35Z" fill="#FFC727"/>
<path d="M316.21 275.29C313.19 274.887 310.129 274.924 307.12 275.4L307.64 275.12C308.5 274.69 309.36 274.24 310.21 273.8C311.99 272.87 313.79 271.89 315.65 271.14C315.661 271.14 315.672 271.137 315.682 271.131C315.693 271.126 315.701 271.118 315.707 271.108C315.714 271.099 315.717 271.088 315.719 271.077C315.72 271.065 315.718 271.054 315.713 271.043C315.709 271.033 315.702 271.023 315.693 271.016C315.684 271.009 315.674 271.004 315.663 271.001C315.652 270.999 315.64 271 315.629 271.003C315.618 271.006 315.608 271.012 315.6 271.02C313.79 271.87 311.91 272.57 310.09 273.41C309.18 273.83 308.28 274.26 307.4 274.73C306.83 275.04 306.19 275.32 305.63 275.73C303.087 276.243 300.616 277.063 298.27 278.17L299.72 276.59C300.8 275.41 301.86 274.17 303.05 273.09C303.11 273.04 303.05 272.95 302.95 273C301.74 274.1 300.46 275.12 299.28 276.27C298.71 276.82 298.16 277.4 297.63 277.99C297.37 278.29 297.1 278.59 296.85 278.91C292.866 281.041 289.406 284.031 286.718 287.663C284.031 291.294 282.184 295.477 281.31 299.91C281.31 299.99 281.41 300.04 281.43 299.91C283.066 294.49 285.99 289.546 289.95 285.5C294.213 281.146 299.582 278.034 305.48 276.5C308.977 275.598 312.596 275.261 316.2 275.5C316.219 275.491 316.236 275.476 316.247 275.458C316.259 275.44 316.266 275.419 316.267 275.398C316.268 275.376 316.263 275.355 316.253 275.336C316.243 275.317 316.228 275.301 316.21 275.29Z" fill="#263238"/>
<path opacity="0.1" d="M327.13 278.64C327.13 278.64 318.67 289.43 308.04 291.31C299.92 292.75 293.25 288.52 290.54 286.44L289.96 285.44C289.96 285.44 295.44 280.81 305.82 278.14C316.2 275.47 327.13 278.64 327.13 278.64Z" fill="black"/>
<path d="M309.51 270.22C308.622 270.737 307.764 271.305 306.94 271.92C306.132 272.515 305.382 273.185 304.7 273.92C304.64 273.99 304.7 274.07 304.8 274.02C305.57 273.35 306.34 272.68 307.14 272.02C307.919 271.387 308.733 270.799 309.58 270.26C309.62 270.29 309.51 270.17 309.51 270.22Z" fill="#263238"/>
<path d="M315.84 272.63C315.41 272.81 314.97 272.96 314.54 273.14L313.25 273.67C313.16 273.67 313.25 273.86 313.3 273.82L314.59 273.3L315.88 272.75C315.96 272.72 315.92 272.59 315.84 272.63Z" fill="#263238"/>
<path d="M287.72 303.26C287.72 303.26 289.72 317.37 300.37 322.31C311.02 327.25 323.92 322.31 323.92 322.31C323.92 322.31 318.83 291.77 287.72 303.26Z" fill="#FFC727"/>
<path d="M316.61 313.13C315.61 313.02 314.61 312.85 313.69 312.67L312.26 312.4L311.52 312.25L310.66 311.46C308.645 309.691 306.469 308.114 304.16 306.75C302.904 306.006 301.605 305.338 300.27 304.75H300.47L303.97 304.9C306.3 305.01 308.63 305.06 310.97 305.21C311.06 305.21 311.05 305.09 310.97 305.08C308.63 304.92 306.31 304.67 303.97 304.47L300.57 304.16L298.81 304H298.37C297.76 303.78 297.15 303.56 296.53 303.37C293.633 302.378 290.518 302.209 287.53 302.88C284.86 303.56 282.2 305.31 281.53 308.13C281.53 308.22 281.65 308.29 281.69 308.19C282.69 305.84 285.3 304.66 287.69 304.19C289.275 303.856 290.904 303.791 292.51 304C292.613 304.73 292.791 305.447 293.04 306.14C293.33 307.14 293.62 308.14 293.93 309.14C294.53 311.14 295.19 313.08 295.78 315.07C295.78 315.15 295.92 315.07 295.9 315.07C295.41 313.07 294.99 311.07 294.52 309.07C294.28 308.07 294.04 307.12 293.79 306.15C293.657 305.472 293.48 304.804 293.26 304.15C294.189 304.31 295.108 304.527 296.01 304.8C297.649 305.284 299.256 305.872 300.82 306.56C300.98 307.56 301.2 308.56 301.44 309.56C301.73 310.8 302.05 312.04 302.44 313.25C302.44 313.266 302.446 313.281 302.458 313.292C302.469 313.304 302.484 313.31 302.5 313.31C302.516 313.31 302.531 313.304 302.542 313.292C302.554 313.281 302.56 313.266 302.56 313.25V313.02C302.33 311.87 302.07 310.72 301.83 309.57C301.63 308.64 301.45 307.7 301.25 306.78C302.583 307.367 303.873 308.017 305.12 308.73C305.15 309.016 305.196 309.3 305.26 309.58C305.33 310.06 305.42 310.58 305.51 311.03C305.71 312.12 305.92 313.2 306.19 314.28C306.667 316.363 307.275 318.414 308.01 320.42C308.003 320.432 307.999 320.446 307.999 320.46C307.999 320.474 308.003 320.488 308.01 320.5L308.07 320.57C308.12 320.57 308.19 320.57 308.18 320.5C307.69 318.41 307.13 316.34 306.67 314.24C306.44 313.24 306.21 312.14 306 311.09C305.89 310.56 305.8 310.03 305.7 309.51C305.7 309.36 305.7 309.2 305.62 309.04C307.052 309.876 308.434 310.794 309.76 311.79C312.048 313.508 314.165 315.444 316.08 317.57C316.16 317.65 316.31 317.57 316.24 317.44C315.43 316.38 314.62 315.34 313.71 314.36C313.17 313.78 312.62 313.23 312.06 312.69H312.23C312.73 312.77 313.23 312.85 313.73 312.91C314.73 313.05 315.73 313.14 316.68 313.25C316.66 313.26 316.69 313.14 316.61 313.13Z" fill="#263238"/>
<path d="M309.15 317.91L309.09 317.55C309.09 317.39 308.98 317.24 308.96 317.08C308.74 316.14 308.55 315.19 308.38 314.23C308.38 314.17 308.27 314.23 308.27 314.23C308.334 315.496 308.608 316.743 309.08 317.92C309.08 317.92 309.16 317.92 309.15 317.92V317.91Z" fill="#263238"/>
<path d="M300.27 317.69C300.267 317.673 300.259 317.658 300.246 317.647C300.233 317.636 300.217 317.63 300.2 317.63C299.9 316.38 299.62 315.13 299.36 313.87C299.22 313.21 299.09 312.55 298.96 311.87C298.89 311.51 298.83 311.16 298.76 310.8C298.734 310.483 298.657 310.172 298.53 309.88C298.524 309.87 298.515 309.861 298.504 309.855C298.494 309.849 298.482 309.846 298.47 309.846C298.458 309.846 298.446 309.849 298.435 309.855C298.425 309.861 298.416 309.87 298.41 309.88C298.406 310.52 298.497 311.157 298.68 311.77C298.81 312.46 298.94 313.15 299.1 313.84C299.4 315.23 299.75 316.62 300.15 317.99C300.15 318.008 300.157 318.026 300.17 318.039C300.183 318.052 300.201 318.06 300.22 318.06C300.238 318.06 300.256 318.052 300.269 318.039C300.282 318.026 300.29 318.008 300.29 317.99C300.28 317.89 300.27 317.79 300.27 317.69Z" fill="#263238"/>
<path d="M315.64 309.06C313.7 308.8 311.77 308.52 309.82 308.28C309.74 308.28 309.71 308.39 309.82 308.41C311.76 308.69 313.7 308.93 315.64 309.19C315.69 309.2 315.72 309.07 315.64 309.06Z" fill="#263238"/>
<path d="M282.28 270.15C282.28 270.15 275.79 241.65 306.4 230.15C306.4 230.12 314.88 267.63 282.28 270.15Z" fill="#FFC727"/>
<path d="M288.89 254L289.22 253.8L290.95 252.8L294.5 250.8C296.84 249.49 299.14 248.13 301.5 246.8C301.58 246.8 301.5 246.65 301.44 246.69C299.08 247.97 296.68 249.17 294.31 250.42L290.8 252.28C290.32 252.53 289.8 252.78 289.37 253.04C290.37 251.1 291.48 249.2 292.68 247.37C294.28 244.93 296.03 242.61 297.86 240.37C297.94 240.27 297.8 240.13 297.71 240.23C295.02 242.837 292.644 245.751 290.63 248.91C290.625 248.81 290.625 248.71 290.63 248.61C290.63 247.897 290.65 247.187 290.69 246.48C290.69 245.09 290.64 243.7 290.69 242.31C290.69 242.22 290.57 242.23 290.56 242.31C290.51 243.68 290.34 245.05 290.26 246.41C290.26 247.1 290.2 247.78 290.18 248.41C290.18 248.78 290.13 249.2 290.18 249.61C289.55 250.61 288.95 251.61 288.37 252.61C287.344 254.466 286.432 256.383 285.64 258.35C285.64 257.64 285.56 256.93 285.52 256.22C285.43 254.66 285.24 253.11 285.18 251.55C285.18 251.531 285.173 251.514 285.159 251.5C285.146 251.487 285.129 251.48 285.11 251.48C285.091 251.48 285.074 251.487 285.06 251.5C285.047 251.514 285.04 251.531 285.04 251.55C285.04 253.11 285.04 254.67 285.04 256.23C285.04 257.01 285.09 257.79 285.14 258.57L285.2 259.44C284.224 261.986 283.448 264.604 282.88 267.27C282.356 270.119 281.975 272.993 281.74 275.88C282.059 273.278 282.601 270.709 283.36 268.2C283.74 266.86 284.14 265.52 284.57 264.2C285.84 263.6 287.06 262.85 288.29 262.2C289.52 261.55 290.86 260.8 292.14 260.1C294.69 258.7 297.24 257.27 299.88 256.04C299.95 256.04 299.88 255.89 299.81 255.92C297.14 257.13 294.45 258.28 291.81 259.6C290.5 260.26 289.22 260.96 287.95 261.67C286.88 262.27 285.79 262.87 284.78 263.56C285.07 262.67 285.38 261.79 285.72 260.92C286.659 258.561 287.717 256.252 288.89 254Z" fill="#263238"/>
<path d="M286.31 247.47C286.31 247.39 286.17 247.39 286.18 247.47C286.29 249.09 286.34 250.72 286.51 252.34C286.51 252.43 286.66 252.43 286.66 252.34C286.6 250.72 286.43 249.1 286.31 247.47Z" fill="#263238"/>
<path d="M300.99 252.92C299.07 253.69 297.14 254.42 295.23 255.22C295.18 255.22 295.23 255.33 295.23 255.31C297.16 254.58 299.07 253.79 300.99 253.04C301.1 253 301.06 252.88 300.99 252.92Z" fill="#263238"/>
<path d="M303.9 239.77C302.026 240.632 300.206 241.607 298.45 242.69C298.441 242.696 298.433 242.703 298.426 242.712C298.42 242.721 298.416 242.732 298.414 242.742C298.411 242.753 298.411 242.764 298.413 242.775C298.415 242.785 298.419 242.796 298.425 242.805C298.431 242.814 298.438 242.822 298.447 242.828C298.456 242.834 298.466 242.839 298.477 242.841C298.488 242.844 298.499 242.844 298.51 242.842C298.52 242.84 298.531 242.836 298.54 242.83C300.31 241.83 302.12 240.83 303.96 239.83C304.04 239.85 303.97 239.74 303.9 239.77Z" fill="#263238"/>
<path d="M303.43 331.77H259.28V378.31H303.43V331.77Z" fill="#37474F"/>
<path d="M258.5 348.24H256.24V427.96H258.5V348.24Z" fill="#263238"/>
<path d="M306.24 348.24H303.98V427.96H306.24V348.24Z" fill="#263238"/>
<path d="M283.57 348.24H281.31V427.96H283.57V348.24Z" fill="#263238"/>
<path d="M305.1 375.33H257.37V381.77H305.1V375.33Z" fill="#263238"/>
<path d="M574.44 78.07V385.67C574.44 447.78 519.5 454.1 519.5 454.1H270.5C270.5 454.1 325.44 432.45 325.44 381.04V78.04L574.44 78.07Z" fill="#5245B0"/>
<path d="M580.81 69.8899H319.01V83.4199H580.81V69.8899Z" fill="#37474F"/>
<path d="M322.08 68.24H315.94V85.83H322.08V68.24Z" fill="#263238"/>
<path d="M583.89 68.24H577.75V85.83H583.89V68.24Z" fill="#263238"/>
<path d="M588.45 383.95H592.78V293.27H588.45V383.95Z" fill="#455A64"/>
<path d="M601.132 331.295L605.221 329.869L571.557 233.309L567.469 234.734L601.132 331.295Z" fill="#37474F"/>
<path d="M592.27 389.74V456.08C592.27 456.381 592.151 456.669 591.94 456.883C591.728 457.096 591.441 457.217 591.14 457.22C590.991 457.221 590.843 457.193 590.705 457.137C590.566 457.081 590.441 456.998 590.335 456.893C590.229 456.788 590.144 456.663 590.087 456.525C590.03 456.387 590 456.239 590 456.09L589 389.74H592.27Z" fill="#455A64"/>
<path d="M595.57 389.74L639.27 455.52C639.362 455.817 639.334 456.138 639.192 456.415C639.05 456.691 638.805 456.902 638.51 457C638.362 457.052 638.206 457.075 638.049 457.066C637.893 457.058 637.74 457.019 637.598 456.951C637.457 456.883 637.331 456.788 637.226 456.671C637.122 456.554 637.042 456.418 636.99 456.27L592.25 390.83L595.57 389.74Z" fill="#455A64"/>
<path d="M585.68 389.74L541.97 455.52C541.868 455.821 541.89 456.15 542.031 456.435C542.171 456.72 542.419 456.938 542.72 457.04C542.868 457.092 543.024 457.115 543.181 457.106C543.337 457.098 543.49 457.058 543.632 456.991C543.773 456.923 543.899 456.828 544.004 456.711C544.108 456.594 544.188 456.458 544.24 456.31L588.97 390.87L585.68 389.74Z" fill="#455A64"/>
<path d="M595.98 384V387.42C595.98 388.842 595.415 390.205 594.41 391.21C593.405 392.215 592.042 392.78 590.62 392.78C589.198 392.78 587.835 392.215 586.83 391.21C585.825 390.205 585.26 388.842 585.26 387.42V384H595.98Z" fill="#263238"/>
<path d="M582.78 387.27H598.45V381.57H582.78V387.27Z" fill="#37474F"/>
<path d="M597.39 294.57C597.39 293.231 596.993 291.922 596.249 290.809C595.505 289.696 594.448 288.828 593.211 288.315C591.974 287.803 590.613 287.669 589.299 287.93C587.986 288.191 586.78 288.836 585.833 289.783C584.886 290.73 584.241 291.936 583.98 293.249C583.719 294.563 583.853 295.924 584.365 297.161C584.878 298.398 585.746 299.455 586.859 300.199C587.972 300.943 589.281 301.34 590.62 301.34C592.416 301.34 594.138 300.627 595.407 299.357C596.677 298.088 597.39 296.366 597.39 294.57Z" fill="#263238"/>
<path d="M594.91 294.57C594.91 293.722 594.658 292.892 594.187 292.187C593.716 291.481 593.046 290.931 592.262 290.607C591.478 290.282 590.615 290.197 589.783 290.362C588.951 290.528 588.187 290.937 587.587 291.537C586.987 292.136 586.578 292.901 586.413 293.733C586.247 294.565 586.332 295.428 586.657 296.212C586.981 296.996 587.531 297.666 588.237 298.137C588.942 298.608 589.772 298.86 590.62 298.86C591.758 298.86 592.849 298.408 593.654 297.604C594.458 296.799 594.91 295.708 594.91 294.57Z" fill="#455A64"/>
<path d="M569.63 218.83L557.51 246.2L574.83 253.9C578.415 255.238 582.376 255.154 585.902 253.668C589.428 252.181 592.252 249.403 593.797 245.902C595.341 242.401 595.49 238.442 594.211 234.835C592.933 231.228 590.325 228.247 586.92 226.5L569.63 218.83Z" fill="#455A64"/>
<path d="M571.99 213.52L555.14 251.44L571.49 252.43L583.65 225.06L571.99 213.52Z" fill="#263238"/>
<path d="M534.48 268.33L555.14 251.44L571.99 213.52L570.68 186.87L534.48 268.33Z" fill="#455A64"/>
<path d="M509.27 270.13L534.48 268.33L570.68 186.87L555.13 166.95L509.27 270.13Z" fill="#37474F"/>
<path d="M252.08 190.57H247.75V355.13H252.08V190.57Z" fill="#455A64"/>
<path d="M273.068 132.021L268.98 130.596L235.316 227.156L239.405 228.581L273.068 132.021Z" fill="#37474F"/>
<path d="M248.26 360.91V427.25C248.26 427.551 248.379 427.839 248.59 428.053C248.802 428.266 249.089 428.388 249.39 428.39C249.539 428.391 249.687 428.363 249.826 428.307C249.964 428.251 250.09 428.168 250.196 428.063C250.302 427.958 250.386 427.833 250.443 427.695C250.5 427.557 250.53 427.409 250.53 427.26L251.53 360.91H248.26Z" fill="#455A64"/>
<path d="M244.96 360.91L201.26 426.69C201.208 426.839 201.186 426.996 201.195 427.153C201.204 427.31 201.244 427.463 201.313 427.604C201.382 427.746 201.478 427.872 201.596 427.976C201.714 428.08 201.851 428.16 202 428.21C202.148 428.262 202.304 428.285 202.461 428.276C202.617 428.268 202.77 428.229 202.912 428.161C203.053 428.093 203.179 427.998 203.284 427.881C203.388 427.764 203.468 427.628 203.52 427.48L248.26 362L244.96 360.91Z" fill="#455A64"/>
<path d="M254.85 360.91L298.56 426.69C298.662 426.991 298.64 427.32 298.499 427.605C298.359 427.89 298.111 428.108 297.81 428.21C297.662 428.262 297.506 428.285 297.349 428.276C297.193 428.268 297.04 428.229 296.898 428.161C296.757 428.093 296.631 427.998 296.526 427.881C296.422 427.764 296.342 427.628 296.29 427.48L251.56 362L254.85 360.91Z" fill="#455A64"/>
<path d="M244.51 355.13V358.55C244.51 359.972 245.075 361.335 246.08 362.34C247.085 363.345 248.448 363.91 249.87 363.91C251.292 363.91 252.655 363.345 253.66 362.34C254.665 361.335 255.23 359.972 255.23 358.55V355.13H244.51Z" fill="#263238"/>
<path d="M257.74 352.73H242.07V358.43H257.74V352.73Z" fill="#37474F"/>
<path d="M243.14 191.86C243.14 190.521 243.537 189.212 244.281 188.099C245.025 186.986 246.082 186.118 247.319 185.605C248.556 185.093 249.918 184.959 251.231 185.22C252.544 185.481 253.75 186.126 254.697 187.073C255.644 188.02 256.289 189.226 256.55 190.539C256.811 191.853 256.677 193.214 256.165 194.451C255.652 195.688 254.785 196.745 253.671 197.489C252.558 198.233 251.249 198.63 249.91 198.63C248.115 198.63 246.393 197.917 245.123 196.647C243.853 195.378 243.14 193.656 243.14 191.86Z" fill="#263238"/>
<path d="M249.91 196.14C252.274 196.14 254.19 194.224 254.19 191.86C254.19 189.496 252.274 187.58 249.91 187.58C247.546 187.58 245.63 189.496 245.63 191.86C245.63 194.224 247.546 196.14 249.91 196.14Z" fill="#455A64"/>
<path d="M287.98 116.52L279.51 145.26L261.32 139.92C257.715 138.626 254.741 136.001 253.009 132.585C251.277 129.168 250.918 125.218 252.005 121.545C253.092 117.872 255.543 114.754 258.856 112.831C262.168 110.907 266.091 110.324 269.82 111.2L287.98 116.52Z" fill="#455A64"/>
<path d="M289.61 110.94L277.94 150.76L264.82 140.94L273.25 112.2L289.61 110.94Z" fill="#263238"/>
<path d="M282.76 177.01L277.94 150.76L289.61 110.94L307.85 91.46L282.76 177.01Z" fill="#455A64"/>
<path d="M300.83 194.68L282.76 177.01L307.85 91.4601L332.6 86.3301L300.83 194.68Z" fill="#37474F"/>
<path d="M184.14 450.91C181.96 451.6 119.99 450.46 117.66 448.91C116.76 448.34 116.4 439.3 116.28 428.36C116.28 428.25 115.47 387.97 115.47 387.97L155.13 388.59L156.24 429C156.24 429 179.76 440.05 182.15 442C184.54 443.95 186.31 450.23 184.14 450.91Z" fill="#D3766A"/>
<path d="M116.03 415.78C116.17 422.78 116.28 428.33 116.28 428.38C116.4 439.31 116.77 448.38 117.65 448.92C119.99 450.46 181.96 451.6 184.13 450.92C186.3 450.24 184.51 443.99 182.13 442.03C179.75 440.07 156.22 429.03 156.22 429.03L155.87 416.03L116.03 415.78Z" fill="#DBDBDB"/>
<path d="M165.61 433.28C165.45 433.28 165.36 433.19 165.35 433.14L165.61 433.28Z" fill="#FFC727"/>
<path d="M184.27 450.86C182.85 451.31 156.48 451.09 137.27 450.47C132.83 450.32 128.77 450.15 125.5 449.97C120.98 449.71 117.95 449.42 117.5 449.1C116.42 448.39 116.06 435.1 115.98 421.17L156.48 421.65L156.18 428.95C156.18 428.95 179.85 439.95 182.25 441.95C184.65 443.95 186.45 450.16 184.27 450.86Z" fill="#FFC727"/>
<path d="M183.41 448.36C172.98 447.95 130.88 447.28 120.53 447.67C120.45 447.67 120.45 447.73 120.53 447.73C130.86 448.37 172.97 448.73 183.41 448.53C183.63 448.53 183.63 448.37 183.41 448.36Z" fill="#263238"/>
<path d="M157.67 426.66C153.57 425.83 148.54 426.39 145.36 429.27C145.24 429.38 145.36 429.55 145.53 429.51C149.472 428.305 153.532 427.524 157.64 427.18C157.709 427.184 157.777 427.161 157.828 427.115C157.88 427.069 157.911 427.004 157.915 426.935C157.919 426.866 157.895 426.798 157.849 426.747C157.804 426.695 157.739 426.664 157.67 426.66Z" fill="#263238"/>
<path d="M160.61 428.49C156.51 427.66 151.48 428.22 148.3 431.1C148.18 431.21 148.3 431.38 148.47 431.34C152.411 430.127 156.471 429.342 160.58 429C160.64 428.992 160.695 428.964 160.737 428.919C160.778 428.875 160.803 428.818 160.806 428.757C160.81 428.697 160.792 428.637 160.756 428.588C160.72 428.54 160.669 428.505 160.61 428.49Z" fill="#263238"/>
<path d="M163.51 430.32C159.42 429.49 154.39 430.05 151.21 432.93C151.08 433.04 151.21 433.21 151.38 433.17C155.328 431.958 159.395 431.177 163.51 430.84C163.579 430.84 163.645 430.813 163.694 430.764C163.743 430.715 163.77 430.649 163.77 430.58C163.77 430.511 163.743 430.445 163.694 430.396C163.645 430.347 163.579 430.32 163.51 430.32Z" fill="#263238"/>
<path d="M166.51 432.15C162.42 431.32 157.39 431.88 154.2 434.76C154.08 434.87 154.2 435.04 154.38 435C158.327 433.787 162.394 433.006 166.51 432.67C166.579 432.67 166.645 432.643 166.694 432.594C166.743 432.545 166.77 432.479 166.77 432.41C166.77 432.341 166.743 432.275 166.694 432.226C166.645 432.178 166.579 432.15 166.51 432.15Z" fill="#263238"/>
<path d="M103.73 209.39C103.73 209.39 113.27 314.39 114.73 322.39C115.07 324.22 115.12 425.07 115.12 425.07L157.43 424.65C157.43 424.65 153.78 337.88 151.93 321.9C150.08 305.92 141.54 209.57 141.54 209.57L103.73 209.39Z" fill="#263238"/>
<path d="M116.51 416.28C117.777 416.113 119.053 416.026 120.33 416.02C121.6 416.02 122.87 415.91 124.15 415.87C126.65 415.78 129.15 415.68 131.66 415.61C136.76 415.46 141.86 415.32 146.95 415.16C149.82 415.07 152.7 415.08 155.57 415.16C155.588 415.166 155.603 415.178 155.614 415.193C155.625 415.208 155.631 415.226 155.631 415.245C155.631 415.264 155.625 415.282 155.614 415.297C155.603 415.312 155.588 415.324 155.57 415.33C145.43 416.33 135.18 416.46 124.99 416.66L120.62 416.71C119.24 416.77 117.857 416.74 116.48 416.62C116.27 416.56 116.33 416.3 116.51 416.28Z" fill="#37474F"/>
<path d="M109.42 214.05C112.42 239.66 115.32 265.27 117.73 290.94C118.93 303.67 120.05 316.42 120.78 329.19C121.51 341.96 121.78 354.94 121.86 367.82C121.98 382.39 122.25 396.97 121.94 411.53C121.94 411.559 121.929 411.587 121.908 411.608C121.887 411.628 121.859 411.64 121.83 411.64C121.801 411.64 121.773 411.628 121.752 411.608C121.732 411.587 121.72 411.559 121.72 411.53C120.59 385.78 121.09 359.98 119.87 334.23C118.65 308.48 115.98 282.81 113.29 257.16C111.78 242.81 110.37 228.45 108.96 214.09C108.94 213.84 109.39 213.79 109.42 214.05Z" fill="#37474F"/>
<path d="M96.9001 455.29C94.6201 455.46 34.6201 439.9 32.7201 437.86C31.9801 437.09 33.7201 428.22 36.1701 417.56L36.2501 417.22C36.7401 415.02 49.6001 378.11 49.6001 378.11L88.5101 388.36L75.0501 426.83L74.8601 427.48C74.8601 427.48 95.1601 443.71 97.0201 446.18C98.8801 448.65 99.1801 455.14 96.9001 455.29Z" fill="#D3766A"/>
<path d="M32.7201 437.85C34.6201 439.85 94.6201 455.46 96.8901 455.29C99.1601 455.12 98.8901 448.64 97.0401 446.17C95.1901 443.7 74.8801 427.48 74.8801 427.48L75.0701 426.83L79.0201 415.54C71.4601 413.06 52.0201 408.1 40.2501 405.16C38.1301 411.4 36.4201 416.45 36.2501 417.22C36.2501 417.34 36.1901 417.45 36.1701 417.56C33.7401 428.21 31.9801 437.09 32.7201 437.85Z" fill="#DBDBDB"/>
<path d="M96.9901 455.57C95.5001 455.66 69.9901 449.09 51.4901 443.85C47.2201 442.63 43.3201 441.49 40.1901 440.52C35.8701 439.18 33.0001 438.17 32.6001 437.75C31.7201 436.75 34.6001 423.85 37.8601 410.27L77.0401 420.51L75.0401 427.51C75.0401 427.51 95.3501 443.91 97.2101 446.4C99.0701 448.89 99.2701 455.41 96.9901 455.57Z" fill="#FFC727"/>
<path d="M96.7602 452.94C86.7602 450.02 46.0402 439.21 35.9102 437.09C35.8202 437.09 35.8102 437.09 35.9102 437.15C45.7802 440.26 86.5702 450.74 96.7302 453.15C96.9302 453.15 96.9702 453 96.7602 452.94Z" fill="#263238"/>
<path d="M77.0101 425.66C73.2401 423.87 68.2201 423.2 64.4401 425.22C64.3001 425.3 64.4401 425.51 64.5501 425.5C68.6686 425.28 72.7988 425.501 76.8701 426.16C76.935 426.174 77.003 426.163 77.0601 426.129C77.1171 426.095 77.1589 426.04 77.1769 425.976C77.1948 425.912 77.1875 425.844 77.1565 425.785C77.1255 425.726 77.0731 425.681 77.0101 425.66Z" fill="#263238"/>
<path d="M79.4201 428.15C75.6501 426.35 70.63 425.68 66.85 427.71C66.7 427.79 66.85 427.99 66.96 427.99C71.0748 427.766 75.2017 427.984 79.27 428.64C79.3309 428.648 79.3924 428.634 79.4439 428.6C79.4954 428.567 79.5335 428.517 79.5514 428.458C79.5694 428.4 79.566 428.336 79.542 428.28C79.518 428.224 79.4748 428.178 79.4201 428.15Z" fill="#263238"/>
<path d="M81.83 430.63C78.06 428.84 73.04 428.17 69.26 430.19C69.11 430.27 69.26 430.48 69.37 430.47C73.4851 430.25 77.612 430.471 81.68 431.13C81.7463 431.15 81.8178 431.143 81.8787 431.11C81.9397 431.077 81.9851 431.021 82.005 430.955C82.0248 430.889 82.0176 430.817 81.9848 430.756C81.9519 430.695 81.8963 430.65 81.83 430.63Z" fill="#263238"/>
<path d="M84.2401 433.11C80.4701 431.32 75.4501 430.65 71.6701 432.68C71.5201 432.75 71.6701 432.96 71.7801 432.95C75.8952 432.735 80.0216 432.956 84.0901 433.61C84.1564 433.63 84.2279 433.623 84.2889 433.59C84.3498 433.557 84.3952 433.501 84.4151 433.435C84.435 433.369 84.4277 433.297 84.3949 433.236C84.3621 433.175 84.3064 433.13 84.2401 433.11Z" fill="#263238"/>
<path d="M78.84 423.83L36.04 413.27C36.04 413.27 68.57 329.94 70.41 324.35C71.75 320.29 82.65 270.69 86.5 249.01C86.5 249.01 81 233.15 93.64 209.3L141.56 209.56C141.56 209.56 140.31 232.31 134.48 246.71C130.609 248.034 126.867 249.708 123.3 251.71C123.3 251.71 109.16 329.3 106.86 336.37C101.9 351.69 78.84 423.83 78.84 423.83Z" fill="#263238"/>
<path d="M115.45 293.27C117.23 284.13 118.997 274.987 120.75 265.84C121.24 263.26 121.75 260.7 122.35 258.13C122.95 255.56 123.35 252.96 124.12 250.46C124.12 250.42 124.136 250.382 124.164 250.354C124.192 250.326 124.23 250.31 124.27 250.31C124.31 250.31 124.348 250.326 124.376 250.354C124.404 250.382 124.42 250.42 124.42 250.46C124.27 252.8 123.83 255.12 123.5 257.46C123.17 259.8 122.83 261.97 122.44 264.21C121.63 268.82 120.74 273.41 119.85 278C118.05 287.17 116.26 296.36 114.08 305.44C112.85 310.55 111.7 315.69 110.41 320.78C110.41 320.89 110.22 320.84 110.24 320.73C111.89 311.58 113.67 302.42 115.45 293.27Z" fill="#37474F"/>
<path d="M125.83 240.34C125.19 238.74 125.72 236.9 126.02 235.28C126.4 233.22 126.77 231.17 127.16 229.11C128.04 224.48 129.01 219.86 130.03 215.25C130.03 215.2 130.12 215.25 130.12 215.25C129.64 218.937 129.124 222.62 128.57 226.3C128.01 229.99 127.28 233.67 126.81 237.38C126.65 238.58 126.74 240.94 128.48 240.96C129.94 240.96 130.84 238.79 131.32 237.71C132.74 234.5 133.32 230.96 134.06 227.56C134.93 223.48 135.64 219.37 136.38 215.27C136.38 215.13 136.63 215.17 136.62 215.27C136.326 219.343 135.825 223.398 135.12 227.42C134.47 231.26 133.85 235.29 132.21 238.85C131.6 240.18 130.74 241.85 129.21 242.24C128.992 242.297 128.766 242.321 128.54 242.31C128.405 243.537 128.205 244.755 127.94 245.96C127.706 247.228 127.371 248.475 126.94 249.69C126.934 249.727 126.912 249.76 126.882 249.782C126.851 249.803 126.812 249.812 126.775 249.805C126.738 249.798 126.705 249.777 126.684 249.746C126.662 249.715 126.654 249.677 126.66 249.64C126.763 248.378 126.957 247.124 127.24 245.89C127.485 244.674 127.796 243.473 128.17 242.29C127.647 242.19 127.157 241.959 126.748 241.618C126.339 241.277 126.023 240.837 125.83 240.34Z" fill="#37474F"/>
<path d="M117.73 252.27C120.176 251.178 122.73 250.347 125.35 249.79C127.875 249.268 130.436 248.934 133.01 248.79C133.1 248.79 133.12 248.95 133.01 248.96C130.44 249.35 120.3 251.78 117.76 252.4C117.71 252.41 117.67 252.3 117.73 252.27Z" fill="#37474F"/>
<path d="M54.5101 383C56.8301 376.92 59.1635 370.843 61.5101 364.77C66.1401 352.72 70.8901 340.72 75.5101 328.66C80.0601 316.75 82.0401 304.07 84.5601 291.6C85.8401 285.253 87.1201 278.9 88.4001 272.54C89.6801 266.24 91.2201 259.94 91.9901 253.54C92.7401 247.3 91.8401 241.04 92.4201 234.8C92.9475 229.222 94.4681 223.783 96.9101 218.74C97.5301 217.46 98.2201 216.22 98.9601 215.01C99.0401 214.87 99.2501 215.01 99.1701 215.15C94.8862 222.957 92.7696 231.769 93.0401 240.67C93.1001 243.83 93.3101 246.98 93.1401 250.13C92.8101 256.44 91.3101 262.64 90.0701 268.8C88.8301 274.96 87.5201 281.39 86.2501 287.68C84.9801 293.97 83.6701 300.39 82.3901 306.74C81.2731 312.947 79.7498 319.073 77.8301 325.08C75.8301 331.08 73.4001 336.96 71.1201 342.87C68.7801 348.943 66.4468 355.013 64.1201 361.08C59.4201 373.16 54.8101 385.29 49.9101 397.28C49.3301 398.68 48.7501 400.06 48.1301 401.44C48.0501 401.62 47.7601 401.44 47.8201 401.29C49.7801 395.09 52.2101 389 54.5101 383Z" fill="#37474F"/>
<path d="M41 404.33C42.2606 404.536 43.5065 404.823 44.73 405.19C45.97 405.51 47.2 405.82 48.43 406.19C50.85 406.84 53.28 407.47 55.69 408.13L70.46 412.13C73.24 412.87 75.98 413.72 78.71 414.59C78.7276 414.596 78.743 414.608 78.7538 414.623C78.7646 414.638 78.7704 414.656 78.7704 414.675C78.7704 414.694 78.7646 414.712 78.7538 414.727C78.743 414.742 78.7276 414.754 78.71 414.76C68.71 412.76 58.87 409.92 49.07 407.14C47.66 406.75 46.26 406.34 44.87 405.92C43.5298 405.581 42.2136 405.153 40.93 404.64C40.71 404.53 40.85 404.31 41 404.33Z" fill="#37474F"/>
<path d="M137.63 171.2C150.79 193.69 161.57 206.2 168.23 205.68C175.56 205.15 193.64 185.23 202.54 174.57C203.78 173.09 184.18 158.26 182.64 159.8C176.57 165.89 167.2 179.66 164.76 180.61C163.18 181.23 157.42 175.29 145.61 166.1C135.07 157.89 131.77 161.18 137.63 171.2Z" fill="#D3766A"/>
<path d="M201.57 175.61C203.88 173.61 211.86 165.35 215.5 158.16C217.26 154.68 221.28 144.16 218.71 142.58C216.14 141 214.71 143.99 214.71 143.99C214.71 143.99 215.71 139.29 213.01 137.99C210.31 136.69 208.18 141.36 208.18 141.36C208.18 141.36 208.88 136.45 206.07 135.36C203.26 134.27 201.93 139.31 201.93 139.31C201.93 139.31 202.78 134.85 200.07 134.89C196.8 134.89 196.16 143.34 194.01 147.1C193.52 147.95 182.9 163.67 182.9 163.67L201.57 175.61Z" fill="#D3766A"/>
<path d="M201.84 139.27C201.35 145.45 200.07 148.07 196.42 152.96C196.35 153.05 196.47 153.18 196.56 153.09C200.56 148.63 202.65 145.58 202.14 139.28C202.12 139 201.86 139 201.84 139.27Z" fill="#263238"/>
<path d="M208.26 141.08C207.19 147.45 205.83 150.31 202.38 155.7C202.33 155.78 202.45 155.87 202.51 155.8C206.34 150.8 208.34 147.69 208.57 141.19C208.58 140.89 208.31 140.79 208.26 141.08Z" fill="#263238"/>
<path d="M214.58 144.51C213.1 150.61 211.74 153.8 207.71 158.61C207.62 158.72 207.78 158.87 207.88 158.77C212.46 154.26 214.19 150.29 214.76 144.58C214.8 144.19 214.67 144.13 214.58 144.51Z" fill="#263238"/>
<path d="M183.26 163.63C183.26 163.63 181.87 155.99 182 152.5C182.13 149.01 187.4 136.18 190.24 137.16C193.9 138.42 192.31 146.43 191.03 150.25C191.03 150.25 199.5 153.17 199.61 159.17C199.72 165.17 183.26 163.63 183.26 163.63Z" fill="#D3766A"/>
<path d="M191.13 137.84C193.63 141.4 191.62 146.31 190.65 150.11C190.632 150.165 190.627 150.223 190.637 150.281C190.647 150.338 190.671 150.391 190.706 150.437C190.742 150.482 190.788 150.518 190.841 150.542C190.894 150.565 190.952 150.575 191.01 150.57C194.48 152.03 198.95 155.1 199.78 158.99C199.78 159.014 199.789 159.037 199.806 159.054C199.823 159.071 199.846 159.08 199.87 159.08C199.894 159.08 199.917 159.071 199.934 159.054C199.95 159.037 199.96 159.014 199.96 158.99C199.64 154.7 195.49 151.32 191.59 149.99C192.65 146.11 194.45 141.1 191.16 137.86C191.14 137.79 191.11 137.81 191.13 137.84Z" fill="#263238"/>
<path d="M172.51 170.25L193.83 188.34C193.83 188.34 173.51 207.88 166.36 206.11C159.21 204.34 145.67 186.35 137.41 172.3C129.15 158.25 137.6 159.21 144.98 164.92C152.36 170.63 162.58 180.97 164.14 180.5C165.7 180.03 172.51 170.25 172.51 170.25Z" fill="#37474F"/>
<path d="M170.19 171.81L191.53 191.92L196.04 187.5L173.37 166.63L170.19 171.81Z" fill="#455A64"/>
<path d="M175.51 203C171.87 205.23 168.51 206.64 166.37 206.1C159.27 204.33 145.69 186.35 137.42 172.3C133.06 164.9 133.35 161.66 135.68 161.1C141.63 167.36 165.92 192.81 175.51 203Z" fill="#263238"/>
<path d="M144.97 220.94L93.6401 209.3C93.6401 209.3 113.3 171.46 127.71 161.85C134.26 157.48 139.18 159.53 142.71 164.15C143.58 165.31 153.02 185.5 152.76 191.7C152.54 197.19 146.9 202.02 146.9 202.02L144.97 220.94Z" fill="#FFC727"/>
<path d="M139.58 197.27C137.227 197.05 134.861 197 132.5 197.12C131.32 197.2 130.16 197.33 129 197.49C128.42 197.57 127.84 197.63 127.25 197.68C126.642 197.755 126.028 197.755 125.42 197.68C125.42 197.68 125.36 197.75 125.42 197.76C125.983 197.892 126.554 197.989 127.13 198.05C127.689 198.085 128.251 198.085 128.81 198.05C130 197.98 131.19 197.86 132.38 197.78C134.78 197.62 137.17 197.46 139.58 197.47C139.68 197.47 139.69 197.28 139.58 197.27Z" fill="#263238"/>
<path d="M144.92 200.39C143.05 199.837 141.15 199.386 139.23 199.04C138.23 198.88 137.3 198.77 136.33 198.68L134.93 198.58C134.42 198.58 133.93 198.58 133.4 198.58C133.34 198.58 133.33 198.66 133.4 198.67C133.88 198.72 134.4 198.85 134.83 198.92L136.27 199.15L139.15 199.62C141.08 199.91 142.99 200.22 144.91 200.62C144.99 200.57 145.01 200.42 144.92 200.39Z" fill="#263238"/>
<path d="M141.51 162.76C145.68 172.31 147.27 188.95 147.13 192.6C146.93 197.86 139.53 236.14 139.53 236.14L147.17 231.14L147.62 202.27C149.329 200.765 150.707 198.921 151.665 196.855C152.624 194.789 153.143 192.547 153.19 190.27C153.19 186.77 149.13 177.27 145.82 170.27C142.51 163.27 141.51 162.76 141.51 162.76Z" fill="#37474F"/>
<path d="M133.15 159.25C133.15 159.25 132.83 182.06 131.89 188.64C130.95 195.22 120.8 231.57 120.8 231.57L86.8901 215.78C86.8901 215.78 108.7 180.71 117.34 170.03C125.98 159.35 133.15 159.25 133.15 159.25Z" fill="#37474F"/>
<path d="M133.27 163.11C133.27 164.11 136.38 171.67 140.92 172.57C142.4 172.85 144.33 164.85 144.33 164.85L144.61 164.29L148.5 156.48L140.31 147.85L139.11 146.68C139.11 146.68 138.19 148.89 137.11 151.68L136.95 152.08C136.88 152.23 136.82 152.38 136.76 152.52C136.59 152.93 136.41 153.35 136.25 153.77C136.09 154.19 136 154.41 135.88 154.77L135.5 155.77C134.586 158.162 133.841 160.614 133.27 163.11Z" fill="#D3766A"/>
<path d="M137.07 151.65C137.333 154.178 138.144 156.619 139.446 158.802C140.748 160.985 142.51 162.858 144.61 164.29L148.5 156.48L140.31 147.85L139.11 146.68C139.11 146.68 138.19 148.89 137.07 151.65Z" fill="#263238"/>
<path d="M162.36 143.62C163.71 158.88 154.72 161.41 151.43 161.69C148.43 161.96 138.24 162.46 135.32 147.43C132.4 132.4 139.07 126.94 145.87 125.98C152.67 125.02 161.01 128.36 162.36 143.62Z" fill="#D3766A"/>
<path d="M159.97 141.17C159.634 141.142 159.3 141.095 158.97 141.03C158.607 141.018 158.257 140.892 157.97 140.67C157.897 140.575 157.857 140.459 157.857 140.34C157.857 140.22 157.897 140.104 157.97 140.01C158.132 139.832 158.339 139.7 158.569 139.628C158.8 139.555 159.045 139.546 159.28 139.6C159.772 139.64 160.231 139.861 160.57 140.22C160.658 140.314 160.713 140.434 160.725 140.562C160.738 140.69 160.707 140.819 160.639 140.928C160.57 141.036 160.467 141.119 160.346 141.163C160.225 141.207 160.093 141.209 159.97 141.17Z" fill="#263238"/>
<path d="M149.51 141.84C149.87 141.77 150.18 141.65 150.51 141.55C150.889 141.504 151.241 141.331 151.51 141.06C151.583 140.966 151.623 140.849 151.623 140.73C151.623 140.611 151.583 140.495 151.51 140.4C151.327 140.244 151.104 140.14 150.867 140.1C150.629 140.059 150.385 140.083 150.16 140.17C149.678 140.273 149.25 140.551 148.96 140.95C148.905 141.043 148.876 141.149 148.877 141.257C148.878 141.365 148.909 141.47 148.965 141.562C149.022 141.654 149.103 141.728 149.199 141.777C149.295 141.826 149.403 141.848 149.51 141.84Z" fill="#263238"/>
<path d="M152.16 145.43C152.16 145.43 152.08 145.43 152.09 145.53C152.21 146.53 152.18 147.77 151.28 148.2V148.26C152.42 148 152.45 146.39 152.16 145.43Z" fill="#263238"/>
<path d="M151.14 144.42C149.45 144.42 149.62 147.81 151.14 147.79C152.66 147.77 152.51 144.41 151.14 144.42Z" fill="#263238"/>
<path d="M150.51 144.64C150.23 144.84 149.96 145.19 149.61 145.24C149.26 145.29 148.87 144.97 148.61 144.64C148.61 144.64 148.55 144.64 148.55 144.69C148.55 145.33 148.86 145.98 149.55 146.04C150.24 146.1 150.61 145.5 150.74 144.85C150.71 144.73 150.6 144.55 150.51 144.64Z" fill="#263238"/>
<path d="M152.51 154C152.76 154.25 153.01 154.58 153.39 154.61C153.778 154.601 154.16 154.509 154.51 154.34C154.51 154.34 154.58 154.34 154.51 154.4C154.361 154.605 154.16 154.766 153.928 154.866C153.696 154.966 153.441 155.002 153.19 154.97C152.976 154.917 152.783 154.8 152.635 154.637C152.487 154.473 152.391 154.268 152.36 154.05C152.36 154 152.44 154 152.51 154Z" fill="#263238"/>
<path d="M156.39 152C156.025 152.631 155.501 153.155 154.87 153.52C154.52 153.714 154.117 153.791 153.72 153.74C152.86 153.63 152.72 152.86 152.82 152.19C152.857 151.831 152.941 151.478 153.07 151.14C154.056 151.776 155.22 152.077 156.39 152Z" fill="#263238"/>
<path d="M154.87 153.55C154.52 153.744 154.117 153.821 153.72 153.77C152.86 153.66 152.72 152.89 152.82 152.22C153.261 152.184 153.701 152.295 154.072 152.536C154.443 152.776 154.723 153.133 154.87 153.55Z" fill="#FF98B9"/>
<path d="M156.59 150C156.59 150 156.9 151.54 156.95 152.27C156.95 152.34 156.78 152.39 156.53 152.42C155.907 152.574 155.254 152.554 154.642 152.361C154.03 152.169 153.483 151.812 153.06 151.33C153.053 151.316 153.051 151.3 153.053 151.284C153.055 151.268 153.062 151.253 153.073 151.241C153.084 151.229 153.098 151.221 153.113 151.217C153.129 151.214 153.145 151.215 153.16 151.22C154.138 151.803 155.278 152.052 156.41 151.93C156.41 151.73 155.78 149.31 155.9 149.3C156.473 149.314 157.041 149.405 157.59 149.57C157.03 146.34 155.96 143.23 155.46 140C155.455 139.976 155.459 139.95 155.471 139.928C155.484 139.907 155.504 139.891 155.528 139.883C155.551 139.876 155.577 139.877 155.6 139.888C155.623 139.898 155.641 139.917 155.65 139.94C156.896 143.245 157.811 146.665 158.38 150.15C158.43 150.51 156.89 150.06 156.59 150Z" fill="#263238"/>
<path d="M161.08 144.4C160.804 144.365 160.526 144.365 160.25 144.4C159.965 144.427 159.686 144.494 159.42 144.6C159.142 144.715 158.887 144.882 158.67 145.09C158.451 145.312 158.286 145.583 158.19 145.88L158.01 146.41L158.55 146.26C158.937 146.144 159.337 146.074 159.74 146.05C160.156 146.01 160.576 146.076 160.96 146.24C160.655 145.884 160.226 145.655 159.76 145.6C159.299 145.541 158.83 145.571 158.38 145.69L158.75 146.07C158.923 145.644 159.237 145.291 159.64 145.07C160.091 144.789 160.574 144.564 161.08 144.4Z" fill="#263238"/>
<path d="M159.88 146.89C159.444 146.871 159.013 146.79 158.6 146.65C158.5 146.65 158.12 146.42 158.12 146.35C158.135 146.133 158.172 145.919 158.23 145.71C158.107 145.908 158.026 146.129 157.99 146.36C158.042 146.473 158.117 146.574 158.21 146.657C158.303 146.739 158.412 146.802 158.53 146.84C158.968 146.975 159.433 146.993 159.88 146.89Z" fill="#263238"/>
<path d="M136.29 147.26C139.89 147.26 139.8 141.59 139.8 141.59C139.8 141.59 143.87 141.18 144.11 134.59C144.919 135.9 146.019 137.006 147.325 137.821C148.631 138.636 150.108 139.139 151.64 139.29C152.81 139.45 148.86 136.46 148.86 136.46C148.86 136.46 153.6 140.66 162.31 138.96C162.92 138.84 161.52 129.66 154.64 126.59C147.76 123.52 141.64 125.36 137.43 129.72C137.43 129.72 132.43 132.08 131.93 136.84C131.43 141.6 134.9 147.26 136.29 147.26Z" fill="#263238"/>
<path d="M135.79 153.05C136.018 153.142 136.257 153.206 136.5 153.24C136.739 153.275 136.981 153.275 137.22 153.24C137.531 153.214 137.831 153.118 138.1 152.96C138.315 152.84 138.51 152.688 138.68 152.51C138.924 152.261 139.121 151.97 139.26 151.65L138.41 147.56C138.41 147.56 135.05 142.78 132.89 143.98C130.73 145.18 133.24 152.11 135.79 153.05Z" fill="#D3766A"/>
<path d="M133.66 146V146.07C135.44 146.79 136.38 148.45 137.05 150.16C136.945 149.982 136.803 149.829 136.634 149.711C136.464 149.593 136.271 149.513 136.068 149.477C135.864 149.441 135.656 149.449 135.456 149.502C135.256 149.554 135.07 149.649 134.91 149.78C134.91 149.78 134.91 149.88 134.91 149.87C135.224 149.769 135.562 149.767 135.877 149.866C136.192 149.964 136.469 150.158 136.67 150.42C137 150.862 137.281 151.338 137.51 151.84C137.59 152 137.88 151.91 137.82 151.73C137.88 149.36 136.1 146.18 133.66 146Z" fill="#263238"/>
<path d="M136 152.41C136.039 152.594 136.149 152.756 136.306 152.859C136.464 152.962 136.656 152.998 136.84 152.96C137.016 152.914 137.168 152.803 137.264 152.649C137.361 152.495 137.394 152.31 137.359 152.132C137.323 151.954 137.22 151.797 137.071 151.692C136.923 151.587 136.74 151.544 136.56 151.57C136.468 151.588 136.38 151.624 136.302 151.676C136.224 151.728 136.157 151.795 136.105 151.873C136.053 151.951 136.017 152.039 135.999 152.131C135.981 152.223 135.981 152.318 136 152.41Z" fill="white"/>
<path d="M134.51 151.34C134.53 151.437 134.578 151.526 134.648 151.595C134.719 151.665 134.808 151.712 134.905 151.731C135.002 151.75 135.102 151.739 135.194 151.701C135.285 151.663 135.363 151.598 135.417 151.516C135.472 151.433 135.5 151.336 135.5 151.238C135.5 151.139 135.47 151.042 135.414 150.96C135.359 150.878 135.281 150.815 135.189 150.777C135.098 150.74 134.997 150.73 134.9 150.75C134.836 150.763 134.775 150.789 134.72 150.826C134.666 150.862 134.619 150.909 134.583 150.964C134.547 151.019 134.522 151.08 134.509 151.145C134.497 151.209 134.497 151.276 134.51 151.34Z" fill="white"/>
<path d="M137.07 130.56C139.61 129.4 147.07 118.66 138.15 110.88C129.23 103.1 114.55 113.61 119.9 124.63C123.51 132 131.68 133 137.07 130.56Z" fill="#263238"/>
<path d="M171.33 170.93H166.85V317.73H171.33V170.93Z" fill="#455A64"/>
<path d="M167.38 324.18V457C167.38 457.313 167.504 457.613 167.726 457.835C167.947 458.056 168.247 458.18 168.56 458.18C168.715 458.181 168.868 458.152 169.011 458.094C169.154 458.036 169.284 457.95 169.394 457.841C169.504 457.732 169.591 457.603 169.65 457.46C169.71 457.318 169.74 457.165 169.74 457.01L170.81 324.14L167.38 324.18Z" fill="#455A64"/>
<path d="M163.97 324.18L118.67 456.46C118.565 456.773 118.588 457.115 118.734 457.411C118.88 457.707 119.138 457.933 119.45 458.04C119.76 458.145 120.1 458.123 120.394 457.979C120.688 457.835 120.913 457.58 121.02 457.27L167.38 325.35L163.97 324.18Z" fill="#455A64"/>
<path d="M174.22 324.18L219.51 456.46C219.564 456.614 219.586 456.778 219.576 456.941C219.567 457.104 219.525 457.263 219.453 457.41C219.382 457.557 219.282 457.688 219.16 457.796C219.037 457.904 218.895 457.987 218.74 458.04C218.43 458.145 218.09 458.123 217.796 457.979C217.502 457.835 217.277 457.58 217.17 457.27L170.81 325.35L174.22 324.18Z" fill="#455A64"/>
<path d="M163.51 319V322.55C163.571 323.982 164.183 325.336 165.218 326.328C166.253 327.32 167.631 327.874 169.065 327.874C170.499 327.874 171.877 327.32 172.912 326.328C173.947 325.336 174.559 323.982 174.62 322.55V319H163.51Z" fill="#263238"/>
<path d="M177.21 316.55H160.97V322.46H177.21V316.55Z" fill="#37474F"/>
<path d="M195.81 146.6L174.49 149.97L175.58 164.79L196.9 164.37L195.81 146.6Z" fill="#455A64"/>
<path d="M161.22 172.14L178.28 170.88L174.79 142.97L159.84 144.07L161.22 172.14Z" fill="#37474F"/>
<path d="M168.27 143.45L167.11 140.81L163.07 141.1L161.81 143.93L168.27 143.45Z" fill="#37474F"/>
<path d="M211.5 142.97L184.61 147.22L185.99 165.91L212.88 165.38L211.5 142.97Z" fill="#37474F"/>
<path d="M210.7 144.42C209.032 147.575 208.138 151.081 208.09 154.65C208.346 158.098 209.691 161.375 211.93 164.01L210.7 144.42Z" fill="#455A64"/>
<path d="M132.59 168.31C135.25 172.44 153.84 204.39 155.19 205.56C155.19 205.56 148.19 223.56 138.76 216.68C129.83 210.17 125.26 183.74 124.03 170.49C123.36 163.36 127.51 160.45 132.59 168.31Z" fill="#D3766A"/>
<path d="M132.59 168.31C135.25 172.44 153.84 204.39 155.19 205.56C155.19 205.56 148.19 223.56 138.76 216.68C129.83 210.17 125.26 183.74 124.03 170.49C123.36 163.36 127.51 160.45 132.59 168.31Z" fill="#37474F"/>
<path d="M129.51 199.42C129.36 198.2 126.84 187.16 126.59 185.97C126.34 184.78 126.06 183.58 125.74 182.4C125.42 181.22 125.12 180.03 124.74 178.86C124.87 180.08 125.06 181.29 125.26 182.5C125.46 183.71 125.7 184.91 125.95 186.11C126.2 187.31 126.47 188.5 126.76 189.69C127.05 190.88 129.04 198.29 129.4 199.47L129.51 199.42Z" fill="#263238"/>
<path d="M123.87 180.92C124.048 181.519 124.307 182.091 124.64 182.62C124.95 183.158 125.334 183.649 125.78 184.08C125.6 183.482 125.341 182.91 125.01 182.38C124.694 181.847 124.311 181.356 123.87 180.92Z" fill="#263238"/>
<path d="M156.31 179.64C159.13 177.95 176.46 191.51 173.4 195.25C158.93 212.93 149.5 217.7 145.15 218.81C140.8 219.92 135.45 212.99 135.09 209.16C134.57 203.6 153.51 181.32 156.31 179.64Z" fill="#D3766A"/>
<path d="M191.92 164.22C192.92 166.76 186.44 168.71 186.44 168.71C187.594 168.954 188.625 169.599 189.35 170.53C190.56 172.22 188.43 174.86 188.43 174.86C189.573 175.365 190.538 176.201 191.2 177.26C192.2 179 190.42 181.96 190.42 181.96C190.842 182.461 191.158 183.044 191.347 183.671C191.536 184.299 191.595 184.959 191.52 185.61C191.01 188.51 186.73 191.21 183.39 192.46C180.2 193.65 170.18 195.98 168.29 196.46L159.03 174.34C159.03 174.34 170.03 166.34 173.87 165.02C177.1 163.93 190.38 160.34 191.92 164.22Z" fill="#D3766A"/>
<path d="M186.36 168.66C182.645 169.135 179.001 170.062 175.51 171.42C175.43 171.42 175.51 171.57 175.51 171.54C178.97 170.29 182.84 169.94 186.33 168.83C186.349 168.828 186.368 168.82 186.382 168.806C186.396 168.793 186.405 168.775 186.409 168.756C186.412 168.737 186.409 168.718 186.4 168.7C186.392 168.683 186.378 168.669 186.36 168.66Z" fill="#263238"/>
<path d="M188.38 174.71C187.545 174.864 186.734 175.13 185.97 175.5C185.13 175.83 184.31 176.19 183.48 176.55C181.84 177.277 180.213 178.047 178.6 178.86C178.53 178.86 178.6 179.02 178.6 178.98C180.24 178.26 181.9 177.56 183.6 176.9L186.12 175.9C186.934 175.652 187.718 175.317 188.46 174.9C188.47 174.883 188.476 174.863 188.477 174.843C188.478 174.824 188.474 174.804 188.467 174.785C188.459 174.767 188.447 174.751 188.432 174.737C188.417 174.724 188.399 174.715 188.38 174.71Z" fill="#263238"/>
<path d="M190.35 182C189.597 182.155 188.874 182.432 188.21 182.82L185.98 183.82C184.48 184.5 182.98 185.18 181.47 185.82C181.39 185.82 181.47 185.98 181.47 185.94C183.02 185.31 184.57 184.71 186.11 184.06C186.87 183.75 187.62 183.43 188.37 183.06C189.094 182.832 189.771 182.476 190.37 182.01L190.35 182Z" fill="#263238"/>
<path d="M168.31 168.56C166.83 168.56 165.5 164.86 165.16 162.43C164.82 160 162.42 156.54 160.45 156.65C158.48 156.76 158.5 161.43 158.7 164.35C158.9 167.27 157.21 178.24 156.31 179.64C155.41 181.04 162.49 182.45 162.49 182.45L168.31 168.56Z" fill="#D3766A"/>
<path d="M163.51 206.22C165.16 204.39 166.81 202.56 168.43 200.71L170.87 197.94C171.66 197.01 172.48 196.07 173.18 195.1L173.24 195.01H173.34C175.34 194.53 177.44 194.01 179.47 193.44C181.498 192.951 183.454 192.201 185.29 191.21C187.126 190.25 188.78 188.977 190.18 187.45C190.836 186.715 191.218 185.775 191.26 184.79C191.276 184.316 191.185 183.845 190.993 183.412C190.8 182.979 190.512 182.596 190.15 182.29L189.87 182.06L190.09 181.79C190.515 181.238 190.831 180.61 191.02 179.94C191.198 179.285 191.198 178.595 191.02 177.94C190.841 177.269 190.497 176.654 190.02 176.15C189.549 175.656 188.932 175.326 188.26 175.21L187.75 175.13L188.06 174.75C188.492 174.236 188.848 173.664 189.12 173.05C189.427 172.488 189.513 171.832 189.36 171.21C189.083 170.62 188.633 170.129 188.07 169.8C187.502 169.429 186.895 169.12 186.26 168.88L185.79 168.69L186.27 168.56C187.492 168.245 188.668 167.775 189.77 167.16C190.324 166.857 190.824 166.465 191.25 166C191.472 165.775 191.644 165.506 191.753 165.209C191.861 164.912 191.905 164.595 191.88 164.28C191.918 164.6 191.887 164.925 191.789 165.232C191.69 165.539 191.527 165.822 191.31 166.06C190.894 166.546 190.405 166.965 189.86 167.3C188.765 167.974 187.589 168.504 186.36 168.88V168.57C187.034 168.786 187.679 169.085 188.28 169.46C188.933 169.826 189.456 170.385 189.78 171.06C189.993 171.789 189.921 172.572 189.58 173.25C189.303 173.879 188.943 174.467 188.51 175L188.32 174.55C189.134 174.655 189.891 175.028 190.47 175.61C191.04 176.18 191.451 176.891 191.66 177.67C191.865 178.45 191.865 179.27 191.66 180.05C191.446 180.818 191.086 181.538 190.6 182.17L190.53 181.67C190.99 182.036 191.358 182.504 191.606 183.037C191.854 183.57 191.975 184.153 191.96 184.74C191.925 185.885 191.498 186.983 190.75 187.85C189.297 189.455 187.561 190.78 185.63 191.76C183.739 192.774 181.721 193.531 179.63 194.01C177.63 194.58 175.52 195.01 173.44 195.47L173.61 195.36C172.85 196.36 172.02 197.27 171.19 198.19C170.36 199.11 169.52 200.01 168.67 200.9C166.97 202.71 165.24 204.47 163.51 206.22Z" fill="#263238"/>
<path d="M148.33 187.4L165.78 206.22C165.78 206.22 149.93 219.22 143.95 218.93C138.95 218.7 134.08 211.81 134.95 208.07C136.25 202.29 148.33 187.4 148.33 187.4Z" fill="#37474F"/>
<path d="M137.93 201.54C140.6 195.34 146.14 190.21 146.49 189.92C146.66 189.78 146.9 189.92 146.86 189.92C146.12 190.99 140.61 197.4 138.13 201.6C138.11 201.67 137.91 201.58 137.93 201.54Z" fill="#263238"/>
<path d="M146.87 189.25L163.72 209.02L168.67 205.09L150.57 184.43L146.87 189.25Z" fill="#455A64"/>
<path d="M440.51 358.4L465.93 386.62C470.81 391.98 475 396.77 476.93 399.46C477.452 400.03 477.833 400.715 478.04 401.46C478.04 401.46 478.04 401.46 478.04 401.52C477.43 404.06 435.68 444.34 433.75 445.25C431.82 446.16 429.08 440.8 429.51 438C429.94 435.2 438.97 412.56 438.97 412.56L413.81 384.09L440.51 358.4Z" fill="#AD6359"/>
<path d="M460.7 380.83L465.92 386.62C470.8 391.98 474.99 396.77 476.92 399.46C477.369 400.08 477.742 400.751 478.03 401.46C478.03 401.46 478.03 401.46 478.03 401.52C477.42 404.06 435.67 444.34 433.74 445.25C431.81 446.16 429.08 440.8 429.51 438C429.94 435.2 438.97 412.56 438.97 412.56L433.6 406.76L460.7 380.83Z" fill="#EBEBEB"/>
<path d="M433.77 445.32C435.7 444.4 477.45 404.12 478.06 401.58C478.31 400.58 472.8 394.19 465.91 386.58L465.7 386.34L438.51 412.07L438.96 412.52C438.96 412.52 429.84 435.08 429.51 438C429.18 440.92 431.84 446.24 433.77 445.32Z" fill="#455A64"/>
<path d="M438.54 412.01V412.14L438.47 412.07L438.54 412.01Z" fill="#020100"/>
<path d="M429.51 438C429.84 435.46 436.99 417.53 438.63 413.41L439.58 440.27C437.754 442.073 435.831 443.775 433.82 445.37C431.84 446.24 429.09 440.8 429.51 438Z" fill="#37474F"/>
<path d="M432.68 443.24C439.55 436.24 467.92 408.84 475.24 402.48C475.3 402.43 475.34 402.48 475.24 402.48C468.59 409.53 440 436.73 432.75 443.31C432.64 443.5 432.51 443.39 432.68 443.24Z" fill="#263238"/>
<path d="M436.74 414.78C439.01 411.59 442.81 408.78 446.83 408.68C446.98 408.68 446.98 408.9 446.83 408.96C443.357 410.654 440.078 412.719 437.05 415.12C437.004 415.136 436.954 415.139 436.906 415.127C436.859 415.115 436.816 415.089 436.783 415.053C436.75 415.016 436.728 414.971 436.72 414.923C436.713 414.874 436.72 414.825 436.74 414.78Z" fill="#263238"/>
<path d="M435.9 417.91C438.17 414.73 441.97 411.91 445.99 411.81C446.15 411.81 446.15 412.03 445.99 412.09C442.52 413.79 439.242 415.855 436.21 418.25C436.164 418.266 436.114 418.269 436.066 418.257C436.018 418.245 435.975 418.219 435.942 418.183C435.909 418.146 435.888 418.101 435.88 418.053C435.873 418.004 435.879 417.955 435.9 417.91Z" fill="#263238"/>
<path d="M435.07 421.05C437.34 417.86 441.13 415.05 445.15 414.95C445.31 414.95 445.31 415.17 445.15 415.22C441.681 416.926 438.403 418.994 435.37 421.39C435.324 421.409 435.273 421.413 435.224 421.402C435.176 421.39 435.132 421.364 435.099 421.327C435.066 421.289 435.046 421.243 435.04 421.193C435.035 421.144 435.046 421.094 435.07 421.05Z" fill="#263238"/>
<path d="M427.51 323.62C429.97 333.86 467.37 385.34 467.37 385.34L436.81 415.34C436.81 415.34 382.67 350.49 385.04 327.58C387.1 307.65 413.99 226.85 413.99 226.85L448.25 225.64C448.25 225.64 425.08 313.54 427.51 323.62Z" fill="#FFC727"/>
<path opacity="0.2" d="M433.76 405.92C438.18 401.39 436.85 402.62 441.33 398.14C443.52 395.94 457.92 381.53 460.33 379.84C460.38 379.84 460.46 379.84 460.42 379.93C458.69 382.3 444.04 396.47 441.81 398.62C437.25 403.02 438.51 401.71 433.9 406.05C433.8 406.14 433.68 406 433.76 405.92Z" fill="#020100"/>
<path opacity="0.2" d="M421.51 320.43C421.91 317.83 422.37 315.25 422.83 312.66C423.763 307.38 424.763 302.113 425.83 296.86C427.943 286.447 430.277 276.08 432.83 265.76C435.39 255.4 438.11 245.06 441.32 234.88C441.71 233.63 442.12 232.37 442.53 231.12C442.525 231.108 442.524 231.095 442.526 231.082C442.527 231.069 442.532 231.057 442.539 231.047C442.547 231.036 442.556 231.027 442.568 231.021C442.579 231.015 442.592 231.012 442.605 231.012C442.618 231.012 442.631 231.015 442.642 231.021C442.653 231.027 442.663 231.036 442.671 231.047C442.678 231.057 442.683 231.069 442.684 231.082C442.686 231.095 442.684 231.108 442.68 231.12C439.96 241.3 437.14 251.45 434.61 261.68C432.08 271.91 429.78 282.1 427.61 292.37C426.53 297.52 425.54 302.7 424.61 307.88C424.13 310.42 423.667 312.967 423.22 315.52C422.644 318.112 422.257 320.742 422.06 323.39C422.062 325.902 422.852 328.351 424.32 330.39C425.68 332.45 454.68 378.2 455.61 379.02C455.68 379.08 455.61 379.18 455.5 379.12C451.64 375.9 422.73 329.81 421.92 327.64C421.155 325.314 421.014 322.828 421.51 320.43Z" fill="#020100"/>
<path d="M369.03 453.69C371.08 454.27 429.03 451.33 431.15 449.82C431.15 449.82 431.15 449.82 431.2 449.77C431.535 449.068 431.699 448.297 431.68 447.52C431.685 447.5 431.685 447.48 431.68 447.46C431.99 444.18 431.97 437.82 431.82 430.56L432.88 424.25L395.67 425.56L394.51 432.34C394.51 432.34 372.83 443.39 370.65 445.34C368.47 447.29 366.96 453.12 369.03 453.69Z" fill="#EBEBEB"/>
<path d="M369.03 453.69C371.09 454.27 429.03 451.33 431.16 449.82C431.98 449.26 432.04 440.82 431.83 430.56C431.83 430.45 431.83 430.34 431.83 430.24L394.43 431.72V432.35C394.43 432.35 372.76 443.35 370.59 445.3C368.42 447.25 366.97 453.12 369.03 453.69Z" fill="#455A64"/>
<path d="M369.57 451.41C379.33 450.68 418.74 448.63 428.44 448.65C428.51 448.65 428.52 448.7 428.44 448.71C418.79 449.65 379.36 451.37 369.58 451.57C369.37 451.58 369.37 451.43 369.57 451.41Z" fill="#263238"/>
<path d="M391.33 432.62C395.14 431.71 399.87 432.06 402.94 434.62C403.06 434.72 402.94 434.89 402.79 434.86C399.06 433.853 395.23 433.256 391.37 433.08C391.323 433.065 391.281 433.036 391.25 432.998C391.22 432.959 391.201 432.913 391.196 432.863C391.192 432.814 391.203 432.765 391.226 432.721C391.25 432.678 391.286 432.643 391.33 432.62Z" fill="#263238"/>
<path d="M388.64 434.43C392.45 433.52 397.18 433.87 400.25 436.43C400.37 436.53 400.25 436.7 400.1 436.67C396.369 435.668 392.54 435.071 388.68 434.89C388.633 434.875 388.591 434.847 388.56 434.808C388.53 434.769 388.511 434.723 388.507 434.673C388.502 434.624 388.513 434.575 388.536 434.531C388.56 434.488 388.596 434.453 388.64 434.43Z" fill="#263238"/>
<path d="M385.95 436.25C389.76 435.33 394.49 435.69 397.56 438.25C397.68 438.35 397.56 438.51 397.41 438.48C393.677 437.482 389.849 436.886 385.99 436.7C385.942 436.688 385.899 436.661 385.868 436.623C385.836 436.585 385.816 436.538 385.812 436.489C385.807 436.44 385.818 436.391 385.843 436.348C385.868 436.305 385.905 436.271 385.95 436.25Z" fill="#263238"/>
<path d="M414.74 226.83C416.27 232.418 417.452 238.096 418.28 243.83C419.28 250.97 420.36 257.28 421.35 258.04C422.34 258.8 428 262.18 429.86 263.23C429.86 263.23 414.78 314.99 411.02 332.23C405.58 357.18 393.02 431.9 393.02 431.9L433.32 430.47C433.32 430.47 443.09 359.42 447.62 335.69C451.5 315.35 466.96 254.19 466.96 254.19C468.655 249.454 469.315 244.408 468.894 239.395C468.473 234.382 466.981 229.518 464.52 225.13C464.52 225.13 414.73 226.8 414.74 226.83Z" fill="#FFC727"/>
<path opacity="0.2" d="M394.24 424C400.58 423.75 398.75 423.73 405.09 423.55C408.19 423.45 428.56 422.88 431.46 423.3C431.53 423.3 431.53 423.42 431.46 423.43C428.57 423.97 408.19 424.19 405.09 424.22C398.76 424.28 400.57 424.22 394.24 424.22C394.211 424.22 394.183 424.208 394.162 424.188C394.141 424.167 394.13 424.139 394.13 424.11C394.13 424.081 394.141 424.053 394.162 424.032C394.183 424.012 394.211 424 394.24 424Z" fill="#020100"/>
<path opacity="0.2" d="M418.42 256.11C422.413 258.122 426.221 260.481 429.8 263.16C429.83 263.179 429.852 263.208 429.861 263.243C429.869 263.278 429.863 263.314 429.845 263.345C429.826 263.375 429.796 263.397 429.762 263.406C429.727 263.414 429.69 263.409 429.66 263.39C425.81 261.17 421.87 259 418.15 256.57C418.1 256.529 418.067 256.472 418.055 256.409C418.044 256.345 418.056 256.28 418.088 256.225C418.121 256.169 418.172 256.127 418.233 256.106C418.294 256.085 418.36 256.086 418.42 256.11Z" fill="#020100"/>
<path opacity="0.2" d="M420.51 228.16C420.51 228.03 420.79 228.02 420.77 228.16C420.227 232.691 419.914 237.247 419.83 241.81C419.77 243.92 420.07 255.67 423.83 255.26C424.45 255.2 424.83 254.64 425.04 253.73C425.165 252.532 425.145 251.323 424.98 250.13C424.87 247.67 424.83 245.2 424.92 242.73C425.037 238.131 425.634 233.556 426.7 229.08C426.707 229.055 426.723 229.034 426.743 229.018C426.764 229.003 426.789 228.994 426.815 228.994C426.841 228.994 426.866 229.003 426.887 229.018C426.908 229.034 426.923 229.055 426.93 229.08C426.068 235.375 425.683 241.727 425.78 248.08C425.87 251.14 426.85 255.85 423.65 255.93C420.45 256.01 419.22 248.2 419.08 246.08C418.785 240.07 419.265 234.047 420.51 228.16Z" fill="#020100"/>
<path opacity="0.2" d="M423.67 255.57C423.906 256.39 424.083 257.225 424.2 258.07C424.36 258.724 424.397 259.402 424.31 260.07C424.31 260.19 424.11 260.18 424.05 260.07C423.748 259.438 423.542 258.764 423.44 258.07C423.25 257.3 423.04 256.53 422.88 255.75C422.873 255.652 422.901 255.556 422.96 255.477C423.018 255.399 423.102 255.343 423.198 255.322C423.293 255.3 423.393 255.313 423.48 255.359C423.566 255.404 423.634 255.479 423.67 255.57Z" fill="#020100"/>
<path opacity="0.2" d="M435.62 410.9C435.69 409.9 435.78 408.96 435.88 407.99C436.07 406.14 436.3 404.29 436.51 402.44C436.93 398.71 437.42 395 437.92 391.29C438.92 383.89 440.13 376.5 441.41 369.15C442.14 364.99 443.01 360.88 443.93 356.76C443.99 356.48 444.39 356.6 444.35 356.88C443.83 360.63 443.35 364.39 442.73 368.13C442.11 371.87 441.52 375.59 440.94 379.32C439.79 386.7 438.74 394.09 437.59 401.47C437.27 403.56 436.98 405.65 436.66 407.73C436.51 408.73 436.34 409.81 436.16 410.84C435.98 411.87 435.71 412.9 435.58 413.94C435.58 414.03 435.43 413.99 435.44 413.94C435.56 412.9 435.51 411.89 435.62 410.9Z" fill="#020100"/>
<path opacity="0.2" d="M407.32 347.66C408.43 340.92 410.01 334.26 411.59 327.66C414.79 314.31 418.64 301.13 422.49 287.95C423.59 284.15 424.697 280.353 425.81 276.56C426.36 274.66 429.04 264.44 429.39 263.46C429.39 263.439 429.398 263.419 429.413 263.404C429.428 263.389 429.449 263.38 429.47 263.38C429.491 263.38 429.511 263.389 429.526 263.404C429.541 263.419 429.55 263.439 429.55 263.46C428.8 266.94 427.78 272.01 426.89 275.46C426 278.91 425.05 282.25 424.12 285.64C422.29 292.31 420.43 298.97 418.67 305.64C415.18 318.85 411.67 332.06 408.97 345.45C408.21 349.21 407.44 352.95 406.75 356.72C406.06 360.49 403.95 369.82 403.3 373.59C403.3 373.614 403.29 373.637 403.274 373.654C403.257 373.671 403.234 373.68 403.21 373.68C403.186 373.68 403.163 373.671 403.146 373.654C403.129 373.637 403.12 373.614 403.12 373.59C403.51 366.76 406.21 354.41 407.32 347.66Z" fill="#020100"/>
<path opacity="0.2" d="M433.6 381.75C435.37 368.92 437.6 356.14 440.08 343.43C442.56 330.72 445.45 317.95 448.64 305.33C451.83 292.71 455.41 280.19 459.3 267.77C461.27 261.915 462.889 255.948 464.15 249.9C465.27 243.9 465.72 237.43 464.15 231.47C463.748 229.957 463.233 228.476 462.61 227.04C462.61 226.94 462.71 226.85 462.76 226.95C468 238.07 465.29 250.54 461.99 261.8C460.19 267.97 458.24 274.1 456.46 280.28C454.64 286.62 452.903 292.987 451.25 299.38C447.97 312.04 444.96 324.77 442.31 337.58C439.66 350.39 437.36 363.26 435.39 376.19C433.42 389.12 431.82 402.19 430.2 415.19C429.99 416.88 429.84 418.58 429.68 420.28C429.68 420.38 429.52 420.38 429.53 420.28C430.6 407.41 431.83 394.57 433.6 381.75Z" fill="#020100"/>
<path d="M469.06 235.73C468.92 235.87 411.12 233.06 410.62 232.44C410.36 232.11 410.62 222.2 414.95 210.94C422.11 192.48 435.46 168.59 439.39 163.94C440.75 162.36 448.84 160.54 453.26 164.56C462.63 173.1 466.69 197.85 468.1 206.27C470.58 221.07 469.56 235.21 469.06 235.73Z" fill="#37474F"/>
<path d="M423.51 191.76L465.72 193.76C465.1 190.94 464.37 187.94 463.5 184.95L427.86 183.28C426.43 186 424.95 188.83 423.51 191.76Z" fill="#455A64"/>
<path d="M420.34 198.39L467.1 200.57C466.93 199.57 466.73 198.57 466.52 197.5L421.74 195.41C421.27 196.39 420.8 197.39 420.34 198.39Z" fill="#455A64"/>
<path d="M439.51 166.39C437.11 170.03 428.31 182.7 422.99 192.02C419.43 198.27 417.4 203.72 416.62 205.1C416.62 205.1 435.62 202.54 439.23 203.31C444.76 204.5 449.29 220.6 446.8 221.57C442.88 223.11 424.8 225.57 411.23 225.19C403.87 224.98 392.48 213.08 395.08 206.19C398.74 196.47 422.63 173.93 431.16 167.93C435.62 164.78 442.45 162 439.51 166.39Z" fill="#AD6359"/>
<path d="M393.68 208.07C392.45 215.38 400.18 223.43 405.35 224.89C414.28 227.4 443.15 225.38 443.15 225.38L437 202.76C437 202.76 417.17 205.02 416.66 205.1C416.94 204.6 425.21 188.48 428.47 183.25C428.65 182.96 428.84 182.67 429.03 182.35C429.96 180.91 431.21 179.01 432.59 176.96L434.94 173.48C438.37 168.42 441.69 163.62 441.69 163.62C438.47 163.45 435.05 164.42 428.86 168.62C422.67 172.82 395.72 196 393.68 208.07Z" fill="#37474F"/>
<path d="M426.56 204L432.56 226C429.79 226.09 426.72 226.18 423.61 226.21L417.82 205L426.56 204ZM430.3 203.57L436.38 225.81L439.49 225.65L433.35 203.21C432.44 203.28 431.4 203.39 430.3 203.52V203.57Z" fill="#455A64"/>
<path d="M437.24 219.17C436.83 217.56 436.41 215.96 435.99 214.35C435.57 212.74 435.16 211.2 434.74 209.63C434.245 208.009 433.835 206.364 433.51 204.7C433.51 204.7 433.51 204.7 433.57 204.7C434.185 206.189 434.706 207.716 435.13 209.27C435.597 210.857 436.05 212.457 436.49 214.07C436.93 215.64 437.33 217.22 437.72 218.8C438.169 220.442 438.504 222.112 438.72 223.8C438.72 223.816 438.714 223.831 438.702 223.843C438.691 223.854 438.676 223.86 438.66 223.86C438.644 223.86 438.629 223.854 438.618 223.843C438.606 223.831 438.6 223.816 438.6 223.8C438.065 222.282 437.611 220.736 437.24 219.17Z" fill="#263238"/>
<path d="M410.36 206.87L416.65 205.1C416.93 204.6 425.2 188.48 428.46 183.25C428.64 182.96 428.83 182.67 429.02 182.35C429.95 180.91 431.2 179.01 432.58 176.96L410.36 206.87Z" fill="#263238"/>
<path d="M405.15 208.34C406.987 207.521 408.874 206.819 410.8 206.24C411.753 205.937 412.721 205.683 413.7 205.48C414.7 205.26 415.81 205.17 416.84 204.95C416.92 204.95 416.95 205.06 416.84 205.07C415.84 205.28 414.92 205.65 413.96 205.93C413 206.21 411.96 206.5 410.96 206.77C409.01 207.29 407.07 207.88 405.12 208.42C405.14 208.44 405.11 208.36 405.15 208.34Z" fill="#263238"/>
<path d="M411.05 225.78L419.05 225.88C421.72 225.88 424.4 225.95 427.05 225.88C429.7 225.81 432.4 225.88 435.05 225.77C437.7 225.66 440.39 225.54 443.05 225.35C440.404 225.834 437.733 226.168 435.05 226.35C432.37 226.55 429.69 226.6 427.05 226.64C424.41 226.68 421.69 226.58 419.05 226.43C416.41 226.28 413.71 226.12 411.05 225.78Z" fill="#263238"/>
<path d="M410.36 206.87C411.77 207.2 417.98 205.55 419.56 207.87C426.12 217.68 426.93 215.34 428.35 216.62C439.29 226.52 456.95 235.83 462.9 237.17C471.9 239.17 477.17 232.4 477.22 224.91C477.32 210.1 464.22 178.34 457.15 169.12C453.41 164.24 452.5 170.18 453.02 176.96C453.32 180.96 454.02 186.96 454.86 192.8C455.57 198.03 457.53 211.45 457.55 211.8C457.55 211.8 457.55 211.8 457.45 211.8C457.07 211.64 447.45 204.29 437.32 199.19C433.74 197.39 426.15 194.29 423.05 194.94C422.526 195.037 422.028 195.242 421.589 195.544C421.149 195.845 420.778 196.236 420.5 196.69C419.483 196.51 418.435 196.65 417.5 197.09C416.789 197.624 416.289 198.393 416.09 199.26C415.227 199.303 414.388 199.561 413.65 200.01C412.51 200.83 412.83 203.01 412.83 203.01C410.09 203.3 410.36 206.87 410.36 206.87Z" fill="#AD6359"/>
<path d="M423.75 197.17C424.875 197.451 425.975 197.822 427.04 198.28C427.056 198.28 427.071 198.286 427.082 198.298C427.094 198.309 427.1 198.324 427.1 198.34C427.1 198.356 427.094 198.371 427.082 198.382C427.071 198.394 427.056 198.4 427.04 198.4C425.97 198.04 424.86 197.77 423.77 197.5C422.68 197.23 421.56 196.96 420.46 196.74C421.568 196.78 422.669 196.924 423.75 197.17Z" fill="#263238"/>
<path d="M416.05 199.29C418.112 199.095 420.192 199.358 422.14 200.06C422.156 200.06 422.171 200.067 422.182 200.078C422.194 200.089 422.2 200.104 422.2 200.12C422.2 200.136 422.194 200.151 422.182 200.163C422.171 200.174 422.156 200.18 422.14 200.18C420.161 199.64 418.121 199.357 416.07 199.34C416.07 199.34 416.03 199.29 416.05 199.29Z" fill="#263238"/>
<path d="M412.88 203C414.828 202.629 416.834 202.683 418.76 203.16C418.84 203.16 418.84 203.3 418.76 203.29C416.813 203.054 414.849 202.987 412.89 203.09L412.88 203Z" fill="#263238"/>
<path d="M437.82 199.47C438.738 199.832 439.636 200.243 440.51 200.7C441.44 201.16 442.36 201.64 443.25 202.16C445.025 203.216 446.741 204.368 448.39 205.61C448.45 205.61 448.39 205.76 448.32 205.71C446.59 204.65 444.83 203.63 443.07 202.62C442.2 202.13 441.34 201.62 440.48 201.11C439.62 200.6 438.66 200.11 437.8 199.59C437.71 199.55 437.75 199.45 437.82 199.47Z" fill="#263238"/>
<path d="M444.85 203.12C444.01 202.561 443.094 202.126 442.13 201.83L426.76 218.38C426.76 218.38 455.32 236.25 461.54 238.29C463.232 238.803 465.011 238.964 466.768 238.766C468.524 238.568 470.222 238.013 471.757 237.136C473.292 236.259 474.632 235.078 475.695 233.665C476.758 232.253 477.522 230.638 477.94 228.92C480.54 217.73 468.09 186.81 461.14 174.39C457.96 168.69 453.79 164.16 452.36 164.67C450.68 165.27 452.07 171.86 452.52 176.67C453.34 185.51 457.45 211.87 457.45 211.87C457.45 211.87 447.04 204.43 444.85 203.12Z" fill="#37474F"/>
<path d="M451.51 207.64L452.12 208.07C454.18 209.54 456.93 211.63 458.52 212.86L444 228.86C441.37 227.3 438.75 225.72 436.39 224.29L451.51 207.64ZM430.51 220.71L433.14 222.31L448.42 205.5C447.42 204.82 446.56 204.22 445.88 203.77L430.51 220.71Z" fill="#455A64"/>
<path d="M442.23 201.83C443.95 202.31 450.93 206.58 454.29 208.97C457.642 211.337 460.762 214.016 463.61 216.97C465.22 218.65 466.71 220.42 468.16 222.23C468.21 222.29 468.16 222.37 468.07 222.31C462.476 216.333 456.261 210.97 449.53 206.31C447.59 205.03 444.23 203.01 442.28 202.02C441.73 201.75 442.18 201.82 442.23 201.83Z" fill="#263238"/>
<path d="M453.26 186.83C453.57 187.7 453.88 188.56 454.11 189.45V189.57C453.91 187.624 453.737 185.67 453.59 183.71C453.59 183.59 453.78 183.57 453.8 183.71C455 191.03 455.99 198.39 456.9 205.71C457.16 207.77 457.33 209.83 457.52 211.89C457.52 211.906 457.514 211.921 457.503 211.933C457.491 211.944 457.476 211.95 457.46 211.95C457.444 211.95 457.429 211.944 457.418 211.933C457.406 211.921 457.4 211.906 457.4 211.89C457.02 210.07 456.64 208.26 456.34 206.43C456.04 204.6 455.78 202.76 455.52 200.93C455.067 197.717 454.663 194.5 454.31 191.28C454.11 190.69 453.9 190.09 453.72 189.49C453.45 188.62 453.27 187.72 453.08 186.83C453.08 186.806 453.09 186.783 453.106 186.767C453.123 186.75 453.146 186.74 453.17 186.74C453.194 186.74 453.217 186.75 453.234 186.767C453.251 186.783 453.26 186.806 453.26 186.83Z" fill="#263238"/>
<path d="M434.97 215.57C436.097 214.35 437.22 213.123 438.34 211.89C439.45 210.7 440.54 209.49 441.63 208.28C442.725 206.997 443.887 205.772 445.11 204.61C445.11 204.61 445.17 204.61 445.11 204.61C444.192 205.939 443.19 207.209 442.11 208.41C441.03 209.67 439.933 210.92 438.82 212.16C437.707 213.4 436.607 214.6 435.52 215.76C434.388 217.019 433.169 218.195 431.87 219.28C431.859 219.293 431.844 219.302 431.827 219.304C431.81 219.306 431.793 219.301 431.78 219.29C431.767 219.279 431.758 219.264 431.756 219.247C431.754 219.23 431.759 219.213 431.77 219.2C432.771 217.934 433.84 216.723 434.97 215.57Z" fill="#263238"/>
<path d="M426.3 218.32C427.63 216.69 429.48 215.19 430.93 213.68C430.99 213.62 431.07 213.68 431.02 213.77C429.69 215.2 428.41 216.77 427.11 218.24C430.99 220.92 435.11 223.47 439.17 225.95C443.23 228.43 447.44 230.95 451.7 233.25C454.08 234.54 456.45 235.88 458.86 237.11C459.01 237.18 458.94 237.3 458.78 237.24C454.395 235.317 450.13 233.13 446.01 230.69C441.78 228.27 437.65 225.69 433.55 223.05C431.25 221.57 426.19 218.46 426.3 218.32Z" fill="#263238"/>
<path d="M456.98 197.15C456.98 197.15 468.21 197.28 473.12 199.45C478.03 201.62 485.47 209.18 487.42 214.77C489.37 220.36 490.07 269.92 489.78 271.44C489.49 272.96 484.92 277.44 484.88 278.15C484.84 278.86 484.05 289.31 483.6 290.15C483.15 290.99 472.09 290.54 471.72 289.49C471.451 288.511 471.296 287.505 471.26 286.49C471.12 285.28 466.94 282.07 465.91 278.88C464.88 275.69 470.02 228.49 468.78 224.25C466.24 215.5 456.98 211.38 456.98 211.38V197.15Z" fill="#FFC727"/>
<path opacity="0.2" d="M456.98 197.15C456.98 197.15 468.21 197.28 473.12 199.45C478.03 201.62 485.47 209.18 487.42 214.77C489.37 220.36 490.07 269.92 489.78 271.44C489.49 272.96 484.92 277.44 484.88 278.15C484.84 278.86 484.05 289.31 483.6 290.15C483.15 290.99 472.09 290.54 471.72 289.49C471.451 288.511 471.296 287.505 471.26 286.49C471.12 285.28 466.94 282.07 465.91 278.88C464.88 275.69 470.02 228.49 468.78 224.25C466.24 215.5 456.98 211.38 456.98 211.38V197.15Z" fill="#020100"/>
<g opacity="0.1">
<path opacity="0.1" d="M488.03 274.16C486.62 275.87 484.91 277.72 484.88 278.16C484.44 272.62 484.57 243.29 484.88 241.67C485.21 240.36 487.22 264.27 488.03 274.16Z" fill="#020100"/>
<path opacity="0.1" d="M471.27 286.4C471.18 285.71 469.75 284.33 468.35 282.68C469.29 275.27 471.84 256.16 472.95 256.2C474.38 256.23 470.88 279.8 471.27 286.4Z" fill="#020100"/>
<path opacity="0.1" d="M487.18 231.77C485.56 233.51 486.59 245.04 487.18 244.94C487.77 244.84 488.04 230.85 487.18 231.77Z" fill="#020100"/>
</g>
<path d="M438.1 199.55C443.078 202.129 447.912 204.976 452.58 208.08L452.79 208.21C455.22 209.83 456.7 210.96 457.08 211.11H457.17C457.464 210.98 457.773 210.886 458.09 210.83C458.9 210.73 466.3 211.39 466.6 209.12C466.9 206.85 463.94 206.38 463.5 206.31C463.99 206.31 468.09 206.24 467.24 204.02C466.64 202.44 462.73 201.8 462.34 201.73C462.76 201.73 466.6 201.3 465.8 199.04C465.23 197.42 460.87 196.67 460.35 196.65C460.79 196.58 464.1 196.74 462.98 194.65C462.2 193.23 453.81 192.65 449.8 193.7C443.84 195.23 438.1 199.55 438.1 199.55Z" fill="#AD6359"/>
<path d="M452.58 208.08L452.79 208.21C456.141 206.883 459.728 206.254 463.33 206.36C463.56 206.36 463.61 206.25 463.33 206.21C459.64 205.72 455.888 206.373 452.58 208.08Z" fill="#263238"/>
<path d="M462.13 201.8C456.79 201.71 454.23 202.34 449.21 204.18C449.14 204.18 449.09 204.1 449.16 204.07C453.94 201.89 456.82 200.92 462.16 201.66C462.35 201.7 462.37 201.81 462.13 201.8Z" fill="#263238"/>
<path d="M460.17 196.68C454.97 196.92 452.17 197.49 447.48 199.83C447.47 199.84 447.458 199.847 447.445 199.851C447.433 199.856 447.419 199.857 447.405 199.855C447.392 199.854 447.379 199.849 447.367 199.841C447.356 199.834 447.346 199.824 447.339 199.812C447.332 199.801 447.328 199.788 447.327 199.774C447.326 199.76 447.328 199.747 447.333 199.734C447.337 199.721 447.345 199.71 447.355 199.701C447.365 199.691 447.377 199.684 447.39 199.68C451.129 197.136 455.657 196.018 460.15 196.53C460.51 196.56 460.51 196.66 460.17 196.68Z" fill="#263238"/>
<path d="M438.51 174.85C441.9 176.1 449.35 171.13 452.23 167.09C452.43 166.82 452.35 163.64 452.43 159.77C452.5 157.43 452.62 154.77 452.9 152.44L437.58 154.28C438.075 157.348 438.193 160.464 437.93 163.56C437.89 163.9 437.816 164.235 437.71 164.56C437.71 164.56 437.71 164.66 437.71 164.72C437.14 166.5 435.23 173.65 438.51 174.85Z" fill="#AD6359"/>
<path d="M437.71 164.53C437.707 164.58 437.707 164.63 437.71 164.68C438.208 164.813 438.717 164.903 439.23 164.95C447.87 165.79 451.16 155.49 451.91 152.57L448.08 153.03L437.62 154.28C438.115 157.348 438.229 160.465 437.96 163.56C437.911 163.891 437.827 164.216 437.71 164.53Z" fill="#263238"/>
<path d="M455.77 135.27C456.77 140.86 452.05 156.08 447.77 159.09C441.6 163.46 432.45 162.84 428.97 155.65C425.61 148.65 432.11 128.94 436.77 126.3C443.67 122.41 454.3 127 455.77 135.27Z" fill="#AD6359"/>
<path d="M439.31 143.19C439.31 143.19 439.38 143.26 439.36 143.3C439.02 144.3 438.79 145.54 439.62 146.17V146.22C438.51 145.72 438.82 144.1 439.31 143.19Z" fill="#263238"/>
<path d="M440.56 142.39C442.25 142.77 441.37 146.12 439.8 145.77C438.23 145.42 439.14 142.08 440.56 142.39Z" fill="#263238"/>
<path d="M433.56 141.58C433.56 141.58 433.47 141.58 433.46 141.65C433.22 142.65 432.77 143.85 431.74 143.95V144.01C432.92 144.15 433.51 142.61 433.56 141.58Z" fill="#263238"/>
<path d="M432.92 140.25C431.28 139.68 430.27 143 431.79 143.52C433.31 144.04 434.29 140.72 432.92 140.25Z" fill="#263238"/>
<path d="M442.28 141.21C441.86 140.97 441.5 140.69 441.1 140.41C440.7 140.13 440.27 139.9 440.1 139.41C440.056 139.254 440.066 139.087 440.127 138.937C440.189 138.786 440.299 138.661 440.44 138.58C440.741 138.46 441.068 138.422 441.388 138.471C441.708 138.52 442.009 138.655 442.26 138.86C442.832 139.196 443.257 139.735 443.45 140.37C443.485 140.52 443.475 140.677 443.42 140.821C443.366 140.965 443.27 141.09 443.145 141.18C443.02 141.27 442.871 141.321 442.717 141.326C442.563 141.331 442.411 141.291 442.28 141.21Z" fill="#263238"/>
<path d="M432.07 138.22C432.543 138.25 433.017 138.25 433.49 138.22C433.99 138.295 434.5 138.2 434.94 137.95C435.065 137.847 435.151 137.706 435.186 137.548C435.22 137.39 435.2 137.225 435.13 137.08C434.948 136.813 434.699 136.599 434.407 136.46C434.115 136.321 433.792 136.262 433.47 136.29C432.807 136.242 432.15 136.446 431.63 136.86C431.516 136.961 431.435 137.092 431.395 137.238C431.355 137.385 431.358 137.54 431.405 137.684C431.452 137.828 431.54 137.956 431.658 138.051C431.776 138.146 431.919 138.205 432.07 138.22Z" fill="#263238"/>
<path d="M438.06 152.93C437.75 153.11 437.41 153.38 437.06 153.31C436.693 153.196 436.353 153.009 436.06 152.76C436.06 152.76 435.99 152.76 436 152.76C436.095 153.003 436.254 153.216 436.46 153.376C436.666 153.536 436.911 153.638 437.17 153.67C437.397 153.668 437.618 153.6 437.806 153.474C437.995 153.348 438.142 153.169 438.23 152.96C438.18 153 438.11 152.9 438.06 152.93Z" fill="#263238"/>
<path d="M434.22 150.17C434.546 150.823 435.035 151.381 435.64 151.79C435.977 152.003 436.372 152.104 436.77 152.08C437.64 152.02 437.77 151.27 437.77 150.59C437.753 150.231 437.693 149.875 437.59 149.53C436.565 150.101 435.383 150.326 434.22 150.17Z" fill="#263238"/>
<path d="M435.64 151.79C435.977 152.003 436.372 152.104 436.77 152.08C437.64 152.02 437.77 151.27 437.77 150.59C437.332 150.526 436.886 150.61 436.5 150.827C436.115 151.044 435.812 151.383 435.64 151.79Z" fill="#FF98B9"/>
<path d="M453.89 149.49C454.54 148.15 460.97 133.63 460.89 131.9C460.8 130.33 459.04 130.64 459.03 130.55C459.02 130.46 459.22 129.08 458.46 128.41C458.191 128.235 457.889 128.117 457.572 128.064C457.256 128.01 456.931 128.023 456.62 128.1C456.62 128.1 456.62 126.61 455.78 126.1C455.498 125.941 455.179 125.857 454.855 125.857C454.531 125.857 454.212 125.941 453.93 126.1C453.917 125.699 453.807 125.307 453.608 124.958C453.41 124.61 453.129 124.315 452.79 124.1C452.481 123.948 452.131 123.9 451.792 123.963C451.453 124.026 451.144 124.197 450.91 124.45C450.91 124.45 450.78 122.99 449.91 122.55C449.04 122.11 448 122.98 448 122.98C448 122.98 447.7 121.63 446.55 121.4C446.18 121.365 445.808 121.441 445.482 121.619C445.155 121.798 444.89 122.07 444.72 122.4C444.72 122.4 444.26 121.06 443.18 120.83C442.1 120.6 441.48 121.83 441.48 121.83C441.48 121.83 441.26 120.55 440.23 120.44C439.2 120.33 438.69 121.71 438.69 121.71C438.69 121.71 438.36 120.28 437.09 120.45C435.14 120.71 433.29 129.45 432.17 133.23C432.17 133.23 433.02 131.49 433.81 131.57C434.6 131.65 434.97 132.99 436.36 133.57C438.36 134.41 442.26 132.57 445.01 133.75C447.76 134.93 449.21 138.15 449.41 142.75C449.59 147.86 452.34 152.66 453.89 149.49Z" fill="#263238"/>
<path d="M436.32 144C436.207 144.999 436.421 146.008 436.929 146.875C437.438 147.742 438.213 148.421 439.14 148.81C439.497 148.968 439.874 149.076 440.26 149.13C441.122 149.26 442.004 149.145 442.804 148.799C443.605 148.452 444.292 147.888 444.787 147.171C445.283 146.453 445.567 145.611 445.608 144.74C445.649 143.869 445.444 143.004 445.018 142.243C444.591 141.482 443.96 140.856 443.195 140.437C442.431 140.017 441.564 139.821 440.693 139.869C439.822 139.918 438.983 140.21 438.27 140.712C437.557 141.214 436.999 141.907 436.66 142.71C436.484 143.121 436.369 143.556 436.32 144ZM437.23 143C437.574 142.17 438.187 141.48 438.971 141.041C439.754 140.602 440.663 140.44 441.55 140.58C441.894 140.624 442.231 140.715 442.55 140.85C443.273 141.163 443.887 141.683 444.316 142.344C444.745 143.005 444.969 143.778 444.96 144.566C444.951 145.354 444.709 146.122 444.266 146.773C443.822 147.424 443.196 147.929 442.466 148.226C441.736 148.523 440.935 148.597 440.163 148.44C439.391 148.283 438.682 147.902 438.126 147.343C437.57 146.785 437.191 146.075 437.037 145.303C436.883 144.53 436.961 143.729 437.26 143H437.23Z" fill="#FFC727"/>
<path d="M439.38 148.28C439.868 148.486 440.393 148.594 440.923 148.598C441.453 148.601 441.979 148.5 442.47 148.301C442.961 148.101 443.409 147.807 443.786 147.434C444.163 147.062 444.464 146.619 444.67 146.13C444.876 145.642 444.984 145.117 444.988 144.587C444.991 144.057 444.89 143.531 444.691 143.04C444.491 142.549 444.196 142.102 443.824 141.724C443.452 141.347 443.008 141.046 442.52 140.84C442.201 140.705 441.864 140.614 441.52 140.57C440.498 140.282 439.403 140.413 438.476 140.932C437.55 141.452 436.868 142.318 436.58 143.34C436.292 144.363 436.422 145.457 436.942 146.384C437.461 147.31 438.328 147.992 439.35 148.28H439.38Z" fill="#263238"/>
<path d="M429.65 146.23C429.748 146.26 429.848 146.28 429.95 146.29C431.72 146.56 433.59 144.99 434.23 142.65C434.553 141.535 434.522 140.347 434.14 139.25C433.986 138.783 433.725 138.359 433.378 138.012C433.031 137.665 432.607 137.404 432.14 137.25C431.658 137.134 431.154 137.137 430.674 137.259C430.193 137.381 429.749 137.618 429.38 137.95C428.483 138.695 427.849 139.708 427.57 140.84C426.85 143.3 427.8 145.72 429.65 146.23ZM428.13 141C428.388 139.997 428.95 139.099 429.74 138.43C430.01 138.19 430.328 138.008 430.672 137.898C431.017 137.788 431.38 137.751 431.74 137.79C431.815 137.803 431.889 137.823 431.96 137.85C432.342 137.971 432.688 138.182 432.97 138.466C433.252 138.75 433.462 139.098 433.58 139.48C433.91 140.449 433.934 141.496 433.65 142.48C433.07 144.63 431.35 146.04 429.83 145.63C428.31 145.22 427.51 143.13 428.13 141Z" fill="#FFC727"/>
<path d="M429.81 145.63C431.33 146.04 433.05 144.63 433.63 142.48C433.914 141.497 433.89 140.449 433.56 139.48C433.442 139.098 433.232 138.75 432.95 138.466C432.668 138.182 432.322 137.971 431.94 137.85C431.869 137.823 431.795 137.803 431.72 137.79C431.36 137.751 430.997 137.788 430.652 137.898C430.308 138.009 429.99 138.19 429.72 138.43C428.93 139.099 428.368 139.997 428.11 141C427.51 143.13 428.3 145.22 429.81 145.63Z" fill="#263238"/>
<path d="M436.67 143.31L437.18 142.95C436.65 142.19 435.29 140.95 433.87 141.87L434.19 142.4C435.51 141.61 436.62 143.24 436.67 143.31Z" fill="#FFC727"/>
<path d="M456.38 150L456.99 149.87C456.93 149.58 456.36 147.07 455.08 146.49C453.8 145.91 445.62 144.49 445.27 144.43L445.16 145.05C447.53 145.46 453.9 146.63 454.82 147.05C455.74 147.47 456.24 149.26 456.38 150Z" fill="#FFC727"/>
<path d="M450.44 147.5C450.44 147.5 454.66 142.98 456.76 144.55C458.86 146.12 455.2 153.03 452.38 153.65C452.023 153.754 451.648 153.784 451.279 153.738C450.91 153.693 450.554 153.573 450.232 153.386C449.91 153.199 449.63 152.949 449.408 152.651C449.186 152.352 449.027 152.012 448.94 151.65L450.44 147.5Z" fill="#AD6359"/>
<path d="M455.66 146.5V146.58C453.66 147.07 452.44 148.67 451.5 150.38C451.634 150.207 451.805 150.065 451.999 149.965C452.194 149.864 452.408 149.807 452.627 149.798C452.846 149.788 453.064 149.826 453.266 149.91C453.469 149.993 453.651 150.119 453.8 150.28C453.809 150.289 453.816 150.302 453.817 150.315C453.819 150.329 453.816 150.342 453.809 150.354C453.802 150.365 453.792 150.374 453.779 150.379C453.767 150.384 453.753 150.384 453.74 150.38C453.425 150.227 453.07 150.175 452.724 150.232C452.378 150.29 452.059 150.453 451.81 150.7C451.398 151.115 451.032 151.575 450.72 152.07C450.61 152.22 450.32 152.07 450.41 151.91C450.73 149.47 453.06 146.38 455.66 146.5Z" fill="#263238"/>
</g>
<defs>
<clipPath id="clip0">
<rect width="641.02" height="467.4" fill="white"/>
</clipPath>
</defs>
</svg>
