<svg width="136" height="154" viewBox="0 0 136 154" fill="none" xmlns="http://www.w3.org/2000/svg">
<path d="M55.5135 87.9043C55.5135 87.9043 42.108 96.3678 49.3923 109.208C56.6766 122.047 107.107 118.538 81.1616 87.9043C59.7722 62.6012 55.5135 87.9043 55.5135 87.9043Z" fill="#DAC061"/>
<path d="M104.623 55.2317C104.623 55.2317 98.7908 62.2336 99.9538 69.2355C101.633 79.3095 86.2597 92.578 70.5193 88.2018C54.7789 83.8257 71.6823 54.3565 71.6823 54.3565L104.623 55.2317Z" fill="#DAC061"/>
<path d="M31.0284 55.2317C31.0284 55.2317 36.8611 62.2336 35.6893 69.2355C34.0454 79.3095 49.3922 92.578 65.1326 88.2018C80.873 83.8257 63.9696 54.3565 63.9696 54.3565L31.0284 55.2317Z" fill="#DAC061"/>
<path d="M71.0702 77.2702C78.3312 77.5006 85.5377 75.9438 92.0574 72.7364C95.1895 71.0821 97.8863 68.7099 99.9276 65.8133C100.583 60.1243 104.641 55.2317 104.641 55.2317L71.6998 54.3565C71.6998 54.3565 64.5292 66.8548 63.8821 76.78C66.268 77.0681 68.6673 77.2317 71.0702 77.2702Z" fill="#F5DC7E"/>
<path d="M35.8555 68.0102C46.7131 73.7993 58.7717 76.9702 71.0702 77.2702H71.8485C71.4025 67.275 63.9783 54.3652 63.9783 54.3652L31.0284 55.2317C31.0284 55.2317 36.2752 61.4371 35.8555 68.0102Z" fill="#F5DC7E"/>
<path d="M85.4552 102.503C78.0398 98.4596 80.0598 78.8718 80.0598 78.8718L68.9541 79.572V78.8543L67.756 79.2394L66.5668 78.8806V79.572L55.5135 78.8806C55.5135 78.8806 57.5335 98.4596 50.1181 102.512C42.7026 106.564 -2.87454 108.586 1.83883 153.81H133.734C138.457 108.577 92.8794 106.556 85.4552 102.503Z" fill="#FFAC9D"/>
<path d="M53.9132 97.4531C62.7861 96.1286 71.6532 94.7632 80.5145 93.357C79.7719 88.5683 79.6192 83.7065 80.0597 78.8806L68.954 79.572V78.8543L67.756 79.2394L66.5667 78.8806V79.572L55.5135 78.8806C55.5135 78.8806 56.6415 90.2586 53.9132 97.4531Z" fill="#CC887F"/>
<path d="M100.54 105.987C94.0512 111.877 84.4671 115.956 73.5275 117.006L67.6423 138.213L64.5205 117.207C52.6715 116.516 42.2304 112.297 35.3046 106.013C19.9053 110.932 -2.59475 121.636 0.754458 153.792H135.09C138.448 121.636 115.948 110.932 100.54 105.987Z" fill="#19116A"/>
<path d="M65.325 122.581L64.5205 117.207C52.6715 116.516 42.2304 112.297 35.3046 106.013C32.5279 106.896 29.8013 107.931 27.1371 109.111C32.5937 116.516 47.4684 121.986 65.325 122.581Z" fill="#B1BDD6"/>
<path d="M109.617 109.496C106.669 108.135 103.637 106.966 100.54 105.995C94.0512 111.886 84.467 115.964 73.5275 117.015L71.9884 122.581C89.4078 121.951 103.95 116.691 109.617 109.496Z" fill="#B1BDD6"/>
<path d="M66.3044 143.368C66.3044 143.853 66.448 144.326 66.7171 144.729C66.9861 145.132 67.3685 145.447 67.816 145.632C68.2634 145.818 68.7557 145.866 69.2306 145.772C69.7056 145.677 70.1419 145.444 70.4843 145.101C70.8267 144.758 71.0599 144.321 71.1544 143.846C71.2489 143.371 71.2004 142.878 71.0151 142.43C70.8298 141.982 70.5159 141.6 70.1133 141.33C69.7106 141.061 69.2372 140.917 68.753 140.917C68.1036 140.917 67.4808 141.175 67.0216 141.635C66.5624 142.095 66.3044 142.718 66.3044 143.368Z" fill="#B1BDD6"/>
<path d="M46.0518 50.2341C43.8657 43.4423 38.6888 44.9827 38.1816 45.1753C37.6744 45.3678 32.3315 46.0505 33.2497 53.1049C34.1678 60.1593 38.3216 64.0716 42.1867 62.9425C46.1655 62.3036 48.2467 57.0522 46.0518 50.2341Z" fill="#CC887F"/>
<path d="M89.6876 50.2341C91.8737 43.4423 97.0418 44.9827 97.5577 45.1753C98.0737 45.3678 103.417 46.0505 102.49 53.1049C101.563 60.1593 97.4091 64.0716 93.5439 62.9425C89.5651 62.3036 87.4839 57.0522 89.6876 50.2341Z" fill="#CC887F"/>
<path d="M40.7438 39.9501C43.4546 10.1921 66.0508 11.8638 68.1845 12.0913C70.3095 11.8638 92.9057 10.2008 95.6165 39.9501C98.3623 69.8744 85.0267 89.4184 68.1845 88.3244C51.3423 89.4184 38.0242 69.8744 40.7438 39.9501Z" fill="#FFAC9D"/>
<path d="M39.7731 45.6041C39.7731 45.6041 38.3128 84.7009 61.3462 89.0771C84.3796 93.4533 98.6509 74.1981 96.6134 43.5648L93.7014 43.2672C93.7014 43.2672 91.8038 74.1981 84.8081 74.4869C77.8124 74.7757 88.1573 64.8593 74.7518 64.2729C61.3462 63.6865 54.709 59.2228 53.6159 70.5483C52.8901 78.1366 43.5945 65.1481 42.3965 45.0177C41.1985 24.8873 39.7731 45.6041 39.7731 45.6041Z" fill="#F5DC7E"/>
<path d="M43.5333 54.0064C42.9617 51.0377 42.582 48.0353 42.3965 45.0177C41.2335 24.8873 39.7731 45.6041 39.7731 45.6041C39.7098 48.9742 39.8617 52.3449 40.2278 55.6956L43.5333 54.0064Z" fill="#CDB24F"/>
<path d="M96.6746 54.2602C96.9104 50.699 96.9104 47.126 96.6746 43.5648L93.7627 43.2672C93.7627 43.2672 93.5003 47.5034 92.8182 52.851L96.6746 54.2602Z" fill="#CDB24F"/>
<path d="M72.0759 43.4423C72.4519 44.8076 72.7405 46.1817 73.0028 47.5559C73.2652 48.93 73.4838 50.3216 73.6762 51.7045C73.7811 52.3959 73.851 53.0874 73.9385 53.7876C74.0259 54.4877 74.1046 55.1704 74.1659 55.8706C74.3145 57.2622 74.4195 58.6539 74.4982 60.0542V60.4306L74.2271 60.5969C73.3526 61.1483 72.4344 61.6734 71.525 62.1898C70.6155 62.7062 69.6886 63.2138 68.7267 63.6602C69.4962 62.9338 70.3007 62.2598 71.1052 61.5859C71.9097 60.912 72.7317 60.2731 73.5712 59.6341L73.3176 60.1855C73.0903 58.8027 72.8891 57.411 72.7317 56.0282C72.6443 55.328 72.5568 54.6365 72.4956 53.9451C72.4344 53.2537 72.347 52.5535 72.2945 51.8533C72.1808 50.4617 72.0934 49.0613 72.0497 47.6609C72.0059 46.2605 72.0059 44.8514 72.0759 43.4423Z" fill="#CC887F"/>
<path d="M89.4952 41.2367L88.8481 40.8778L88.1223 40.4752L87.2041 39.9938C86.863 39.8451 86.5133 39.6437 86.1197 39.495L85.5426 39.2324L84.9305 39.0136C84.5282 38.8298 84.056 38.7685 83.68 38.6197C83.2532 38.5292 82.8208 38.4677 82.3858 38.4359L81.7474 38.3747C81.5375 38.3747 81.3277 38.3747 81.1091 38.3747C80.6904 38.4032 80.275 38.4676 79.8673 38.5672C79.4563 38.6372 79.0803 38.8385 78.6955 38.9348L78.407 39.0223L78.1446 39.1624L77.6287 39.3987C77.3283 39.5326 77.0363 39.6846 76.7542 39.8538C76.4919 40.0201 76.247 40.1514 76.0459 40.2652C75.6349 40.484 75.3726 40.5978 75.3726 40.5978C75.3726 40.5978 75.4775 40.3527 75.7049 39.9326C75.8185 39.7225 75.9584 39.4687 76.1421 39.1886C76.3413 38.8663 76.5824 38.572 76.8592 38.3134C77.154 37.963 77.4918 37.6512 77.8648 37.3856C78.2607 37.0968 78.6822 36.8449 79.124 36.6329C79.3864 36.5279 79.6487 36.4404 79.9198 36.3441C80.2001 36.2354 80.4946 36.1677 80.7942 36.1428C81.0828 36.1428 81.3801 36.0553 81.6687 36.029H82.5432C83.138 36.076 83.7251 36.1935 84.2921 36.3791C84.5632 36.4754 84.8255 36.5979 85.0791 36.703C85.3339 36.8018 85.5773 36.928 85.8049 37.0793C86.0323 37.2193 86.2597 37.3506 86.4695 37.4907L87.0467 37.9545C87.39 38.2393 87.7116 38.5494 88.0086 38.8823C88.4535 39.3744 88.8381 39.918 89.1541 40.5015C89.2894 40.7359 89.4035 40.982 89.4952 41.2367Z" fill="#917614"/>
<path d="M61.3462 41.2367L60.6991 40.8778L59.9733 40.4752L59.0989 39.9938C58.7578 39.8451 58.408 39.6438 58.0233 39.495L57.4374 39.2324L56.834 39.0136C56.4317 38.8298 55.9595 38.7685 55.5748 38.6197C55.1336 38.5272 54.6866 38.4657 54.2368 38.4359L53.5897 38.3834C53.3798 38.3834 53.17 38.3834 52.9514 38.3834C52.5328 38.4127 52.1174 38.4771 51.7096 38.576C51.2986 38.646 50.9226 38.8473 50.5378 38.9436L50.2493 39.0311L49.9869 39.1711L49.471 39.4074C49.1565 39.5416 48.85 39.6935 48.5528 39.8626C48.2905 40.0289 48.0456 40.1601 47.8445 40.2739C47.4335 40.4927 47.1711 40.6065 47.1711 40.6065C47.1711 40.6065 47.2761 40.3615 47.5034 39.9413C47.6259 39.7313 47.7658 39.4775 47.9494 39.1974C48.1425 38.8733 48.381 38.5785 48.6577 38.3221C48.9525 37.9717 49.2904 37.66 49.6634 37.3944C50.0853 37.0857 50.5363 36.819 51.01 36.5979C51.2724 36.4929 51.5347 36.4054 51.8058 36.3091C52.0862 36.2004 52.3807 36.1326 52.6803 36.1078C52.9688 36.1078 53.2662 36.0203 53.5547 35.994H54.4292C55.0238 36.0426 55.6107 36.16 56.1781 36.3441C56.4405 36.4404 56.7028 36.5629 56.9564 36.668C57.2112 36.7668 57.4546 36.893 57.6822 37.0443C57.9096 37.1843 58.1369 37.3156 58.3468 37.4557L58.9327 37.9195C59.2715 38.2345 59.5898 38.5706 59.8859 38.9261C60.3257 39.4203 60.7071 39.9636 61.0227 40.5452C61.1496 40.7663 61.2578 40.9976 61.3462 41.2367Z" fill="#917614"/>
<path d="M60.4542 52.0108C60.4542 52.0108 60.393 51.7745 60.2531 51.3632C60.0662 50.8298 59.8382 50.3119 59.571 49.814C59.2095 49.1337 58.7089 48.5373 58.1019 48.0635C57.7739 47.8058 57.4 47.6128 57.0001 47.4946C56.8092 47.3891 56.6024 47.3152 56.3879 47.2758C56.1759 47.2273 55.9579 47.2096 55.7408 47.2233C55.531 47.2233 55.2686 47.2233 55.1025 47.2233C54.8723 47.2467 54.6443 47.2877 54.4204 47.3458C54.0373 47.4499 53.676 47.6218 53.3535 47.8535C53.0375 48.0971 52.7654 48.3932 52.549 48.7287C52.3386 49.0242 52.1598 49.341 52.0156 49.674C51.8059 50.2143 51.6506 50.7744 51.5521 51.3457C51.4822 51.7658 51.456 52.0108 51.456 52.0108C51.4046 51.7887 51.3666 51.5636 51.3423 51.3369C51.285 50.7257 51.3174 50.1094 51.4385 49.5077C51.5174 49.0903 51.6558 48.6865 51.8495 48.3086C52.0619 47.8669 52.359 47.4714 52.7239 47.1445C53.1348 46.7833 53.6222 46.52 54.1493 46.3743C54.3901 46.3045 54.6356 46.2519 54.8839 46.2168C55.1751 46.1987 55.4671 46.1987 55.7583 46.2168C56.0258 46.22 56.2923 46.2493 56.5541 46.3043C56.8246 46.3391 57.0892 46.4097 57.3411 46.5143C57.5952 46.5971 57.8366 46.715 58.0582 46.8644C58.2855 46.9939 58.4968 47.1496 58.6878 47.3283C59.3506 47.941 59.842 48.7164 60.1132 49.5777C60.3029 50.1437 60.4176 50.7322 60.4542 51.3281C60.4712 51.5554 60.4712 51.7836 60.4542 52.0108Z" fill="#352C38"/>
<path d="M85.7438 51.6082C85.7438 51.6082 85.6826 51.3632 85.5426 50.9606C85.3605 50.4085 85.1323 49.8727 84.8606 49.3589C84.5029 48.6786 84.0052 48.082 83.4002 47.6084C83.069 47.3557 82.6961 47.1632 82.2984 47.0395C82.0987 46.9633 81.89 46.9133 81.6775 46.8907C81.4641 46.8515 81.2473 46.8339 81.0304 46.8382C80.8178 46.8243 80.6046 46.8243 80.392 46.8382C80.1584 46.8574 79.9272 46.8984 79.7012 46.9607C79.3179 47.0598 78.9562 47.2289 78.6344 47.4596C78.3204 47.7056 78.0486 48.0012 77.8298 48.3349C77.6335 48.6467 77.4638 48.9746 77.3227 49.3151C77.1142 49.8523 76.9618 50.4095 76.8679 50.9781C76.8241 51.2009 76.792 51.4258 76.7717 51.652C76.7156 51.4279 76.6776 51.1996 76.6581 50.9693C76.5927 50.3587 76.6222 49.7417 76.7455 49.1401C76.8325 48.7249 76.9706 48.3222 77.1565 47.941C77.3691 47.502 77.6663 47.1094 78.031 46.7857C78.4436 46.4202 78.9341 46.1538 79.4651 46.0067C79.7057 45.9379 79.9513 45.8881 80.1997 45.8579C80.4731 45.8327 80.7482 45.8327 81.0216 45.8579C81.2925 45.852 81.5629 45.8814 81.8262 45.9455C82.0938 45.9803 82.3556 46.051 82.6044 46.1555C82.8617 46.2333 83.1062 46.3483 83.3302 46.4969C83.5542 46.6314 83.765 46.7867 83.9599 46.9607C84.6227 47.5734 85.1141 48.3488 85.3852 49.2101C85.5737 49.7765 85.6883 50.3648 85.7263 50.9606C85.7451 51.1759 85.751 51.3922 85.7438 51.6082Z" fill="#352C38"/>
<path d="M79.7012 69.0079C74.3232 74.2594 65.2113 73.953 58.3118 69.288L79.7012 69.0079Z" fill="white"/>
<path d="M68.6304 16.4325C68.6304 16.4325 52.3042 13.5092 49.6808 23.7232C47.0574 33.9372 50.8525 47.6434 38.8986 45.6041C38.8986 45.6041 30.2326 47.3546 35.768 61.0695C35.768 61.0695 19.3718 45.3153 28.9909 33.9372C36.7911 24.651 33.6518 4.46802 52.89 1.2559C72.1283 -1.95621 68.6304 12.634 68.6304 16.4325Z" fill="#76413B"/>
<path d="M68.6304 16.4325C68.6304 16.4325 52.3042 13.5092 49.6808 23.7232C47.0574 33.9372 50.8525 47.6434 38.8986 45.6041C38.8986 45.6041 30.2326 47.3546 35.768 61.0695C35.768 61.0695 19.3718 45.3153 28.9909 33.9372C36.7911 24.651 33.6518 4.46802 52.89 1.2559C72.1283 -1.95621 68.6304 12.634 68.6304 16.4325Z" fill="#F5DC7E"/>
<path d="M67.1002 16.4325C67.1002 16.4325 83.4177 13.5092 86.0411 23.7232C88.6645 33.9372 84.8781 47.6434 96.832 45.6041C96.832 45.6041 105.498 47.3546 99.9538 61.0695C99.9538 61.0695 116.359 45.3153 106.74 33.9372C98.8695 24.651 102.079 4.46802 82.8406 1.2559C63.6023 -1.95621 67.1002 12.634 67.1002 16.4325Z" fill="#F5DC7E"/>
<path d="M66.8291 14.0168C67.9747 14.0168 69.0502 14.0168 70.1521 14.1219C71.2539 14.2269 72.347 14.3407 73.4401 14.5245C75.6512 14.8789 77.8025 15.5387 79.8324 16.485C81.9813 17.4391 83.8179 18.9801 85.1317 20.9312C85.7656 21.9399 86.2129 23.0547 86.4521 24.2221C86.6558 25.3204 86.7815 26.4319 86.8281 27.548C86.9375 29.7055 86.9375 31.8672 86.8281 34.0247C86.7146 36.1296 86.7146 38.2391 86.8281 40.3439C86.8839 41.3634 87.054 42.3733 87.3353 43.3548C87.5896 44.2906 88.0736 45.1481 88.7432 45.8492C89.4759 46.5315 90.3845 46.9954 91.3666 47.1883C92.3807 47.4024 93.4194 47.476 94.4535 47.4071H94.5059C95.1522 47.511 95.7855 47.6841 96.3948 47.9235C97.0045 48.159 97.5762 48.4835 98.0912 48.8862C98.5848 49.2921 98.977 49.8076 99.2368 50.3916C99.4974 50.9798 99.6115 51.6226 99.5691 52.2647C99.5628 51.6349 99.4038 51.0162 99.1056 50.4617C98.796 49.9259 98.3683 49.468 97.8551 49.1226C97.3372 48.7888 96.775 48.5295 96.1849 48.3524C95.5996 48.1677 94.9953 48.0503 94.3835 48.0023H94.436C93.345 48.1509 92.239 48.1509 91.148 48.0023C90.0069 47.8322 88.9337 47.3541 88.0436 46.6194C87.1528 45.8311 86.4886 44.8188 86.1198 43.6873C85.7588 42.6326 85.5183 41.5404 85.4027 40.4315C85.1955 38.279 85.105 36.117 85.1317 33.9547C85.1317 31.8279 85.1317 29.7098 84.9305 27.6355C84.854 26.6191 84.702 25.6098 84.4758 24.616C84.2606 23.6962 83.8782 22.824 83.3478 22.0428C82.2003 20.4733 80.646 19.2475 78.853 18.4981C76.9915 17.6928 75.034 17.1309 73.0291 16.8264C72.0147 16.6571 70.9916 16.5346 69.9597 16.4588C68.9366 16.3887 67.8785 16.345 66.8903 16.3712L66.8291 14.0168Z" fill="#DAC061"/>
</svg>
