<svg width="41" height="28" viewBox="0 0 41 28" fill="none" xmlns="http://www.w3.org/2000/svg">
<path d="M9.39084 9.99024C14.2186 9.99024 18.1323 13.904 18.1323 18.7317C18.1323 23.5594 14.2186 27.4732 9.39084 27.4732C4.56305 27.4732 0.649376 23.5594 0.649376 18.7317L0.610352 17.4829C0.610352 7.82736 8.43771 0 18.0933 0V4.99512C14.7577 4.99512 11.6217 6.29409 9.26307 8.65272C8.80906 9.10681 8.3947 9.58993 8.02093 10.0974C8.46729 10.0272 8.92473 9.99024 9.39084 9.99024ZM31.8689 9.99024C36.6966 9.99024 40.6104 13.904 40.6104 18.7317C40.6104 23.5594 36.6966 27.4732 31.8689 27.4732C27.0412 27.4732 23.1274 23.5594 23.1274 18.7317L23.0884 17.4829C23.0884 7.82736 30.9157 0 40.5713 0V4.99512C37.2358 4.99512 34.0997 6.29409 31.7411 8.65272C31.287 9.10681 30.8727 9.58993 30.4989 10.0974C30.9453 10.0272 31.4027 9.99024 31.8689 9.99024Z" fill="#565E66"/>
</svg>
